%TF.GenerationSoftware,KiCad,Pcbnew,(6.0.10)*%
%TF.CreationDate,2023-01-20T16:48:07+01:00*%
%TF.ProjectId,greenhouse,67726565-6e68-46f7-9573-652e6b696361,rev?*%
%TF.SameCoordinates,Original*%
%TF.FileFunction,Drillmap*%
%TF.FilePolarity,Positive*%
%FSLAX45Y45*%
G04 Gerber Fmt 4.5, Leading zero omitted, Abs format (unit mm)*
G04 Created by KiCad (PCBNEW (6.0.10)) date 2023-01-20 16:48:07*
%MOMM*%
%LPD*%
G01*
G04 APERTURE LIST*
%ADD10C,0.120000*%
%ADD11C,0.200000*%
%ADD12C,0.040000*%
%ADD13C,0.070000*%
%ADD14C,0.076200*%
%ADD15C,0.095000*%
%ADD16C,0.100000*%
%ADD17C,0.110000*%
%ADD18C,0.152000*%
G04 APERTURE END LIST*
D10*
X10750000Y-5800000D02*
G75*
G03*
X10750000Y-5800000I-150000J0D01*
G01*
X10750000Y-14200000D02*
G75*
G03*
X10750000Y-14200000I-150000J0D01*
G01*
X20150000Y-14200000D02*
G75*
G03*
X20150000Y-14200000I-150000J0D01*
G01*
X20150000Y-5800000D02*
G75*
G03*
X20150000Y-5800000I-150000J0D01*
G01*
X10300000Y-5500000D02*
X10300000Y-14500000D01*
X20300000Y-14500000D02*
X10300000Y-14500000D01*
X20300000Y-5500000D02*
X20300000Y-14500000D01*
X10300000Y-5500000D02*
X20300000Y-5500000D01*
D11*
D12*
X13380000Y-9680000D02*
X13420000Y-9720000D01*
X13420000Y-9680000D02*
X13380000Y-9720000D01*
X13580000Y-12380000D02*
X13620000Y-12420000D01*
X13620000Y-12380000D02*
X13580000Y-12420000D01*
X16380000Y-11280000D02*
X16420000Y-11320000D01*
X16420000Y-11280000D02*
X16380000Y-11320000D01*
D13*
X13973000Y-13500000D02*
G75*
G03*
X13973000Y-13500000I-35000J0D01*
G01*
X13973000Y-13900000D02*
G75*
G03*
X13973000Y-13900000I-35000J0D01*
G01*
X14735000Y-13500000D02*
G75*
G03*
X14735000Y-13500000I-35000J0D01*
G01*
X14735000Y-13900000D02*
G75*
G03*
X14735000Y-13900000I-35000J0D01*
G01*
X15173000Y-13500000D02*
G75*
G03*
X15173000Y-13500000I-35000J0D01*
G01*
X15173000Y-13900000D02*
G75*
G03*
X15173000Y-13900000I-35000J0D01*
G01*
X15935000Y-13500000D02*
G75*
G03*
X15935000Y-13500000I-35000J0D01*
G01*
X15935000Y-13900000D02*
G75*
G03*
X15935000Y-13900000I-35000J0D01*
G01*
D14*
X13130000Y-8415900D02*
X13130000Y-8492100D01*
X13091900Y-8454000D02*
X13168100Y-8454000D01*
X13130000Y-8669900D02*
X13130000Y-8746100D01*
X13091900Y-8708000D02*
X13168100Y-8708000D01*
X13130000Y-8923900D02*
X13130000Y-9000100D01*
X13091900Y-8962000D02*
X13168100Y-8962000D01*
X13130000Y-9177900D02*
X13130000Y-9254100D01*
X13091900Y-9216000D02*
X13168100Y-9216000D01*
X13130000Y-9431900D02*
X13130000Y-9508100D01*
X13091900Y-9470000D02*
X13168100Y-9470000D01*
X13130000Y-9685900D02*
X13130000Y-9762100D01*
X13091900Y-9724000D02*
X13168100Y-9724000D01*
X13130000Y-9939900D02*
X13130000Y-10016100D01*
X13091900Y-9978000D02*
X13168100Y-9978000D01*
X13130000Y-10193900D02*
X13130000Y-10270100D01*
X13091900Y-10232000D02*
X13168100Y-10232000D01*
X13130000Y-10447900D02*
X13130000Y-10524100D01*
X13091900Y-10486000D02*
X13168100Y-10486000D01*
X13130000Y-10701900D02*
X13130000Y-10778100D01*
X13091900Y-10740000D02*
X13168100Y-10740000D01*
X13130000Y-10955900D02*
X13130000Y-11032100D01*
X13091900Y-10994000D02*
X13168100Y-10994000D01*
X13130000Y-11209900D02*
X13130000Y-11286100D01*
X13091900Y-11248000D02*
X13168100Y-11248000D01*
X13130000Y-11463900D02*
X13130000Y-11540100D01*
X13091900Y-11502000D02*
X13168100Y-11502000D01*
X13130000Y-11717900D02*
X13130000Y-11794100D01*
X13091900Y-11756000D02*
X13168100Y-11756000D01*
X13130000Y-11971900D02*
X13130000Y-12048100D01*
X13091900Y-12010000D02*
X13168100Y-12010000D01*
X15670000Y-8415900D02*
X15670000Y-8492100D01*
X15631900Y-8454000D02*
X15708100Y-8454000D01*
X15670000Y-8669900D02*
X15670000Y-8746100D01*
X15631900Y-8708000D02*
X15708100Y-8708000D01*
X15670000Y-8923900D02*
X15670000Y-9000100D01*
X15631900Y-8962000D02*
X15708100Y-8962000D01*
X15670000Y-9177900D02*
X15670000Y-9254100D01*
X15631900Y-9216000D02*
X15708100Y-9216000D01*
X15670000Y-9431900D02*
X15670000Y-9508100D01*
X15631900Y-9470000D02*
X15708100Y-9470000D01*
X15670000Y-9685900D02*
X15670000Y-9762100D01*
X15631900Y-9724000D02*
X15708100Y-9724000D01*
X15670000Y-9939900D02*
X15670000Y-10016100D01*
X15631900Y-9978000D02*
X15708100Y-9978000D01*
X15670000Y-10193900D02*
X15670000Y-10270100D01*
X15631900Y-10232000D02*
X15708100Y-10232000D01*
X15670000Y-10447900D02*
X15670000Y-10524100D01*
X15631900Y-10486000D02*
X15708100Y-10486000D01*
X15670000Y-10701900D02*
X15670000Y-10778100D01*
X15631900Y-10740000D02*
X15708100Y-10740000D01*
X15670000Y-10955900D02*
X15670000Y-11032100D01*
X15631900Y-10994000D02*
X15708100Y-10994000D01*
X15670000Y-11209900D02*
X15670000Y-11286100D01*
X15631900Y-11248000D02*
X15708100Y-11248000D01*
X15670000Y-11463900D02*
X15670000Y-11540100D01*
X15631900Y-11502000D02*
X15708100Y-11502000D01*
X15670000Y-11717900D02*
X15670000Y-11794100D01*
X15631900Y-11756000D02*
X15708100Y-11756000D01*
X15670000Y-11971900D02*
X15670000Y-12048100D01*
X15631900Y-12010000D02*
X15708100Y-12010000D01*
D15*
X10683588Y-9633588D02*
X10683588Y-9566412D01*
X10616412Y-9566412D01*
X10616412Y-9633588D01*
X10683588Y-9633588D01*
X10933588Y-9633588D02*
X10933588Y-9566412D01*
X10866412Y-9566412D01*
X10866412Y-9633588D01*
X10933588Y-9633588D01*
X10933588Y-11533588D02*
X10933588Y-11466412D01*
X10866412Y-11466412D01*
X10866412Y-11533588D01*
X10933588Y-11533588D01*
X10933588Y-12433588D02*
X10933588Y-12366412D01*
X10866412Y-12366412D01*
X10866412Y-12433588D01*
X10933588Y-12433588D01*
X11183588Y-9633588D02*
X11183588Y-9566412D01*
X11116412Y-9566412D01*
X11116412Y-9633588D01*
X11183588Y-9633588D01*
X11183588Y-11533588D02*
X11183588Y-11466412D01*
X11116412Y-11466412D01*
X11116412Y-11533588D01*
X11183588Y-11533588D01*
X11183588Y-12433588D02*
X11183588Y-12366412D01*
X11116412Y-12366412D01*
X11116412Y-12433588D01*
X11183588Y-12433588D01*
X11433588Y-9633588D02*
X11433588Y-9566412D01*
X11366412Y-9566412D01*
X11366412Y-9633588D01*
X11433588Y-9633588D01*
X11433588Y-11533588D02*
X11433588Y-11466412D01*
X11366412Y-11466412D01*
X11366412Y-11533588D01*
X11433588Y-11533588D01*
X11433588Y-12433588D02*
X11433588Y-12366412D01*
X11366412Y-12366412D01*
X11366412Y-12433588D01*
X11433588Y-12433588D01*
X11683588Y-9633588D02*
X11683588Y-9566412D01*
X11616412Y-9566412D01*
X11616412Y-9633588D01*
X11683588Y-9633588D01*
X11683588Y-11533588D02*
X11683588Y-11466412D01*
X11616412Y-11466412D01*
X11616412Y-11533588D01*
X11683588Y-11533588D01*
X11683588Y-12433588D02*
X11683588Y-12366412D01*
X11616412Y-12366412D01*
X11616412Y-12433588D01*
X11683588Y-12433588D01*
X11933588Y-9633588D02*
X11933588Y-9566412D01*
X11866412Y-9566412D01*
X11866412Y-9633588D01*
X11933588Y-9633588D01*
X12033588Y-6383588D02*
X12033588Y-6316412D01*
X11966412Y-6316412D01*
X11966412Y-6383588D01*
X12033588Y-6383588D01*
X12033588Y-6633588D02*
X12033588Y-6566412D01*
X11966412Y-6566412D01*
X11966412Y-6633588D01*
X12033588Y-6633588D01*
X12033588Y-6883588D02*
X12033588Y-6816412D01*
X11966412Y-6816412D01*
X11966412Y-6883588D01*
X12033588Y-6883588D01*
X12033588Y-7133588D02*
X12033588Y-7066412D01*
X11966412Y-7066412D01*
X11966412Y-7133588D01*
X12033588Y-7133588D01*
X12033588Y-7383588D02*
X12033588Y-7316412D01*
X11966412Y-7316412D01*
X11966412Y-7383588D01*
X12033588Y-7383588D01*
X12033588Y-7633588D02*
X12033588Y-7566412D01*
X11966412Y-7566412D01*
X11966412Y-7633588D01*
X12033588Y-7633588D01*
X12033588Y-7883588D02*
X12033588Y-7816412D01*
X11966412Y-7816412D01*
X11966412Y-7883588D01*
X12033588Y-7883588D01*
X12033588Y-8133588D02*
X12033588Y-8066412D01*
X11966412Y-8066412D01*
X11966412Y-8133588D01*
X12033588Y-8133588D01*
X12183588Y-9633588D02*
X12183588Y-9566412D01*
X12116412Y-9566412D01*
X12116412Y-9633588D01*
X12183588Y-9633588D01*
X12433588Y-9633588D02*
X12433588Y-9566412D01*
X12366412Y-9566412D01*
X12366412Y-9633588D01*
X12433588Y-9633588D01*
X13433588Y-6033588D02*
X13433588Y-5966412D01*
X13366412Y-5966412D01*
X13366412Y-6033588D01*
X13433588Y-6033588D01*
X13433588Y-6283588D02*
X13433588Y-6216412D01*
X13366412Y-6216412D01*
X13366412Y-6283588D01*
X13433588Y-6283588D01*
X13433588Y-6533588D02*
X13433588Y-6466412D01*
X13366412Y-6466412D01*
X13366412Y-6533588D01*
X13433588Y-6533588D01*
X13433588Y-6783588D02*
X13433588Y-6716412D01*
X13366412Y-6716412D01*
X13366412Y-6783588D01*
X13433588Y-6783588D01*
X13433588Y-7033588D02*
X13433588Y-6966412D01*
X13366412Y-6966412D01*
X13366412Y-7033588D01*
X13433588Y-7033588D01*
X14333588Y-6033588D02*
X14333588Y-5966412D01*
X14266412Y-5966412D01*
X14266412Y-6033588D01*
X14333588Y-6033588D01*
X14333588Y-6283588D02*
X14333588Y-6216412D01*
X14266412Y-6216412D01*
X14266412Y-6283588D01*
X14333588Y-6283588D01*
X14333588Y-6533588D02*
X14333588Y-6466412D01*
X14266412Y-6466412D01*
X14266412Y-6533588D01*
X14333588Y-6533588D01*
X14333588Y-6783588D02*
X14333588Y-6716412D01*
X14266412Y-6716412D01*
X14266412Y-6783588D01*
X14333588Y-6783588D01*
X14333588Y-7033588D02*
X14333588Y-6966412D01*
X14266412Y-6966412D01*
X14266412Y-7033588D01*
X14333588Y-7033588D01*
X15133588Y-6033588D02*
X15133588Y-5966412D01*
X15066412Y-5966412D01*
X15066412Y-6033588D01*
X15133588Y-6033588D01*
X15133588Y-6283588D02*
X15133588Y-6216412D01*
X15066412Y-6216412D01*
X15066412Y-6283588D01*
X15133588Y-6283588D01*
X15133588Y-6533588D02*
X15133588Y-6466412D01*
X15066412Y-6466412D01*
X15066412Y-6533588D01*
X15133588Y-6533588D01*
X15133588Y-6783588D02*
X15133588Y-6716412D01*
X15066412Y-6716412D01*
X15066412Y-6783588D01*
X15133588Y-6783588D01*
X15133588Y-7033588D02*
X15133588Y-6966412D01*
X15066412Y-6966412D01*
X15066412Y-7033588D01*
X15133588Y-7033588D01*
X16033588Y-6033588D02*
X16033588Y-5966412D01*
X15966412Y-5966412D01*
X15966412Y-6033588D01*
X16033588Y-6033588D01*
X16033588Y-6283588D02*
X16033588Y-6216412D01*
X15966412Y-6216412D01*
X15966412Y-6283588D01*
X16033588Y-6283588D01*
X16033588Y-6533588D02*
X16033588Y-6466412D01*
X15966412Y-6466412D01*
X15966412Y-6533588D01*
X16033588Y-6533588D01*
X16033588Y-6783588D02*
X16033588Y-6716412D01*
X15966412Y-6716412D01*
X15966412Y-6783588D01*
X16033588Y-6783588D01*
X16033588Y-7033588D02*
X16033588Y-6966412D01*
X15966412Y-6966412D01*
X15966412Y-7033588D01*
X16033588Y-7033588D01*
X16783588Y-11333588D02*
X16783588Y-11266412D01*
X16716412Y-11266412D01*
X16716412Y-11333588D01*
X16783588Y-11333588D01*
X16833588Y-12133588D02*
X16833588Y-12066412D01*
X16766412Y-12066412D01*
X16766412Y-12133588D01*
X16833588Y-12133588D01*
X17033588Y-11333588D02*
X17033588Y-11266412D01*
X16966412Y-11266412D01*
X16966412Y-11333588D01*
X17033588Y-11333588D01*
X17083588Y-12133588D02*
X17083588Y-12066412D01*
X17016412Y-12066412D01*
X17016412Y-12133588D01*
X17083588Y-12133588D01*
X17133588Y-8633588D02*
X17133588Y-8566412D01*
X17066412Y-8566412D01*
X17066412Y-8633588D01*
X17133588Y-8633588D01*
X17133588Y-8883588D02*
X17133588Y-8816412D01*
X17066412Y-8816412D01*
X17066412Y-8883588D01*
X17133588Y-8883588D01*
X17133588Y-9133588D02*
X17133588Y-9066412D01*
X17066412Y-9066412D01*
X17066412Y-9133588D01*
X17133588Y-9133588D01*
X17133588Y-9383588D02*
X17133588Y-9316412D01*
X17066412Y-9316412D01*
X17066412Y-9383588D01*
X17133588Y-9383588D01*
X17133588Y-9633588D02*
X17133588Y-9566412D01*
X17066412Y-9566412D01*
X17066412Y-9633588D01*
X17133588Y-9633588D01*
X17133588Y-9883588D02*
X17133588Y-9816412D01*
X17066412Y-9816412D01*
X17066412Y-9883588D01*
X17133588Y-9883588D01*
X17133588Y-10133588D02*
X17133588Y-10066412D01*
X17066412Y-10066412D01*
X17066412Y-10133588D01*
X17133588Y-10133588D01*
X17283588Y-11333588D02*
X17283588Y-11266412D01*
X17216412Y-11266412D01*
X17216412Y-11333588D01*
X17283588Y-11333588D01*
X17333588Y-12133588D02*
X17333588Y-12066412D01*
X17266412Y-12066412D01*
X17266412Y-12133588D01*
X17333588Y-12133588D01*
X17533588Y-11333588D02*
X17533588Y-11266412D01*
X17466412Y-11266412D01*
X17466412Y-11333588D01*
X17533588Y-11333588D01*
X17583588Y-12133588D02*
X17583588Y-12066412D01*
X17516412Y-12066412D01*
X17516412Y-12133588D01*
X17583588Y-12133588D01*
X18933588Y-6133588D02*
X18933588Y-6066412D01*
X18866412Y-6066412D01*
X18866412Y-6133588D01*
X18933588Y-6133588D01*
X18933588Y-6383588D02*
X18933588Y-6316412D01*
X18866412Y-6316412D01*
X18866412Y-6383588D01*
X18933588Y-6383588D01*
X18933588Y-6633588D02*
X18933588Y-6566412D01*
X18866412Y-6566412D01*
X18866412Y-6633588D01*
X18933588Y-6633588D01*
D16*
X11400000Y-10550000D02*
X11450000Y-10500000D01*
X11400000Y-10450000D01*
X11350000Y-10500000D01*
X11400000Y-10550000D01*
X11650000Y-10550000D02*
X11700000Y-10500000D01*
X11650000Y-10450000D01*
X11600000Y-10500000D01*
X11650000Y-10550000D01*
X17292000Y-6550000D02*
X17342000Y-6500000D01*
X17292000Y-6450000D01*
X17242000Y-6500000D01*
X17292000Y-6550000D01*
X17546000Y-6150000D02*
X17596000Y-6100000D01*
X17546000Y-6050000D01*
X17496000Y-6100000D01*
X17546000Y-6150000D01*
X17546000Y-6550000D02*
X17596000Y-6500000D01*
X17546000Y-6450000D01*
X17496000Y-6500000D01*
X17546000Y-6550000D01*
X17800000Y-6150000D02*
X17850000Y-6100000D01*
X17800000Y-6050000D01*
X17750000Y-6100000D01*
X17800000Y-6150000D01*
X17800000Y-6550000D02*
X17850000Y-6500000D01*
X17800000Y-6450000D01*
X17750000Y-6500000D01*
X17800000Y-6550000D01*
D17*
X18845000Y-7473000D02*
X18955000Y-7583000D01*
X18955000Y-7473000D02*
X18845000Y-7583000D01*
X18955000Y-7528000D02*
G75*
G03*
X18955000Y-7528000I-55000J0D01*
G01*
X18845000Y-7981000D02*
X18955000Y-8091000D01*
X18955000Y-7981000D02*
X18845000Y-8091000D01*
X18955000Y-8036000D02*
G75*
G03*
X18955000Y-8036000I-55000J0D01*
G01*
X18845000Y-8489000D02*
X18955000Y-8599000D01*
X18955000Y-8489000D02*
X18845000Y-8599000D01*
X18955000Y-8544000D02*
G75*
G03*
X18955000Y-8544000I-55000J0D01*
G01*
X18845000Y-8997000D02*
X18955000Y-9107000D01*
X18955000Y-8997000D02*
X18845000Y-9107000D01*
X18955000Y-9052000D02*
G75*
G03*
X18955000Y-9052000I-55000J0D01*
G01*
X18845000Y-9505000D02*
X18955000Y-9615000D01*
X18955000Y-9505000D02*
X18845000Y-9615000D01*
X18955000Y-9560000D02*
G75*
G03*
X18955000Y-9560000I-55000J0D01*
G01*
X18845000Y-10013000D02*
X18955000Y-10123000D01*
X18955000Y-10013000D02*
X18845000Y-10123000D01*
X18955000Y-10068000D02*
G75*
G03*
X18955000Y-10068000I-55000J0D01*
G01*
X18845000Y-10521000D02*
X18955000Y-10631000D01*
X18955000Y-10521000D02*
X18845000Y-10631000D01*
X18955000Y-10576000D02*
G75*
G03*
X18955000Y-10576000I-55000J0D01*
G01*
X18845000Y-11029000D02*
X18955000Y-11139000D01*
X18955000Y-11029000D02*
X18845000Y-11139000D01*
X18955000Y-11084000D02*
G75*
G03*
X18955000Y-11084000I-55000J0D01*
G01*
X18845000Y-11537000D02*
X18955000Y-11647000D01*
X18955000Y-11537000D02*
X18845000Y-11647000D01*
X18955000Y-11592000D02*
G75*
G03*
X18955000Y-11592000I-55000J0D01*
G01*
X18845000Y-12045000D02*
X18955000Y-12155000D01*
X18955000Y-12045000D02*
X18845000Y-12155000D01*
X18955000Y-12100000D02*
G75*
G03*
X18955000Y-12100000I-55000J0D01*
G01*
D18*
X18824000Y-12824000D02*
X18976000Y-12976000D01*
X18976000Y-12824000D02*
X18824000Y-12976000D01*
X18900000Y-12824000D02*
X18900000Y-12976000D01*
X18824000Y-12900000D02*
X18976000Y-12900000D01*
X18824000Y-13332000D02*
X18976000Y-13484000D01*
X18976000Y-13332000D02*
X18824000Y-13484000D01*
X18900000Y-13332000D02*
X18900000Y-13484000D01*
X18824000Y-13408000D02*
X18976000Y-13408000D01*
X18824000Y-13840000D02*
X18976000Y-13992000D01*
X18976000Y-13840000D02*
X18824000Y-13992000D01*
X18900000Y-13840000D02*
X18900000Y-13992000D01*
X18824000Y-13916000D02*
X18976000Y-13916000D01*
D11*
X10551619Y-14816476D02*
X10551619Y-14616476D01*
X10599238Y-14616476D01*
X10627810Y-14626000D01*
X10646857Y-14645048D01*
X10656381Y-14664095D01*
X10665905Y-14702190D01*
X10665905Y-14730762D01*
X10656381Y-14768857D01*
X10646857Y-14787905D01*
X10627810Y-14806952D01*
X10599238Y-14816476D01*
X10551619Y-14816476D01*
X10751619Y-14816476D02*
X10751619Y-14683143D01*
X10751619Y-14721238D02*
X10761143Y-14702190D01*
X10770667Y-14692667D01*
X10789714Y-14683143D01*
X10808762Y-14683143D01*
X10875429Y-14816476D02*
X10875429Y-14683143D01*
X10875429Y-14616476D02*
X10865905Y-14626000D01*
X10875429Y-14635524D01*
X10884952Y-14626000D01*
X10875429Y-14616476D01*
X10875429Y-14635524D01*
X10999238Y-14816476D02*
X10980190Y-14806952D01*
X10970667Y-14787905D01*
X10970667Y-14616476D01*
X11104000Y-14816476D02*
X11084952Y-14806952D01*
X11075429Y-14787905D01*
X11075429Y-14616476D01*
X11332571Y-14816476D02*
X11332571Y-14616476D01*
X11399238Y-14759333D01*
X11465905Y-14616476D01*
X11465905Y-14816476D01*
X11646857Y-14816476D02*
X11646857Y-14711714D01*
X11637333Y-14692667D01*
X11618286Y-14683143D01*
X11580190Y-14683143D01*
X11561143Y-14692667D01*
X11646857Y-14806952D02*
X11627809Y-14816476D01*
X11580190Y-14816476D01*
X11561143Y-14806952D01*
X11551619Y-14787905D01*
X11551619Y-14768857D01*
X11561143Y-14749809D01*
X11580190Y-14740286D01*
X11627809Y-14740286D01*
X11646857Y-14730762D01*
X11742095Y-14683143D02*
X11742095Y-14883143D01*
X11742095Y-14692667D02*
X11761143Y-14683143D01*
X11799238Y-14683143D01*
X11818286Y-14692667D01*
X11827809Y-14702190D01*
X11837333Y-14721238D01*
X11837333Y-14778381D01*
X11827809Y-14797428D01*
X11818286Y-14806952D01*
X11799238Y-14816476D01*
X11761143Y-14816476D01*
X11742095Y-14806952D01*
X11923048Y-14797428D02*
X11932571Y-14806952D01*
X11923048Y-14816476D01*
X11913524Y-14806952D01*
X11923048Y-14797428D01*
X11923048Y-14816476D01*
X11923048Y-14692667D02*
X11932571Y-14702190D01*
X11923048Y-14711714D01*
X11913524Y-14702190D01*
X11923048Y-14692667D01*
X11923048Y-14711714D01*
D12*
X10254000Y-15126000D02*
X10294000Y-15166000D01*
X10294000Y-15126000D02*
X10254000Y-15166000D01*
D11*
X10589714Y-15036476D02*
X10608762Y-15036476D01*
X10627810Y-15046000D01*
X10637333Y-15055524D01*
X10646857Y-15074571D01*
X10656381Y-15112667D01*
X10656381Y-15160286D01*
X10646857Y-15198381D01*
X10637333Y-15217428D01*
X10627810Y-15226952D01*
X10608762Y-15236476D01*
X10589714Y-15236476D01*
X10570667Y-15226952D01*
X10561143Y-15217428D01*
X10551619Y-15198381D01*
X10542095Y-15160286D01*
X10542095Y-15112667D01*
X10551619Y-15074571D01*
X10561143Y-15055524D01*
X10570667Y-15046000D01*
X10589714Y-15036476D01*
X10742095Y-15217428D02*
X10751619Y-15226952D01*
X10742095Y-15236476D01*
X10732571Y-15226952D01*
X10742095Y-15217428D01*
X10742095Y-15236476D01*
X10923048Y-15103143D02*
X10923048Y-15236476D01*
X10875429Y-15026952D02*
X10827810Y-15169809D01*
X10951619Y-15169809D01*
X11065905Y-15036476D02*
X11084952Y-15036476D01*
X11104000Y-15046000D01*
X11113524Y-15055524D01*
X11123048Y-15074571D01*
X11132571Y-15112667D01*
X11132571Y-15160286D01*
X11123048Y-15198381D01*
X11113524Y-15217428D01*
X11104000Y-15226952D01*
X11084952Y-15236476D01*
X11065905Y-15236476D01*
X11046857Y-15226952D01*
X11037333Y-15217428D01*
X11027810Y-15198381D01*
X11018286Y-15160286D01*
X11018286Y-15112667D01*
X11027810Y-15074571D01*
X11037333Y-15055524D01*
X11046857Y-15046000D01*
X11065905Y-15036476D01*
X11256381Y-15036476D02*
X11275428Y-15036476D01*
X11294476Y-15046000D01*
X11304000Y-15055524D01*
X11313524Y-15074571D01*
X11323048Y-15112667D01*
X11323048Y-15160286D01*
X11313524Y-15198381D01*
X11304000Y-15217428D01*
X11294476Y-15226952D01*
X11275428Y-15236476D01*
X11256381Y-15236476D01*
X11237333Y-15226952D01*
X11227809Y-15217428D01*
X11218286Y-15198381D01*
X11208762Y-15160286D01*
X11208762Y-15112667D01*
X11218286Y-15074571D01*
X11227809Y-15055524D01*
X11237333Y-15046000D01*
X11256381Y-15036476D01*
X11408762Y-15236476D02*
X11408762Y-15103143D01*
X11408762Y-15122190D02*
X11418286Y-15112667D01*
X11437333Y-15103143D01*
X11465905Y-15103143D01*
X11484952Y-15112667D01*
X11494476Y-15131714D01*
X11494476Y-15236476D01*
X11494476Y-15131714D02*
X11504000Y-15112667D01*
X11523048Y-15103143D01*
X11551619Y-15103143D01*
X11570667Y-15112667D01*
X11580190Y-15131714D01*
X11580190Y-15236476D01*
X11675428Y-15236476D02*
X11675428Y-15103143D01*
X11675428Y-15122190D02*
X11684952Y-15112667D01*
X11704000Y-15103143D01*
X11732571Y-15103143D01*
X11751619Y-15112667D01*
X11761143Y-15131714D01*
X11761143Y-15236476D01*
X11761143Y-15131714D02*
X11770667Y-15112667D01*
X11789714Y-15103143D01*
X11818286Y-15103143D01*
X11837333Y-15112667D01*
X11846857Y-15131714D01*
X11846857Y-15236476D01*
X12237333Y-15026952D02*
X12065905Y-15284095D01*
X12494476Y-15036476D02*
X12513524Y-15036476D01*
X12532571Y-15046000D01*
X12542095Y-15055524D01*
X12551619Y-15074571D01*
X12561143Y-15112667D01*
X12561143Y-15160286D01*
X12551619Y-15198381D01*
X12542095Y-15217428D01*
X12532571Y-15226952D01*
X12513524Y-15236476D01*
X12494476Y-15236476D01*
X12475428Y-15226952D01*
X12465905Y-15217428D01*
X12456381Y-15198381D01*
X12446857Y-15160286D01*
X12446857Y-15112667D01*
X12456381Y-15074571D01*
X12465905Y-15055524D01*
X12475428Y-15046000D01*
X12494476Y-15036476D01*
X12646857Y-15217428D02*
X12656381Y-15226952D01*
X12646857Y-15236476D01*
X12637333Y-15226952D01*
X12646857Y-15217428D01*
X12646857Y-15236476D01*
X12780190Y-15036476D02*
X12799238Y-15036476D01*
X12818286Y-15046000D01*
X12827809Y-15055524D01*
X12837333Y-15074571D01*
X12846857Y-15112667D01*
X12846857Y-15160286D01*
X12837333Y-15198381D01*
X12827809Y-15217428D01*
X12818286Y-15226952D01*
X12799238Y-15236476D01*
X12780190Y-15236476D01*
X12761143Y-15226952D01*
X12751619Y-15217428D01*
X12742095Y-15198381D01*
X12732571Y-15160286D01*
X12732571Y-15112667D01*
X12742095Y-15074571D01*
X12751619Y-15055524D01*
X12761143Y-15046000D01*
X12780190Y-15036476D01*
X13037333Y-15236476D02*
X12923048Y-15236476D01*
X12980190Y-15236476D02*
X12980190Y-15036476D01*
X12961143Y-15065048D01*
X12942095Y-15084095D01*
X12923048Y-15093619D01*
X13218286Y-15036476D02*
X13123048Y-15036476D01*
X13113524Y-15131714D01*
X13123048Y-15122190D01*
X13142095Y-15112667D01*
X13189714Y-15112667D01*
X13208762Y-15122190D01*
X13218286Y-15131714D01*
X13227809Y-15150762D01*
X13227809Y-15198381D01*
X13218286Y-15217428D01*
X13208762Y-15226952D01*
X13189714Y-15236476D01*
X13142095Y-15236476D01*
X13123048Y-15226952D01*
X13113524Y-15217428D01*
X13294476Y-15036476D02*
X13427809Y-15036476D01*
X13342095Y-15236476D01*
X13494476Y-15036476D02*
X13494476Y-15074571D01*
X13570667Y-15036476D02*
X13570667Y-15074571D01*
X13865905Y-15312667D02*
X13856381Y-15303143D01*
X13837333Y-15274571D01*
X13827809Y-15255524D01*
X13818286Y-15226952D01*
X13808762Y-15179333D01*
X13808762Y-15141238D01*
X13818286Y-15093619D01*
X13827809Y-15065048D01*
X13837333Y-15046000D01*
X13856381Y-15017428D01*
X13865905Y-15007905D01*
X13923048Y-15036476D02*
X14046857Y-15036476D01*
X13980190Y-15112667D01*
X14008762Y-15112667D01*
X14027809Y-15122190D01*
X14037333Y-15131714D01*
X14046857Y-15150762D01*
X14046857Y-15198381D01*
X14037333Y-15217428D01*
X14027809Y-15226952D01*
X14008762Y-15236476D01*
X13951619Y-15236476D01*
X13932571Y-15226952D01*
X13923048Y-15217428D01*
X14284952Y-15236476D02*
X14284952Y-15036476D01*
X14370667Y-15236476D02*
X14370667Y-15131714D01*
X14361143Y-15112667D01*
X14342095Y-15103143D01*
X14313524Y-15103143D01*
X14294476Y-15112667D01*
X14284952Y-15122190D01*
X14494476Y-15236476D02*
X14475428Y-15226952D01*
X14465905Y-15217428D01*
X14456381Y-15198381D01*
X14456381Y-15141238D01*
X14465905Y-15122190D01*
X14475428Y-15112667D01*
X14494476Y-15103143D01*
X14523048Y-15103143D01*
X14542095Y-15112667D01*
X14551619Y-15122190D01*
X14561143Y-15141238D01*
X14561143Y-15198381D01*
X14551619Y-15217428D01*
X14542095Y-15226952D01*
X14523048Y-15236476D01*
X14494476Y-15236476D01*
X14675428Y-15236476D02*
X14656381Y-15226952D01*
X14646857Y-15207905D01*
X14646857Y-15036476D01*
X14827809Y-15226952D02*
X14808762Y-15236476D01*
X14770667Y-15236476D01*
X14751619Y-15226952D01*
X14742095Y-15207905D01*
X14742095Y-15131714D01*
X14751619Y-15112667D01*
X14770667Y-15103143D01*
X14808762Y-15103143D01*
X14827809Y-15112667D01*
X14837333Y-15131714D01*
X14837333Y-15150762D01*
X14742095Y-15169809D01*
X14913524Y-15226952D02*
X14932571Y-15236476D01*
X14970667Y-15236476D01*
X14989714Y-15226952D01*
X14999238Y-15207905D01*
X14999238Y-15198381D01*
X14989714Y-15179333D01*
X14970667Y-15169809D01*
X14942095Y-15169809D01*
X14923048Y-15160286D01*
X14913524Y-15141238D01*
X14913524Y-15131714D01*
X14923048Y-15112667D01*
X14942095Y-15103143D01*
X14970667Y-15103143D01*
X14989714Y-15112667D01*
X15065905Y-15312667D02*
X15075428Y-15303143D01*
X15094476Y-15274571D01*
X15104000Y-15255524D01*
X15113524Y-15226952D01*
X15123048Y-15179333D01*
X15123048Y-15141238D01*
X15113524Y-15093619D01*
X15104000Y-15065048D01*
X15094476Y-15046000D01*
X15075428Y-15017428D01*
X15065905Y-15007905D01*
D13*
X10294000Y-15410000D02*
G75*
G03*
X10294000Y-15410000I-35000J0D01*
G01*
D11*
X10589714Y-15300476D02*
X10608762Y-15300476D01*
X10627810Y-15310000D01*
X10637333Y-15319524D01*
X10646857Y-15338571D01*
X10656381Y-15376667D01*
X10656381Y-15424286D01*
X10646857Y-15462381D01*
X10637333Y-15481428D01*
X10627810Y-15490952D01*
X10608762Y-15500476D01*
X10589714Y-15500476D01*
X10570667Y-15490952D01*
X10561143Y-15481428D01*
X10551619Y-15462381D01*
X10542095Y-15424286D01*
X10542095Y-15376667D01*
X10551619Y-15338571D01*
X10561143Y-15319524D01*
X10570667Y-15310000D01*
X10589714Y-15300476D01*
X10742095Y-15481428D02*
X10751619Y-15490952D01*
X10742095Y-15500476D01*
X10732571Y-15490952D01*
X10742095Y-15481428D01*
X10742095Y-15500476D01*
X10818286Y-15300476D02*
X10951619Y-15300476D01*
X10865905Y-15500476D01*
X11065905Y-15300476D02*
X11084952Y-15300476D01*
X11104000Y-15310000D01*
X11113524Y-15319524D01*
X11123048Y-15338571D01*
X11132571Y-15376667D01*
X11132571Y-15424286D01*
X11123048Y-15462381D01*
X11113524Y-15481428D01*
X11104000Y-15490952D01*
X11084952Y-15500476D01*
X11065905Y-15500476D01*
X11046857Y-15490952D01*
X11037333Y-15481428D01*
X11027810Y-15462381D01*
X11018286Y-15424286D01*
X11018286Y-15376667D01*
X11027810Y-15338571D01*
X11037333Y-15319524D01*
X11046857Y-15310000D01*
X11065905Y-15300476D01*
X11256381Y-15300476D02*
X11275428Y-15300476D01*
X11294476Y-15310000D01*
X11304000Y-15319524D01*
X11313524Y-15338571D01*
X11323048Y-15376667D01*
X11323048Y-15424286D01*
X11313524Y-15462381D01*
X11304000Y-15481428D01*
X11294476Y-15490952D01*
X11275428Y-15500476D01*
X11256381Y-15500476D01*
X11237333Y-15490952D01*
X11227809Y-15481428D01*
X11218286Y-15462381D01*
X11208762Y-15424286D01*
X11208762Y-15376667D01*
X11218286Y-15338571D01*
X11227809Y-15319524D01*
X11237333Y-15310000D01*
X11256381Y-15300476D01*
X11408762Y-15500476D02*
X11408762Y-15367143D01*
X11408762Y-15386190D02*
X11418286Y-15376667D01*
X11437333Y-15367143D01*
X11465905Y-15367143D01*
X11484952Y-15376667D01*
X11494476Y-15395714D01*
X11494476Y-15500476D01*
X11494476Y-15395714D02*
X11504000Y-15376667D01*
X11523048Y-15367143D01*
X11551619Y-15367143D01*
X11570667Y-15376667D01*
X11580190Y-15395714D01*
X11580190Y-15500476D01*
X11675428Y-15500476D02*
X11675428Y-15367143D01*
X11675428Y-15386190D02*
X11684952Y-15376667D01*
X11704000Y-15367143D01*
X11732571Y-15367143D01*
X11751619Y-15376667D01*
X11761143Y-15395714D01*
X11761143Y-15500476D01*
X11761143Y-15395714D02*
X11770667Y-15376667D01*
X11789714Y-15367143D01*
X11818286Y-15367143D01*
X11837333Y-15376667D01*
X11846857Y-15395714D01*
X11846857Y-15500476D01*
X12237333Y-15290952D02*
X12065905Y-15548095D01*
X12494476Y-15300476D02*
X12513524Y-15300476D01*
X12532571Y-15310000D01*
X12542095Y-15319524D01*
X12551619Y-15338571D01*
X12561143Y-15376667D01*
X12561143Y-15424286D01*
X12551619Y-15462381D01*
X12542095Y-15481428D01*
X12532571Y-15490952D01*
X12513524Y-15500476D01*
X12494476Y-15500476D01*
X12475428Y-15490952D01*
X12465905Y-15481428D01*
X12456381Y-15462381D01*
X12446857Y-15424286D01*
X12446857Y-15376667D01*
X12456381Y-15338571D01*
X12465905Y-15319524D01*
X12475428Y-15310000D01*
X12494476Y-15300476D01*
X12646857Y-15481428D02*
X12656381Y-15490952D01*
X12646857Y-15500476D01*
X12637333Y-15490952D01*
X12646857Y-15481428D01*
X12646857Y-15500476D01*
X12780190Y-15300476D02*
X12799238Y-15300476D01*
X12818286Y-15310000D01*
X12827809Y-15319524D01*
X12837333Y-15338571D01*
X12846857Y-15376667D01*
X12846857Y-15424286D01*
X12837333Y-15462381D01*
X12827809Y-15481428D01*
X12818286Y-15490952D01*
X12799238Y-15500476D01*
X12780190Y-15500476D01*
X12761143Y-15490952D01*
X12751619Y-15481428D01*
X12742095Y-15462381D01*
X12732571Y-15424286D01*
X12732571Y-15376667D01*
X12742095Y-15338571D01*
X12751619Y-15319524D01*
X12761143Y-15310000D01*
X12780190Y-15300476D01*
X12923048Y-15319524D02*
X12932571Y-15310000D01*
X12951619Y-15300476D01*
X12999238Y-15300476D01*
X13018286Y-15310000D01*
X13027809Y-15319524D01*
X13037333Y-15338571D01*
X13037333Y-15357619D01*
X13027809Y-15386190D01*
X12913524Y-15500476D01*
X13037333Y-15500476D01*
X13104000Y-15300476D02*
X13237333Y-15300476D01*
X13151619Y-15500476D01*
X13399238Y-15300476D02*
X13361143Y-15300476D01*
X13342095Y-15310000D01*
X13332571Y-15319524D01*
X13313524Y-15348095D01*
X13304000Y-15386190D01*
X13304000Y-15462381D01*
X13313524Y-15481428D01*
X13323048Y-15490952D01*
X13342095Y-15500476D01*
X13380190Y-15500476D01*
X13399238Y-15490952D01*
X13408762Y-15481428D01*
X13418286Y-15462381D01*
X13418286Y-15414762D01*
X13408762Y-15395714D01*
X13399238Y-15386190D01*
X13380190Y-15376667D01*
X13342095Y-15376667D01*
X13323048Y-15386190D01*
X13313524Y-15395714D01*
X13304000Y-15414762D01*
X13494476Y-15300476D02*
X13494476Y-15338571D01*
X13570667Y-15300476D02*
X13570667Y-15338571D01*
X13865905Y-15576667D02*
X13856381Y-15567143D01*
X13837333Y-15538571D01*
X13827809Y-15519524D01*
X13818286Y-15490952D01*
X13808762Y-15443333D01*
X13808762Y-15405238D01*
X13818286Y-15357619D01*
X13827809Y-15329048D01*
X13837333Y-15310000D01*
X13856381Y-15281428D01*
X13865905Y-15271905D01*
X13970667Y-15386190D02*
X13951619Y-15376667D01*
X13942095Y-15367143D01*
X13932571Y-15348095D01*
X13932571Y-15338571D01*
X13942095Y-15319524D01*
X13951619Y-15310000D01*
X13970667Y-15300476D01*
X14008762Y-15300476D01*
X14027809Y-15310000D01*
X14037333Y-15319524D01*
X14046857Y-15338571D01*
X14046857Y-15348095D01*
X14037333Y-15367143D01*
X14027809Y-15376667D01*
X14008762Y-15386190D01*
X13970667Y-15386190D01*
X13951619Y-15395714D01*
X13942095Y-15405238D01*
X13932571Y-15424286D01*
X13932571Y-15462381D01*
X13942095Y-15481428D01*
X13951619Y-15490952D01*
X13970667Y-15500476D01*
X14008762Y-15500476D01*
X14027809Y-15490952D01*
X14037333Y-15481428D01*
X14046857Y-15462381D01*
X14046857Y-15424286D01*
X14037333Y-15405238D01*
X14027809Y-15395714D01*
X14008762Y-15386190D01*
X14284952Y-15500476D02*
X14284952Y-15300476D01*
X14370667Y-15500476D02*
X14370667Y-15395714D01*
X14361143Y-15376667D01*
X14342095Y-15367143D01*
X14313524Y-15367143D01*
X14294476Y-15376667D01*
X14284952Y-15386190D01*
X14494476Y-15500476D02*
X14475428Y-15490952D01*
X14465905Y-15481428D01*
X14456381Y-15462381D01*
X14456381Y-15405238D01*
X14465905Y-15386190D01*
X14475428Y-15376667D01*
X14494476Y-15367143D01*
X14523048Y-15367143D01*
X14542095Y-15376667D01*
X14551619Y-15386190D01*
X14561143Y-15405238D01*
X14561143Y-15462381D01*
X14551619Y-15481428D01*
X14542095Y-15490952D01*
X14523048Y-15500476D01*
X14494476Y-15500476D01*
X14675428Y-15500476D02*
X14656381Y-15490952D01*
X14646857Y-15471905D01*
X14646857Y-15300476D01*
X14827809Y-15490952D02*
X14808762Y-15500476D01*
X14770667Y-15500476D01*
X14751619Y-15490952D01*
X14742095Y-15471905D01*
X14742095Y-15395714D01*
X14751619Y-15376667D01*
X14770667Y-15367143D01*
X14808762Y-15367143D01*
X14827809Y-15376667D01*
X14837333Y-15395714D01*
X14837333Y-15414762D01*
X14742095Y-15433809D01*
X14913524Y-15490952D02*
X14932571Y-15500476D01*
X14970667Y-15500476D01*
X14989714Y-15490952D01*
X14999238Y-15471905D01*
X14999238Y-15462381D01*
X14989714Y-15443333D01*
X14970667Y-15433809D01*
X14942095Y-15433809D01*
X14923048Y-15424286D01*
X14913524Y-15405238D01*
X14913524Y-15395714D01*
X14923048Y-15376667D01*
X14942095Y-15367143D01*
X14970667Y-15367143D01*
X14989714Y-15376667D01*
X15065905Y-15576667D02*
X15075428Y-15567143D01*
X15094476Y-15538571D01*
X15104000Y-15519524D01*
X15113524Y-15490952D01*
X15123048Y-15443333D01*
X15123048Y-15405238D01*
X15113524Y-15357619D01*
X15104000Y-15329048D01*
X15094476Y-15310000D01*
X15075428Y-15281428D01*
X15065905Y-15271905D01*
D14*
X10255900Y-15635900D02*
X10255900Y-15712100D01*
X10217800Y-15674000D02*
X10294000Y-15674000D01*
D11*
X10589714Y-15564476D02*
X10608762Y-15564476D01*
X10627810Y-15574000D01*
X10637333Y-15583524D01*
X10646857Y-15602571D01*
X10656381Y-15640667D01*
X10656381Y-15688286D01*
X10646857Y-15726381D01*
X10637333Y-15745428D01*
X10627810Y-15754952D01*
X10608762Y-15764476D01*
X10589714Y-15764476D01*
X10570667Y-15754952D01*
X10561143Y-15745428D01*
X10551619Y-15726381D01*
X10542095Y-15688286D01*
X10542095Y-15640667D01*
X10551619Y-15602571D01*
X10561143Y-15583524D01*
X10570667Y-15574000D01*
X10589714Y-15564476D01*
X10742095Y-15745428D02*
X10751619Y-15754952D01*
X10742095Y-15764476D01*
X10732571Y-15754952D01*
X10742095Y-15745428D01*
X10742095Y-15764476D01*
X10818286Y-15564476D02*
X10951619Y-15564476D01*
X10865905Y-15764476D01*
X11113524Y-15564476D02*
X11075429Y-15564476D01*
X11056381Y-15574000D01*
X11046857Y-15583524D01*
X11027810Y-15612095D01*
X11018286Y-15650190D01*
X11018286Y-15726381D01*
X11027810Y-15745428D01*
X11037333Y-15754952D01*
X11056381Y-15764476D01*
X11094476Y-15764476D01*
X11113524Y-15754952D01*
X11123048Y-15745428D01*
X11132571Y-15726381D01*
X11132571Y-15678762D01*
X11123048Y-15659714D01*
X11113524Y-15650190D01*
X11094476Y-15640667D01*
X11056381Y-15640667D01*
X11037333Y-15650190D01*
X11027810Y-15659714D01*
X11018286Y-15678762D01*
X11208762Y-15583524D02*
X11218286Y-15574000D01*
X11237333Y-15564476D01*
X11284952Y-15564476D01*
X11304000Y-15574000D01*
X11313524Y-15583524D01*
X11323048Y-15602571D01*
X11323048Y-15621619D01*
X11313524Y-15650190D01*
X11199238Y-15764476D01*
X11323048Y-15764476D01*
X11408762Y-15764476D02*
X11408762Y-15631143D01*
X11408762Y-15650190D02*
X11418286Y-15640667D01*
X11437333Y-15631143D01*
X11465905Y-15631143D01*
X11484952Y-15640667D01*
X11494476Y-15659714D01*
X11494476Y-15764476D01*
X11494476Y-15659714D02*
X11504000Y-15640667D01*
X11523048Y-15631143D01*
X11551619Y-15631143D01*
X11570667Y-15640667D01*
X11580190Y-15659714D01*
X11580190Y-15764476D01*
X11675428Y-15764476D02*
X11675428Y-15631143D01*
X11675428Y-15650190D02*
X11684952Y-15640667D01*
X11704000Y-15631143D01*
X11732571Y-15631143D01*
X11751619Y-15640667D01*
X11761143Y-15659714D01*
X11761143Y-15764476D01*
X11761143Y-15659714D02*
X11770667Y-15640667D01*
X11789714Y-15631143D01*
X11818286Y-15631143D01*
X11837333Y-15640667D01*
X11846857Y-15659714D01*
X11846857Y-15764476D01*
X12237333Y-15554952D02*
X12065905Y-15812095D01*
X12494476Y-15564476D02*
X12513524Y-15564476D01*
X12532571Y-15574000D01*
X12542095Y-15583524D01*
X12551619Y-15602571D01*
X12561143Y-15640667D01*
X12561143Y-15688286D01*
X12551619Y-15726381D01*
X12542095Y-15745428D01*
X12532571Y-15754952D01*
X12513524Y-15764476D01*
X12494476Y-15764476D01*
X12475428Y-15754952D01*
X12465905Y-15745428D01*
X12456381Y-15726381D01*
X12446857Y-15688286D01*
X12446857Y-15640667D01*
X12456381Y-15602571D01*
X12465905Y-15583524D01*
X12475428Y-15574000D01*
X12494476Y-15564476D01*
X12646857Y-15745428D02*
X12656381Y-15754952D01*
X12646857Y-15764476D01*
X12637333Y-15754952D01*
X12646857Y-15745428D01*
X12646857Y-15764476D01*
X12780190Y-15564476D02*
X12799238Y-15564476D01*
X12818286Y-15574000D01*
X12827809Y-15583524D01*
X12837333Y-15602571D01*
X12846857Y-15640667D01*
X12846857Y-15688286D01*
X12837333Y-15726381D01*
X12827809Y-15745428D01*
X12818286Y-15754952D01*
X12799238Y-15764476D01*
X12780190Y-15764476D01*
X12761143Y-15754952D01*
X12751619Y-15745428D01*
X12742095Y-15726381D01*
X12732571Y-15688286D01*
X12732571Y-15640667D01*
X12742095Y-15602571D01*
X12751619Y-15583524D01*
X12761143Y-15574000D01*
X12780190Y-15564476D01*
X12913524Y-15564476D02*
X13037333Y-15564476D01*
X12970667Y-15640667D01*
X12999238Y-15640667D01*
X13018286Y-15650190D01*
X13027809Y-15659714D01*
X13037333Y-15678762D01*
X13037333Y-15726381D01*
X13027809Y-15745428D01*
X13018286Y-15754952D01*
X12999238Y-15764476D01*
X12942095Y-15764476D01*
X12923048Y-15754952D01*
X12913524Y-15745428D01*
X13161143Y-15564476D02*
X13180190Y-15564476D01*
X13199238Y-15574000D01*
X13208762Y-15583524D01*
X13218286Y-15602571D01*
X13227809Y-15640667D01*
X13227809Y-15688286D01*
X13218286Y-15726381D01*
X13208762Y-15745428D01*
X13199238Y-15754952D01*
X13180190Y-15764476D01*
X13161143Y-15764476D01*
X13142095Y-15754952D01*
X13132571Y-15745428D01*
X13123048Y-15726381D01*
X13113524Y-15688286D01*
X13113524Y-15640667D01*
X13123048Y-15602571D01*
X13132571Y-15583524D01*
X13142095Y-15574000D01*
X13161143Y-15564476D01*
X13351619Y-15564476D02*
X13370667Y-15564476D01*
X13389714Y-15574000D01*
X13399238Y-15583524D01*
X13408762Y-15602571D01*
X13418286Y-15640667D01*
X13418286Y-15688286D01*
X13408762Y-15726381D01*
X13399238Y-15745428D01*
X13389714Y-15754952D01*
X13370667Y-15764476D01*
X13351619Y-15764476D01*
X13332571Y-15754952D01*
X13323048Y-15745428D01*
X13313524Y-15726381D01*
X13304000Y-15688286D01*
X13304000Y-15640667D01*
X13313524Y-15602571D01*
X13323048Y-15583524D01*
X13332571Y-15574000D01*
X13351619Y-15564476D01*
X13494476Y-15564476D02*
X13494476Y-15602571D01*
X13570667Y-15564476D02*
X13570667Y-15602571D01*
X13865905Y-15840667D02*
X13856381Y-15831143D01*
X13837333Y-15802571D01*
X13827809Y-15783524D01*
X13818286Y-15754952D01*
X13808762Y-15707333D01*
X13808762Y-15669238D01*
X13818286Y-15621619D01*
X13827809Y-15593048D01*
X13837333Y-15574000D01*
X13856381Y-15545428D01*
X13865905Y-15535905D01*
X13923048Y-15564476D02*
X14046857Y-15564476D01*
X13980190Y-15640667D01*
X14008762Y-15640667D01*
X14027809Y-15650190D01*
X14037333Y-15659714D01*
X14046857Y-15678762D01*
X14046857Y-15726381D01*
X14037333Y-15745428D01*
X14027809Y-15754952D01*
X14008762Y-15764476D01*
X13951619Y-15764476D01*
X13932571Y-15754952D01*
X13923048Y-15745428D01*
X14170667Y-15564476D02*
X14189714Y-15564476D01*
X14208762Y-15574000D01*
X14218286Y-15583524D01*
X14227809Y-15602571D01*
X14237333Y-15640667D01*
X14237333Y-15688286D01*
X14227809Y-15726381D01*
X14218286Y-15745428D01*
X14208762Y-15754952D01*
X14189714Y-15764476D01*
X14170667Y-15764476D01*
X14151619Y-15754952D01*
X14142095Y-15745428D01*
X14132571Y-15726381D01*
X14123048Y-15688286D01*
X14123048Y-15640667D01*
X14132571Y-15602571D01*
X14142095Y-15583524D01*
X14151619Y-15574000D01*
X14170667Y-15564476D01*
X14475428Y-15764476D02*
X14475428Y-15564476D01*
X14561143Y-15764476D02*
X14561143Y-15659714D01*
X14551619Y-15640667D01*
X14532571Y-15631143D01*
X14504000Y-15631143D01*
X14484952Y-15640667D01*
X14475428Y-15650190D01*
X14684952Y-15764476D02*
X14665905Y-15754952D01*
X14656381Y-15745428D01*
X14646857Y-15726381D01*
X14646857Y-15669238D01*
X14656381Y-15650190D01*
X14665905Y-15640667D01*
X14684952Y-15631143D01*
X14713524Y-15631143D01*
X14732571Y-15640667D01*
X14742095Y-15650190D01*
X14751619Y-15669238D01*
X14751619Y-15726381D01*
X14742095Y-15745428D01*
X14732571Y-15754952D01*
X14713524Y-15764476D01*
X14684952Y-15764476D01*
X14865905Y-15764476D02*
X14846857Y-15754952D01*
X14837333Y-15735905D01*
X14837333Y-15564476D01*
X15018286Y-15754952D02*
X14999238Y-15764476D01*
X14961143Y-15764476D01*
X14942095Y-15754952D01*
X14932571Y-15735905D01*
X14932571Y-15659714D01*
X14942095Y-15640667D01*
X14961143Y-15631143D01*
X14999238Y-15631143D01*
X15018286Y-15640667D01*
X15027809Y-15659714D01*
X15027809Y-15678762D01*
X14932571Y-15697809D01*
X15104000Y-15754952D02*
X15123048Y-15764476D01*
X15161143Y-15764476D01*
X15180190Y-15754952D01*
X15189714Y-15735905D01*
X15189714Y-15726381D01*
X15180190Y-15707333D01*
X15161143Y-15697809D01*
X15132571Y-15697809D01*
X15113524Y-15688286D01*
X15104000Y-15669238D01*
X15104000Y-15659714D01*
X15113524Y-15640667D01*
X15132571Y-15631143D01*
X15161143Y-15631143D01*
X15180190Y-15640667D01*
X15256381Y-15840667D02*
X15265905Y-15831143D01*
X15284952Y-15802571D01*
X15294476Y-15783524D01*
X15304000Y-15754952D01*
X15313524Y-15707333D01*
X15313524Y-15669238D01*
X15304000Y-15621619D01*
X15294476Y-15593048D01*
X15284952Y-15574000D01*
X15265905Y-15545428D01*
X15256381Y-15535905D01*
D15*
X10280088Y-15971588D02*
X10280088Y-15904412D01*
X10212912Y-15904412D01*
X10212912Y-15971588D01*
X10280088Y-15971588D01*
D11*
X10589714Y-15828476D02*
X10608762Y-15828476D01*
X10627810Y-15838000D01*
X10637333Y-15847524D01*
X10646857Y-15866571D01*
X10656381Y-15904667D01*
X10656381Y-15952286D01*
X10646857Y-15990381D01*
X10637333Y-16009428D01*
X10627810Y-16018952D01*
X10608762Y-16028476D01*
X10589714Y-16028476D01*
X10570667Y-16018952D01*
X10561143Y-16009428D01*
X10551619Y-15990381D01*
X10542095Y-15952286D01*
X10542095Y-15904667D01*
X10551619Y-15866571D01*
X10561143Y-15847524D01*
X10570667Y-15838000D01*
X10589714Y-15828476D01*
X10742095Y-16009428D02*
X10751619Y-16018952D01*
X10742095Y-16028476D01*
X10732571Y-16018952D01*
X10742095Y-16009428D01*
X10742095Y-16028476D01*
X10846857Y-16028476D02*
X10884952Y-16028476D01*
X10904000Y-16018952D01*
X10913524Y-16009428D01*
X10932571Y-15980857D01*
X10942095Y-15942762D01*
X10942095Y-15866571D01*
X10932571Y-15847524D01*
X10923048Y-15838000D01*
X10904000Y-15828476D01*
X10865905Y-15828476D01*
X10846857Y-15838000D01*
X10837333Y-15847524D01*
X10827810Y-15866571D01*
X10827810Y-15914190D01*
X10837333Y-15933238D01*
X10846857Y-15942762D01*
X10865905Y-15952286D01*
X10904000Y-15952286D01*
X10923048Y-15942762D01*
X10932571Y-15933238D01*
X10942095Y-15914190D01*
X11123048Y-15828476D02*
X11027810Y-15828476D01*
X11018286Y-15923714D01*
X11027810Y-15914190D01*
X11046857Y-15904667D01*
X11094476Y-15904667D01*
X11113524Y-15914190D01*
X11123048Y-15923714D01*
X11132571Y-15942762D01*
X11132571Y-15990381D01*
X11123048Y-16009428D01*
X11113524Y-16018952D01*
X11094476Y-16028476D01*
X11046857Y-16028476D01*
X11027810Y-16018952D01*
X11018286Y-16009428D01*
X11256381Y-15828476D02*
X11275428Y-15828476D01*
X11294476Y-15838000D01*
X11304000Y-15847524D01*
X11313524Y-15866571D01*
X11323048Y-15904667D01*
X11323048Y-15952286D01*
X11313524Y-15990381D01*
X11304000Y-16009428D01*
X11294476Y-16018952D01*
X11275428Y-16028476D01*
X11256381Y-16028476D01*
X11237333Y-16018952D01*
X11227809Y-16009428D01*
X11218286Y-15990381D01*
X11208762Y-15952286D01*
X11208762Y-15904667D01*
X11218286Y-15866571D01*
X11227809Y-15847524D01*
X11237333Y-15838000D01*
X11256381Y-15828476D01*
X11408762Y-16028476D02*
X11408762Y-15895143D01*
X11408762Y-15914190D02*
X11418286Y-15904667D01*
X11437333Y-15895143D01*
X11465905Y-15895143D01*
X11484952Y-15904667D01*
X11494476Y-15923714D01*
X11494476Y-16028476D01*
X11494476Y-15923714D02*
X11504000Y-15904667D01*
X11523048Y-15895143D01*
X11551619Y-15895143D01*
X11570667Y-15904667D01*
X11580190Y-15923714D01*
X11580190Y-16028476D01*
X11675428Y-16028476D02*
X11675428Y-15895143D01*
X11675428Y-15914190D02*
X11684952Y-15904667D01*
X11704000Y-15895143D01*
X11732571Y-15895143D01*
X11751619Y-15904667D01*
X11761143Y-15923714D01*
X11761143Y-16028476D01*
X11761143Y-15923714D02*
X11770667Y-15904667D01*
X11789714Y-15895143D01*
X11818286Y-15895143D01*
X11837333Y-15904667D01*
X11846857Y-15923714D01*
X11846857Y-16028476D01*
X12237333Y-15818952D02*
X12065905Y-16076095D01*
X12494476Y-15828476D02*
X12513524Y-15828476D01*
X12532571Y-15838000D01*
X12542095Y-15847524D01*
X12551619Y-15866571D01*
X12561143Y-15904667D01*
X12561143Y-15952286D01*
X12551619Y-15990381D01*
X12542095Y-16009428D01*
X12532571Y-16018952D01*
X12513524Y-16028476D01*
X12494476Y-16028476D01*
X12475428Y-16018952D01*
X12465905Y-16009428D01*
X12456381Y-15990381D01*
X12446857Y-15952286D01*
X12446857Y-15904667D01*
X12456381Y-15866571D01*
X12465905Y-15847524D01*
X12475428Y-15838000D01*
X12494476Y-15828476D01*
X12646857Y-16009428D02*
X12656381Y-16018952D01*
X12646857Y-16028476D01*
X12637333Y-16018952D01*
X12646857Y-16009428D01*
X12646857Y-16028476D01*
X12780190Y-15828476D02*
X12799238Y-15828476D01*
X12818286Y-15838000D01*
X12827809Y-15847524D01*
X12837333Y-15866571D01*
X12846857Y-15904667D01*
X12846857Y-15952286D01*
X12837333Y-15990381D01*
X12827809Y-16009428D01*
X12818286Y-16018952D01*
X12799238Y-16028476D01*
X12780190Y-16028476D01*
X12761143Y-16018952D01*
X12751619Y-16009428D01*
X12742095Y-15990381D01*
X12732571Y-15952286D01*
X12732571Y-15904667D01*
X12742095Y-15866571D01*
X12751619Y-15847524D01*
X12761143Y-15838000D01*
X12780190Y-15828476D01*
X12913524Y-15828476D02*
X13037333Y-15828476D01*
X12970667Y-15904667D01*
X12999238Y-15904667D01*
X13018286Y-15914190D01*
X13027809Y-15923714D01*
X13037333Y-15942762D01*
X13037333Y-15990381D01*
X13027809Y-16009428D01*
X13018286Y-16018952D01*
X12999238Y-16028476D01*
X12942095Y-16028476D01*
X12923048Y-16018952D01*
X12913524Y-16009428D01*
X13104000Y-15828476D02*
X13237333Y-15828476D01*
X13151619Y-16028476D01*
X13399238Y-15895143D02*
X13399238Y-16028476D01*
X13351619Y-15818952D02*
X13304000Y-15961809D01*
X13427809Y-15961809D01*
X13494476Y-15828476D02*
X13494476Y-15866571D01*
X13570667Y-15828476D02*
X13570667Y-15866571D01*
X13865905Y-16104667D02*
X13856381Y-16095143D01*
X13837333Y-16066571D01*
X13827809Y-16047524D01*
X13818286Y-16018952D01*
X13808762Y-15971333D01*
X13808762Y-15933238D01*
X13818286Y-15885619D01*
X13827809Y-15857048D01*
X13837333Y-15838000D01*
X13856381Y-15809428D01*
X13865905Y-15799905D01*
X14027809Y-15828476D02*
X13989714Y-15828476D01*
X13970667Y-15838000D01*
X13961143Y-15847524D01*
X13942095Y-15876095D01*
X13932571Y-15914190D01*
X13932571Y-15990381D01*
X13942095Y-16009428D01*
X13951619Y-16018952D01*
X13970667Y-16028476D01*
X14008762Y-16028476D01*
X14027809Y-16018952D01*
X14037333Y-16009428D01*
X14046857Y-15990381D01*
X14046857Y-15942762D01*
X14037333Y-15923714D01*
X14027809Y-15914190D01*
X14008762Y-15904667D01*
X13970667Y-15904667D01*
X13951619Y-15914190D01*
X13942095Y-15923714D01*
X13932571Y-15942762D01*
X14123048Y-15847524D02*
X14132571Y-15838000D01*
X14151619Y-15828476D01*
X14199238Y-15828476D01*
X14218286Y-15838000D01*
X14227809Y-15847524D01*
X14237333Y-15866571D01*
X14237333Y-15885619D01*
X14227809Y-15914190D01*
X14113524Y-16028476D01*
X14237333Y-16028476D01*
X14475428Y-16028476D02*
X14475428Y-15828476D01*
X14561143Y-16028476D02*
X14561143Y-15923714D01*
X14551619Y-15904667D01*
X14532571Y-15895143D01*
X14504000Y-15895143D01*
X14484952Y-15904667D01*
X14475428Y-15914190D01*
X14684952Y-16028476D02*
X14665905Y-16018952D01*
X14656381Y-16009428D01*
X14646857Y-15990381D01*
X14646857Y-15933238D01*
X14656381Y-15914190D01*
X14665905Y-15904667D01*
X14684952Y-15895143D01*
X14713524Y-15895143D01*
X14732571Y-15904667D01*
X14742095Y-15914190D01*
X14751619Y-15933238D01*
X14751619Y-15990381D01*
X14742095Y-16009428D01*
X14732571Y-16018952D01*
X14713524Y-16028476D01*
X14684952Y-16028476D01*
X14865905Y-16028476D02*
X14846857Y-16018952D01*
X14837333Y-15999905D01*
X14837333Y-15828476D01*
X15018286Y-16018952D02*
X14999238Y-16028476D01*
X14961143Y-16028476D01*
X14942095Y-16018952D01*
X14932571Y-15999905D01*
X14932571Y-15923714D01*
X14942095Y-15904667D01*
X14961143Y-15895143D01*
X14999238Y-15895143D01*
X15018286Y-15904667D01*
X15027809Y-15923714D01*
X15027809Y-15942762D01*
X14932571Y-15961809D01*
X15104000Y-16018952D02*
X15123048Y-16028476D01*
X15161143Y-16028476D01*
X15180190Y-16018952D01*
X15189714Y-15999905D01*
X15189714Y-15990381D01*
X15180190Y-15971333D01*
X15161143Y-15961809D01*
X15132571Y-15961809D01*
X15113524Y-15952286D01*
X15104000Y-15933238D01*
X15104000Y-15923714D01*
X15113524Y-15904667D01*
X15132571Y-15895143D01*
X15161143Y-15895143D01*
X15180190Y-15904667D01*
X15256381Y-16104667D02*
X15265905Y-16095143D01*
X15284952Y-16066571D01*
X15294476Y-16047524D01*
X15304000Y-16018952D01*
X15313524Y-15971333D01*
X15313524Y-15933238D01*
X15304000Y-15885619D01*
X15294476Y-15857048D01*
X15284952Y-15838000D01*
X15265905Y-15809428D01*
X15256381Y-15799905D01*
D16*
X10244000Y-16252000D02*
X10294000Y-16202000D01*
X10244000Y-16152000D01*
X10194000Y-16202000D01*
X10244000Y-16252000D01*
D11*
X10656381Y-16292476D02*
X10542095Y-16292476D01*
X10599238Y-16292476D02*
X10599238Y-16092476D01*
X10580190Y-16121048D01*
X10561143Y-16140095D01*
X10542095Y-16149619D01*
X10742095Y-16273428D02*
X10751619Y-16282952D01*
X10742095Y-16292476D01*
X10732571Y-16282952D01*
X10742095Y-16273428D01*
X10742095Y-16292476D01*
X10875429Y-16092476D02*
X10894476Y-16092476D01*
X10913524Y-16102000D01*
X10923048Y-16111524D01*
X10932571Y-16130571D01*
X10942095Y-16168667D01*
X10942095Y-16216286D01*
X10932571Y-16254381D01*
X10923048Y-16273428D01*
X10913524Y-16282952D01*
X10894476Y-16292476D01*
X10875429Y-16292476D01*
X10856381Y-16282952D01*
X10846857Y-16273428D01*
X10837333Y-16254381D01*
X10827810Y-16216286D01*
X10827810Y-16168667D01*
X10837333Y-16130571D01*
X10846857Y-16111524D01*
X10856381Y-16102000D01*
X10875429Y-16092476D01*
X11065905Y-16092476D02*
X11084952Y-16092476D01*
X11104000Y-16102000D01*
X11113524Y-16111524D01*
X11123048Y-16130571D01*
X11132571Y-16168667D01*
X11132571Y-16216286D01*
X11123048Y-16254381D01*
X11113524Y-16273428D01*
X11104000Y-16282952D01*
X11084952Y-16292476D01*
X11065905Y-16292476D01*
X11046857Y-16282952D01*
X11037333Y-16273428D01*
X11027810Y-16254381D01*
X11018286Y-16216286D01*
X11018286Y-16168667D01*
X11027810Y-16130571D01*
X11037333Y-16111524D01*
X11046857Y-16102000D01*
X11065905Y-16092476D01*
X11256381Y-16092476D02*
X11275428Y-16092476D01*
X11294476Y-16102000D01*
X11304000Y-16111524D01*
X11313524Y-16130571D01*
X11323048Y-16168667D01*
X11323048Y-16216286D01*
X11313524Y-16254381D01*
X11304000Y-16273428D01*
X11294476Y-16282952D01*
X11275428Y-16292476D01*
X11256381Y-16292476D01*
X11237333Y-16282952D01*
X11227809Y-16273428D01*
X11218286Y-16254381D01*
X11208762Y-16216286D01*
X11208762Y-16168667D01*
X11218286Y-16130571D01*
X11227809Y-16111524D01*
X11237333Y-16102000D01*
X11256381Y-16092476D01*
X11408762Y-16292476D02*
X11408762Y-16159143D01*
X11408762Y-16178190D02*
X11418286Y-16168667D01*
X11437333Y-16159143D01*
X11465905Y-16159143D01*
X11484952Y-16168667D01*
X11494476Y-16187714D01*
X11494476Y-16292476D01*
X11494476Y-16187714D02*
X11504000Y-16168667D01*
X11523048Y-16159143D01*
X11551619Y-16159143D01*
X11570667Y-16168667D01*
X11580190Y-16187714D01*
X11580190Y-16292476D01*
X11675428Y-16292476D02*
X11675428Y-16159143D01*
X11675428Y-16178190D02*
X11684952Y-16168667D01*
X11704000Y-16159143D01*
X11732571Y-16159143D01*
X11751619Y-16168667D01*
X11761143Y-16187714D01*
X11761143Y-16292476D01*
X11761143Y-16187714D02*
X11770667Y-16168667D01*
X11789714Y-16159143D01*
X11818286Y-16159143D01*
X11837333Y-16168667D01*
X11846857Y-16187714D01*
X11846857Y-16292476D01*
X12237333Y-16082952D02*
X12065905Y-16340095D01*
X12494476Y-16092476D02*
X12513524Y-16092476D01*
X12532571Y-16102000D01*
X12542095Y-16111524D01*
X12551619Y-16130571D01*
X12561143Y-16168667D01*
X12561143Y-16216286D01*
X12551619Y-16254381D01*
X12542095Y-16273428D01*
X12532571Y-16282952D01*
X12513524Y-16292476D01*
X12494476Y-16292476D01*
X12475428Y-16282952D01*
X12465905Y-16273428D01*
X12456381Y-16254381D01*
X12446857Y-16216286D01*
X12446857Y-16168667D01*
X12456381Y-16130571D01*
X12465905Y-16111524D01*
X12475428Y-16102000D01*
X12494476Y-16092476D01*
X12646857Y-16273428D02*
X12656381Y-16282952D01*
X12646857Y-16292476D01*
X12637333Y-16282952D01*
X12646857Y-16273428D01*
X12646857Y-16292476D01*
X12780190Y-16092476D02*
X12799238Y-16092476D01*
X12818286Y-16102000D01*
X12827809Y-16111524D01*
X12837333Y-16130571D01*
X12846857Y-16168667D01*
X12846857Y-16216286D01*
X12837333Y-16254381D01*
X12827809Y-16273428D01*
X12818286Y-16282952D01*
X12799238Y-16292476D01*
X12780190Y-16292476D01*
X12761143Y-16282952D01*
X12751619Y-16273428D01*
X12742095Y-16254381D01*
X12732571Y-16216286D01*
X12732571Y-16168667D01*
X12742095Y-16130571D01*
X12751619Y-16111524D01*
X12761143Y-16102000D01*
X12780190Y-16092476D01*
X12913524Y-16092476D02*
X13037333Y-16092476D01*
X12970667Y-16168667D01*
X12999238Y-16168667D01*
X13018286Y-16178190D01*
X13027809Y-16187714D01*
X13037333Y-16206762D01*
X13037333Y-16254381D01*
X13027809Y-16273428D01*
X13018286Y-16282952D01*
X12999238Y-16292476D01*
X12942095Y-16292476D01*
X12923048Y-16282952D01*
X12913524Y-16273428D01*
X13132571Y-16292476D02*
X13170667Y-16292476D01*
X13189714Y-16282952D01*
X13199238Y-16273428D01*
X13218286Y-16244857D01*
X13227809Y-16206762D01*
X13227809Y-16130571D01*
X13218286Y-16111524D01*
X13208762Y-16102000D01*
X13189714Y-16092476D01*
X13151619Y-16092476D01*
X13132571Y-16102000D01*
X13123048Y-16111524D01*
X13113524Y-16130571D01*
X13113524Y-16178190D01*
X13123048Y-16197238D01*
X13132571Y-16206762D01*
X13151619Y-16216286D01*
X13189714Y-16216286D01*
X13208762Y-16206762D01*
X13218286Y-16197238D01*
X13227809Y-16178190D01*
X13399238Y-16159143D02*
X13399238Y-16292476D01*
X13351619Y-16082952D02*
X13304000Y-16225809D01*
X13427809Y-16225809D01*
X13494476Y-16092476D02*
X13494476Y-16130571D01*
X13570667Y-16092476D02*
X13570667Y-16130571D01*
X13865905Y-16368667D02*
X13856381Y-16359143D01*
X13837333Y-16330571D01*
X13827809Y-16311524D01*
X13818286Y-16282952D01*
X13808762Y-16235333D01*
X13808762Y-16197238D01*
X13818286Y-16149619D01*
X13827809Y-16121048D01*
X13837333Y-16102000D01*
X13856381Y-16073428D01*
X13865905Y-16063905D01*
X13923048Y-16092476D02*
X14056381Y-16092476D01*
X13970667Y-16292476D01*
X14284952Y-16292476D02*
X14284952Y-16092476D01*
X14370667Y-16292476D02*
X14370667Y-16187714D01*
X14361143Y-16168667D01*
X14342095Y-16159143D01*
X14313524Y-16159143D01*
X14294476Y-16168667D01*
X14284952Y-16178190D01*
X14494476Y-16292476D02*
X14475428Y-16282952D01*
X14465905Y-16273428D01*
X14456381Y-16254381D01*
X14456381Y-16197238D01*
X14465905Y-16178190D01*
X14475428Y-16168667D01*
X14494476Y-16159143D01*
X14523048Y-16159143D01*
X14542095Y-16168667D01*
X14551619Y-16178190D01*
X14561143Y-16197238D01*
X14561143Y-16254381D01*
X14551619Y-16273428D01*
X14542095Y-16282952D01*
X14523048Y-16292476D01*
X14494476Y-16292476D01*
X14675428Y-16292476D02*
X14656381Y-16282952D01*
X14646857Y-16263905D01*
X14646857Y-16092476D01*
X14827809Y-16282952D02*
X14808762Y-16292476D01*
X14770667Y-16292476D01*
X14751619Y-16282952D01*
X14742095Y-16263905D01*
X14742095Y-16187714D01*
X14751619Y-16168667D01*
X14770667Y-16159143D01*
X14808762Y-16159143D01*
X14827809Y-16168667D01*
X14837333Y-16187714D01*
X14837333Y-16206762D01*
X14742095Y-16225809D01*
X14913524Y-16282952D02*
X14932571Y-16292476D01*
X14970667Y-16292476D01*
X14989714Y-16282952D01*
X14999238Y-16263905D01*
X14999238Y-16254381D01*
X14989714Y-16235333D01*
X14970667Y-16225809D01*
X14942095Y-16225809D01*
X14923048Y-16216286D01*
X14913524Y-16197238D01*
X14913524Y-16187714D01*
X14923048Y-16168667D01*
X14942095Y-16159143D01*
X14970667Y-16159143D01*
X14989714Y-16168667D01*
X15065905Y-16368667D02*
X15075428Y-16359143D01*
X15094476Y-16330571D01*
X15104000Y-16311524D01*
X15113524Y-16282952D01*
X15123048Y-16235333D01*
X15123048Y-16197238D01*
X15113524Y-16149619D01*
X15104000Y-16121048D01*
X15094476Y-16102000D01*
X15075428Y-16073428D01*
X15065905Y-16063905D01*
D17*
X10184000Y-16411000D02*
X10294000Y-16521000D01*
X10294000Y-16411000D02*
X10184000Y-16521000D01*
X10294000Y-16466000D02*
G75*
G03*
X10294000Y-16466000I-55000J0D01*
G01*
D11*
X10656381Y-16556476D02*
X10542095Y-16556476D01*
X10599238Y-16556476D02*
X10599238Y-16356476D01*
X10580190Y-16385048D01*
X10561143Y-16404095D01*
X10542095Y-16413619D01*
X10742095Y-16537428D02*
X10751619Y-16546952D01*
X10742095Y-16556476D01*
X10732571Y-16546952D01*
X10742095Y-16537428D01*
X10742095Y-16556476D01*
X10942095Y-16556476D02*
X10827810Y-16556476D01*
X10884952Y-16556476D02*
X10884952Y-16356476D01*
X10865905Y-16385048D01*
X10846857Y-16404095D01*
X10827810Y-16413619D01*
X11065905Y-16356476D02*
X11084952Y-16356476D01*
X11104000Y-16366000D01*
X11113524Y-16375524D01*
X11123048Y-16394571D01*
X11132571Y-16432667D01*
X11132571Y-16480286D01*
X11123048Y-16518381D01*
X11113524Y-16537428D01*
X11104000Y-16546952D01*
X11084952Y-16556476D01*
X11065905Y-16556476D01*
X11046857Y-16546952D01*
X11037333Y-16537428D01*
X11027810Y-16518381D01*
X11018286Y-16480286D01*
X11018286Y-16432667D01*
X11027810Y-16394571D01*
X11037333Y-16375524D01*
X11046857Y-16366000D01*
X11065905Y-16356476D01*
X11256381Y-16356476D02*
X11275428Y-16356476D01*
X11294476Y-16366000D01*
X11304000Y-16375524D01*
X11313524Y-16394571D01*
X11323048Y-16432667D01*
X11323048Y-16480286D01*
X11313524Y-16518381D01*
X11304000Y-16537428D01*
X11294476Y-16546952D01*
X11275428Y-16556476D01*
X11256381Y-16556476D01*
X11237333Y-16546952D01*
X11227809Y-16537428D01*
X11218286Y-16518381D01*
X11208762Y-16480286D01*
X11208762Y-16432667D01*
X11218286Y-16394571D01*
X11227809Y-16375524D01*
X11237333Y-16366000D01*
X11256381Y-16356476D01*
X11408762Y-16556476D02*
X11408762Y-16423143D01*
X11408762Y-16442190D02*
X11418286Y-16432667D01*
X11437333Y-16423143D01*
X11465905Y-16423143D01*
X11484952Y-16432667D01*
X11494476Y-16451714D01*
X11494476Y-16556476D01*
X11494476Y-16451714D02*
X11504000Y-16432667D01*
X11523048Y-16423143D01*
X11551619Y-16423143D01*
X11570667Y-16432667D01*
X11580190Y-16451714D01*
X11580190Y-16556476D01*
X11675428Y-16556476D02*
X11675428Y-16423143D01*
X11675428Y-16442190D02*
X11684952Y-16432667D01*
X11704000Y-16423143D01*
X11732571Y-16423143D01*
X11751619Y-16432667D01*
X11761143Y-16451714D01*
X11761143Y-16556476D01*
X11761143Y-16451714D02*
X11770667Y-16432667D01*
X11789714Y-16423143D01*
X11818286Y-16423143D01*
X11837333Y-16432667D01*
X11846857Y-16451714D01*
X11846857Y-16556476D01*
X12237333Y-16346952D02*
X12065905Y-16604095D01*
X12494476Y-16356476D02*
X12513524Y-16356476D01*
X12532571Y-16366000D01*
X12542095Y-16375524D01*
X12551619Y-16394571D01*
X12561143Y-16432667D01*
X12561143Y-16480286D01*
X12551619Y-16518381D01*
X12542095Y-16537428D01*
X12532571Y-16546952D01*
X12513524Y-16556476D01*
X12494476Y-16556476D01*
X12475428Y-16546952D01*
X12465905Y-16537428D01*
X12456381Y-16518381D01*
X12446857Y-16480286D01*
X12446857Y-16432667D01*
X12456381Y-16394571D01*
X12465905Y-16375524D01*
X12475428Y-16366000D01*
X12494476Y-16356476D01*
X12646857Y-16537428D02*
X12656381Y-16546952D01*
X12646857Y-16556476D01*
X12637333Y-16546952D01*
X12646857Y-16537428D01*
X12646857Y-16556476D01*
X12780190Y-16356476D02*
X12799238Y-16356476D01*
X12818286Y-16366000D01*
X12827809Y-16375524D01*
X12837333Y-16394571D01*
X12846857Y-16432667D01*
X12846857Y-16480286D01*
X12837333Y-16518381D01*
X12827809Y-16537428D01*
X12818286Y-16546952D01*
X12799238Y-16556476D01*
X12780190Y-16556476D01*
X12761143Y-16546952D01*
X12751619Y-16537428D01*
X12742095Y-16518381D01*
X12732571Y-16480286D01*
X12732571Y-16432667D01*
X12742095Y-16394571D01*
X12751619Y-16375524D01*
X12761143Y-16366000D01*
X12780190Y-16356476D01*
X13018286Y-16423143D02*
X13018286Y-16556476D01*
X12970667Y-16346952D02*
X12923048Y-16489809D01*
X13046857Y-16489809D01*
X13104000Y-16356476D02*
X13227809Y-16356476D01*
X13161143Y-16432667D01*
X13189714Y-16432667D01*
X13208762Y-16442190D01*
X13218286Y-16451714D01*
X13227809Y-16470762D01*
X13227809Y-16518381D01*
X13218286Y-16537428D01*
X13208762Y-16546952D01*
X13189714Y-16556476D01*
X13132571Y-16556476D01*
X13113524Y-16546952D01*
X13104000Y-16537428D01*
X13294476Y-16356476D02*
X13418286Y-16356476D01*
X13351619Y-16432667D01*
X13380190Y-16432667D01*
X13399238Y-16442190D01*
X13408762Y-16451714D01*
X13418286Y-16470762D01*
X13418286Y-16518381D01*
X13408762Y-16537428D01*
X13399238Y-16546952D01*
X13380190Y-16556476D01*
X13323048Y-16556476D01*
X13304000Y-16546952D01*
X13294476Y-16537428D01*
X13494476Y-16356476D02*
X13494476Y-16394571D01*
X13570667Y-16356476D02*
X13570667Y-16394571D01*
X13865905Y-16632667D02*
X13856381Y-16623143D01*
X13837333Y-16594571D01*
X13827809Y-16575524D01*
X13818286Y-16546952D01*
X13808762Y-16499333D01*
X13808762Y-16461238D01*
X13818286Y-16413619D01*
X13827809Y-16385048D01*
X13837333Y-16366000D01*
X13856381Y-16337428D01*
X13865905Y-16327905D01*
X14046857Y-16556476D02*
X13932571Y-16556476D01*
X13989714Y-16556476D02*
X13989714Y-16356476D01*
X13970667Y-16385048D01*
X13951619Y-16404095D01*
X13932571Y-16413619D01*
X14170667Y-16356476D02*
X14189714Y-16356476D01*
X14208762Y-16366000D01*
X14218286Y-16375524D01*
X14227809Y-16394571D01*
X14237333Y-16432667D01*
X14237333Y-16480286D01*
X14227809Y-16518381D01*
X14218286Y-16537428D01*
X14208762Y-16546952D01*
X14189714Y-16556476D01*
X14170667Y-16556476D01*
X14151619Y-16546952D01*
X14142095Y-16537428D01*
X14132571Y-16518381D01*
X14123048Y-16480286D01*
X14123048Y-16432667D01*
X14132571Y-16394571D01*
X14142095Y-16375524D01*
X14151619Y-16366000D01*
X14170667Y-16356476D01*
X14475428Y-16556476D02*
X14475428Y-16356476D01*
X14561143Y-16556476D02*
X14561143Y-16451714D01*
X14551619Y-16432667D01*
X14532571Y-16423143D01*
X14504000Y-16423143D01*
X14484952Y-16432667D01*
X14475428Y-16442190D01*
X14684952Y-16556476D02*
X14665905Y-16546952D01*
X14656381Y-16537428D01*
X14646857Y-16518381D01*
X14646857Y-16461238D01*
X14656381Y-16442190D01*
X14665905Y-16432667D01*
X14684952Y-16423143D01*
X14713524Y-16423143D01*
X14732571Y-16432667D01*
X14742095Y-16442190D01*
X14751619Y-16461238D01*
X14751619Y-16518381D01*
X14742095Y-16537428D01*
X14732571Y-16546952D01*
X14713524Y-16556476D01*
X14684952Y-16556476D01*
X14865905Y-16556476D02*
X14846857Y-16546952D01*
X14837333Y-16527905D01*
X14837333Y-16356476D01*
X15018286Y-16546952D02*
X14999238Y-16556476D01*
X14961143Y-16556476D01*
X14942095Y-16546952D01*
X14932571Y-16527905D01*
X14932571Y-16451714D01*
X14942095Y-16432667D01*
X14961143Y-16423143D01*
X14999238Y-16423143D01*
X15018286Y-16432667D01*
X15027809Y-16451714D01*
X15027809Y-16470762D01*
X14932571Y-16489809D01*
X15104000Y-16546952D02*
X15123048Y-16556476D01*
X15161143Y-16556476D01*
X15180190Y-16546952D01*
X15189714Y-16527905D01*
X15189714Y-16518381D01*
X15180190Y-16499333D01*
X15161143Y-16489809D01*
X15132571Y-16489809D01*
X15113524Y-16480286D01*
X15104000Y-16461238D01*
X15104000Y-16451714D01*
X15113524Y-16432667D01*
X15132571Y-16423143D01*
X15161143Y-16423143D01*
X15180190Y-16432667D01*
X15256381Y-16632667D02*
X15265905Y-16623143D01*
X15284952Y-16594571D01*
X15294476Y-16575524D01*
X15304000Y-16546952D01*
X15313524Y-16499333D01*
X15313524Y-16461238D01*
X15304000Y-16413619D01*
X15294476Y-16385048D01*
X15284952Y-16366000D01*
X15265905Y-16337428D01*
X15256381Y-16327905D01*
D18*
X10142000Y-16654000D02*
X10294000Y-16806000D01*
X10294000Y-16654000D02*
X10142000Y-16806000D01*
X10218000Y-16654000D02*
X10218000Y-16806000D01*
X10142000Y-16730000D02*
X10294000Y-16730000D01*
D11*
X10656381Y-16820476D02*
X10542095Y-16820476D01*
X10599238Y-16820476D02*
X10599238Y-16620476D01*
X10580190Y-16649048D01*
X10561143Y-16668095D01*
X10542095Y-16677619D01*
X10742095Y-16801429D02*
X10751619Y-16810952D01*
X10742095Y-16820476D01*
X10732571Y-16810952D01*
X10742095Y-16801429D01*
X10742095Y-16820476D01*
X10932571Y-16620476D02*
X10837333Y-16620476D01*
X10827810Y-16715714D01*
X10837333Y-16706190D01*
X10856381Y-16696667D01*
X10904000Y-16696667D01*
X10923048Y-16706190D01*
X10932571Y-16715714D01*
X10942095Y-16734762D01*
X10942095Y-16782381D01*
X10932571Y-16801429D01*
X10923048Y-16810952D01*
X10904000Y-16820476D01*
X10856381Y-16820476D01*
X10837333Y-16810952D01*
X10827810Y-16801429D01*
X11018286Y-16639524D02*
X11027810Y-16630000D01*
X11046857Y-16620476D01*
X11094476Y-16620476D01*
X11113524Y-16630000D01*
X11123048Y-16639524D01*
X11132571Y-16658571D01*
X11132571Y-16677619D01*
X11123048Y-16706190D01*
X11008762Y-16820476D01*
X11132571Y-16820476D01*
X11256381Y-16620476D02*
X11275428Y-16620476D01*
X11294476Y-16630000D01*
X11304000Y-16639524D01*
X11313524Y-16658571D01*
X11323048Y-16696667D01*
X11323048Y-16744286D01*
X11313524Y-16782381D01*
X11304000Y-16801429D01*
X11294476Y-16810952D01*
X11275428Y-16820476D01*
X11256381Y-16820476D01*
X11237333Y-16810952D01*
X11227809Y-16801429D01*
X11218286Y-16782381D01*
X11208762Y-16744286D01*
X11208762Y-16696667D01*
X11218286Y-16658571D01*
X11227809Y-16639524D01*
X11237333Y-16630000D01*
X11256381Y-16620476D01*
X11408762Y-16820476D02*
X11408762Y-16687143D01*
X11408762Y-16706190D02*
X11418286Y-16696667D01*
X11437333Y-16687143D01*
X11465905Y-16687143D01*
X11484952Y-16696667D01*
X11494476Y-16715714D01*
X11494476Y-16820476D01*
X11494476Y-16715714D02*
X11504000Y-16696667D01*
X11523048Y-16687143D01*
X11551619Y-16687143D01*
X11570667Y-16696667D01*
X11580190Y-16715714D01*
X11580190Y-16820476D01*
X11675428Y-16820476D02*
X11675428Y-16687143D01*
X11675428Y-16706190D02*
X11684952Y-16696667D01*
X11704000Y-16687143D01*
X11732571Y-16687143D01*
X11751619Y-16696667D01*
X11761143Y-16715714D01*
X11761143Y-16820476D01*
X11761143Y-16715714D02*
X11770667Y-16696667D01*
X11789714Y-16687143D01*
X11818286Y-16687143D01*
X11837333Y-16696667D01*
X11846857Y-16715714D01*
X11846857Y-16820476D01*
X12237333Y-16610952D02*
X12065905Y-16868095D01*
X12494476Y-16620476D02*
X12513524Y-16620476D01*
X12532571Y-16630000D01*
X12542095Y-16639524D01*
X12551619Y-16658571D01*
X12561143Y-16696667D01*
X12561143Y-16744286D01*
X12551619Y-16782381D01*
X12542095Y-16801429D01*
X12532571Y-16810952D01*
X12513524Y-16820476D01*
X12494476Y-16820476D01*
X12475428Y-16810952D01*
X12465905Y-16801429D01*
X12456381Y-16782381D01*
X12446857Y-16744286D01*
X12446857Y-16696667D01*
X12456381Y-16658571D01*
X12465905Y-16639524D01*
X12475428Y-16630000D01*
X12494476Y-16620476D01*
X12646857Y-16801429D02*
X12656381Y-16810952D01*
X12646857Y-16820476D01*
X12637333Y-16810952D01*
X12646857Y-16801429D01*
X12646857Y-16820476D01*
X12780190Y-16620476D02*
X12799238Y-16620476D01*
X12818286Y-16630000D01*
X12827809Y-16639524D01*
X12837333Y-16658571D01*
X12846857Y-16696667D01*
X12846857Y-16744286D01*
X12837333Y-16782381D01*
X12827809Y-16801429D01*
X12818286Y-16810952D01*
X12799238Y-16820476D01*
X12780190Y-16820476D01*
X12761143Y-16810952D01*
X12751619Y-16801429D01*
X12742095Y-16782381D01*
X12732571Y-16744286D01*
X12732571Y-16696667D01*
X12742095Y-16658571D01*
X12751619Y-16639524D01*
X12761143Y-16630000D01*
X12780190Y-16620476D01*
X13027809Y-16620476D02*
X12932571Y-16620476D01*
X12923048Y-16715714D01*
X12932571Y-16706190D01*
X12951619Y-16696667D01*
X12999238Y-16696667D01*
X13018286Y-16706190D01*
X13027809Y-16715714D01*
X13037333Y-16734762D01*
X13037333Y-16782381D01*
X13027809Y-16801429D01*
X13018286Y-16810952D01*
X12999238Y-16820476D01*
X12951619Y-16820476D01*
X12932571Y-16810952D01*
X12923048Y-16801429D01*
X13132571Y-16820476D02*
X13170667Y-16820476D01*
X13189714Y-16810952D01*
X13199238Y-16801429D01*
X13218286Y-16772857D01*
X13227809Y-16734762D01*
X13227809Y-16658571D01*
X13218286Y-16639524D01*
X13208762Y-16630000D01*
X13189714Y-16620476D01*
X13151619Y-16620476D01*
X13132571Y-16630000D01*
X13123048Y-16639524D01*
X13113524Y-16658571D01*
X13113524Y-16706190D01*
X13123048Y-16725238D01*
X13132571Y-16734762D01*
X13151619Y-16744286D01*
X13189714Y-16744286D01*
X13208762Y-16734762D01*
X13218286Y-16725238D01*
X13227809Y-16706190D01*
X13342095Y-16706190D02*
X13323048Y-16696667D01*
X13313524Y-16687143D01*
X13304000Y-16668095D01*
X13304000Y-16658571D01*
X13313524Y-16639524D01*
X13323048Y-16630000D01*
X13342095Y-16620476D01*
X13380190Y-16620476D01*
X13399238Y-16630000D01*
X13408762Y-16639524D01*
X13418286Y-16658571D01*
X13418286Y-16668095D01*
X13408762Y-16687143D01*
X13399238Y-16696667D01*
X13380190Y-16706190D01*
X13342095Y-16706190D01*
X13323048Y-16715714D01*
X13313524Y-16725238D01*
X13304000Y-16744286D01*
X13304000Y-16782381D01*
X13313524Y-16801429D01*
X13323048Y-16810952D01*
X13342095Y-16820476D01*
X13380190Y-16820476D01*
X13399238Y-16810952D01*
X13408762Y-16801429D01*
X13418286Y-16782381D01*
X13418286Y-16744286D01*
X13408762Y-16725238D01*
X13399238Y-16715714D01*
X13380190Y-16706190D01*
X13494476Y-16620476D02*
X13494476Y-16658571D01*
X13570667Y-16620476D02*
X13570667Y-16658571D01*
X13865905Y-16896667D02*
X13856381Y-16887143D01*
X13837333Y-16858571D01*
X13827809Y-16839524D01*
X13818286Y-16810952D01*
X13808762Y-16763333D01*
X13808762Y-16725238D01*
X13818286Y-16677619D01*
X13827809Y-16649048D01*
X13837333Y-16630000D01*
X13856381Y-16601428D01*
X13865905Y-16591905D01*
X13923048Y-16620476D02*
X14046857Y-16620476D01*
X13980190Y-16696667D01*
X14008762Y-16696667D01*
X14027809Y-16706190D01*
X14037333Y-16715714D01*
X14046857Y-16734762D01*
X14046857Y-16782381D01*
X14037333Y-16801429D01*
X14027809Y-16810952D01*
X14008762Y-16820476D01*
X13951619Y-16820476D01*
X13932571Y-16810952D01*
X13923048Y-16801429D01*
X14284952Y-16820476D02*
X14284952Y-16620476D01*
X14370667Y-16820476D02*
X14370667Y-16715714D01*
X14361143Y-16696667D01*
X14342095Y-16687143D01*
X14313524Y-16687143D01*
X14294476Y-16696667D01*
X14284952Y-16706190D01*
X14494476Y-16820476D02*
X14475428Y-16810952D01*
X14465905Y-16801429D01*
X14456381Y-16782381D01*
X14456381Y-16725238D01*
X14465905Y-16706190D01*
X14475428Y-16696667D01*
X14494476Y-16687143D01*
X14523048Y-16687143D01*
X14542095Y-16696667D01*
X14551619Y-16706190D01*
X14561143Y-16725238D01*
X14561143Y-16782381D01*
X14551619Y-16801429D01*
X14542095Y-16810952D01*
X14523048Y-16820476D01*
X14494476Y-16820476D01*
X14675428Y-16820476D02*
X14656381Y-16810952D01*
X14646857Y-16791905D01*
X14646857Y-16620476D01*
X14827809Y-16810952D02*
X14808762Y-16820476D01*
X14770667Y-16820476D01*
X14751619Y-16810952D01*
X14742095Y-16791905D01*
X14742095Y-16715714D01*
X14751619Y-16696667D01*
X14770667Y-16687143D01*
X14808762Y-16687143D01*
X14827809Y-16696667D01*
X14837333Y-16715714D01*
X14837333Y-16734762D01*
X14742095Y-16753809D01*
X14913524Y-16810952D02*
X14932571Y-16820476D01*
X14970667Y-16820476D01*
X14989714Y-16810952D01*
X14999238Y-16791905D01*
X14999238Y-16782381D01*
X14989714Y-16763333D01*
X14970667Y-16753809D01*
X14942095Y-16753809D01*
X14923048Y-16744286D01*
X14913524Y-16725238D01*
X14913524Y-16715714D01*
X14923048Y-16696667D01*
X14942095Y-16687143D01*
X14970667Y-16687143D01*
X14989714Y-16696667D01*
X15065905Y-16896667D02*
X15075428Y-16887143D01*
X15094476Y-16858571D01*
X15104000Y-16839524D01*
X15113524Y-16810952D01*
X15123048Y-16763333D01*
X15123048Y-16725238D01*
X15113524Y-16677619D01*
X15104000Y-16649048D01*
X15094476Y-16630000D01*
X15075428Y-16601428D01*
X15065905Y-16591905D01*
M02*
