G04 #@! TF.GenerationSoftware,KiCad,Pcbnew,(6.0.10)*
G04 #@! TF.CreationDate,2023-01-20T16:50:10+01:00*
G04 #@! TF.ProjectId,greenhouse,67726565-6e68-46f7-9573-652e6b696361,rev?*
G04 #@! TF.SameCoordinates,Original*
G04 #@! TF.FileFunction,Copper,L2,Bot*
G04 #@! TF.FilePolarity,Positive*
%FSLAX46Y46*%
G04 Gerber Fmt 4.6, Leading zero omitted, Abs format (unit mm)*
G04 Created by KiCad (PCBNEW (6.0.10)) date 2023-01-20 16:50:10*
%MOMM*%
%LPD*%
G01*
G04 APERTURE LIST*
G04 Aperture macros list*
%AMRoundRect*
0 Rectangle with rounded corners*
0 $1 Rounding radius*
0 $2 $3 $4 $5 $6 $7 $8 $9 X,Y pos of 4 corners*
0 Add a 4 corners polygon primitive as box body*
4,1,4,$2,$3,$4,$5,$6,$7,$8,$9,$2,$3,0*
0 Add four circle primitives for the rounded corners*
1,1,$1+$1,$2,$3*
1,1,$1+$1,$4,$5*
1,1,$1+$1,$6,$7*
1,1,$1+$1,$8,$9*
0 Add four rect primitives between the rounded corners*
20,1,$1+$1,$2,$3,$4,$5,0*
20,1,$1+$1,$4,$5,$6,$7,0*
20,1,$1+$1,$6,$7,$8,$9,0*
20,1,$1+$1,$8,$9,$2,$3,0*%
G04 Aperture macros list end*
G04 #@! TA.AperFunction,ComponentPad*
%ADD10C,1.524000*%
G04 #@! TD*
G04 #@! TA.AperFunction,ComponentPad*
%ADD11O,1.950000X1.700000*%
G04 #@! TD*
G04 #@! TA.AperFunction,ComponentPad*
%ADD12RoundRect,0.250000X-0.725000X0.600000X-0.725000X-0.600000X0.725000X-0.600000X0.725000X0.600000X0*%
G04 #@! TD*
G04 #@! TA.AperFunction,ComponentPad*
%ADD13O,1.700000X1.950000*%
G04 #@! TD*
G04 #@! TA.AperFunction,ComponentPad*
%ADD14RoundRect,0.250000X-0.600000X-0.725000X0.600000X-0.725000X0.600000X0.725000X-0.600000X0.725000X0*%
G04 #@! TD*
G04 #@! TA.AperFunction,ComponentPad*
%ADD15RoundRect,0.250000X0.600000X0.725000X-0.600000X0.725000X-0.600000X-0.725000X0.600000X-0.725000X0*%
G04 #@! TD*
G04 #@! TA.AperFunction,ComponentPad*
%ADD16RoundRect,0.250000X0.725000X-0.600000X0.725000X0.600000X-0.725000X0.600000X-0.725000X-0.600000X0*%
G04 #@! TD*
G04 #@! TA.AperFunction,ComponentPad*
%ADD17O,1.400000X1.400000*%
G04 #@! TD*
G04 #@! TA.AperFunction,ComponentPad*
%ADD18C,1.400000*%
G04 #@! TD*
G04 #@! TA.AperFunction,ComponentPad*
%ADD19O,1.700000X1.700000*%
G04 #@! TD*
G04 #@! TA.AperFunction,ComponentPad*
%ADD20R,1.700000X1.700000*%
G04 #@! TD*
G04 #@! TA.AperFunction,ComponentPad*
%ADD21C,2.100000*%
G04 #@! TD*
G04 #@! TA.AperFunction,ComponentPad*
%ADD22R,2.100000X2.100000*%
G04 #@! TD*
G04 #@! TA.AperFunction,ComponentPad*
%ADD23O,1.700000X2.000000*%
G04 #@! TD*
G04 #@! TA.AperFunction,ComponentPad*
%ADD24RoundRect,0.250000X-0.600000X-0.750000X0.600000X-0.750000X0.600000X0.750000X-0.600000X0.750000X0*%
G04 #@! TD*
G04 #@! TA.AperFunction,ComponentPad*
%ADD25C,3.000000*%
G04 #@! TD*
G04 #@! TA.AperFunction,ComponentPad*
%ADD26R,3.000000X3.000000*%
G04 #@! TD*
G04 #@! TA.AperFunction,ViaPad*
%ADD27C,0.800000*%
G04 #@! TD*
G04 #@! TA.AperFunction,Conductor*
%ADD28C,0.250000*%
G04 #@! TD*
G04 APERTURE END LIST*
D10*
X131300000Y-84540000D03*
X131300000Y-87080000D03*
X131300000Y-89620000D03*
X131300000Y-92160000D03*
X131300000Y-94700000D03*
X131300000Y-97240000D03*
X131300000Y-99780000D03*
X131300000Y-102320000D03*
X131300000Y-104860000D03*
X131300000Y-107400000D03*
X131300000Y-109940000D03*
X131300000Y-112480000D03*
X131300000Y-115020000D03*
X131300000Y-117560000D03*
X131300000Y-120100000D03*
X156700000Y-120100000D03*
X156700000Y-117560000D03*
X156700000Y-115020000D03*
X156700000Y-112480000D03*
X156700000Y-109940000D03*
X156700000Y-107400000D03*
X156700000Y-104860000D03*
X156700000Y-102320000D03*
X156700000Y-99780000D03*
X156700000Y-97240000D03*
X156700000Y-94700000D03*
X156700000Y-92160000D03*
X156700000Y-89620000D03*
X156700000Y-87080000D03*
X156700000Y-84540000D03*
D11*
X160000000Y-70000000D03*
X160000000Y-67500000D03*
X160000000Y-65000000D03*
X160000000Y-62500000D03*
D12*
X160000000Y-60000000D03*
D13*
X175500000Y-121000000D03*
X173000000Y-121000000D03*
X170500000Y-121000000D03*
D14*
X168000000Y-121000000D03*
D13*
X106500000Y-96000000D03*
X109000000Y-96000000D03*
X111500000Y-96000000D03*
X114000000Y-96000000D03*
X116500000Y-96000000D03*
X119000000Y-96000000D03*
X121500000Y-96000000D03*
D15*
X124000000Y-96000000D03*
D11*
X120000000Y-63500000D03*
X120000000Y-66000000D03*
X120000000Y-68500000D03*
X120000000Y-71000000D03*
X120000000Y-73500000D03*
X120000000Y-76000000D03*
X120000000Y-78500000D03*
D16*
X120000000Y-81000000D03*
D17*
X151380000Y-139000000D03*
D18*
X159000000Y-139000000D03*
D19*
X172920000Y-65000000D03*
X175460000Y-65000000D03*
D20*
X178000000Y-65000000D03*
D11*
X189000000Y-61000000D03*
X189000000Y-63500000D03*
D16*
X189000000Y-66000000D03*
D19*
X175460000Y-61000000D03*
D20*
X178000000Y-61000000D03*
D17*
X139380000Y-139000000D03*
D18*
X147000000Y-139000000D03*
D17*
X139380000Y-135000000D03*
D18*
X147000000Y-135000000D03*
D17*
X151380000Y-135000000D03*
D18*
X159000000Y-135000000D03*
D21*
X189000000Y-75280000D03*
X189000000Y-80360000D03*
X189000000Y-85440000D03*
X189000000Y-90520000D03*
X189000000Y-95600000D03*
X189000000Y-100680000D03*
X189000000Y-105760000D03*
X189000000Y-110840000D03*
X189000000Y-115920000D03*
D22*
X189000000Y-121000000D03*
D11*
X134000000Y-70000000D03*
X134000000Y-67500000D03*
X134000000Y-65000000D03*
X134000000Y-62500000D03*
D12*
X134000000Y-60000000D03*
D11*
X151000000Y-70000000D03*
X151000000Y-67500000D03*
X151000000Y-65000000D03*
X151000000Y-62500000D03*
D12*
X151000000Y-60000000D03*
D13*
X116500000Y-115000000D03*
X114000000Y-115000000D03*
X111500000Y-115000000D03*
D14*
X109000000Y-115000000D03*
D23*
X116500000Y-105000000D03*
D24*
X114000000Y-105000000D03*
D25*
X189000000Y-139160000D03*
X189000000Y-134080000D03*
D26*
X189000000Y-129000000D03*
D11*
X171000000Y-101000000D03*
X171000000Y-98500000D03*
X171000000Y-96000000D03*
X171000000Y-93500000D03*
X171000000Y-91000000D03*
X171000000Y-88500000D03*
D12*
X171000000Y-86000000D03*
D13*
X167500000Y-113000000D03*
X170000000Y-113000000D03*
X172500000Y-113000000D03*
D15*
X175000000Y-113000000D03*
D13*
X116500000Y-124000000D03*
X114000000Y-124000000D03*
X111500000Y-124000000D03*
D14*
X109000000Y-124000000D03*
D11*
X143000000Y-70000000D03*
X143000000Y-67500000D03*
X143000000Y-65000000D03*
X143000000Y-62500000D03*
D12*
X143000000Y-60000000D03*
D27*
X134000000Y-97000000D03*
X136000000Y-124000000D03*
X164000000Y-113000000D03*
D28*
X136000000Y-99000000D02*
X134000000Y-97000000D01*
X136000000Y-124000000D02*
X136000000Y-99000000D01*
X142000000Y-98000000D02*
X138700000Y-94700000D01*
X138700000Y-94700000D02*
X131300000Y-94700000D01*
X142000000Y-134000000D02*
X142000000Y-98000000D01*
X147000000Y-139000000D02*
X142000000Y-134000000D01*
X144000000Y-127620000D02*
X151380000Y-135000000D01*
X144000000Y-95000000D02*
X144000000Y-127620000D01*
X141160000Y-92160000D02*
X144000000Y-95000000D01*
X131300000Y-92160000D02*
X141160000Y-92160000D01*
X141620000Y-89620000D02*
X131300000Y-89620000D01*
X145000000Y-107000000D02*
X145000000Y-93000000D01*
X145000000Y-93000000D02*
X141620000Y-89620000D01*
X154473000Y-116473000D02*
X145000000Y-107000000D01*
X175500000Y-121000000D02*
X170973000Y-116473000D01*
X170973000Y-116473000D02*
X154473000Y-116473000D01*
X114000000Y-114875000D02*
X114000000Y-115000000D01*
X117875000Y-111000000D02*
X114000000Y-114875000D01*
X124740000Y-111000000D02*
X131300000Y-117560000D01*
X117875000Y-111000000D02*
X124740000Y-111000000D01*
X156700000Y-117560000D02*
X170785000Y-117560000D01*
X173000000Y-119775000D02*
X170785000Y-117560000D01*
X173000000Y-121000000D02*
X173000000Y-119775000D01*
X155000000Y-85380000D02*
X156700000Y-87080000D01*
X155000000Y-71375000D02*
X155000000Y-85380000D01*
X151000000Y-67500000D02*
X151125000Y-67500000D01*
X151125000Y-67500000D02*
X155000000Y-71375000D01*
X170500000Y-121125000D02*
X174375000Y-125000000D01*
X170500000Y-121000000D02*
X170500000Y-121125000D01*
X174375000Y-125000000D02*
X177000000Y-125000000D01*
X171125000Y-88500000D02*
X171000000Y-88500000D01*
X177000000Y-94375000D02*
X171125000Y-88500000D01*
X177000000Y-125000000D02*
X177000000Y-94375000D01*
X131500000Y-62500000D02*
X134000000Y-62500000D01*
X109000000Y-90000000D02*
X111000000Y-88000000D01*
X109000000Y-96000000D02*
X109000000Y-90000000D01*
X111000000Y-88000000D02*
X122000000Y-88000000D01*
X122000000Y-88000000D02*
X125000000Y-85000000D01*
X125000000Y-85000000D02*
X125000000Y-69000000D01*
X125000000Y-69000000D02*
X131500000Y-62500000D01*
X180000000Y-77000000D02*
X171000000Y-86000000D01*
X180000000Y-59000000D02*
X180000000Y-77000000D01*
X176000000Y-59000000D02*
X180000000Y-59000000D01*
X175460000Y-61000000D02*
X175460000Y-59540000D01*
X175460000Y-59540000D02*
X176000000Y-59000000D01*
X173000000Y-126000000D02*
X168000000Y-121000000D01*
X179000000Y-126000000D02*
X173000000Y-126000000D01*
X171000000Y-86000000D02*
X179000000Y-94000000D01*
X179000000Y-94000000D02*
X179000000Y-126000000D01*
X109000000Y-124000000D02*
X109000000Y-122000000D01*
X110900000Y-120100000D02*
X131300000Y-120100000D01*
X109000000Y-122000000D02*
X110900000Y-120100000D01*
X131300000Y-134300000D02*
X131300000Y-120100000D01*
X138000000Y-141000000D02*
X131300000Y-134300000D01*
X161000000Y-141000000D02*
X138000000Y-141000000D01*
X168000000Y-121000000D02*
X168000000Y-134000000D01*
X168000000Y-134000000D02*
X161000000Y-141000000D01*
X116500000Y-95875000D02*
X117000000Y-95375000D01*
X116500000Y-96000000D02*
X116500000Y-95875000D01*
X117000000Y-95375000D02*
X117000000Y-93000000D01*
X117000000Y-93000000D02*
X118000000Y-92000000D01*
X123520000Y-92000000D02*
X131300000Y-99780000D01*
X118000000Y-92000000D02*
X123520000Y-92000000D01*
X119000000Y-96125000D02*
X119000000Y-96000000D01*
X125195000Y-102320000D02*
X119000000Y-96125000D01*
X131300000Y-102320000D02*
X125195000Y-102320000D01*
X164000000Y-73920000D02*
X172920000Y-65000000D01*
X164000000Y-113000000D02*
X164000000Y-73920000D01*
X111500000Y-92500000D02*
X111500000Y-96000000D01*
X113521999Y-90478001D02*
X111500000Y-92500000D01*
X124538001Y-90478001D02*
X131300000Y-97240000D01*
X113521999Y-90478001D02*
X124538001Y-90478001D01*
M02*
