G04 #@! TF.GenerationSoftware,KiCad,Pcbnew,(5.1.2)-2*
G04 #@! TF.CreationDate,2023-01-06T14:54:35+01:00*
G04 #@! TF.ProjectId,greenhouse,67726565-6e68-46f7-9573-652e6b696361,rev?*
G04 #@! TF.SameCoordinates,Original*
G04 #@! TF.FileFunction,Soldermask,Top*
G04 #@! TF.FilePolarity,Negative*
%FSLAX46Y46*%
G04 Gerber Fmt 4.6, Leading zero omitted, Abs format (unit mm)*
G04 Created by KiCad (PCBNEW (5.1.2)-2) date 2023-01-06 14:54:35*
%MOMM*%
%LPD*%
G04 APERTURE LIST*
%ADD10C,0.100000*%
G04 APERTURE END LIST*
D10*
G36*
X189302585Y-137638802D02*
G01*
X189452410Y-137668604D01*
X189734674Y-137785521D01*
X189988705Y-137955259D01*
X190204741Y-138171295D01*
X190374479Y-138425326D01*
X190438857Y-138580750D01*
X190491396Y-138707591D01*
X190551000Y-139007239D01*
X190551000Y-139312761D01*
X190521198Y-139462585D01*
X190491396Y-139612410D01*
X190374479Y-139894674D01*
X190204741Y-140148705D01*
X189988705Y-140364741D01*
X189734674Y-140534479D01*
X189452410Y-140651396D01*
X189302585Y-140681198D01*
X189152761Y-140711000D01*
X188847239Y-140711000D01*
X188697415Y-140681198D01*
X188547590Y-140651396D01*
X188265326Y-140534479D01*
X188011295Y-140364741D01*
X187795259Y-140148705D01*
X187625521Y-139894674D01*
X187508604Y-139612410D01*
X187478802Y-139462585D01*
X187449000Y-139312761D01*
X187449000Y-139007239D01*
X187508604Y-138707591D01*
X187561143Y-138580750D01*
X187625521Y-138425326D01*
X187795259Y-138171295D01*
X188011295Y-137955259D01*
X188265326Y-137785521D01*
X188547590Y-137668604D01*
X188697415Y-137638802D01*
X188847239Y-137609000D01*
X189152761Y-137609000D01*
X189302585Y-137638802D01*
X189302585Y-137638802D01*
G37*
G36*
X159219059Y-138277860D02*
G01*
X159279294Y-138302810D01*
X159355732Y-138334472D01*
X159478735Y-138416660D01*
X159583340Y-138521265D01*
X159665528Y-138644268D01*
X159722140Y-138780941D01*
X159751000Y-138926033D01*
X159751000Y-139073967D01*
X159722140Y-139219059D01*
X159665528Y-139355732D01*
X159583340Y-139478735D01*
X159478735Y-139583340D01*
X159355732Y-139665528D01*
X159355731Y-139665529D01*
X159355730Y-139665529D01*
X159219059Y-139722140D01*
X159073968Y-139751000D01*
X158926032Y-139751000D01*
X158780941Y-139722140D01*
X158644270Y-139665529D01*
X158644269Y-139665529D01*
X158644268Y-139665528D01*
X158521265Y-139583340D01*
X158416660Y-139478735D01*
X158334472Y-139355732D01*
X158277860Y-139219059D01*
X158249000Y-139073967D01*
X158249000Y-138926033D01*
X158277860Y-138780941D01*
X158334472Y-138644268D01*
X158416660Y-138521265D01*
X158521265Y-138416660D01*
X158644268Y-138334472D01*
X158720707Y-138302810D01*
X158780941Y-138277860D01*
X158926032Y-138249000D01*
X159073968Y-138249000D01*
X159219059Y-138277860D01*
X159219059Y-138277860D01*
G37*
G36*
X151453665Y-138252622D02*
G01*
X151527222Y-138259867D01*
X151668786Y-138302810D01*
X151799252Y-138372546D01*
X151829040Y-138396992D01*
X151913607Y-138466393D01*
X151983008Y-138550960D01*
X152007454Y-138580748D01*
X152007455Y-138580750D01*
X152075254Y-138707591D01*
X152077190Y-138711214D01*
X152120133Y-138852778D01*
X152134633Y-139000000D01*
X152120133Y-139147222D01*
X152077190Y-139288786D01*
X152007454Y-139419252D01*
X151983008Y-139449040D01*
X151913607Y-139533607D01*
X151853004Y-139583341D01*
X151799252Y-139627454D01*
X151668786Y-139697190D01*
X151527222Y-139740133D01*
X151453665Y-139747378D01*
X151416888Y-139751000D01*
X151343112Y-139751000D01*
X151306335Y-139747378D01*
X151232778Y-139740133D01*
X151091214Y-139697190D01*
X150960748Y-139627454D01*
X150906996Y-139583341D01*
X150846393Y-139533607D01*
X150776992Y-139449040D01*
X150752546Y-139419252D01*
X150682810Y-139288786D01*
X150639867Y-139147222D01*
X150625367Y-139000000D01*
X150639867Y-138852778D01*
X150682810Y-138711214D01*
X150684747Y-138707591D01*
X150752545Y-138580750D01*
X150752546Y-138580748D01*
X150776992Y-138550960D01*
X150846393Y-138466393D01*
X150930960Y-138396992D01*
X150960748Y-138372546D01*
X151091214Y-138302810D01*
X151232778Y-138259867D01*
X151306335Y-138252622D01*
X151343112Y-138249000D01*
X151416888Y-138249000D01*
X151453665Y-138252622D01*
X151453665Y-138252622D01*
G37*
G36*
X147219059Y-138277860D02*
G01*
X147279294Y-138302810D01*
X147355732Y-138334472D01*
X147478735Y-138416660D01*
X147583340Y-138521265D01*
X147665528Y-138644268D01*
X147722140Y-138780941D01*
X147751000Y-138926033D01*
X147751000Y-139073967D01*
X147722140Y-139219059D01*
X147665528Y-139355732D01*
X147583340Y-139478735D01*
X147478735Y-139583340D01*
X147355732Y-139665528D01*
X147355731Y-139665529D01*
X147355730Y-139665529D01*
X147219059Y-139722140D01*
X147073968Y-139751000D01*
X146926032Y-139751000D01*
X146780941Y-139722140D01*
X146644270Y-139665529D01*
X146644269Y-139665529D01*
X146644268Y-139665528D01*
X146521265Y-139583340D01*
X146416660Y-139478735D01*
X146334472Y-139355732D01*
X146277860Y-139219059D01*
X146249000Y-139073967D01*
X146249000Y-138926033D01*
X146277860Y-138780941D01*
X146334472Y-138644268D01*
X146416660Y-138521265D01*
X146521265Y-138416660D01*
X146644268Y-138334472D01*
X146720707Y-138302810D01*
X146780941Y-138277860D01*
X146926032Y-138249000D01*
X147073968Y-138249000D01*
X147219059Y-138277860D01*
X147219059Y-138277860D01*
G37*
G36*
X139453665Y-138252622D02*
G01*
X139527222Y-138259867D01*
X139668786Y-138302810D01*
X139799252Y-138372546D01*
X139829040Y-138396992D01*
X139913607Y-138466393D01*
X139983008Y-138550960D01*
X140007454Y-138580748D01*
X140007455Y-138580750D01*
X140075254Y-138707591D01*
X140077190Y-138711214D01*
X140120133Y-138852778D01*
X140134633Y-139000000D01*
X140120133Y-139147222D01*
X140077190Y-139288786D01*
X140007454Y-139419252D01*
X139983008Y-139449040D01*
X139913607Y-139533607D01*
X139853004Y-139583341D01*
X139799252Y-139627454D01*
X139668786Y-139697190D01*
X139527222Y-139740133D01*
X139453665Y-139747378D01*
X139416888Y-139751000D01*
X139343112Y-139751000D01*
X139306335Y-139747378D01*
X139232778Y-139740133D01*
X139091214Y-139697190D01*
X138960748Y-139627454D01*
X138906996Y-139583341D01*
X138846393Y-139533607D01*
X138776992Y-139449040D01*
X138752546Y-139419252D01*
X138682810Y-139288786D01*
X138639867Y-139147222D01*
X138625367Y-139000000D01*
X138639867Y-138852778D01*
X138682810Y-138711214D01*
X138684747Y-138707591D01*
X138752545Y-138580750D01*
X138752546Y-138580748D01*
X138776992Y-138550960D01*
X138846393Y-138466393D01*
X138930960Y-138396992D01*
X138960748Y-138372546D01*
X139091214Y-138302810D01*
X139232778Y-138259867D01*
X139306335Y-138252622D01*
X139343112Y-138249000D01*
X139416888Y-138249000D01*
X139453665Y-138252622D01*
X139453665Y-138252622D01*
G37*
G36*
X139453665Y-134252622D02*
G01*
X139527222Y-134259867D01*
X139668786Y-134302810D01*
X139799252Y-134372546D01*
X139829040Y-134396992D01*
X139913607Y-134466393D01*
X139967784Y-134532410D01*
X140007454Y-134580748D01*
X140077190Y-134711214D01*
X140120133Y-134852778D01*
X140134633Y-135000000D01*
X140120133Y-135147222D01*
X140077190Y-135288786D01*
X140007454Y-135419252D01*
X139983008Y-135449040D01*
X139913607Y-135533607D01*
X139853004Y-135583341D01*
X139799252Y-135627454D01*
X139668786Y-135697190D01*
X139527222Y-135740133D01*
X139453665Y-135747378D01*
X139416888Y-135751000D01*
X139343112Y-135751000D01*
X139306335Y-135747378D01*
X139232778Y-135740133D01*
X139091214Y-135697190D01*
X138960748Y-135627454D01*
X138906996Y-135583341D01*
X138846393Y-135533607D01*
X138776992Y-135449040D01*
X138752546Y-135419252D01*
X138682810Y-135288786D01*
X138639867Y-135147222D01*
X138625367Y-135000000D01*
X138639867Y-134852778D01*
X138682810Y-134711214D01*
X138752546Y-134580748D01*
X138792216Y-134532410D01*
X138846393Y-134466393D01*
X138930960Y-134396992D01*
X138960748Y-134372546D01*
X139091214Y-134302810D01*
X139232778Y-134259867D01*
X139306335Y-134252622D01*
X139343112Y-134249000D01*
X139416888Y-134249000D01*
X139453665Y-134252622D01*
X139453665Y-134252622D01*
G37*
G36*
X159219059Y-134277860D02*
G01*
X159279294Y-134302810D01*
X159355732Y-134334472D01*
X159478735Y-134416660D01*
X159583340Y-134521265D01*
X159665528Y-134644268D01*
X159722140Y-134780941D01*
X159751000Y-134926033D01*
X159751000Y-135073967D01*
X159722140Y-135219059D01*
X159665528Y-135355732D01*
X159583340Y-135478735D01*
X159478735Y-135583340D01*
X159355732Y-135665528D01*
X159355731Y-135665529D01*
X159355730Y-135665529D01*
X159219059Y-135722140D01*
X159073968Y-135751000D01*
X158926032Y-135751000D01*
X158780941Y-135722140D01*
X158644270Y-135665529D01*
X158644269Y-135665529D01*
X158644268Y-135665528D01*
X158521265Y-135583340D01*
X158416660Y-135478735D01*
X158334472Y-135355732D01*
X158277860Y-135219059D01*
X158249000Y-135073967D01*
X158249000Y-134926033D01*
X158277860Y-134780941D01*
X158334472Y-134644268D01*
X158416660Y-134521265D01*
X158521265Y-134416660D01*
X158644268Y-134334472D01*
X158720707Y-134302810D01*
X158780941Y-134277860D01*
X158926032Y-134249000D01*
X159073968Y-134249000D01*
X159219059Y-134277860D01*
X159219059Y-134277860D01*
G37*
G36*
X151453665Y-134252622D02*
G01*
X151527222Y-134259867D01*
X151668786Y-134302810D01*
X151799252Y-134372546D01*
X151829040Y-134396992D01*
X151913607Y-134466393D01*
X151967784Y-134532410D01*
X152007454Y-134580748D01*
X152077190Y-134711214D01*
X152120133Y-134852778D01*
X152134633Y-135000000D01*
X152120133Y-135147222D01*
X152077190Y-135288786D01*
X152007454Y-135419252D01*
X151983008Y-135449040D01*
X151913607Y-135533607D01*
X151853004Y-135583341D01*
X151799252Y-135627454D01*
X151668786Y-135697190D01*
X151527222Y-135740133D01*
X151453665Y-135747378D01*
X151416888Y-135751000D01*
X151343112Y-135751000D01*
X151306335Y-135747378D01*
X151232778Y-135740133D01*
X151091214Y-135697190D01*
X150960748Y-135627454D01*
X150906996Y-135583341D01*
X150846393Y-135533607D01*
X150776992Y-135449040D01*
X150752546Y-135419252D01*
X150682810Y-135288786D01*
X150639867Y-135147222D01*
X150625367Y-135000000D01*
X150639867Y-134852778D01*
X150682810Y-134711214D01*
X150752546Y-134580748D01*
X150792216Y-134532410D01*
X150846393Y-134466393D01*
X150930960Y-134396992D01*
X150960748Y-134372546D01*
X151091214Y-134302810D01*
X151232778Y-134259867D01*
X151306335Y-134252622D01*
X151343112Y-134249000D01*
X151416888Y-134249000D01*
X151453665Y-134252622D01*
X151453665Y-134252622D01*
G37*
G36*
X147219059Y-134277860D02*
G01*
X147279294Y-134302810D01*
X147355732Y-134334472D01*
X147478735Y-134416660D01*
X147583340Y-134521265D01*
X147665528Y-134644268D01*
X147722140Y-134780941D01*
X147751000Y-134926033D01*
X147751000Y-135073967D01*
X147722140Y-135219059D01*
X147665528Y-135355732D01*
X147583340Y-135478735D01*
X147478735Y-135583340D01*
X147355732Y-135665528D01*
X147355731Y-135665529D01*
X147355730Y-135665529D01*
X147219059Y-135722140D01*
X147073968Y-135751000D01*
X146926032Y-135751000D01*
X146780941Y-135722140D01*
X146644270Y-135665529D01*
X146644269Y-135665529D01*
X146644268Y-135665528D01*
X146521265Y-135583340D01*
X146416660Y-135478735D01*
X146334472Y-135355732D01*
X146277860Y-135219059D01*
X146249000Y-135073967D01*
X146249000Y-134926033D01*
X146277860Y-134780941D01*
X146334472Y-134644268D01*
X146416660Y-134521265D01*
X146521265Y-134416660D01*
X146644268Y-134334472D01*
X146720707Y-134302810D01*
X146780941Y-134277860D01*
X146926032Y-134249000D01*
X147073968Y-134249000D01*
X147219059Y-134277860D01*
X147219059Y-134277860D01*
G37*
G36*
X189302585Y-132558802D02*
G01*
X189452410Y-132588604D01*
X189734674Y-132705521D01*
X189988705Y-132875259D01*
X190204741Y-133091295D01*
X190374479Y-133345326D01*
X190491396Y-133627590D01*
X190491396Y-133627591D01*
X190551000Y-133927239D01*
X190551000Y-134232761D01*
X190530768Y-134334472D01*
X190491396Y-134532410D01*
X190374479Y-134814674D01*
X190204741Y-135068705D01*
X189988705Y-135284741D01*
X189734674Y-135454479D01*
X189452410Y-135571396D01*
X189392363Y-135583340D01*
X189152761Y-135631000D01*
X188847239Y-135631000D01*
X188607637Y-135583340D01*
X188547590Y-135571396D01*
X188265326Y-135454479D01*
X188011295Y-135284741D01*
X187795259Y-135068705D01*
X187625521Y-134814674D01*
X187508604Y-134532410D01*
X187469232Y-134334472D01*
X187449000Y-134232761D01*
X187449000Y-133927239D01*
X187508604Y-133627591D01*
X187508604Y-133627590D01*
X187625521Y-133345326D01*
X187795259Y-133091295D01*
X188011295Y-132875259D01*
X188265326Y-132705521D01*
X188547590Y-132588604D01*
X188697415Y-132558802D01*
X188847239Y-132529000D01*
X189152761Y-132529000D01*
X189302585Y-132558802D01*
X189302585Y-132558802D01*
G37*
G36*
X190551000Y-130551000D02*
G01*
X187449000Y-130551000D01*
X187449000Y-127449000D01*
X190551000Y-127449000D01*
X190551000Y-130551000D01*
X190551000Y-130551000D01*
G37*
G36*
X116676626Y-122987037D02*
G01*
X116846465Y-123038557D01*
X116846467Y-123038558D01*
X117002989Y-123122221D01*
X117140186Y-123234814D01*
X117223448Y-123336271D01*
X117252778Y-123372009D01*
X117336443Y-123528534D01*
X117387963Y-123698373D01*
X117401000Y-123830742D01*
X117401000Y-124169257D01*
X117387963Y-124301626D01*
X117336443Y-124471466D01*
X117252778Y-124627991D01*
X117223448Y-124663729D01*
X117140186Y-124765186D01*
X117045250Y-124843097D01*
X117002991Y-124877778D01*
X116846466Y-124961443D01*
X116676627Y-125012963D01*
X116500000Y-125030359D01*
X116323374Y-125012963D01*
X116153535Y-124961443D01*
X115997010Y-124877778D01*
X115859815Y-124765185D01*
X115747222Y-124627991D01*
X115663557Y-124471466D01*
X115612037Y-124301627D01*
X115599000Y-124169258D01*
X115599000Y-123830743D01*
X115612037Y-123698374D01*
X115663557Y-123528535D01*
X115747222Y-123372010D01*
X115747223Y-123372009D01*
X115859814Y-123234814D01*
X115961271Y-123151552D01*
X115997009Y-123122222D01*
X116153534Y-123038557D01*
X116323373Y-122987037D01*
X116500000Y-122969641D01*
X116676626Y-122987037D01*
X116676626Y-122987037D01*
G37*
G36*
X114176626Y-122987037D02*
G01*
X114346465Y-123038557D01*
X114346467Y-123038558D01*
X114502989Y-123122221D01*
X114640186Y-123234814D01*
X114723448Y-123336271D01*
X114752778Y-123372009D01*
X114836443Y-123528534D01*
X114887963Y-123698373D01*
X114901000Y-123830742D01*
X114901000Y-124169257D01*
X114887963Y-124301626D01*
X114836443Y-124471466D01*
X114752778Y-124627991D01*
X114723448Y-124663729D01*
X114640186Y-124765186D01*
X114545250Y-124843097D01*
X114502991Y-124877778D01*
X114346466Y-124961443D01*
X114176627Y-125012963D01*
X114000000Y-125030359D01*
X113823374Y-125012963D01*
X113653535Y-124961443D01*
X113497010Y-124877778D01*
X113359815Y-124765185D01*
X113247222Y-124627991D01*
X113163557Y-124471466D01*
X113112037Y-124301627D01*
X113099000Y-124169258D01*
X113099000Y-123830743D01*
X113112037Y-123698374D01*
X113163557Y-123528535D01*
X113247222Y-123372010D01*
X113247223Y-123372009D01*
X113359814Y-123234814D01*
X113461271Y-123151552D01*
X113497009Y-123122222D01*
X113653534Y-123038557D01*
X113823373Y-122987037D01*
X114000000Y-122969641D01*
X114176626Y-122987037D01*
X114176626Y-122987037D01*
G37*
G36*
X111676626Y-122987037D02*
G01*
X111846465Y-123038557D01*
X111846467Y-123038558D01*
X112002989Y-123122221D01*
X112140186Y-123234814D01*
X112223448Y-123336271D01*
X112252778Y-123372009D01*
X112336443Y-123528534D01*
X112387963Y-123698373D01*
X112401000Y-123830742D01*
X112401000Y-124169257D01*
X112387963Y-124301626D01*
X112336443Y-124471466D01*
X112252778Y-124627991D01*
X112223448Y-124663729D01*
X112140186Y-124765186D01*
X112045250Y-124843097D01*
X112002991Y-124877778D01*
X111846466Y-124961443D01*
X111676627Y-125012963D01*
X111500000Y-125030359D01*
X111323374Y-125012963D01*
X111153535Y-124961443D01*
X110997010Y-124877778D01*
X110859815Y-124765185D01*
X110747222Y-124627991D01*
X110663557Y-124471466D01*
X110612037Y-124301627D01*
X110599000Y-124169258D01*
X110599000Y-123830743D01*
X110612037Y-123698374D01*
X110663557Y-123528535D01*
X110747222Y-123372010D01*
X110747223Y-123372009D01*
X110859814Y-123234814D01*
X110961271Y-123151552D01*
X110997009Y-123122222D01*
X111153534Y-123038557D01*
X111323373Y-122987037D01*
X111500000Y-122969641D01*
X111676626Y-122987037D01*
X111676626Y-122987037D01*
G37*
G36*
X109758600Y-122977989D02*
G01*
X109791652Y-122988015D01*
X109822103Y-123004292D01*
X109848799Y-123026201D01*
X109870708Y-123052897D01*
X109886985Y-123083348D01*
X109897011Y-123116400D01*
X109901000Y-123156903D01*
X109901000Y-124843097D01*
X109897011Y-124883600D01*
X109886985Y-124916652D01*
X109870708Y-124947103D01*
X109848799Y-124973799D01*
X109822103Y-124995708D01*
X109791652Y-125011985D01*
X109758600Y-125022011D01*
X109718097Y-125026000D01*
X108281903Y-125026000D01*
X108241400Y-125022011D01*
X108208348Y-125011985D01*
X108177897Y-124995708D01*
X108151201Y-124973799D01*
X108129292Y-124947103D01*
X108113015Y-124916652D01*
X108102989Y-124883600D01*
X108099000Y-124843097D01*
X108099000Y-123156903D01*
X108102989Y-123116400D01*
X108113015Y-123083348D01*
X108129292Y-123052897D01*
X108151201Y-123026201D01*
X108177897Y-123004292D01*
X108208348Y-122988015D01*
X108241400Y-122977989D01*
X108281903Y-122974000D01*
X109718097Y-122974000D01*
X109758600Y-122977989D01*
X109758600Y-122977989D01*
G37*
G36*
X190101000Y-122101000D02*
G01*
X187899000Y-122101000D01*
X187899000Y-119899000D01*
X190101000Y-119899000D01*
X190101000Y-122101000D01*
X190101000Y-122101000D01*
G37*
G36*
X175676626Y-119987037D02*
G01*
X175846465Y-120038557D01*
X175846467Y-120038558D01*
X176002989Y-120122221D01*
X176140186Y-120234814D01*
X176223448Y-120336271D01*
X176252778Y-120372009D01*
X176336443Y-120528534D01*
X176387963Y-120698373D01*
X176391226Y-120731501D01*
X176399989Y-120820471D01*
X176401000Y-120830742D01*
X176401000Y-121169257D01*
X176387963Y-121301626D01*
X176336443Y-121471466D01*
X176252778Y-121627991D01*
X176223448Y-121663729D01*
X176140186Y-121765186D01*
X176045250Y-121843097D01*
X176002991Y-121877778D01*
X175846466Y-121961443D01*
X175676627Y-122012963D01*
X175500000Y-122030359D01*
X175323374Y-122012963D01*
X175153535Y-121961443D01*
X174997010Y-121877778D01*
X174859815Y-121765185D01*
X174747222Y-121627991D01*
X174663557Y-121471466D01*
X174612037Y-121301627D01*
X174599000Y-121169258D01*
X174599000Y-120830743D01*
X174612037Y-120698374D01*
X174663557Y-120528535D01*
X174686773Y-120485101D01*
X174747221Y-120372011D01*
X174859814Y-120234814D01*
X174961271Y-120151552D01*
X174997009Y-120122222D01*
X175153534Y-120038557D01*
X175323373Y-119987037D01*
X175500000Y-119969641D01*
X175676626Y-119987037D01*
X175676626Y-119987037D01*
G37*
G36*
X173176626Y-119987037D02*
G01*
X173346465Y-120038557D01*
X173346467Y-120038558D01*
X173502989Y-120122221D01*
X173640186Y-120234814D01*
X173723448Y-120336271D01*
X173752778Y-120372009D01*
X173836443Y-120528534D01*
X173887963Y-120698373D01*
X173891226Y-120731501D01*
X173899989Y-120820471D01*
X173901000Y-120830742D01*
X173901000Y-121169257D01*
X173887963Y-121301626D01*
X173836443Y-121471466D01*
X173752778Y-121627991D01*
X173723448Y-121663729D01*
X173640186Y-121765186D01*
X173545250Y-121843097D01*
X173502991Y-121877778D01*
X173346466Y-121961443D01*
X173176627Y-122012963D01*
X173000000Y-122030359D01*
X172823374Y-122012963D01*
X172653535Y-121961443D01*
X172497010Y-121877778D01*
X172359815Y-121765185D01*
X172247222Y-121627991D01*
X172163557Y-121471466D01*
X172112037Y-121301627D01*
X172099000Y-121169258D01*
X172099000Y-120830743D01*
X172112037Y-120698374D01*
X172163557Y-120528535D01*
X172186773Y-120485101D01*
X172247221Y-120372011D01*
X172359814Y-120234814D01*
X172461271Y-120151552D01*
X172497009Y-120122222D01*
X172653534Y-120038557D01*
X172823373Y-119987037D01*
X173000000Y-119969641D01*
X173176626Y-119987037D01*
X173176626Y-119987037D01*
G37*
G36*
X170676626Y-119987037D02*
G01*
X170846465Y-120038557D01*
X170846467Y-120038558D01*
X171002989Y-120122221D01*
X171140186Y-120234814D01*
X171223448Y-120336271D01*
X171252778Y-120372009D01*
X171336443Y-120528534D01*
X171387963Y-120698373D01*
X171391226Y-120731501D01*
X171399989Y-120820471D01*
X171401000Y-120830742D01*
X171401000Y-121169257D01*
X171387963Y-121301626D01*
X171336443Y-121471466D01*
X171252778Y-121627991D01*
X171223448Y-121663729D01*
X171140186Y-121765186D01*
X171045250Y-121843097D01*
X171002991Y-121877778D01*
X170846466Y-121961443D01*
X170676627Y-122012963D01*
X170500000Y-122030359D01*
X170323374Y-122012963D01*
X170153535Y-121961443D01*
X169997010Y-121877778D01*
X169859815Y-121765185D01*
X169747222Y-121627991D01*
X169663557Y-121471466D01*
X169612037Y-121301627D01*
X169599000Y-121169258D01*
X169599000Y-120830743D01*
X169612037Y-120698374D01*
X169663557Y-120528535D01*
X169686773Y-120485101D01*
X169747221Y-120372011D01*
X169859814Y-120234814D01*
X169961271Y-120151552D01*
X169997009Y-120122222D01*
X170153534Y-120038557D01*
X170323373Y-119987037D01*
X170500000Y-119969641D01*
X170676626Y-119987037D01*
X170676626Y-119987037D01*
G37*
G36*
X168758600Y-119977989D02*
G01*
X168791652Y-119988015D01*
X168822103Y-120004292D01*
X168848799Y-120026201D01*
X168870708Y-120052897D01*
X168886985Y-120083348D01*
X168897011Y-120116400D01*
X168901000Y-120156903D01*
X168901000Y-121843097D01*
X168897011Y-121883600D01*
X168886985Y-121916652D01*
X168870708Y-121947103D01*
X168848799Y-121973799D01*
X168822103Y-121995708D01*
X168791652Y-122011985D01*
X168758600Y-122022011D01*
X168718097Y-122026000D01*
X167281903Y-122026000D01*
X167241400Y-122022011D01*
X167208348Y-122011985D01*
X167177897Y-121995708D01*
X167151201Y-121973799D01*
X167129292Y-121947103D01*
X167113015Y-121916652D01*
X167102989Y-121883600D01*
X167099000Y-121843097D01*
X167099000Y-120156903D01*
X167102989Y-120116400D01*
X167113015Y-120083348D01*
X167129292Y-120052897D01*
X167151201Y-120026201D01*
X167177897Y-120004292D01*
X167208348Y-119988015D01*
X167241400Y-119977989D01*
X167281903Y-119974000D01*
X168718097Y-119974000D01*
X168758600Y-119977989D01*
X168758600Y-119977989D01*
G37*
G36*
X131537142Y-119318242D02*
G01*
X131685101Y-119379529D01*
X131818255Y-119468499D01*
X131931501Y-119581745D01*
X132020471Y-119714899D01*
X132081758Y-119862858D01*
X132113000Y-120019925D01*
X132113000Y-120180075D01*
X132081758Y-120337142D01*
X132020471Y-120485101D01*
X131931501Y-120618255D01*
X131818255Y-120731501D01*
X131685101Y-120820471D01*
X131537142Y-120881758D01*
X131380075Y-120913000D01*
X131219925Y-120913000D01*
X131062858Y-120881758D01*
X130914899Y-120820471D01*
X130781745Y-120731501D01*
X130668499Y-120618255D01*
X130579529Y-120485101D01*
X130518242Y-120337142D01*
X130487000Y-120180075D01*
X130487000Y-120019925D01*
X130518242Y-119862858D01*
X130579529Y-119714899D01*
X130668499Y-119581745D01*
X130781745Y-119468499D01*
X130914899Y-119379529D01*
X131062858Y-119318242D01*
X131219925Y-119287000D01*
X131380075Y-119287000D01*
X131537142Y-119318242D01*
X131537142Y-119318242D01*
G37*
G36*
X156937142Y-119318242D02*
G01*
X157085101Y-119379529D01*
X157218255Y-119468499D01*
X157331501Y-119581745D01*
X157420471Y-119714899D01*
X157481758Y-119862858D01*
X157513000Y-120019925D01*
X157513000Y-120180075D01*
X157481758Y-120337142D01*
X157420471Y-120485101D01*
X157331501Y-120618255D01*
X157218255Y-120731501D01*
X157085101Y-120820471D01*
X156937142Y-120881758D01*
X156780075Y-120913000D01*
X156619925Y-120913000D01*
X156462858Y-120881758D01*
X156314899Y-120820471D01*
X156181745Y-120731501D01*
X156068499Y-120618255D01*
X155979529Y-120485101D01*
X155918242Y-120337142D01*
X155887000Y-120180075D01*
X155887000Y-120019925D01*
X155918242Y-119862858D01*
X155979529Y-119714899D01*
X156068499Y-119581745D01*
X156181745Y-119468499D01*
X156314899Y-119379529D01*
X156462858Y-119318242D01*
X156619925Y-119287000D01*
X156780075Y-119287000D01*
X156937142Y-119318242D01*
X156937142Y-119318242D01*
G37*
G36*
X131537142Y-116778242D02*
G01*
X131685101Y-116839529D01*
X131818255Y-116928499D01*
X131931501Y-117041745D01*
X132020471Y-117174899D01*
X132081758Y-117322858D01*
X132113000Y-117479925D01*
X132113000Y-117640075D01*
X132081758Y-117797142D01*
X132020471Y-117945101D01*
X131931501Y-118078255D01*
X131818255Y-118191501D01*
X131685101Y-118280471D01*
X131537142Y-118341758D01*
X131380075Y-118373000D01*
X131219925Y-118373000D01*
X131062858Y-118341758D01*
X130914899Y-118280471D01*
X130781745Y-118191501D01*
X130668499Y-118078255D01*
X130579529Y-117945101D01*
X130518242Y-117797142D01*
X130487000Y-117640075D01*
X130487000Y-117479925D01*
X130518242Y-117322858D01*
X130579529Y-117174899D01*
X130668499Y-117041745D01*
X130781745Y-116928499D01*
X130914899Y-116839529D01*
X131062858Y-116778242D01*
X131219925Y-116747000D01*
X131380075Y-116747000D01*
X131537142Y-116778242D01*
X131537142Y-116778242D01*
G37*
G36*
X156937142Y-116778242D02*
G01*
X157085101Y-116839529D01*
X157218255Y-116928499D01*
X157331501Y-117041745D01*
X157420471Y-117174899D01*
X157481758Y-117322858D01*
X157513000Y-117479925D01*
X157513000Y-117640075D01*
X157481758Y-117797142D01*
X157420471Y-117945101D01*
X157331501Y-118078255D01*
X157218255Y-118191501D01*
X157085101Y-118280471D01*
X156937142Y-118341758D01*
X156780075Y-118373000D01*
X156619925Y-118373000D01*
X156462858Y-118341758D01*
X156314899Y-118280471D01*
X156181745Y-118191501D01*
X156068499Y-118078255D01*
X155979529Y-117945101D01*
X155918242Y-117797142D01*
X155887000Y-117640075D01*
X155887000Y-117479925D01*
X155918242Y-117322858D01*
X155979529Y-117174899D01*
X156068499Y-117041745D01*
X156181745Y-116928499D01*
X156314899Y-116839529D01*
X156462858Y-116778242D01*
X156619925Y-116747000D01*
X156780075Y-116747000D01*
X156937142Y-116778242D01*
X156937142Y-116778242D01*
G37*
G36*
X189167460Y-114830740D02*
G01*
X189321150Y-114861311D01*
X189421334Y-114902809D01*
X189521520Y-114944307D01*
X189701844Y-115064795D01*
X189855205Y-115218156D01*
X189975693Y-115398480D01*
X189975693Y-115398481D01*
X190058689Y-115598850D01*
X190069162Y-115651501D01*
X190101000Y-115811560D01*
X190101000Y-116028440D01*
X190058689Y-116241149D01*
X189975693Y-116441520D01*
X189855205Y-116621844D01*
X189701844Y-116775205D01*
X189521520Y-116895693D01*
X189442319Y-116928499D01*
X189321150Y-116978689D01*
X189214795Y-116999844D01*
X189108440Y-117021000D01*
X188891560Y-117021000D01*
X188785205Y-116999844D01*
X188678850Y-116978689D01*
X188557681Y-116928499D01*
X188478480Y-116895693D01*
X188298156Y-116775205D01*
X188144795Y-116621844D01*
X188024307Y-116441520D01*
X187941311Y-116241149D01*
X187899000Y-116028440D01*
X187899000Y-115811560D01*
X187930838Y-115651501D01*
X187941311Y-115598850D01*
X188024307Y-115398481D01*
X188024307Y-115398480D01*
X188144795Y-115218156D01*
X188298156Y-115064795D01*
X188478480Y-114944307D01*
X188578666Y-114902809D01*
X188678850Y-114861311D01*
X188832540Y-114830740D01*
X188891560Y-114819000D01*
X189108440Y-114819000D01*
X189167460Y-114830740D01*
X189167460Y-114830740D01*
G37*
G36*
X116676626Y-113987037D02*
G01*
X116846465Y-114038557D01*
X116846467Y-114038558D01*
X117002989Y-114122221D01*
X117140186Y-114234814D01*
X117193295Y-114299529D01*
X117252778Y-114372009D01*
X117336443Y-114528534D01*
X117387963Y-114698373D01*
X117401000Y-114830742D01*
X117401000Y-115169257D01*
X117387963Y-115301626D01*
X117336443Y-115471466D01*
X117252778Y-115627991D01*
X117223448Y-115663729D01*
X117140186Y-115765186D01*
X117057553Y-115833000D01*
X117002991Y-115877778D01*
X116846466Y-115961443D01*
X116676627Y-116012963D01*
X116500000Y-116030359D01*
X116323374Y-116012963D01*
X116153535Y-115961443D01*
X115997010Y-115877778D01*
X115859815Y-115765185D01*
X115747222Y-115627991D01*
X115663557Y-115471466D01*
X115612037Y-115301627D01*
X115599000Y-115169258D01*
X115599000Y-114830743D01*
X115600157Y-114819000D01*
X115612037Y-114698376D01*
X115612037Y-114698374D01*
X115663557Y-114528535D01*
X115747222Y-114372010D01*
X115747223Y-114372009D01*
X115859814Y-114234814D01*
X115961271Y-114151552D01*
X115997009Y-114122222D01*
X116153534Y-114038557D01*
X116323373Y-113987037D01*
X116500000Y-113969641D01*
X116676626Y-113987037D01*
X116676626Y-113987037D01*
G37*
G36*
X114176626Y-113987037D02*
G01*
X114346465Y-114038557D01*
X114346467Y-114038558D01*
X114502989Y-114122221D01*
X114640186Y-114234814D01*
X114693295Y-114299529D01*
X114752778Y-114372009D01*
X114836443Y-114528534D01*
X114887963Y-114698373D01*
X114901000Y-114830742D01*
X114901000Y-115169257D01*
X114887963Y-115301626D01*
X114836443Y-115471466D01*
X114752778Y-115627991D01*
X114723448Y-115663729D01*
X114640186Y-115765186D01*
X114557553Y-115833000D01*
X114502991Y-115877778D01*
X114346466Y-115961443D01*
X114176627Y-116012963D01*
X114000000Y-116030359D01*
X113823374Y-116012963D01*
X113653535Y-115961443D01*
X113497010Y-115877778D01*
X113359815Y-115765185D01*
X113247222Y-115627991D01*
X113163557Y-115471466D01*
X113112037Y-115301627D01*
X113099000Y-115169258D01*
X113099000Y-114830743D01*
X113100157Y-114819000D01*
X113112037Y-114698376D01*
X113112037Y-114698374D01*
X113163557Y-114528535D01*
X113247222Y-114372010D01*
X113247223Y-114372009D01*
X113359814Y-114234814D01*
X113461271Y-114151552D01*
X113497009Y-114122222D01*
X113653534Y-114038557D01*
X113823373Y-113987037D01*
X114000000Y-113969641D01*
X114176626Y-113987037D01*
X114176626Y-113987037D01*
G37*
G36*
X111676626Y-113987037D02*
G01*
X111846465Y-114038557D01*
X111846467Y-114038558D01*
X112002989Y-114122221D01*
X112140186Y-114234814D01*
X112193295Y-114299529D01*
X112252778Y-114372009D01*
X112336443Y-114528534D01*
X112387963Y-114698373D01*
X112401000Y-114830742D01*
X112401000Y-115169257D01*
X112387963Y-115301626D01*
X112336443Y-115471466D01*
X112252778Y-115627991D01*
X112223448Y-115663729D01*
X112140186Y-115765186D01*
X112057553Y-115833000D01*
X112002991Y-115877778D01*
X111846466Y-115961443D01*
X111676627Y-116012963D01*
X111500000Y-116030359D01*
X111323374Y-116012963D01*
X111153535Y-115961443D01*
X110997010Y-115877778D01*
X110859815Y-115765185D01*
X110747222Y-115627991D01*
X110663557Y-115471466D01*
X110612037Y-115301627D01*
X110599000Y-115169258D01*
X110599000Y-114830743D01*
X110600157Y-114819000D01*
X110612037Y-114698376D01*
X110612037Y-114698374D01*
X110663557Y-114528535D01*
X110747222Y-114372010D01*
X110747223Y-114372009D01*
X110859814Y-114234814D01*
X110961271Y-114151552D01*
X110997009Y-114122222D01*
X111153534Y-114038557D01*
X111323373Y-113987037D01*
X111500000Y-113969641D01*
X111676626Y-113987037D01*
X111676626Y-113987037D01*
G37*
G36*
X109758600Y-113977989D02*
G01*
X109791652Y-113988015D01*
X109822103Y-114004292D01*
X109848799Y-114026201D01*
X109870708Y-114052897D01*
X109886985Y-114083348D01*
X109897011Y-114116400D01*
X109901000Y-114156903D01*
X109901000Y-115843097D01*
X109897011Y-115883600D01*
X109886985Y-115916652D01*
X109870708Y-115947103D01*
X109848799Y-115973799D01*
X109822103Y-115995708D01*
X109791652Y-116011985D01*
X109758600Y-116022011D01*
X109718097Y-116026000D01*
X108281903Y-116026000D01*
X108241400Y-116022011D01*
X108208348Y-116011985D01*
X108177897Y-115995708D01*
X108151201Y-115973799D01*
X108129292Y-115947103D01*
X108113015Y-115916652D01*
X108102989Y-115883600D01*
X108099000Y-115843097D01*
X108099000Y-114156903D01*
X108102989Y-114116400D01*
X108113015Y-114083348D01*
X108129292Y-114052897D01*
X108151201Y-114026201D01*
X108177897Y-114004292D01*
X108208348Y-113988015D01*
X108241400Y-113977989D01*
X108281903Y-113974000D01*
X109718097Y-113974000D01*
X109758600Y-113977989D01*
X109758600Y-113977989D01*
G37*
G36*
X131537142Y-114238242D02*
G01*
X131685101Y-114299529D01*
X131818255Y-114388499D01*
X131931501Y-114501745D01*
X132020471Y-114634899D01*
X132081758Y-114782858D01*
X132113000Y-114939925D01*
X132113000Y-115100075D01*
X132081758Y-115257142D01*
X132020471Y-115405101D01*
X131931501Y-115538255D01*
X131818255Y-115651501D01*
X131685101Y-115740471D01*
X131537142Y-115801758D01*
X131380075Y-115833000D01*
X131219925Y-115833000D01*
X131062858Y-115801758D01*
X130914899Y-115740471D01*
X130781745Y-115651501D01*
X130668499Y-115538255D01*
X130579529Y-115405101D01*
X130518242Y-115257142D01*
X130487000Y-115100075D01*
X130487000Y-114939925D01*
X130518242Y-114782858D01*
X130579529Y-114634899D01*
X130668499Y-114501745D01*
X130781745Y-114388499D01*
X130914899Y-114299529D01*
X131062858Y-114238242D01*
X131219925Y-114207000D01*
X131380075Y-114207000D01*
X131537142Y-114238242D01*
X131537142Y-114238242D01*
G37*
G36*
X156937142Y-114238242D02*
G01*
X157085101Y-114299529D01*
X157218255Y-114388499D01*
X157331501Y-114501745D01*
X157420471Y-114634899D01*
X157481758Y-114782858D01*
X157513000Y-114939925D01*
X157513000Y-115100075D01*
X157481758Y-115257142D01*
X157420471Y-115405101D01*
X157331501Y-115538255D01*
X157218255Y-115651501D01*
X157085101Y-115740471D01*
X156937142Y-115801758D01*
X156780075Y-115833000D01*
X156619925Y-115833000D01*
X156462858Y-115801758D01*
X156314899Y-115740471D01*
X156181745Y-115651501D01*
X156068499Y-115538255D01*
X155979529Y-115405101D01*
X155918242Y-115257142D01*
X155887000Y-115100075D01*
X155887000Y-114939925D01*
X155918242Y-114782858D01*
X155979529Y-114634899D01*
X156068499Y-114501745D01*
X156181745Y-114388499D01*
X156314899Y-114299529D01*
X156462858Y-114238242D01*
X156619925Y-114207000D01*
X156780075Y-114207000D01*
X156937142Y-114238242D01*
X156937142Y-114238242D01*
G37*
G36*
X172676627Y-111987037D02*
G01*
X172846466Y-112038557D01*
X173002991Y-112122222D01*
X173038729Y-112151552D01*
X173140186Y-112234814D01*
X173223448Y-112336271D01*
X173252778Y-112372009D01*
X173336443Y-112528534D01*
X173387963Y-112698374D01*
X173401000Y-112830743D01*
X173401000Y-113169258D01*
X173387963Y-113301627D01*
X173336443Y-113471466D01*
X173252778Y-113627991D01*
X173223448Y-113663729D01*
X173140186Y-113765186D01*
X173002989Y-113877779D01*
X172846467Y-113961442D01*
X172846465Y-113961443D01*
X172676626Y-114012963D01*
X172500000Y-114030359D01*
X172323373Y-114012963D01*
X172153534Y-113961443D01*
X171997009Y-113877778D01*
X171954750Y-113843097D01*
X171859814Y-113765186D01*
X171747221Y-113627989D01*
X171663558Y-113471467D01*
X171663557Y-113471465D01*
X171612037Y-113301626D01*
X171599000Y-113169257D01*
X171599000Y-112830742D01*
X171612037Y-112698373D01*
X171663557Y-112528534D01*
X171747222Y-112372009D01*
X171859815Y-112234815D01*
X171997010Y-112122222D01*
X172153535Y-112038557D01*
X172323374Y-111987037D01*
X172500000Y-111969641D01*
X172676627Y-111987037D01*
X172676627Y-111987037D01*
G37*
G36*
X170176627Y-111987037D02*
G01*
X170346466Y-112038557D01*
X170502991Y-112122222D01*
X170538729Y-112151552D01*
X170640186Y-112234814D01*
X170723448Y-112336271D01*
X170752778Y-112372009D01*
X170836443Y-112528534D01*
X170887963Y-112698374D01*
X170901000Y-112830743D01*
X170901000Y-113169258D01*
X170887963Y-113301627D01*
X170836443Y-113471466D01*
X170752778Y-113627991D01*
X170723448Y-113663729D01*
X170640186Y-113765186D01*
X170502989Y-113877779D01*
X170346467Y-113961442D01*
X170346465Y-113961443D01*
X170176626Y-114012963D01*
X170000000Y-114030359D01*
X169823373Y-114012963D01*
X169653534Y-113961443D01*
X169497009Y-113877778D01*
X169454750Y-113843097D01*
X169359814Y-113765186D01*
X169247221Y-113627989D01*
X169163558Y-113471467D01*
X169163557Y-113471465D01*
X169112037Y-113301626D01*
X169099000Y-113169257D01*
X169099000Y-112830742D01*
X169112037Y-112698373D01*
X169163557Y-112528534D01*
X169247222Y-112372009D01*
X169359815Y-112234815D01*
X169497010Y-112122222D01*
X169653535Y-112038557D01*
X169823374Y-111987037D01*
X170000000Y-111969641D01*
X170176627Y-111987037D01*
X170176627Y-111987037D01*
G37*
G36*
X167676627Y-111987037D02*
G01*
X167846466Y-112038557D01*
X168002991Y-112122222D01*
X168038729Y-112151552D01*
X168140186Y-112234814D01*
X168223448Y-112336271D01*
X168252778Y-112372009D01*
X168336443Y-112528534D01*
X168387963Y-112698374D01*
X168401000Y-112830743D01*
X168401000Y-113169258D01*
X168387963Y-113301627D01*
X168336443Y-113471466D01*
X168252778Y-113627991D01*
X168223448Y-113663729D01*
X168140186Y-113765186D01*
X168002989Y-113877779D01*
X167846467Y-113961442D01*
X167846465Y-113961443D01*
X167676626Y-114012963D01*
X167500000Y-114030359D01*
X167323373Y-114012963D01*
X167153534Y-113961443D01*
X166997009Y-113877778D01*
X166954750Y-113843097D01*
X166859814Y-113765186D01*
X166747221Y-113627989D01*
X166663558Y-113471467D01*
X166663557Y-113471465D01*
X166612037Y-113301626D01*
X166599000Y-113169257D01*
X166599000Y-112830742D01*
X166612037Y-112698373D01*
X166663557Y-112528534D01*
X166747222Y-112372009D01*
X166859815Y-112234815D01*
X166997010Y-112122222D01*
X167153535Y-112038557D01*
X167323374Y-111987037D01*
X167500000Y-111969641D01*
X167676627Y-111987037D01*
X167676627Y-111987037D01*
G37*
G36*
X175758600Y-111977989D02*
G01*
X175791652Y-111988015D01*
X175822103Y-112004292D01*
X175848799Y-112026201D01*
X175870708Y-112052897D01*
X175886985Y-112083348D01*
X175897011Y-112116400D01*
X175901000Y-112156903D01*
X175901000Y-113843097D01*
X175897011Y-113883600D01*
X175886985Y-113916652D01*
X175870708Y-113947103D01*
X175848799Y-113973799D01*
X175822103Y-113995708D01*
X175791652Y-114011985D01*
X175758600Y-114022011D01*
X175718097Y-114026000D01*
X174281903Y-114026000D01*
X174241400Y-114022011D01*
X174208348Y-114011985D01*
X174177897Y-113995708D01*
X174151201Y-113973799D01*
X174129292Y-113947103D01*
X174113015Y-113916652D01*
X174102989Y-113883600D01*
X174099000Y-113843097D01*
X174099000Y-112156903D01*
X174102989Y-112116400D01*
X174113015Y-112083348D01*
X174129292Y-112052897D01*
X174151201Y-112026201D01*
X174177897Y-112004292D01*
X174208348Y-111988015D01*
X174241400Y-111977989D01*
X174281903Y-111974000D01*
X175718097Y-111974000D01*
X175758600Y-111977989D01*
X175758600Y-111977989D01*
G37*
G36*
X131537142Y-111698242D02*
G01*
X131685101Y-111759529D01*
X131818255Y-111848499D01*
X131931501Y-111961745D01*
X132020471Y-112094899D01*
X132081758Y-112242858D01*
X132113000Y-112399925D01*
X132113000Y-112560075D01*
X132081758Y-112717142D01*
X132020471Y-112865101D01*
X131931501Y-112998255D01*
X131818255Y-113111501D01*
X131685101Y-113200471D01*
X131537142Y-113261758D01*
X131380075Y-113293000D01*
X131219925Y-113293000D01*
X131062858Y-113261758D01*
X130914899Y-113200471D01*
X130781745Y-113111501D01*
X130668499Y-112998255D01*
X130579529Y-112865101D01*
X130518242Y-112717142D01*
X130487000Y-112560075D01*
X130487000Y-112399925D01*
X130518242Y-112242858D01*
X130579529Y-112094899D01*
X130668499Y-111961745D01*
X130781745Y-111848499D01*
X130914899Y-111759529D01*
X131062858Y-111698242D01*
X131219925Y-111667000D01*
X131380075Y-111667000D01*
X131537142Y-111698242D01*
X131537142Y-111698242D01*
G37*
G36*
X156937142Y-111698242D02*
G01*
X157085101Y-111759529D01*
X157218255Y-111848499D01*
X157331501Y-111961745D01*
X157420471Y-112094899D01*
X157481758Y-112242858D01*
X157513000Y-112399925D01*
X157513000Y-112560075D01*
X157481758Y-112717142D01*
X157420471Y-112865101D01*
X157331501Y-112998255D01*
X157218255Y-113111501D01*
X157085101Y-113200471D01*
X156937142Y-113261758D01*
X156780075Y-113293000D01*
X156619925Y-113293000D01*
X156462858Y-113261758D01*
X156314899Y-113200471D01*
X156181745Y-113111501D01*
X156068499Y-112998255D01*
X155979529Y-112865101D01*
X155918242Y-112717142D01*
X155887000Y-112560075D01*
X155887000Y-112399925D01*
X155918242Y-112242858D01*
X155979529Y-112094899D01*
X156068499Y-111961745D01*
X156181745Y-111848499D01*
X156314899Y-111759529D01*
X156462858Y-111698242D01*
X156619925Y-111667000D01*
X156780075Y-111667000D01*
X156937142Y-111698242D01*
X156937142Y-111698242D01*
G37*
G36*
X189214795Y-109760156D02*
G01*
X189321150Y-109781311D01*
X189421334Y-109822809D01*
X189521520Y-109864307D01*
X189701844Y-109984795D01*
X189855205Y-110138156D01*
X189975693Y-110318480D01*
X189975693Y-110318481D01*
X190058689Y-110518850D01*
X190069162Y-110571501D01*
X190101000Y-110731560D01*
X190101000Y-110948440D01*
X190058689Y-111161149D01*
X189975693Y-111361520D01*
X189855205Y-111541844D01*
X189701844Y-111695205D01*
X189521520Y-111815693D01*
X189442319Y-111848499D01*
X189321150Y-111898689D01*
X189214794Y-111919845D01*
X189108440Y-111941000D01*
X188891560Y-111941000D01*
X188785206Y-111919845D01*
X188678850Y-111898689D01*
X188557681Y-111848499D01*
X188478480Y-111815693D01*
X188298156Y-111695205D01*
X188144795Y-111541844D01*
X188024307Y-111361520D01*
X187941311Y-111161149D01*
X187899000Y-110948440D01*
X187899000Y-110731560D01*
X187930838Y-110571501D01*
X187941311Y-110518850D01*
X188024307Y-110318481D01*
X188024307Y-110318480D01*
X188144795Y-110138156D01*
X188298156Y-109984795D01*
X188478480Y-109864307D01*
X188578666Y-109822809D01*
X188678850Y-109781311D01*
X188785205Y-109760156D01*
X188891560Y-109739000D01*
X189108440Y-109739000D01*
X189214795Y-109760156D01*
X189214795Y-109760156D01*
G37*
G36*
X156937142Y-109158242D02*
G01*
X157085101Y-109219529D01*
X157218255Y-109308499D01*
X157331501Y-109421745D01*
X157420471Y-109554899D01*
X157481758Y-109702858D01*
X157513000Y-109859925D01*
X157513000Y-110020075D01*
X157481758Y-110177142D01*
X157420471Y-110325101D01*
X157331501Y-110458255D01*
X157218255Y-110571501D01*
X157085101Y-110660471D01*
X156937142Y-110721758D01*
X156780075Y-110753000D01*
X156619925Y-110753000D01*
X156462858Y-110721758D01*
X156314899Y-110660471D01*
X156181745Y-110571501D01*
X156068499Y-110458255D01*
X155979529Y-110325101D01*
X155918242Y-110177142D01*
X155887000Y-110020075D01*
X155887000Y-109859925D01*
X155918242Y-109702858D01*
X155979529Y-109554899D01*
X156068499Y-109421745D01*
X156181745Y-109308499D01*
X156314899Y-109219529D01*
X156462858Y-109158242D01*
X156619925Y-109127000D01*
X156780075Y-109127000D01*
X156937142Y-109158242D01*
X156937142Y-109158242D01*
G37*
G36*
X131537142Y-109158242D02*
G01*
X131685101Y-109219529D01*
X131818255Y-109308499D01*
X131931501Y-109421745D01*
X132020471Y-109554899D01*
X132081758Y-109702858D01*
X132113000Y-109859925D01*
X132113000Y-110020075D01*
X132081758Y-110177142D01*
X132020471Y-110325101D01*
X131931501Y-110458255D01*
X131818255Y-110571501D01*
X131685101Y-110660471D01*
X131537142Y-110721758D01*
X131380075Y-110753000D01*
X131219925Y-110753000D01*
X131062858Y-110721758D01*
X130914899Y-110660471D01*
X130781745Y-110571501D01*
X130668499Y-110458255D01*
X130579529Y-110325101D01*
X130518242Y-110177142D01*
X130487000Y-110020075D01*
X130487000Y-109859925D01*
X130518242Y-109702858D01*
X130579529Y-109554899D01*
X130668499Y-109421745D01*
X130781745Y-109308499D01*
X130914899Y-109219529D01*
X131062858Y-109158242D01*
X131219925Y-109127000D01*
X131380075Y-109127000D01*
X131537142Y-109158242D01*
X131537142Y-109158242D01*
G37*
G36*
X131537142Y-106618242D02*
G01*
X131685101Y-106679529D01*
X131818255Y-106768499D01*
X131931501Y-106881745D01*
X132020471Y-107014899D01*
X132081758Y-107162858D01*
X132113000Y-107319925D01*
X132113000Y-107480075D01*
X132081758Y-107637142D01*
X132020471Y-107785101D01*
X131931501Y-107918255D01*
X131818255Y-108031501D01*
X131685101Y-108120471D01*
X131537142Y-108181758D01*
X131380075Y-108213000D01*
X131219925Y-108213000D01*
X131062858Y-108181758D01*
X130914899Y-108120471D01*
X130781745Y-108031501D01*
X130668499Y-107918255D01*
X130579529Y-107785101D01*
X130518242Y-107637142D01*
X130487000Y-107480075D01*
X130487000Y-107319925D01*
X130518242Y-107162858D01*
X130579529Y-107014899D01*
X130668499Y-106881745D01*
X130781745Y-106768499D01*
X130914899Y-106679529D01*
X131062858Y-106618242D01*
X131219925Y-106587000D01*
X131380075Y-106587000D01*
X131537142Y-106618242D01*
X131537142Y-106618242D01*
G37*
G36*
X156937142Y-106618242D02*
G01*
X157085101Y-106679529D01*
X157218255Y-106768499D01*
X157331501Y-106881745D01*
X157420471Y-107014899D01*
X157481758Y-107162858D01*
X157513000Y-107319925D01*
X157513000Y-107480075D01*
X157481758Y-107637142D01*
X157420471Y-107785101D01*
X157331501Y-107918255D01*
X157218255Y-108031501D01*
X157085101Y-108120471D01*
X156937142Y-108181758D01*
X156780075Y-108213000D01*
X156619925Y-108213000D01*
X156462858Y-108181758D01*
X156314899Y-108120471D01*
X156181745Y-108031501D01*
X156068499Y-107918255D01*
X155979529Y-107785101D01*
X155918242Y-107637142D01*
X155887000Y-107480075D01*
X155887000Y-107319925D01*
X155918242Y-107162858D01*
X155979529Y-107014899D01*
X156068499Y-106881745D01*
X156181745Y-106768499D01*
X156314899Y-106679529D01*
X156462858Y-106618242D01*
X156619925Y-106587000D01*
X156780075Y-106587000D01*
X156937142Y-106618242D01*
X156937142Y-106618242D01*
G37*
G36*
X189180697Y-104673373D02*
G01*
X189321150Y-104701311D01*
X189421334Y-104742809D01*
X189521520Y-104784307D01*
X189701844Y-104904795D01*
X189855205Y-105058156D01*
X189975693Y-105238480D01*
X190017191Y-105338666D01*
X190058689Y-105438850D01*
X190070150Y-105496467D01*
X190101000Y-105651560D01*
X190101000Y-105868440D01*
X190058689Y-106081149D01*
X189975693Y-106281520D01*
X189855205Y-106461844D01*
X189701844Y-106615205D01*
X189521520Y-106735693D01*
X189442319Y-106768499D01*
X189321150Y-106818689D01*
X189214794Y-106839845D01*
X189108440Y-106861000D01*
X188891560Y-106861000D01*
X188785206Y-106839845D01*
X188678850Y-106818689D01*
X188557681Y-106768499D01*
X188478480Y-106735693D01*
X188298156Y-106615205D01*
X188144795Y-106461844D01*
X188024307Y-106281520D01*
X187941311Y-106081149D01*
X187899000Y-105868440D01*
X187899000Y-105651560D01*
X187929850Y-105496467D01*
X187941311Y-105438850D01*
X187982809Y-105338666D01*
X188024307Y-105238480D01*
X188144795Y-105058156D01*
X188298156Y-104904795D01*
X188478480Y-104784307D01*
X188678850Y-104701311D01*
X188819303Y-104673373D01*
X188891560Y-104659000D01*
X189108440Y-104659000D01*
X189180697Y-104673373D01*
X189180697Y-104673373D01*
G37*
G36*
X116676626Y-103962037D02*
G01*
X116846465Y-104013557D01*
X116846467Y-104013558D01*
X117002989Y-104097221D01*
X117140186Y-104209814D01*
X117223448Y-104311271D01*
X117252778Y-104347009D01*
X117336443Y-104503534D01*
X117387963Y-104673373D01*
X117394482Y-104739558D01*
X117401000Y-104805740D01*
X117401000Y-105194259D01*
X117395992Y-105245101D01*
X117387963Y-105326626D01*
X117336443Y-105496466D01*
X117252778Y-105652991D01*
X117236357Y-105673000D01*
X117140186Y-105790186D01*
X117045250Y-105868097D01*
X117002991Y-105902778D01*
X116846466Y-105986443D01*
X116676627Y-106037963D01*
X116500000Y-106055359D01*
X116323374Y-106037963D01*
X116153535Y-105986443D01*
X115997010Y-105902778D01*
X115859815Y-105790185D01*
X115747222Y-105652991D01*
X115663557Y-105496466D01*
X115612037Y-105326627D01*
X115605518Y-105260442D01*
X115599000Y-105194260D01*
X115599000Y-104805741D01*
X115605518Y-104739559D01*
X115612037Y-104673374D01*
X115663557Y-104503535D01*
X115747222Y-104347010D01*
X115751543Y-104341745D01*
X115859814Y-104209814D01*
X115961271Y-104126552D01*
X115997009Y-104097222D01*
X116153534Y-104013557D01*
X116323373Y-103962037D01*
X116500000Y-103944641D01*
X116676626Y-103962037D01*
X116676626Y-103962037D01*
G37*
G36*
X114758600Y-103952989D02*
G01*
X114791652Y-103963015D01*
X114822103Y-103979292D01*
X114848799Y-104001201D01*
X114870708Y-104027897D01*
X114886985Y-104058348D01*
X114897011Y-104091400D01*
X114901000Y-104131903D01*
X114901000Y-105868097D01*
X114897011Y-105908600D01*
X114886985Y-105941652D01*
X114870708Y-105972103D01*
X114848799Y-105998799D01*
X114822103Y-106020708D01*
X114791652Y-106036985D01*
X114758600Y-106047011D01*
X114718097Y-106051000D01*
X113281903Y-106051000D01*
X113241400Y-106047011D01*
X113208348Y-106036985D01*
X113177897Y-106020708D01*
X113151201Y-105998799D01*
X113129292Y-105972103D01*
X113113015Y-105941652D01*
X113102989Y-105908600D01*
X113099000Y-105868097D01*
X113099000Y-104131903D01*
X113102989Y-104091400D01*
X113113015Y-104058348D01*
X113129292Y-104027897D01*
X113151201Y-104001201D01*
X113177897Y-103979292D01*
X113208348Y-103963015D01*
X113241400Y-103952989D01*
X113281903Y-103949000D01*
X114718097Y-103949000D01*
X114758600Y-103952989D01*
X114758600Y-103952989D01*
G37*
G36*
X156937142Y-104078242D02*
G01*
X157085101Y-104139529D01*
X157218255Y-104228499D01*
X157331501Y-104341745D01*
X157420471Y-104474899D01*
X157481758Y-104622858D01*
X157513000Y-104779925D01*
X157513000Y-104940075D01*
X157481758Y-105097142D01*
X157420471Y-105245101D01*
X157331501Y-105378255D01*
X157218255Y-105491501D01*
X157085101Y-105580471D01*
X156937142Y-105641758D01*
X156780075Y-105673000D01*
X156619925Y-105673000D01*
X156462858Y-105641758D01*
X156314899Y-105580471D01*
X156181745Y-105491501D01*
X156068499Y-105378255D01*
X155979529Y-105245101D01*
X155918242Y-105097142D01*
X155887000Y-104940075D01*
X155887000Y-104779925D01*
X155918242Y-104622858D01*
X155979529Y-104474899D01*
X156068499Y-104341745D01*
X156181745Y-104228499D01*
X156314899Y-104139529D01*
X156462858Y-104078242D01*
X156619925Y-104047000D01*
X156780075Y-104047000D01*
X156937142Y-104078242D01*
X156937142Y-104078242D01*
G37*
G36*
X131537142Y-104078242D02*
G01*
X131685101Y-104139529D01*
X131818255Y-104228499D01*
X131931501Y-104341745D01*
X132020471Y-104474899D01*
X132081758Y-104622858D01*
X132113000Y-104779925D01*
X132113000Y-104940075D01*
X132081758Y-105097142D01*
X132020471Y-105245101D01*
X131931501Y-105378255D01*
X131818255Y-105491501D01*
X131685101Y-105580471D01*
X131537142Y-105641758D01*
X131380075Y-105673000D01*
X131219925Y-105673000D01*
X131062858Y-105641758D01*
X130914899Y-105580471D01*
X130781745Y-105491501D01*
X130668499Y-105378255D01*
X130579529Y-105245101D01*
X130518242Y-105097142D01*
X130487000Y-104940075D01*
X130487000Y-104779925D01*
X130518242Y-104622858D01*
X130579529Y-104474899D01*
X130668499Y-104341745D01*
X130781745Y-104228499D01*
X130914899Y-104139529D01*
X131062858Y-104078242D01*
X131219925Y-104047000D01*
X131380075Y-104047000D01*
X131537142Y-104078242D01*
X131537142Y-104078242D01*
G37*
G36*
X156937142Y-101538242D02*
G01*
X157085101Y-101599529D01*
X157218255Y-101688499D01*
X157331501Y-101801745D01*
X157420471Y-101934899D01*
X157481758Y-102082858D01*
X157513000Y-102239925D01*
X157513000Y-102400075D01*
X157481758Y-102557142D01*
X157420471Y-102705101D01*
X157331501Y-102838255D01*
X157218255Y-102951501D01*
X157085101Y-103040471D01*
X156937142Y-103101758D01*
X156780075Y-103133000D01*
X156619925Y-103133000D01*
X156462858Y-103101758D01*
X156314899Y-103040471D01*
X156181745Y-102951501D01*
X156068499Y-102838255D01*
X155979529Y-102705101D01*
X155918242Y-102557142D01*
X155887000Y-102400075D01*
X155887000Y-102239925D01*
X155918242Y-102082858D01*
X155979529Y-101934899D01*
X156068499Y-101801745D01*
X156181745Y-101688499D01*
X156314899Y-101599529D01*
X156462858Y-101538242D01*
X156619925Y-101507000D01*
X156780075Y-101507000D01*
X156937142Y-101538242D01*
X156937142Y-101538242D01*
G37*
G36*
X131537142Y-101538242D02*
G01*
X131685101Y-101599529D01*
X131818255Y-101688499D01*
X131931501Y-101801745D01*
X132020471Y-101934899D01*
X132081758Y-102082858D01*
X132113000Y-102239925D01*
X132113000Y-102400075D01*
X132081758Y-102557142D01*
X132020471Y-102705101D01*
X131931501Y-102838255D01*
X131818255Y-102951501D01*
X131685101Y-103040471D01*
X131537142Y-103101758D01*
X131380075Y-103133000D01*
X131219925Y-103133000D01*
X131062858Y-103101758D01*
X130914899Y-103040471D01*
X130781745Y-102951501D01*
X130668499Y-102838255D01*
X130579529Y-102705101D01*
X130518242Y-102557142D01*
X130487000Y-102400075D01*
X130487000Y-102239925D01*
X130518242Y-102082858D01*
X130579529Y-101934899D01*
X130668499Y-101801745D01*
X130781745Y-101688499D01*
X130914899Y-101599529D01*
X131062858Y-101538242D01*
X131219925Y-101507000D01*
X131380075Y-101507000D01*
X131537142Y-101538242D01*
X131537142Y-101538242D01*
G37*
G36*
X171235443Y-100105519D02*
G01*
X171301627Y-100112037D01*
X171471466Y-100163557D01*
X171627991Y-100247222D01*
X171663729Y-100276552D01*
X171765186Y-100359814D01*
X171848448Y-100461271D01*
X171877778Y-100497009D01*
X171961443Y-100653534D01*
X172012963Y-100823373D01*
X172030359Y-101000000D01*
X172012963Y-101176627D01*
X171961443Y-101346466D01*
X171877778Y-101502991D01*
X171851343Y-101535202D01*
X171765186Y-101640186D01*
X171663729Y-101723448D01*
X171627991Y-101752778D01*
X171471466Y-101836443D01*
X171301627Y-101887963D01*
X171235442Y-101894482D01*
X171169260Y-101901000D01*
X170830740Y-101901000D01*
X170764557Y-101894481D01*
X170698373Y-101887963D01*
X170528534Y-101836443D01*
X170372009Y-101752778D01*
X170336271Y-101723448D01*
X170234814Y-101640186D01*
X170148657Y-101535202D01*
X170122222Y-101502991D01*
X170038557Y-101346466D01*
X169987037Y-101176627D01*
X169969641Y-101000000D01*
X169987037Y-100823373D01*
X170038557Y-100653534D01*
X170122222Y-100497009D01*
X170151552Y-100461271D01*
X170234814Y-100359814D01*
X170336271Y-100276552D01*
X170372009Y-100247222D01*
X170528534Y-100163557D01*
X170698373Y-100112037D01*
X170764557Y-100105519D01*
X170830740Y-100099000D01*
X171169260Y-100099000D01*
X171235443Y-100105519D01*
X171235443Y-100105519D01*
G37*
G36*
X189214795Y-99600156D02*
G01*
X189321150Y-99621311D01*
X189521520Y-99704307D01*
X189701844Y-99824795D01*
X189855205Y-99978156D01*
X189975693Y-100158480D01*
X189975693Y-100158481D01*
X190058689Y-100358850D01*
X190069162Y-100411501D01*
X190101000Y-100571560D01*
X190101000Y-100788440D01*
X190058689Y-101001149D01*
X189975693Y-101201520D01*
X189855205Y-101381844D01*
X189701844Y-101535205D01*
X189521520Y-101655693D01*
X189442319Y-101688499D01*
X189321150Y-101738689D01*
X189250320Y-101752778D01*
X189108440Y-101781000D01*
X188891560Y-101781000D01*
X188749680Y-101752778D01*
X188678850Y-101738689D01*
X188557681Y-101688499D01*
X188478480Y-101655693D01*
X188298156Y-101535205D01*
X188144795Y-101381844D01*
X188024307Y-101201520D01*
X187941311Y-101001149D01*
X187899000Y-100788440D01*
X187899000Y-100571560D01*
X187930838Y-100411501D01*
X187941311Y-100358850D01*
X188024307Y-100158481D01*
X188024307Y-100158480D01*
X188144795Y-99978156D01*
X188298156Y-99824795D01*
X188478480Y-99704307D01*
X188578666Y-99662809D01*
X188678850Y-99621311D01*
X188785205Y-99600156D01*
X188891560Y-99579000D01*
X189108440Y-99579000D01*
X189214795Y-99600156D01*
X189214795Y-99600156D01*
G37*
G36*
X131537142Y-98998242D02*
G01*
X131685101Y-99059529D01*
X131818255Y-99148499D01*
X131931501Y-99261745D01*
X132020471Y-99394899D01*
X132081758Y-99542858D01*
X132113000Y-99699925D01*
X132113000Y-99860075D01*
X132081758Y-100017142D01*
X132020471Y-100165101D01*
X131931501Y-100298255D01*
X131818255Y-100411501D01*
X131685101Y-100500471D01*
X131537142Y-100561758D01*
X131380075Y-100593000D01*
X131219925Y-100593000D01*
X131062858Y-100561758D01*
X130914899Y-100500471D01*
X130781745Y-100411501D01*
X130668499Y-100298255D01*
X130579529Y-100165101D01*
X130518242Y-100017142D01*
X130487000Y-99860075D01*
X130487000Y-99699925D01*
X130518242Y-99542858D01*
X130579529Y-99394899D01*
X130668499Y-99261745D01*
X130781745Y-99148499D01*
X130914899Y-99059529D01*
X131062858Y-98998242D01*
X131219925Y-98967000D01*
X131380075Y-98967000D01*
X131537142Y-98998242D01*
X131537142Y-98998242D01*
G37*
G36*
X156937142Y-98998242D02*
G01*
X157085101Y-99059529D01*
X157218255Y-99148499D01*
X157331501Y-99261745D01*
X157420471Y-99394899D01*
X157481758Y-99542858D01*
X157513000Y-99699925D01*
X157513000Y-99860075D01*
X157481758Y-100017142D01*
X157420471Y-100165101D01*
X157331501Y-100298255D01*
X157218255Y-100411501D01*
X157085101Y-100500471D01*
X156937142Y-100561758D01*
X156780075Y-100593000D01*
X156619925Y-100593000D01*
X156462858Y-100561758D01*
X156314899Y-100500471D01*
X156181745Y-100411501D01*
X156068499Y-100298255D01*
X155979529Y-100165101D01*
X155918242Y-100017142D01*
X155887000Y-99860075D01*
X155887000Y-99699925D01*
X155918242Y-99542858D01*
X155979529Y-99394899D01*
X156068499Y-99261745D01*
X156181745Y-99148499D01*
X156314899Y-99059529D01*
X156462858Y-98998242D01*
X156619925Y-98967000D01*
X156780075Y-98967000D01*
X156937142Y-98998242D01*
X156937142Y-98998242D01*
G37*
G36*
X171235443Y-97605519D02*
G01*
X171301627Y-97612037D01*
X171471466Y-97663557D01*
X171627991Y-97747222D01*
X171641437Y-97758257D01*
X171765186Y-97859814D01*
X171847792Y-97960471D01*
X171877778Y-97997009D01*
X171961443Y-98153534D01*
X172012963Y-98323373D01*
X172030359Y-98500000D01*
X172012963Y-98676627D01*
X171961443Y-98846466D01*
X171877778Y-99002991D01*
X171848448Y-99038729D01*
X171765186Y-99140186D01*
X171663729Y-99223448D01*
X171627991Y-99252778D01*
X171471466Y-99336443D01*
X171301627Y-99387963D01*
X171235442Y-99394482D01*
X171169260Y-99401000D01*
X170830740Y-99401000D01*
X170764558Y-99394482D01*
X170698373Y-99387963D01*
X170528534Y-99336443D01*
X170372009Y-99252778D01*
X170336271Y-99223448D01*
X170234814Y-99140186D01*
X170151552Y-99038729D01*
X170122222Y-99002991D01*
X170038557Y-98846466D01*
X169987037Y-98676627D01*
X169969641Y-98500000D01*
X169987037Y-98323373D01*
X170038557Y-98153534D01*
X170122222Y-97997009D01*
X170152208Y-97960471D01*
X170234814Y-97859814D01*
X170358563Y-97758257D01*
X170372009Y-97747222D01*
X170528534Y-97663557D01*
X170698373Y-97612037D01*
X170764557Y-97605519D01*
X170830740Y-97599000D01*
X171169260Y-97599000D01*
X171235443Y-97605519D01*
X171235443Y-97605519D01*
G37*
G36*
X156937142Y-96458242D02*
G01*
X157085101Y-96519529D01*
X157218255Y-96608499D01*
X157331501Y-96721745D01*
X157420471Y-96854899D01*
X157481758Y-97002858D01*
X157513000Y-97159925D01*
X157513000Y-97320075D01*
X157481758Y-97477142D01*
X157420471Y-97625101D01*
X157331501Y-97758255D01*
X157218255Y-97871501D01*
X157085101Y-97960471D01*
X156937142Y-98021758D01*
X156780075Y-98053000D01*
X156619925Y-98053000D01*
X156462858Y-98021758D01*
X156314899Y-97960471D01*
X156181745Y-97871501D01*
X156068499Y-97758255D01*
X155979529Y-97625101D01*
X155918242Y-97477142D01*
X155887000Y-97320075D01*
X155887000Y-97159925D01*
X155918242Y-97002858D01*
X155979529Y-96854899D01*
X156068499Y-96721745D01*
X156181745Y-96608499D01*
X156314899Y-96519529D01*
X156462858Y-96458242D01*
X156619925Y-96427000D01*
X156780075Y-96427000D01*
X156937142Y-96458242D01*
X156937142Y-96458242D01*
G37*
G36*
X131537142Y-96458242D02*
G01*
X131685101Y-96519529D01*
X131818255Y-96608499D01*
X131931501Y-96721745D01*
X132020471Y-96854899D01*
X132081758Y-97002858D01*
X132113000Y-97159925D01*
X132113000Y-97320075D01*
X132081758Y-97477142D01*
X132020471Y-97625101D01*
X131931501Y-97758255D01*
X131818255Y-97871501D01*
X131685101Y-97960471D01*
X131537142Y-98021758D01*
X131380075Y-98053000D01*
X131219925Y-98053000D01*
X131062858Y-98021758D01*
X130914899Y-97960471D01*
X130781745Y-97871501D01*
X130668499Y-97758255D01*
X130579529Y-97625101D01*
X130518242Y-97477142D01*
X130487000Y-97320075D01*
X130487000Y-97159925D01*
X130518242Y-97002858D01*
X130579529Y-96854899D01*
X130668499Y-96721745D01*
X130781745Y-96608499D01*
X130914899Y-96519529D01*
X131062858Y-96458242D01*
X131219925Y-96427000D01*
X131380075Y-96427000D01*
X131537142Y-96458242D01*
X131537142Y-96458242D01*
G37*
G36*
X121676627Y-94987037D02*
G01*
X121846466Y-95038557D01*
X122002991Y-95122222D01*
X122038729Y-95151552D01*
X122140186Y-95234814D01*
X122219532Y-95331499D01*
X122252778Y-95372009D01*
X122336443Y-95528534D01*
X122387963Y-95698374D01*
X122387963Y-95698376D01*
X122401000Y-95830741D01*
X122401000Y-96169260D01*
X122400274Y-96176627D01*
X122387963Y-96301627D01*
X122340454Y-96458242D01*
X122336442Y-96471468D01*
X122319592Y-96502991D01*
X122252778Y-96627991D01*
X122227585Y-96658689D01*
X122140186Y-96765186D01*
X122002989Y-96877779D01*
X121846467Y-96961442D01*
X121846465Y-96961443D01*
X121676626Y-97012963D01*
X121500000Y-97030359D01*
X121323373Y-97012963D01*
X121153534Y-96961443D01*
X120997009Y-96877778D01*
X120954750Y-96843097D01*
X120859814Y-96765186D01*
X120747221Y-96627989D01*
X120663558Y-96471467D01*
X120663557Y-96471465D01*
X120612037Y-96301626D01*
X120599726Y-96176627D01*
X120599000Y-96169259D01*
X120599000Y-95830740D01*
X120612037Y-95698375D01*
X120612037Y-95698373D01*
X120663557Y-95528534D01*
X120680407Y-95497011D01*
X120747221Y-95372011D01*
X120747222Y-95372009D01*
X120859815Y-95234815D01*
X120997010Y-95122222D01*
X121153535Y-95038557D01*
X121323374Y-94987037D01*
X121500000Y-94969641D01*
X121676627Y-94987037D01*
X121676627Y-94987037D01*
G37*
G36*
X119176627Y-94987037D02*
G01*
X119346466Y-95038557D01*
X119502991Y-95122222D01*
X119538729Y-95151552D01*
X119640186Y-95234814D01*
X119719532Y-95331499D01*
X119752778Y-95372009D01*
X119836443Y-95528534D01*
X119887963Y-95698374D01*
X119887963Y-95698376D01*
X119901000Y-95830741D01*
X119901000Y-96169260D01*
X119900274Y-96176627D01*
X119887963Y-96301627D01*
X119840454Y-96458242D01*
X119836442Y-96471468D01*
X119819592Y-96502991D01*
X119752778Y-96627991D01*
X119727585Y-96658689D01*
X119640186Y-96765186D01*
X119502989Y-96877779D01*
X119346467Y-96961442D01*
X119346465Y-96961443D01*
X119176626Y-97012963D01*
X119000000Y-97030359D01*
X118823373Y-97012963D01*
X118653534Y-96961443D01*
X118497009Y-96877778D01*
X118454750Y-96843097D01*
X118359814Y-96765186D01*
X118247221Y-96627989D01*
X118163558Y-96471467D01*
X118163557Y-96471465D01*
X118112037Y-96301626D01*
X118099726Y-96176627D01*
X118099000Y-96169259D01*
X118099000Y-95830740D01*
X118112037Y-95698375D01*
X118112037Y-95698373D01*
X118163557Y-95528534D01*
X118180407Y-95497011D01*
X118247221Y-95372011D01*
X118247222Y-95372009D01*
X118359815Y-95234815D01*
X118497010Y-95122222D01*
X118653535Y-95038557D01*
X118823374Y-94987037D01*
X119000000Y-94969641D01*
X119176627Y-94987037D01*
X119176627Y-94987037D01*
G37*
G36*
X116676627Y-94987037D02*
G01*
X116846466Y-95038557D01*
X117002991Y-95122222D01*
X117038729Y-95151552D01*
X117140186Y-95234814D01*
X117219532Y-95331499D01*
X117252778Y-95372009D01*
X117336443Y-95528534D01*
X117387963Y-95698374D01*
X117387963Y-95698376D01*
X117401000Y-95830741D01*
X117401000Y-96169260D01*
X117400274Y-96176627D01*
X117387963Y-96301627D01*
X117340454Y-96458242D01*
X117336442Y-96471468D01*
X117319592Y-96502991D01*
X117252778Y-96627991D01*
X117227585Y-96658689D01*
X117140186Y-96765186D01*
X117002989Y-96877779D01*
X116846467Y-96961442D01*
X116846465Y-96961443D01*
X116676626Y-97012963D01*
X116500000Y-97030359D01*
X116323373Y-97012963D01*
X116153534Y-96961443D01*
X115997009Y-96877778D01*
X115954750Y-96843097D01*
X115859814Y-96765186D01*
X115747221Y-96627989D01*
X115663558Y-96471467D01*
X115663557Y-96471465D01*
X115612037Y-96301626D01*
X115599726Y-96176627D01*
X115599000Y-96169259D01*
X115599000Y-95830740D01*
X115612037Y-95698375D01*
X115612037Y-95698373D01*
X115663557Y-95528534D01*
X115680407Y-95497011D01*
X115747221Y-95372011D01*
X115747222Y-95372009D01*
X115859815Y-95234815D01*
X115997010Y-95122222D01*
X116153535Y-95038557D01*
X116323374Y-94987037D01*
X116500000Y-94969641D01*
X116676627Y-94987037D01*
X116676627Y-94987037D01*
G37*
G36*
X111676627Y-94987037D02*
G01*
X111846466Y-95038557D01*
X112002991Y-95122222D01*
X112038729Y-95151552D01*
X112140186Y-95234814D01*
X112219532Y-95331499D01*
X112252778Y-95372009D01*
X112336443Y-95528534D01*
X112387963Y-95698374D01*
X112387963Y-95698376D01*
X112401000Y-95830741D01*
X112401000Y-96169260D01*
X112400274Y-96176627D01*
X112387963Y-96301627D01*
X112340454Y-96458242D01*
X112336442Y-96471468D01*
X112319592Y-96502991D01*
X112252778Y-96627991D01*
X112227585Y-96658689D01*
X112140186Y-96765186D01*
X112002989Y-96877779D01*
X111846467Y-96961442D01*
X111846465Y-96961443D01*
X111676626Y-97012963D01*
X111500000Y-97030359D01*
X111323373Y-97012963D01*
X111153534Y-96961443D01*
X110997009Y-96877778D01*
X110954750Y-96843097D01*
X110859814Y-96765186D01*
X110747221Y-96627989D01*
X110663558Y-96471467D01*
X110663557Y-96471465D01*
X110612037Y-96301626D01*
X110599726Y-96176627D01*
X110599000Y-96169259D01*
X110599000Y-95830740D01*
X110612037Y-95698375D01*
X110612037Y-95698373D01*
X110663557Y-95528534D01*
X110680407Y-95497011D01*
X110747221Y-95372011D01*
X110747222Y-95372009D01*
X110859815Y-95234815D01*
X110997010Y-95122222D01*
X111153535Y-95038557D01*
X111323374Y-94987037D01*
X111500000Y-94969641D01*
X111676627Y-94987037D01*
X111676627Y-94987037D01*
G37*
G36*
X114176627Y-94987037D02*
G01*
X114346466Y-95038557D01*
X114502991Y-95122222D01*
X114538729Y-95151552D01*
X114640186Y-95234814D01*
X114719532Y-95331499D01*
X114752778Y-95372009D01*
X114836443Y-95528534D01*
X114887963Y-95698374D01*
X114887963Y-95698376D01*
X114901000Y-95830741D01*
X114901000Y-96169260D01*
X114900274Y-96176627D01*
X114887963Y-96301627D01*
X114840454Y-96458242D01*
X114836442Y-96471468D01*
X114819592Y-96502991D01*
X114752778Y-96627991D01*
X114727585Y-96658689D01*
X114640186Y-96765186D01*
X114502989Y-96877779D01*
X114346467Y-96961442D01*
X114346465Y-96961443D01*
X114176626Y-97012963D01*
X114000000Y-97030359D01*
X113823373Y-97012963D01*
X113653534Y-96961443D01*
X113497009Y-96877778D01*
X113454750Y-96843097D01*
X113359814Y-96765186D01*
X113247221Y-96627989D01*
X113163558Y-96471467D01*
X113163557Y-96471465D01*
X113112037Y-96301626D01*
X113099726Y-96176627D01*
X113099000Y-96169259D01*
X113099000Y-95830740D01*
X113112037Y-95698375D01*
X113112037Y-95698373D01*
X113163557Y-95528534D01*
X113180407Y-95497011D01*
X113247221Y-95372011D01*
X113247222Y-95372009D01*
X113359815Y-95234815D01*
X113497010Y-95122222D01*
X113653535Y-95038557D01*
X113823374Y-94987037D01*
X114000000Y-94969641D01*
X114176627Y-94987037D01*
X114176627Y-94987037D01*
G37*
G36*
X106676627Y-94987037D02*
G01*
X106846466Y-95038557D01*
X107002991Y-95122222D01*
X107038729Y-95151552D01*
X107140186Y-95234814D01*
X107219532Y-95331499D01*
X107252778Y-95372009D01*
X107336443Y-95528534D01*
X107387963Y-95698374D01*
X107387963Y-95698376D01*
X107401000Y-95830741D01*
X107401000Y-96169260D01*
X107400274Y-96176627D01*
X107387963Y-96301627D01*
X107340454Y-96458242D01*
X107336442Y-96471468D01*
X107319592Y-96502991D01*
X107252778Y-96627991D01*
X107227585Y-96658689D01*
X107140186Y-96765186D01*
X107002989Y-96877779D01*
X106846467Y-96961442D01*
X106846465Y-96961443D01*
X106676626Y-97012963D01*
X106500000Y-97030359D01*
X106323373Y-97012963D01*
X106153534Y-96961443D01*
X105997009Y-96877778D01*
X105954750Y-96843097D01*
X105859814Y-96765186D01*
X105747221Y-96627989D01*
X105663558Y-96471467D01*
X105663557Y-96471465D01*
X105612037Y-96301626D01*
X105599726Y-96176627D01*
X105599000Y-96169259D01*
X105599000Y-95830740D01*
X105612037Y-95698375D01*
X105612037Y-95698373D01*
X105663557Y-95528534D01*
X105680407Y-95497011D01*
X105747221Y-95372011D01*
X105747222Y-95372009D01*
X105859815Y-95234815D01*
X105997010Y-95122222D01*
X106153535Y-95038557D01*
X106323374Y-94987037D01*
X106500000Y-94969641D01*
X106676627Y-94987037D01*
X106676627Y-94987037D01*
G37*
G36*
X109176627Y-94987037D02*
G01*
X109346466Y-95038557D01*
X109502991Y-95122222D01*
X109538729Y-95151552D01*
X109640186Y-95234814D01*
X109719532Y-95331499D01*
X109752778Y-95372009D01*
X109836443Y-95528534D01*
X109887963Y-95698374D01*
X109887963Y-95698376D01*
X109901000Y-95830741D01*
X109901000Y-96169260D01*
X109900274Y-96176627D01*
X109887963Y-96301627D01*
X109840454Y-96458242D01*
X109836442Y-96471468D01*
X109819592Y-96502991D01*
X109752778Y-96627991D01*
X109727585Y-96658689D01*
X109640186Y-96765186D01*
X109502989Y-96877779D01*
X109346467Y-96961442D01*
X109346465Y-96961443D01*
X109176626Y-97012963D01*
X109000000Y-97030359D01*
X108823373Y-97012963D01*
X108653534Y-96961443D01*
X108497009Y-96877778D01*
X108454750Y-96843097D01*
X108359814Y-96765186D01*
X108247221Y-96627989D01*
X108163558Y-96471467D01*
X108163557Y-96471465D01*
X108112037Y-96301626D01*
X108099726Y-96176627D01*
X108099000Y-96169259D01*
X108099000Y-95830740D01*
X108112037Y-95698375D01*
X108112037Y-95698373D01*
X108163557Y-95528534D01*
X108180407Y-95497011D01*
X108247221Y-95372011D01*
X108247222Y-95372009D01*
X108359815Y-95234815D01*
X108497010Y-95122222D01*
X108653535Y-95038557D01*
X108823374Y-94987037D01*
X109000000Y-94969641D01*
X109176627Y-94987037D01*
X109176627Y-94987037D01*
G37*
G36*
X124758600Y-94977989D02*
G01*
X124791652Y-94988015D01*
X124822103Y-95004292D01*
X124848799Y-95026201D01*
X124870708Y-95052897D01*
X124886985Y-95083348D01*
X124897011Y-95116400D01*
X124901000Y-95156903D01*
X124901000Y-96843097D01*
X124897011Y-96883600D01*
X124886985Y-96916652D01*
X124870708Y-96947103D01*
X124848799Y-96973799D01*
X124822103Y-96995708D01*
X124791652Y-97011985D01*
X124758600Y-97022011D01*
X124718097Y-97026000D01*
X123281903Y-97026000D01*
X123241400Y-97022011D01*
X123208348Y-97011985D01*
X123177897Y-96995708D01*
X123151201Y-96973799D01*
X123129292Y-96947103D01*
X123113015Y-96916652D01*
X123102989Y-96883600D01*
X123099000Y-96843097D01*
X123099000Y-95156903D01*
X123102989Y-95116400D01*
X123113015Y-95083348D01*
X123129292Y-95052897D01*
X123151201Y-95026201D01*
X123177897Y-95004292D01*
X123208348Y-94988015D01*
X123241400Y-94977989D01*
X123281903Y-94974000D01*
X124718097Y-94974000D01*
X124758600Y-94977989D01*
X124758600Y-94977989D01*
G37*
G36*
X171235443Y-95105519D02*
G01*
X171301627Y-95112037D01*
X171471466Y-95163557D01*
X171627991Y-95247222D01*
X171663729Y-95276552D01*
X171765186Y-95359814D01*
X171848448Y-95461271D01*
X171877778Y-95497009D01*
X171961443Y-95653534D01*
X172012963Y-95823373D01*
X172030359Y-96000000D01*
X172012963Y-96176627D01*
X171961443Y-96346466D01*
X171877778Y-96502991D01*
X171848448Y-96538729D01*
X171765186Y-96640186D01*
X171665807Y-96721743D01*
X171627991Y-96752778D01*
X171471466Y-96836443D01*
X171301627Y-96887963D01*
X171235443Y-96894481D01*
X171169260Y-96901000D01*
X170830740Y-96901000D01*
X170764558Y-96894482D01*
X170698373Y-96887963D01*
X170528534Y-96836443D01*
X170372009Y-96752778D01*
X170334193Y-96721743D01*
X170234814Y-96640186D01*
X170151552Y-96538729D01*
X170122222Y-96502991D01*
X170038557Y-96346466D01*
X169987037Y-96176627D01*
X169969641Y-96000000D01*
X169987037Y-95823373D01*
X170038557Y-95653534D01*
X170122222Y-95497009D01*
X170151552Y-95461271D01*
X170234814Y-95359814D01*
X170336271Y-95276552D01*
X170372009Y-95247222D01*
X170528534Y-95163557D01*
X170698373Y-95112037D01*
X170764558Y-95105518D01*
X170830740Y-95099000D01*
X171169260Y-95099000D01*
X171235443Y-95105519D01*
X171235443Y-95105519D01*
G37*
G36*
X189214795Y-94520156D02*
G01*
X189321150Y-94541311D01*
X189521520Y-94624307D01*
X189701844Y-94744795D01*
X189855205Y-94898156D01*
X189975693Y-95078480D01*
X190008177Y-95156903D01*
X190058689Y-95278850D01*
X190069162Y-95331501D01*
X190101000Y-95491560D01*
X190101000Y-95708440D01*
X190058689Y-95921149D01*
X189975693Y-96121520D01*
X189855205Y-96301844D01*
X189701844Y-96455205D01*
X189521520Y-96575693D01*
X189442319Y-96608499D01*
X189321150Y-96658689D01*
X189214795Y-96679844D01*
X189108440Y-96701000D01*
X188891560Y-96701000D01*
X188785205Y-96679844D01*
X188678850Y-96658689D01*
X188557681Y-96608499D01*
X188478480Y-96575693D01*
X188298156Y-96455205D01*
X188144795Y-96301844D01*
X188024307Y-96121520D01*
X187941311Y-95921149D01*
X187899000Y-95708440D01*
X187899000Y-95491560D01*
X187930838Y-95331501D01*
X187941311Y-95278850D01*
X187991823Y-95156903D01*
X188024307Y-95078480D01*
X188144795Y-94898156D01*
X188298156Y-94744795D01*
X188478480Y-94624307D01*
X188678850Y-94541311D01*
X188785205Y-94520156D01*
X188891560Y-94499000D01*
X189108440Y-94499000D01*
X189214795Y-94520156D01*
X189214795Y-94520156D01*
G37*
G36*
X131537142Y-93918242D02*
G01*
X131685101Y-93979529D01*
X131818255Y-94068499D01*
X131931501Y-94181745D01*
X132020471Y-94314899D01*
X132081758Y-94462858D01*
X132113000Y-94619925D01*
X132113000Y-94780075D01*
X132081758Y-94937142D01*
X132020471Y-95085101D01*
X131931501Y-95218255D01*
X131818255Y-95331501D01*
X131685101Y-95420471D01*
X131537142Y-95481758D01*
X131380075Y-95513000D01*
X131219925Y-95513000D01*
X131062858Y-95481758D01*
X130914899Y-95420471D01*
X130781745Y-95331501D01*
X130668499Y-95218255D01*
X130579529Y-95085101D01*
X130518242Y-94937142D01*
X130487000Y-94780075D01*
X130487000Y-94619925D01*
X130518242Y-94462858D01*
X130579529Y-94314899D01*
X130668499Y-94181745D01*
X130781745Y-94068499D01*
X130914899Y-93979529D01*
X131062858Y-93918242D01*
X131219925Y-93887000D01*
X131380075Y-93887000D01*
X131537142Y-93918242D01*
X131537142Y-93918242D01*
G37*
G36*
X156937142Y-93918242D02*
G01*
X157085101Y-93979529D01*
X157218255Y-94068499D01*
X157331501Y-94181745D01*
X157420471Y-94314899D01*
X157481758Y-94462858D01*
X157513000Y-94619925D01*
X157513000Y-94780075D01*
X157481758Y-94937142D01*
X157420471Y-95085101D01*
X157331501Y-95218255D01*
X157218255Y-95331501D01*
X157085101Y-95420471D01*
X156937142Y-95481758D01*
X156780075Y-95513000D01*
X156619925Y-95513000D01*
X156462858Y-95481758D01*
X156314899Y-95420471D01*
X156181745Y-95331501D01*
X156068499Y-95218255D01*
X155979529Y-95085101D01*
X155918242Y-94937142D01*
X155887000Y-94780075D01*
X155887000Y-94619925D01*
X155918242Y-94462858D01*
X155979529Y-94314899D01*
X156068499Y-94181745D01*
X156181745Y-94068499D01*
X156314899Y-93979529D01*
X156462858Y-93918242D01*
X156619925Y-93887000D01*
X156780075Y-93887000D01*
X156937142Y-93918242D01*
X156937142Y-93918242D01*
G37*
G36*
X171235442Y-92605518D02*
G01*
X171301627Y-92612037D01*
X171471466Y-92663557D01*
X171627991Y-92747222D01*
X171663729Y-92776552D01*
X171765186Y-92859814D01*
X171848448Y-92961271D01*
X171877778Y-92997009D01*
X171961443Y-93153534D01*
X172012963Y-93323373D01*
X172030359Y-93500000D01*
X172012963Y-93676627D01*
X171961443Y-93846466D01*
X171877778Y-94002991D01*
X171848448Y-94038729D01*
X171765186Y-94140186D01*
X171663729Y-94223448D01*
X171627991Y-94252778D01*
X171471466Y-94336443D01*
X171301627Y-94387963D01*
X171235443Y-94394481D01*
X171169260Y-94401000D01*
X170830740Y-94401000D01*
X170764558Y-94394482D01*
X170698373Y-94387963D01*
X170528534Y-94336443D01*
X170372009Y-94252778D01*
X170336271Y-94223448D01*
X170234814Y-94140186D01*
X170151552Y-94038729D01*
X170122222Y-94002991D01*
X170038557Y-93846466D01*
X169987037Y-93676627D01*
X169969641Y-93500000D01*
X169987037Y-93323373D01*
X170038557Y-93153534D01*
X170122222Y-92997009D01*
X170151552Y-92961271D01*
X170234814Y-92859814D01*
X170336271Y-92776552D01*
X170372009Y-92747222D01*
X170528534Y-92663557D01*
X170698373Y-92612037D01*
X170764558Y-92605518D01*
X170830740Y-92599000D01*
X171169260Y-92599000D01*
X171235442Y-92605518D01*
X171235442Y-92605518D01*
G37*
G36*
X131537142Y-91378242D02*
G01*
X131685101Y-91439529D01*
X131818255Y-91528499D01*
X131931501Y-91641745D01*
X132020471Y-91774899D01*
X132081758Y-91922858D01*
X132113000Y-92079925D01*
X132113000Y-92240075D01*
X132081758Y-92397142D01*
X132020471Y-92545101D01*
X131931501Y-92678255D01*
X131818255Y-92791501D01*
X131685101Y-92880471D01*
X131537142Y-92941758D01*
X131380075Y-92973000D01*
X131219925Y-92973000D01*
X131062858Y-92941758D01*
X130914899Y-92880471D01*
X130781745Y-92791501D01*
X130668499Y-92678255D01*
X130579529Y-92545101D01*
X130518242Y-92397142D01*
X130487000Y-92240075D01*
X130487000Y-92079925D01*
X130518242Y-91922858D01*
X130579529Y-91774899D01*
X130668499Y-91641745D01*
X130781745Y-91528499D01*
X130914899Y-91439529D01*
X131062858Y-91378242D01*
X131219925Y-91347000D01*
X131380075Y-91347000D01*
X131537142Y-91378242D01*
X131537142Y-91378242D01*
G37*
G36*
X156937142Y-91378242D02*
G01*
X157085101Y-91439529D01*
X157218255Y-91528499D01*
X157331501Y-91641745D01*
X157420471Y-91774899D01*
X157481758Y-91922858D01*
X157513000Y-92079925D01*
X157513000Y-92240075D01*
X157481758Y-92397142D01*
X157420471Y-92545101D01*
X157331501Y-92678255D01*
X157218255Y-92791501D01*
X157085101Y-92880471D01*
X156937142Y-92941758D01*
X156780075Y-92973000D01*
X156619925Y-92973000D01*
X156462858Y-92941758D01*
X156314899Y-92880471D01*
X156181745Y-92791501D01*
X156068499Y-92678255D01*
X155979529Y-92545101D01*
X155918242Y-92397142D01*
X155887000Y-92240075D01*
X155887000Y-92079925D01*
X155918242Y-91922858D01*
X155979529Y-91774899D01*
X156068499Y-91641745D01*
X156181745Y-91528499D01*
X156314899Y-91439529D01*
X156462858Y-91378242D01*
X156619925Y-91347000D01*
X156780075Y-91347000D01*
X156937142Y-91378242D01*
X156937142Y-91378242D01*
G37*
G36*
X171235443Y-90105519D02*
G01*
X171301627Y-90112037D01*
X171471466Y-90163557D01*
X171627991Y-90247222D01*
X171663729Y-90276552D01*
X171765186Y-90359814D01*
X171825247Y-90433000D01*
X171877778Y-90497009D01*
X171961443Y-90653534D01*
X172012963Y-90823373D01*
X172030359Y-91000000D01*
X172012963Y-91176627D01*
X171961443Y-91346466D01*
X171877778Y-91502991D01*
X171856844Y-91528499D01*
X171765186Y-91640186D01*
X171663729Y-91723448D01*
X171627991Y-91752778D01*
X171471466Y-91836443D01*
X171301627Y-91887963D01*
X171235443Y-91894481D01*
X171169260Y-91901000D01*
X170830740Y-91901000D01*
X170764558Y-91894482D01*
X170698373Y-91887963D01*
X170528534Y-91836443D01*
X170372009Y-91752778D01*
X170336271Y-91723448D01*
X170234814Y-91640186D01*
X170143156Y-91528499D01*
X170122222Y-91502991D01*
X170038557Y-91346466D01*
X169987037Y-91176627D01*
X169969641Y-91000000D01*
X169987037Y-90823373D01*
X170038557Y-90653534D01*
X170122222Y-90497009D01*
X170174753Y-90433000D01*
X170234814Y-90359814D01*
X170336271Y-90276552D01*
X170372009Y-90247222D01*
X170528534Y-90163557D01*
X170698373Y-90112037D01*
X170764557Y-90105519D01*
X170830740Y-90099000D01*
X171169260Y-90099000D01*
X171235443Y-90105519D01*
X171235443Y-90105519D01*
G37*
G36*
X189214795Y-89440156D02*
G01*
X189321150Y-89461311D01*
X189521520Y-89544307D01*
X189701844Y-89664795D01*
X189855205Y-89818156D01*
X189975693Y-89998480D01*
X189975693Y-89998481D01*
X190058689Y-90198850D01*
X190069162Y-90251501D01*
X190101000Y-90411560D01*
X190101000Y-90628440D01*
X190058689Y-90841149D01*
X189975693Y-91041520D01*
X189855205Y-91221844D01*
X189701844Y-91375205D01*
X189521520Y-91495693D01*
X189442319Y-91528499D01*
X189321150Y-91578689D01*
X189214794Y-91599845D01*
X189108440Y-91621000D01*
X188891560Y-91621000D01*
X188785206Y-91599845D01*
X188678850Y-91578689D01*
X188557681Y-91528499D01*
X188478480Y-91495693D01*
X188298156Y-91375205D01*
X188144795Y-91221844D01*
X188024307Y-91041520D01*
X187941311Y-90841149D01*
X187899000Y-90628440D01*
X187899000Y-90411560D01*
X187930838Y-90251501D01*
X187941311Y-90198850D01*
X188024307Y-89998481D01*
X188024307Y-89998480D01*
X188144795Y-89818156D01*
X188298156Y-89664795D01*
X188478480Y-89544307D01*
X188678850Y-89461311D01*
X188785205Y-89440156D01*
X188891560Y-89419000D01*
X189108440Y-89419000D01*
X189214795Y-89440156D01*
X189214795Y-89440156D01*
G37*
G36*
X131537142Y-88838242D02*
G01*
X131685101Y-88899529D01*
X131818255Y-88988499D01*
X131931501Y-89101745D01*
X132020471Y-89234899D01*
X132081758Y-89382858D01*
X132113000Y-89539925D01*
X132113000Y-89700075D01*
X132081758Y-89857142D01*
X132020471Y-90005101D01*
X131931501Y-90138255D01*
X131818255Y-90251501D01*
X131685101Y-90340471D01*
X131537142Y-90401758D01*
X131380075Y-90433000D01*
X131219925Y-90433000D01*
X131062858Y-90401758D01*
X130914899Y-90340471D01*
X130781745Y-90251501D01*
X130668499Y-90138255D01*
X130579529Y-90005101D01*
X130518242Y-89857142D01*
X130487000Y-89700075D01*
X130487000Y-89539925D01*
X130518242Y-89382858D01*
X130579529Y-89234899D01*
X130668499Y-89101745D01*
X130781745Y-88988499D01*
X130914899Y-88899529D01*
X131062858Y-88838242D01*
X131219925Y-88807000D01*
X131380075Y-88807000D01*
X131537142Y-88838242D01*
X131537142Y-88838242D01*
G37*
G36*
X156937142Y-88838242D02*
G01*
X157085101Y-88899529D01*
X157218255Y-88988499D01*
X157331501Y-89101745D01*
X157420471Y-89234899D01*
X157481758Y-89382858D01*
X157513000Y-89539925D01*
X157513000Y-89700075D01*
X157481758Y-89857142D01*
X157420471Y-90005101D01*
X157331501Y-90138255D01*
X157218255Y-90251501D01*
X157085101Y-90340471D01*
X156937142Y-90401758D01*
X156780075Y-90433000D01*
X156619925Y-90433000D01*
X156462858Y-90401758D01*
X156314899Y-90340471D01*
X156181745Y-90251501D01*
X156068499Y-90138255D01*
X155979529Y-90005101D01*
X155918242Y-89857142D01*
X155887000Y-89700075D01*
X155887000Y-89539925D01*
X155918242Y-89382858D01*
X155979529Y-89234899D01*
X156068499Y-89101745D01*
X156181745Y-88988499D01*
X156314899Y-88899529D01*
X156462858Y-88838242D01*
X156619925Y-88807000D01*
X156780075Y-88807000D01*
X156937142Y-88838242D01*
X156937142Y-88838242D01*
G37*
G36*
X171235443Y-87605519D02*
G01*
X171301627Y-87612037D01*
X171471466Y-87663557D01*
X171627991Y-87747222D01*
X171663729Y-87776552D01*
X171765186Y-87859814D01*
X171848448Y-87961271D01*
X171877778Y-87997009D01*
X171961443Y-88153534D01*
X172012963Y-88323373D01*
X172030359Y-88500000D01*
X172012963Y-88676627D01*
X171961443Y-88846466D01*
X171877778Y-89002991D01*
X171848448Y-89038729D01*
X171765186Y-89140186D01*
X171663729Y-89223448D01*
X171627991Y-89252778D01*
X171471466Y-89336443D01*
X171301627Y-89387963D01*
X171235443Y-89394481D01*
X171169260Y-89401000D01*
X170830740Y-89401000D01*
X170764558Y-89394482D01*
X170698373Y-89387963D01*
X170528534Y-89336443D01*
X170372009Y-89252778D01*
X170336271Y-89223448D01*
X170234814Y-89140186D01*
X170151552Y-89038729D01*
X170122222Y-89002991D01*
X170038557Y-88846466D01*
X169987037Y-88676627D01*
X169969641Y-88500000D01*
X169987037Y-88323373D01*
X170038557Y-88153534D01*
X170122222Y-87997009D01*
X170151552Y-87961271D01*
X170234814Y-87859814D01*
X170336271Y-87776552D01*
X170372009Y-87747222D01*
X170528534Y-87663557D01*
X170698373Y-87612037D01*
X170764557Y-87605519D01*
X170830740Y-87599000D01*
X171169260Y-87599000D01*
X171235443Y-87605519D01*
X171235443Y-87605519D01*
G37*
G36*
X131537142Y-86298242D02*
G01*
X131685101Y-86359529D01*
X131818255Y-86448499D01*
X131931501Y-86561745D01*
X132020471Y-86694899D01*
X132081758Y-86842858D01*
X132113000Y-86999925D01*
X132113000Y-87160075D01*
X132081758Y-87317142D01*
X132020471Y-87465101D01*
X131931501Y-87598255D01*
X131818255Y-87711501D01*
X131685101Y-87800471D01*
X131537142Y-87861758D01*
X131380075Y-87893000D01*
X131219925Y-87893000D01*
X131062858Y-87861758D01*
X130914899Y-87800471D01*
X130781745Y-87711501D01*
X130668499Y-87598255D01*
X130579529Y-87465101D01*
X130518242Y-87317142D01*
X130487000Y-87160075D01*
X130487000Y-86999925D01*
X130518242Y-86842858D01*
X130579529Y-86694899D01*
X130668499Y-86561745D01*
X130781745Y-86448499D01*
X130914899Y-86359529D01*
X131062858Y-86298242D01*
X131219925Y-86267000D01*
X131380075Y-86267000D01*
X131537142Y-86298242D01*
X131537142Y-86298242D01*
G37*
G36*
X156937142Y-86298242D02*
G01*
X157085101Y-86359529D01*
X157218255Y-86448499D01*
X157331501Y-86561745D01*
X157420471Y-86694899D01*
X157481758Y-86842858D01*
X157513000Y-86999925D01*
X157513000Y-87160075D01*
X157481758Y-87317142D01*
X157420471Y-87465101D01*
X157331501Y-87598255D01*
X157218255Y-87711501D01*
X157085101Y-87800471D01*
X156937142Y-87861758D01*
X156780075Y-87893000D01*
X156619925Y-87893000D01*
X156462858Y-87861758D01*
X156314899Y-87800471D01*
X156181745Y-87711501D01*
X156068499Y-87598255D01*
X155979529Y-87465101D01*
X155918242Y-87317142D01*
X155887000Y-87160075D01*
X155887000Y-86999925D01*
X155918242Y-86842858D01*
X155979529Y-86694899D01*
X156068499Y-86561745D01*
X156181745Y-86448499D01*
X156314899Y-86359529D01*
X156462858Y-86298242D01*
X156619925Y-86267000D01*
X156780075Y-86267000D01*
X156937142Y-86298242D01*
X156937142Y-86298242D01*
G37*
G36*
X171883600Y-85102989D02*
G01*
X171916652Y-85113015D01*
X171947103Y-85129292D01*
X171973799Y-85151201D01*
X171995708Y-85177897D01*
X172011985Y-85208348D01*
X172022011Y-85241400D01*
X172026000Y-85281903D01*
X172026000Y-86718097D01*
X172022011Y-86758600D01*
X172011985Y-86791652D01*
X171995708Y-86822103D01*
X171973799Y-86848799D01*
X171947103Y-86870708D01*
X171916652Y-86886985D01*
X171883600Y-86897011D01*
X171843097Y-86901000D01*
X170156903Y-86901000D01*
X170116400Y-86897011D01*
X170083348Y-86886985D01*
X170052897Y-86870708D01*
X170026201Y-86848799D01*
X170004292Y-86822103D01*
X169988015Y-86791652D01*
X169977989Y-86758600D01*
X169974000Y-86718097D01*
X169974000Y-85281903D01*
X169977989Y-85241400D01*
X169988015Y-85208348D01*
X170004292Y-85177897D01*
X170026201Y-85151201D01*
X170052897Y-85129292D01*
X170083348Y-85113015D01*
X170116400Y-85102989D01*
X170156903Y-85099000D01*
X171843097Y-85099000D01*
X171883600Y-85102989D01*
X171883600Y-85102989D01*
G37*
G36*
X189214795Y-84360156D02*
G01*
X189321150Y-84381311D01*
X189421334Y-84422809D01*
X189521520Y-84464307D01*
X189701844Y-84584795D01*
X189855205Y-84738156D01*
X189975693Y-84918480D01*
X189975693Y-84918481D01*
X190058689Y-85118850D01*
X190069162Y-85171501D01*
X190101000Y-85331560D01*
X190101000Y-85548440D01*
X190058689Y-85761149D01*
X189975693Y-85961520D01*
X189855205Y-86141844D01*
X189701844Y-86295205D01*
X189521520Y-86415693D01*
X189442319Y-86448499D01*
X189321150Y-86498689D01*
X189214795Y-86519844D01*
X189108440Y-86541000D01*
X188891560Y-86541000D01*
X188785206Y-86519845D01*
X188678850Y-86498689D01*
X188557681Y-86448499D01*
X188478480Y-86415693D01*
X188298156Y-86295205D01*
X188144795Y-86141844D01*
X188024307Y-85961520D01*
X187941311Y-85761149D01*
X187899000Y-85548440D01*
X187899000Y-85331560D01*
X187930838Y-85171501D01*
X187941311Y-85118850D01*
X188024307Y-84918481D01*
X188024307Y-84918480D01*
X188144795Y-84738156D01*
X188298156Y-84584795D01*
X188478480Y-84464307D01*
X188578666Y-84422809D01*
X188678850Y-84381311D01*
X188785206Y-84360155D01*
X188891560Y-84339000D01*
X189108440Y-84339000D01*
X189214795Y-84360156D01*
X189214795Y-84360156D01*
G37*
G36*
X131537142Y-83758242D02*
G01*
X131685101Y-83819529D01*
X131818255Y-83908499D01*
X131931501Y-84021745D01*
X132020471Y-84154899D01*
X132081758Y-84302858D01*
X132113000Y-84459925D01*
X132113000Y-84620075D01*
X132081758Y-84777142D01*
X132020471Y-84925101D01*
X131931501Y-85058255D01*
X131818255Y-85171501D01*
X131685101Y-85260471D01*
X131537142Y-85321758D01*
X131380075Y-85353000D01*
X131219925Y-85353000D01*
X131062858Y-85321758D01*
X130914899Y-85260471D01*
X130781745Y-85171501D01*
X130668499Y-85058255D01*
X130579529Y-84925101D01*
X130518242Y-84777142D01*
X130487000Y-84620075D01*
X130487000Y-84459925D01*
X130518242Y-84302858D01*
X130579529Y-84154899D01*
X130668499Y-84021745D01*
X130781745Y-83908499D01*
X130914899Y-83819529D01*
X131062858Y-83758242D01*
X131219925Y-83727000D01*
X131380075Y-83727000D01*
X131537142Y-83758242D01*
X131537142Y-83758242D01*
G37*
G36*
X156937142Y-83758242D02*
G01*
X157085101Y-83819529D01*
X157218255Y-83908499D01*
X157331501Y-84021745D01*
X157420471Y-84154899D01*
X157481758Y-84302858D01*
X157513000Y-84459925D01*
X157513000Y-84620075D01*
X157481758Y-84777142D01*
X157420471Y-84925101D01*
X157331501Y-85058255D01*
X157218255Y-85171501D01*
X157085101Y-85260471D01*
X156937142Y-85321758D01*
X156780075Y-85353000D01*
X156619925Y-85353000D01*
X156462858Y-85321758D01*
X156314899Y-85260471D01*
X156181745Y-85171501D01*
X156068499Y-85058255D01*
X155979529Y-84925101D01*
X155918242Y-84777142D01*
X155887000Y-84620075D01*
X155887000Y-84459925D01*
X155918242Y-84302858D01*
X155979529Y-84154899D01*
X156068499Y-84021745D01*
X156181745Y-83908499D01*
X156314899Y-83819529D01*
X156462858Y-83758242D01*
X156619925Y-83727000D01*
X156780075Y-83727000D01*
X156937142Y-83758242D01*
X156937142Y-83758242D01*
G37*
G36*
X120883600Y-80102989D02*
G01*
X120916652Y-80113015D01*
X120947103Y-80129292D01*
X120973799Y-80151201D01*
X120995708Y-80177897D01*
X121011985Y-80208348D01*
X121022011Y-80241400D01*
X121026000Y-80281903D01*
X121026000Y-81718097D01*
X121022011Y-81758600D01*
X121011985Y-81791652D01*
X120995708Y-81822103D01*
X120973799Y-81848799D01*
X120947103Y-81870708D01*
X120916652Y-81886985D01*
X120883600Y-81897011D01*
X120843097Y-81901000D01*
X119156903Y-81901000D01*
X119116400Y-81897011D01*
X119083348Y-81886985D01*
X119052897Y-81870708D01*
X119026201Y-81848799D01*
X119004292Y-81822103D01*
X118988015Y-81791652D01*
X118977989Y-81758600D01*
X118974000Y-81718097D01*
X118974000Y-80281903D01*
X118977989Y-80241400D01*
X118988015Y-80208348D01*
X119004292Y-80177897D01*
X119026201Y-80151201D01*
X119052897Y-80129292D01*
X119083348Y-80113015D01*
X119116400Y-80102989D01*
X119156903Y-80099000D01*
X120843097Y-80099000D01*
X120883600Y-80102989D01*
X120883600Y-80102989D01*
G37*
G36*
X189214794Y-79280155D02*
G01*
X189321150Y-79301311D01*
X189405963Y-79336442D01*
X189521520Y-79384307D01*
X189701844Y-79504795D01*
X189855205Y-79658156D01*
X189975693Y-79838480D01*
X190058689Y-80038851D01*
X190101000Y-80251560D01*
X190101000Y-80468440D01*
X190058689Y-80681149D01*
X189975693Y-80881520D01*
X189855205Y-81061844D01*
X189701844Y-81215205D01*
X189521520Y-81335693D01*
X189321150Y-81418689D01*
X189214795Y-81439844D01*
X189108440Y-81461000D01*
X188891560Y-81461000D01*
X188785205Y-81439844D01*
X188678850Y-81418689D01*
X188478480Y-81335693D01*
X188298156Y-81215205D01*
X188144795Y-81061844D01*
X188024307Y-80881520D01*
X187941311Y-80681149D01*
X187899000Y-80468440D01*
X187899000Y-80251560D01*
X187941311Y-80038851D01*
X188024307Y-79838480D01*
X188144795Y-79658156D01*
X188298156Y-79504795D01*
X188478480Y-79384307D01*
X188594037Y-79336442D01*
X188678850Y-79301311D01*
X188785205Y-79280156D01*
X188891560Y-79259000D01*
X189108440Y-79259000D01*
X189214794Y-79280155D01*
X189214794Y-79280155D01*
G37*
G36*
X120235443Y-77605519D02*
G01*
X120301627Y-77612037D01*
X120471466Y-77663557D01*
X120627991Y-77747222D01*
X120663729Y-77776552D01*
X120765186Y-77859814D01*
X120848448Y-77961271D01*
X120877778Y-77997009D01*
X120961443Y-78153534D01*
X121012963Y-78323373D01*
X121030359Y-78500000D01*
X121012963Y-78676627D01*
X120961443Y-78846466D01*
X120877778Y-79002991D01*
X120848448Y-79038729D01*
X120765186Y-79140186D01*
X120663729Y-79223448D01*
X120627991Y-79252778D01*
X120471466Y-79336443D01*
X120301627Y-79387963D01*
X120235443Y-79394481D01*
X120169260Y-79401000D01*
X119830740Y-79401000D01*
X119764557Y-79394481D01*
X119698373Y-79387963D01*
X119528534Y-79336443D01*
X119372009Y-79252778D01*
X119336271Y-79223448D01*
X119234814Y-79140186D01*
X119151552Y-79038729D01*
X119122222Y-79002991D01*
X119038557Y-78846466D01*
X118987037Y-78676627D01*
X118969641Y-78500000D01*
X118987037Y-78323373D01*
X119038557Y-78153534D01*
X119122222Y-77997009D01*
X119151552Y-77961271D01*
X119234814Y-77859814D01*
X119336271Y-77776552D01*
X119372009Y-77747222D01*
X119528534Y-77663557D01*
X119698373Y-77612037D01*
X119764557Y-77605519D01*
X119830740Y-77599000D01*
X120169260Y-77599000D01*
X120235443Y-77605519D01*
X120235443Y-77605519D01*
G37*
G36*
X120235442Y-75105518D02*
G01*
X120301627Y-75112037D01*
X120471466Y-75163557D01*
X120471468Y-75163558D01*
X120486440Y-75171561D01*
X120627991Y-75247222D01*
X120663729Y-75276552D01*
X120765186Y-75359814D01*
X120848448Y-75461271D01*
X120877778Y-75497009D01*
X120961443Y-75653534D01*
X121012963Y-75823373D01*
X121030359Y-76000000D01*
X121012963Y-76176627D01*
X120961443Y-76346466D01*
X120877778Y-76502991D01*
X120848448Y-76538729D01*
X120765186Y-76640186D01*
X120663729Y-76723448D01*
X120627991Y-76752778D01*
X120471466Y-76836443D01*
X120301627Y-76887963D01*
X120235442Y-76894482D01*
X120169260Y-76901000D01*
X119830740Y-76901000D01*
X119764558Y-76894482D01*
X119698373Y-76887963D01*
X119528534Y-76836443D01*
X119372009Y-76752778D01*
X119336271Y-76723448D01*
X119234814Y-76640186D01*
X119151552Y-76538729D01*
X119122222Y-76502991D01*
X119038557Y-76346466D01*
X118987037Y-76176627D01*
X118969641Y-76000000D01*
X118987037Y-75823373D01*
X119038557Y-75653534D01*
X119122222Y-75497009D01*
X119151552Y-75461271D01*
X119234814Y-75359814D01*
X119336271Y-75276552D01*
X119372009Y-75247222D01*
X119513560Y-75171561D01*
X119528532Y-75163558D01*
X119528534Y-75163557D01*
X119698373Y-75112037D01*
X119764558Y-75105518D01*
X119830740Y-75099000D01*
X120169260Y-75099000D01*
X120235442Y-75105518D01*
X120235442Y-75105518D01*
G37*
G36*
X189214795Y-74200156D02*
G01*
X189321150Y-74221311D01*
X189397120Y-74252779D01*
X189521520Y-74304307D01*
X189701844Y-74424795D01*
X189855205Y-74578156D01*
X189975693Y-74758480D01*
X189975693Y-74758481D01*
X190058689Y-74958850D01*
X190101000Y-75171561D01*
X190101000Y-75388439D01*
X190058689Y-75601150D01*
X190036991Y-75653534D01*
X189975693Y-75801520D01*
X189855205Y-75981844D01*
X189701844Y-76135205D01*
X189521520Y-76255693D01*
X189421334Y-76297191D01*
X189321150Y-76338689D01*
X189282042Y-76346468D01*
X189108440Y-76381000D01*
X188891560Y-76381000D01*
X188717958Y-76346468D01*
X188678850Y-76338689D01*
X188478480Y-76255693D01*
X188298156Y-76135205D01*
X188144795Y-75981844D01*
X188024307Y-75801520D01*
X187963009Y-75653534D01*
X187941311Y-75601150D01*
X187899000Y-75388439D01*
X187899000Y-75171561D01*
X187941311Y-74958850D01*
X188024307Y-74758481D01*
X188024307Y-74758480D01*
X188144795Y-74578156D01*
X188298156Y-74424795D01*
X188478480Y-74304307D01*
X188602880Y-74252779D01*
X188678850Y-74221311D01*
X188785205Y-74200156D01*
X188891560Y-74179000D01*
X189108440Y-74179000D01*
X189214795Y-74200156D01*
X189214795Y-74200156D01*
G37*
G36*
X120235443Y-72605519D02*
G01*
X120301627Y-72612037D01*
X120471466Y-72663557D01*
X120627991Y-72747222D01*
X120663729Y-72776552D01*
X120765186Y-72859814D01*
X120848448Y-72961271D01*
X120877778Y-72997009D01*
X120961443Y-73153534D01*
X121012963Y-73323373D01*
X121030359Y-73500000D01*
X121012963Y-73676627D01*
X120961443Y-73846466D01*
X120877778Y-74002991D01*
X120848448Y-74038729D01*
X120765186Y-74140186D01*
X120666333Y-74221311D01*
X120627991Y-74252778D01*
X120471466Y-74336443D01*
X120301627Y-74387963D01*
X120235442Y-74394482D01*
X120169260Y-74401000D01*
X119830740Y-74401000D01*
X119764558Y-74394482D01*
X119698373Y-74387963D01*
X119528534Y-74336443D01*
X119372009Y-74252778D01*
X119333667Y-74221311D01*
X119234814Y-74140186D01*
X119151552Y-74038729D01*
X119122222Y-74002991D01*
X119038557Y-73846466D01*
X118987037Y-73676627D01*
X118969641Y-73500000D01*
X118987037Y-73323373D01*
X119038557Y-73153534D01*
X119122222Y-72997009D01*
X119151552Y-72961271D01*
X119234814Y-72859814D01*
X119336271Y-72776552D01*
X119372009Y-72747222D01*
X119528534Y-72663557D01*
X119698373Y-72612037D01*
X119764557Y-72605519D01*
X119830740Y-72599000D01*
X120169260Y-72599000D01*
X120235443Y-72605519D01*
X120235443Y-72605519D01*
G37*
G36*
X120235442Y-70105518D02*
G01*
X120301627Y-70112037D01*
X120471466Y-70163557D01*
X120627991Y-70247222D01*
X120663729Y-70276552D01*
X120765186Y-70359814D01*
X120848448Y-70461271D01*
X120877778Y-70497009D01*
X120961443Y-70653534D01*
X121012963Y-70823373D01*
X121030359Y-71000000D01*
X121012963Y-71176627D01*
X120961443Y-71346466D01*
X120877778Y-71502991D01*
X120848448Y-71538729D01*
X120765186Y-71640186D01*
X120663729Y-71723448D01*
X120627991Y-71752778D01*
X120471466Y-71836443D01*
X120301627Y-71887963D01*
X120235443Y-71894481D01*
X120169260Y-71901000D01*
X119830740Y-71901000D01*
X119764557Y-71894481D01*
X119698373Y-71887963D01*
X119528534Y-71836443D01*
X119372009Y-71752778D01*
X119336271Y-71723448D01*
X119234814Y-71640186D01*
X119151552Y-71538729D01*
X119122222Y-71502991D01*
X119038557Y-71346466D01*
X118987037Y-71176627D01*
X118969641Y-71000000D01*
X118987037Y-70823373D01*
X119038557Y-70653534D01*
X119122222Y-70497009D01*
X119151552Y-70461271D01*
X119234814Y-70359814D01*
X119336271Y-70276552D01*
X119372009Y-70247222D01*
X119528534Y-70163557D01*
X119698373Y-70112037D01*
X119764558Y-70105518D01*
X119830740Y-70099000D01*
X120169260Y-70099000D01*
X120235442Y-70105518D01*
X120235442Y-70105518D01*
G37*
G36*
X143235443Y-69105519D02*
G01*
X143301627Y-69112037D01*
X143471466Y-69163557D01*
X143627991Y-69247222D01*
X143634762Y-69252779D01*
X143765186Y-69359814D01*
X143848448Y-69461271D01*
X143877778Y-69497009D01*
X143961443Y-69653534D01*
X144012963Y-69823373D01*
X144030359Y-70000000D01*
X144012963Y-70176627D01*
X143961443Y-70346466D01*
X143877778Y-70502991D01*
X143848448Y-70538729D01*
X143765186Y-70640186D01*
X143663729Y-70723448D01*
X143627991Y-70752778D01*
X143471466Y-70836443D01*
X143301627Y-70887963D01*
X143235442Y-70894482D01*
X143169260Y-70901000D01*
X142830740Y-70901000D01*
X142764558Y-70894482D01*
X142698373Y-70887963D01*
X142528534Y-70836443D01*
X142372009Y-70752778D01*
X142336271Y-70723448D01*
X142234814Y-70640186D01*
X142151552Y-70538729D01*
X142122222Y-70502991D01*
X142038557Y-70346466D01*
X141987037Y-70176627D01*
X141969641Y-70000000D01*
X141987037Y-69823373D01*
X142038557Y-69653534D01*
X142122222Y-69497009D01*
X142151552Y-69461271D01*
X142234814Y-69359814D01*
X142365238Y-69252779D01*
X142372009Y-69247222D01*
X142528534Y-69163557D01*
X142698373Y-69112037D01*
X142764557Y-69105519D01*
X142830740Y-69099000D01*
X143169260Y-69099000D01*
X143235443Y-69105519D01*
X143235443Y-69105519D01*
G37*
G36*
X134235443Y-69105519D02*
G01*
X134301627Y-69112037D01*
X134471466Y-69163557D01*
X134627991Y-69247222D01*
X134634762Y-69252779D01*
X134765186Y-69359814D01*
X134848448Y-69461271D01*
X134877778Y-69497009D01*
X134961443Y-69653534D01*
X135012963Y-69823373D01*
X135030359Y-70000000D01*
X135012963Y-70176627D01*
X134961443Y-70346466D01*
X134877778Y-70502991D01*
X134848448Y-70538729D01*
X134765186Y-70640186D01*
X134663729Y-70723448D01*
X134627991Y-70752778D01*
X134471466Y-70836443D01*
X134301627Y-70887963D01*
X134235442Y-70894482D01*
X134169260Y-70901000D01*
X133830740Y-70901000D01*
X133764558Y-70894482D01*
X133698373Y-70887963D01*
X133528534Y-70836443D01*
X133372009Y-70752778D01*
X133336271Y-70723448D01*
X133234814Y-70640186D01*
X133151552Y-70538729D01*
X133122222Y-70502991D01*
X133038557Y-70346466D01*
X132987037Y-70176627D01*
X132969641Y-70000000D01*
X132987037Y-69823373D01*
X133038557Y-69653534D01*
X133122222Y-69497009D01*
X133151552Y-69461271D01*
X133234814Y-69359814D01*
X133365238Y-69252779D01*
X133372009Y-69247222D01*
X133528534Y-69163557D01*
X133698373Y-69112037D01*
X133764557Y-69105519D01*
X133830740Y-69099000D01*
X134169260Y-69099000D01*
X134235443Y-69105519D01*
X134235443Y-69105519D01*
G37*
G36*
X160235443Y-69105519D02*
G01*
X160301627Y-69112037D01*
X160471466Y-69163557D01*
X160627991Y-69247222D01*
X160634762Y-69252779D01*
X160765186Y-69359814D01*
X160848448Y-69461271D01*
X160877778Y-69497009D01*
X160961443Y-69653534D01*
X161012963Y-69823373D01*
X161030359Y-70000000D01*
X161012963Y-70176627D01*
X160961443Y-70346466D01*
X160877778Y-70502991D01*
X160848448Y-70538729D01*
X160765186Y-70640186D01*
X160663729Y-70723448D01*
X160627991Y-70752778D01*
X160471466Y-70836443D01*
X160301627Y-70887963D01*
X160235442Y-70894482D01*
X160169260Y-70901000D01*
X159830740Y-70901000D01*
X159764558Y-70894482D01*
X159698373Y-70887963D01*
X159528534Y-70836443D01*
X159372009Y-70752778D01*
X159336271Y-70723448D01*
X159234814Y-70640186D01*
X159151552Y-70538729D01*
X159122222Y-70502991D01*
X159038557Y-70346466D01*
X158987037Y-70176627D01*
X158969641Y-70000000D01*
X158987037Y-69823373D01*
X159038557Y-69653534D01*
X159122222Y-69497009D01*
X159151552Y-69461271D01*
X159234814Y-69359814D01*
X159365238Y-69252779D01*
X159372009Y-69247222D01*
X159528534Y-69163557D01*
X159698373Y-69112037D01*
X159764557Y-69105519D01*
X159830740Y-69099000D01*
X160169260Y-69099000D01*
X160235443Y-69105519D01*
X160235443Y-69105519D01*
G37*
G36*
X151235443Y-69105519D02*
G01*
X151301627Y-69112037D01*
X151471466Y-69163557D01*
X151627991Y-69247222D01*
X151634762Y-69252779D01*
X151765186Y-69359814D01*
X151848448Y-69461271D01*
X151877778Y-69497009D01*
X151961443Y-69653534D01*
X152012963Y-69823373D01*
X152030359Y-70000000D01*
X152012963Y-70176627D01*
X151961443Y-70346466D01*
X151877778Y-70502991D01*
X151848448Y-70538729D01*
X151765186Y-70640186D01*
X151663729Y-70723448D01*
X151627991Y-70752778D01*
X151471466Y-70836443D01*
X151301627Y-70887963D01*
X151235442Y-70894482D01*
X151169260Y-70901000D01*
X150830740Y-70901000D01*
X150764558Y-70894482D01*
X150698373Y-70887963D01*
X150528534Y-70836443D01*
X150372009Y-70752778D01*
X150336271Y-70723448D01*
X150234814Y-70640186D01*
X150151552Y-70538729D01*
X150122222Y-70502991D01*
X150038557Y-70346466D01*
X149987037Y-70176627D01*
X149969641Y-70000000D01*
X149987037Y-69823373D01*
X150038557Y-69653534D01*
X150122222Y-69497009D01*
X150151552Y-69461271D01*
X150234814Y-69359814D01*
X150365238Y-69252779D01*
X150372009Y-69247222D01*
X150528534Y-69163557D01*
X150698373Y-69112037D01*
X150764557Y-69105519D01*
X150830740Y-69099000D01*
X151169260Y-69099000D01*
X151235443Y-69105519D01*
X151235443Y-69105519D01*
G37*
G36*
X120235442Y-67605518D02*
G01*
X120301627Y-67612037D01*
X120471466Y-67663557D01*
X120627991Y-67747222D01*
X120663729Y-67776552D01*
X120765186Y-67859814D01*
X120848448Y-67961271D01*
X120877778Y-67997009D01*
X120961443Y-68153534D01*
X121012963Y-68323373D01*
X121030359Y-68500000D01*
X121012963Y-68676627D01*
X120961443Y-68846466D01*
X120877778Y-69002991D01*
X120848448Y-69038729D01*
X120765186Y-69140186D01*
X120663729Y-69223448D01*
X120627991Y-69252778D01*
X120471466Y-69336443D01*
X120301627Y-69387963D01*
X120235442Y-69394482D01*
X120169260Y-69401000D01*
X119830740Y-69401000D01*
X119764558Y-69394482D01*
X119698373Y-69387963D01*
X119528534Y-69336443D01*
X119372009Y-69252778D01*
X119336271Y-69223448D01*
X119234814Y-69140186D01*
X119151552Y-69038729D01*
X119122222Y-69002991D01*
X119038557Y-68846466D01*
X118987037Y-68676627D01*
X118969641Y-68500000D01*
X118987037Y-68323373D01*
X119038557Y-68153534D01*
X119122222Y-67997009D01*
X119151552Y-67961271D01*
X119234814Y-67859814D01*
X119336271Y-67776552D01*
X119372009Y-67747222D01*
X119528534Y-67663557D01*
X119698373Y-67612037D01*
X119764558Y-67605518D01*
X119830740Y-67599000D01*
X120169260Y-67599000D01*
X120235442Y-67605518D01*
X120235442Y-67605518D01*
G37*
G36*
X134235442Y-66605518D02*
G01*
X134301627Y-66612037D01*
X134471466Y-66663557D01*
X134627991Y-66747222D01*
X134634762Y-66752779D01*
X134765186Y-66859814D01*
X134848448Y-66961271D01*
X134877778Y-66997009D01*
X134961443Y-67153534D01*
X135012963Y-67323373D01*
X135030359Y-67500000D01*
X135012963Y-67676627D01*
X134961443Y-67846466D01*
X134877778Y-68002991D01*
X134848448Y-68038729D01*
X134765186Y-68140186D01*
X134663729Y-68223448D01*
X134627991Y-68252778D01*
X134471466Y-68336443D01*
X134301627Y-68387963D01*
X134235442Y-68394482D01*
X134169260Y-68401000D01*
X133830740Y-68401000D01*
X133764558Y-68394482D01*
X133698373Y-68387963D01*
X133528534Y-68336443D01*
X133372009Y-68252778D01*
X133336271Y-68223448D01*
X133234814Y-68140186D01*
X133151552Y-68038729D01*
X133122222Y-68002991D01*
X133038557Y-67846466D01*
X132987037Y-67676627D01*
X132969641Y-67500000D01*
X132987037Y-67323373D01*
X133038557Y-67153534D01*
X133122222Y-66997009D01*
X133151552Y-66961271D01*
X133234814Y-66859814D01*
X133365238Y-66752779D01*
X133372009Y-66747222D01*
X133528534Y-66663557D01*
X133698373Y-66612037D01*
X133764558Y-66605518D01*
X133830740Y-66599000D01*
X134169260Y-66599000D01*
X134235442Y-66605518D01*
X134235442Y-66605518D01*
G37*
G36*
X151235442Y-66605518D02*
G01*
X151301627Y-66612037D01*
X151471466Y-66663557D01*
X151627991Y-66747222D01*
X151634762Y-66752779D01*
X151765186Y-66859814D01*
X151848448Y-66961271D01*
X151877778Y-66997009D01*
X151961443Y-67153534D01*
X152012963Y-67323373D01*
X152030359Y-67500000D01*
X152012963Y-67676627D01*
X151961443Y-67846466D01*
X151877778Y-68002991D01*
X151848448Y-68038729D01*
X151765186Y-68140186D01*
X151663729Y-68223448D01*
X151627991Y-68252778D01*
X151471466Y-68336443D01*
X151301627Y-68387963D01*
X151235442Y-68394482D01*
X151169260Y-68401000D01*
X150830740Y-68401000D01*
X150764558Y-68394482D01*
X150698373Y-68387963D01*
X150528534Y-68336443D01*
X150372009Y-68252778D01*
X150336271Y-68223448D01*
X150234814Y-68140186D01*
X150151552Y-68038729D01*
X150122222Y-68002991D01*
X150038557Y-67846466D01*
X149987037Y-67676627D01*
X149969641Y-67500000D01*
X149987037Y-67323373D01*
X150038557Y-67153534D01*
X150122222Y-66997009D01*
X150151552Y-66961271D01*
X150234814Y-66859814D01*
X150365238Y-66752779D01*
X150372009Y-66747222D01*
X150528534Y-66663557D01*
X150698373Y-66612037D01*
X150764558Y-66605518D01*
X150830740Y-66599000D01*
X151169260Y-66599000D01*
X151235442Y-66605518D01*
X151235442Y-66605518D01*
G37*
G36*
X160235442Y-66605518D02*
G01*
X160301627Y-66612037D01*
X160471466Y-66663557D01*
X160627991Y-66747222D01*
X160634762Y-66752779D01*
X160765186Y-66859814D01*
X160848448Y-66961271D01*
X160877778Y-66997009D01*
X160961443Y-67153534D01*
X161012963Y-67323373D01*
X161030359Y-67500000D01*
X161012963Y-67676627D01*
X160961443Y-67846466D01*
X160877778Y-68002991D01*
X160848448Y-68038729D01*
X160765186Y-68140186D01*
X160663729Y-68223448D01*
X160627991Y-68252778D01*
X160471466Y-68336443D01*
X160301627Y-68387963D01*
X160235442Y-68394482D01*
X160169260Y-68401000D01*
X159830740Y-68401000D01*
X159764558Y-68394482D01*
X159698373Y-68387963D01*
X159528534Y-68336443D01*
X159372009Y-68252778D01*
X159336271Y-68223448D01*
X159234814Y-68140186D01*
X159151552Y-68038729D01*
X159122222Y-68002991D01*
X159038557Y-67846466D01*
X158987037Y-67676627D01*
X158969641Y-67500000D01*
X158987037Y-67323373D01*
X159038557Y-67153534D01*
X159122222Y-66997009D01*
X159151552Y-66961271D01*
X159234814Y-66859814D01*
X159365238Y-66752779D01*
X159372009Y-66747222D01*
X159528534Y-66663557D01*
X159698373Y-66612037D01*
X159764558Y-66605518D01*
X159830740Y-66599000D01*
X160169260Y-66599000D01*
X160235442Y-66605518D01*
X160235442Y-66605518D01*
G37*
G36*
X143235442Y-66605518D02*
G01*
X143301627Y-66612037D01*
X143471466Y-66663557D01*
X143627991Y-66747222D01*
X143634762Y-66752779D01*
X143765186Y-66859814D01*
X143848448Y-66961271D01*
X143877778Y-66997009D01*
X143961443Y-67153534D01*
X144012963Y-67323373D01*
X144030359Y-67500000D01*
X144012963Y-67676627D01*
X143961443Y-67846466D01*
X143877778Y-68002991D01*
X143848448Y-68038729D01*
X143765186Y-68140186D01*
X143663729Y-68223448D01*
X143627991Y-68252778D01*
X143471466Y-68336443D01*
X143301627Y-68387963D01*
X143235442Y-68394482D01*
X143169260Y-68401000D01*
X142830740Y-68401000D01*
X142764558Y-68394482D01*
X142698373Y-68387963D01*
X142528534Y-68336443D01*
X142372009Y-68252778D01*
X142336271Y-68223448D01*
X142234814Y-68140186D01*
X142151552Y-68038729D01*
X142122222Y-68002991D01*
X142038557Y-67846466D01*
X141987037Y-67676627D01*
X141969641Y-67500000D01*
X141987037Y-67323373D01*
X142038557Y-67153534D01*
X142122222Y-66997009D01*
X142151552Y-66961271D01*
X142234814Y-66859814D01*
X142365238Y-66752779D01*
X142372009Y-66747222D01*
X142528534Y-66663557D01*
X142698373Y-66612037D01*
X142764558Y-66605518D01*
X142830740Y-66599000D01*
X143169260Y-66599000D01*
X143235442Y-66605518D01*
X143235442Y-66605518D01*
G37*
G36*
X189883600Y-65102989D02*
G01*
X189916652Y-65113015D01*
X189947103Y-65129292D01*
X189973799Y-65151201D01*
X189995708Y-65177897D01*
X190011985Y-65208348D01*
X190022011Y-65241400D01*
X190026000Y-65281903D01*
X190026000Y-66718097D01*
X190022011Y-66758600D01*
X190011985Y-66791652D01*
X189995708Y-66822103D01*
X189973799Y-66848799D01*
X189947103Y-66870708D01*
X189916652Y-66886985D01*
X189883600Y-66897011D01*
X189843097Y-66901000D01*
X188156903Y-66901000D01*
X188116400Y-66897011D01*
X188083348Y-66886985D01*
X188052897Y-66870708D01*
X188026201Y-66848799D01*
X188004292Y-66822103D01*
X187988015Y-66791652D01*
X187977989Y-66758600D01*
X187974000Y-66718097D01*
X187974000Y-65281903D01*
X187977989Y-65241400D01*
X187988015Y-65208348D01*
X188004292Y-65177897D01*
X188026201Y-65151201D01*
X188052897Y-65129292D01*
X188083348Y-65113015D01*
X188116400Y-65102989D01*
X188156903Y-65099000D01*
X189843097Y-65099000D01*
X189883600Y-65102989D01*
X189883600Y-65102989D01*
G37*
G36*
X120209760Y-65102989D02*
G01*
X120301627Y-65112037D01*
X120471466Y-65163557D01*
X120627991Y-65247222D01*
X120663729Y-65276552D01*
X120765186Y-65359814D01*
X120848448Y-65461271D01*
X120877778Y-65497009D01*
X120961443Y-65653534D01*
X121012963Y-65823373D01*
X121030359Y-66000000D01*
X121012963Y-66176627D01*
X120961443Y-66346466D01*
X120877778Y-66502991D01*
X120848448Y-66538729D01*
X120765186Y-66640186D01*
X120670250Y-66718097D01*
X120627991Y-66752778D01*
X120471466Y-66836443D01*
X120301627Y-66887963D01*
X120235443Y-66894481D01*
X120169260Y-66901000D01*
X119830740Y-66901000D01*
X119764557Y-66894481D01*
X119698373Y-66887963D01*
X119528534Y-66836443D01*
X119372009Y-66752778D01*
X119329750Y-66718097D01*
X119234814Y-66640186D01*
X119151552Y-66538729D01*
X119122222Y-66502991D01*
X119038557Y-66346466D01*
X118987037Y-66176627D01*
X118969641Y-66000000D01*
X118987037Y-65823373D01*
X119038557Y-65653534D01*
X119122222Y-65497009D01*
X119151552Y-65461271D01*
X119234814Y-65359814D01*
X119336271Y-65276552D01*
X119372009Y-65247222D01*
X119528534Y-65163557D01*
X119698373Y-65112037D01*
X119790240Y-65102989D01*
X119830740Y-65099000D01*
X120169260Y-65099000D01*
X120209760Y-65102989D01*
X120209760Y-65102989D01*
G37*
G36*
X143235443Y-64105519D02*
G01*
X143301627Y-64112037D01*
X143471466Y-64163557D01*
X143627991Y-64247222D01*
X143634762Y-64252779D01*
X143765186Y-64359814D01*
X143848448Y-64461271D01*
X143877778Y-64497009D01*
X143961443Y-64653534D01*
X144012963Y-64823373D01*
X144030359Y-65000000D01*
X144012963Y-65176627D01*
X143961443Y-65346466D01*
X143877778Y-65502991D01*
X143848448Y-65538729D01*
X143765186Y-65640186D01*
X143663729Y-65723448D01*
X143627991Y-65752778D01*
X143471466Y-65836443D01*
X143301627Y-65887963D01*
X143235442Y-65894482D01*
X143169260Y-65901000D01*
X142830740Y-65901000D01*
X142764558Y-65894482D01*
X142698373Y-65887963D01*
X142528534Y-65836443D01*
X142372009Y-65752778D01*
X142336271Y-65723448D01*
X142234814Y-65640186D01*
X142151552Y-65538729D01*
X142122222Y-65502991D01*
X142038557Y-65346466D01*
X141987037Y-65176627D01*
X141969641Y-65000000D01*
X141987037Y-64823373D01*
X142038557Y-64653534D01*
X142122222Y-64497009D01*
X142151552Y-64461271D01*
X142234814Y-64359814D01*
X142365238Y-64252779D01*
X142372009Y-64247222D01*
X142528534Y-64163557D01*
X142698373Y-64112037D01*
X142764557Y-64105519D01*
X142830740Y-64099000D01*
X143169260Y-64099000D01*
X143235443Y-64105519D01*
X143235443Y-64105519D01*
G37*
G36*
X134235443Y-64105519D02*
G01*
X134301627Y-64112037D01*
X134471466Y-64163557D01*
X134627991Y-64247222D01*
X134634762Y-64252779D01*
X134765186Y-64359814D01*
X134848448Y-64461271D01*
X134877778Y-64497009D01*
X134961443Y-64653534D01*
X135012963Y-64823373D01*
X135030359Y-65000000D01*
X135012963Y-65176627D01*
X134961443Y-65346466D01*
X134877778Y-65502991D01*
X134848448Y-65538729D01*
X134765186Y-65640186D01*
X134663729Y-65723448D01*
X134627991Y-65752778D01*
X134471466Y-65836443D01*
X134301627Y-65887963D01*
X134235442Y-65894482D01*
X134169260Y-65901000D01*
X133830740Y-65901000D01*
X133764558Y-65894482D01*
X133698373Y-65887963D01*
X133528534Y-65836443D01*
X133372009Y-65752778D01*
X133336271Y-65723448D01*
X133234814Y-65640186D01*
X133151552Y-65538729D01*
X133122222Y-65502991D01*
X133038557Y-65346466D01*
X132987037Y-65176627D01*
X132969641Y-65000000D01*
X132987037Y-64823373D01*
X133038557Y-64653534D01*
X133122222Y-64497009D01*
X133151552Y-64461271D01*
X133234814Y-64359814D01*
X133365238Y-64252779D01*
X133372009Y-64247222D01*
X133528534Y-64163557D01*
X133698373Y-64112037D01*
X133764557Y-64105519D01*
X133830740Y-64099000D01*
X134169260Y-64099000D01*
X134235443Y-64105519D01*
X134235443Y-64105519D01*
G37*
G36*
X151235443Y-64105519D02*
G01*
X151301627Y-64112037D01*
X151471466Y-64163557D01*
X151627991Y-64247222D01*
X151634762Y-64252779D01*
X151765186Y-64359814D01*
X151848448Y-64461271D01*
X151877778Y-64497009D01*
X151961443Y-64653534D01*
X152012963Y-64823373D01*
X152030359Y-65000000D01*
X152012963Y-65176627D01*
X151961443Y-65346466D01*
X151877778Y-65502991D01*
X151848448Y-65538729D01*
X151765186Y-65640186D01*
X151663729Y-65723448D01*
X151627991Y-65752778D01*
X151471466Y-65836443D01*
X151301627Y-65887963D01*
X151235442Y-65894482D01*
X151169260Y-65901000D01*
X150830740Y-65901000D01*
X150764558Y-65894482D01*
X150698373Y-65887963D01*
X150528534Y-65836443D01*
X150372009Y-65752778D01*
X150336271Y-65723448D01*
X150234814Y-65640186D01*
X150151552Y-65538729D01*
X150122222Y-65502991D01*
X150038557Y-65346466D01*
X149987037Y-65176627D01*
X149969641Y-65000000D01*
X149987037Y-64823373D01*
X150038557Y-64653534D01*
X150122222Y-64497009D01*
X150151552Y-64461271D01*
X150234814Y-64359814D01*
X150365238Y-64252779D01*
X150372009Y-64247222D01*
X150528534Y-64163557D01*
X150698373Y-64112037D01*
X150764557Y-64105519D01*
X150830740Y-64099000D01*
X151169260Y-64099000D01*
X151235443Y-64105519D01*
X151235443Y-64105519D01*
G37*
G36*
X173030443Y-64105519D02*
G01*
X173096627Y-64112037D01*
X173266466Y-64163557D01*
X173422991Y-64247222D01*
X173429762Y-64252779D01*
X173560186Y-64359814D01*
X173643448Y-64461271D01*
X173672778Y-64497009D01*
X173756443Y-64653534D01*
X173807963Y-64823373D01*
X173825359Y-65000000D01*
X173807963Y-65176627D01*
X173756443Y-65346466D01*
X173672778Y-65502991D01*
X173643448Y-65538729D01*
X173560186Y-65640186D01*
X173458729Y-65723448D01*
X173422991Y-65752778D01*
X173266466Y-65836443D01*
X173096627Y-65887963D01*
X173030442Y-65894482D01*
X172964260Y-65901000D01*
X172875740Y-65901000D01*
X172809558Y-65894482D01*
X172743373Y-65887963D01*
X172573534Y-65836443D01*
X172417009Y-65752778D01*
X172381271Y-65723448D01*
X172279814Y-65640186D01*
X172196552Y-65538729D01*
X172167222Y-65502991D01*
X172083557Y-65346466D01*
X172032037Y-65176627D01*
X172014641Y-65000000D01*
X172032037Y-64823373D01*
X172083557Y-64653534D01*
X172167222Y-64497009D01*
X172196552Y-64461271D01*
X172279814Y-64359814D01*
X172410238Y-64252779D01*
X172417009Y-64247222D01*
X172573534Y-64163557D01*
X172743373Y-64112037D01*
X172809557Y-64105519D01*
X172875740Y-64099000D01*
X172964260Y-64099000D01*
X173030443Y-64105519D01*
X173030443Y-64105519D01*
G37*
G36*
X175570443Y-64105519D02*
G01*
X175636627Y-64112037D01*
X175806466Y-64163557D01*
X175962991Y-64247222D01*
X175969762Y-64252779D01*
X176100186Y-64359814D01*
X176183448Y-64461271D01*
X176212778Y-64497009D01*
X176296443Y-64653534D01*
X176347963Y-64823373D01*
X176365359Y-65000000D01*
X176347963Y-65176627D01*
X176296443Y-65346466D01*
X176212778Y-65502991D01*
X176183448Y-65538729D01*
X176100186Y-65640186D01*
X175998729Y-65723448D01*
X175962991Y-65752778D01*
X175806466Y-65836443D01*
X175636627Y-65887963D01*
X175570442Y-65894482D01*
X175504260Y-65901000D01*
X175415740Y-65901000D01*
X175349558Y-65894482D01*
X175283373Y-65887963D01*
X175113534Y-65836443D01*
X174957009Y-65752778D01*
X174921271Y-65723448D01*
X174819814Y-65640186D01*
X174736552Y-65538729D01*
X174707222Y-65502991D01*
X174623557Y-65346466D01*
X174572037Y-65176627D01*
X174554641Y-65000000D01*
X174572037Y-64823373D01*
X174623557Y-64653534D01*
X174707222Y-64497009D01*
X174736552Y-64461271D01*
X174819814Y-64359814D01*
X174950238Y-64252779D01*
X174957009Y-64247222D01*
X175113534Y-64163557D01*
X175283373Y-64112037D01*
X175349557Y-64105519D01*
X175415740Y-64099000D01*
X175504260Y-64099000D01*
X175570443Y-64105519D01*
X175570443Y-64105519D01*
G37*
G36*
X178901000Y-65901000D02*
G01*
X177099000Y-65901000D01*
X177099000Y-64099000D01*
X178901000Y-64099000D01*
X178901000Y-65901000D01*
X178901000Y-65901000D01*
G37*
G36*
X160235443Y-64105519D02*
G01*
X160301627Y-64112037D01*
X160471466Y-64163557D01*
X160627991Y-64247222D01*
X160634762Y-64252779D01*
X160765186Y-64359814D01*
X160848448Y-64461271D01*
X160877778Y-64497009D01*
X160961443Y-64653534D01*
X161012963Y-64823373D01*
X161030359Y-65000000D01*
X161012963Y-65176627D01*
X160961443Y-65346466D01*
X160877778Y-65502991D01*
X160848448Y-65538729D01*
X160765186Y-65640186D01*
X160663729Y-65723448D01*
X160627991Y-65752778D01*
X160471466Y-65836443D01*
X160301627Y-65887963D01*
X160235442Y-65894482D01*
X160169260Y-65901000D01*
X159830740Y-65901000D01*
X159764558Y-65894482D01*
X159698373Y-65887963D01*
X159528534Y-65836443D01*
X159372009Y-65752778D01*
X159336271Y-65723448D01*
X159234814Y-65640186D01*
X159151552Y-65538729D01*
X159122222Y-65502991D01*
X159038557Y-65346466D01*
X158987037Y-65176627D01*
X158969641Y-65000000D01*
X158987037Y-64823373D01*
X159038557Y-64653534D01*
X159122222Y-64497009D01*
X159151552Y-64461271D01*
X159234814Y-64359814D01*
X159365238Y-64252779D01*
X159372009Y-64247222D01*
X159528534Y-64163557D01*
X159698373Y-64112037D01*
X159764557Y-64105519D01*
X159830740Y-64099000D01*
X160169260Y-64099000D01*
X160235443Y-64105519D01*
X160235443Y-64105519D01*
G37*
G36*
X189235442Y-62605518D02*
G01*
X189301627Y-62612037D01*
X189471466Y-62663557D01*
X189627991Y-62747222D01*
X189663729Y-62776552D01*
X189765186Y-62859814D01*
X189848448Y-62961271D01*
X189877778Y-62997009D01*
X189961443Y-63153534D01*
X190012963Y-63323373D01*
X190030359Y-63500000D01*
X190012963Y-63676627D01*
X189961443Y-63846466D01*
X189877778Y-64002991D01*
X189848448Y-64038729D01*
X189765186Y-64140186D01*
X189663729Y-64223448D01*
X189627991Y-64252778D01*
X189471466Y-64336443D01*
X189301627Y-64387963D01*
X189235442Y-64394482D01*
X189169260Y-64401000D01*
X188830740Y-64401000D01*
X188764558Y-64394482D01*
X188698373Y-64387963D01*
X188528534Y-64336443D01*
X188372009Y-64252778D01*
X188336271Y-64223448D01*
X188234814Y-64140186D01*
X188151552Y-64038729D01*
X188122222Y-64002991D01*
X188038557Y-63846466D01*
X187987037Y-63676627D01*
X187969641Y-63500000D01*
X187987037Y-63323373D01*
X188038557Y-63153534D01*
X188122222Y-62997009D01*
X188151552Y-62961271D01*
X188234814Y-62859814D01*
X188336271Y-62776552D01*
X188372009Y-62747222D01*
X188528534Y-62663557D01*
X188698373Y-62612037D01*
X188764558Y-62605518D01*
X188830740Y-62599000D01*
X189169260Y-62599000D01*
X189235442Y-62605518D01*
X189235442Y-62605518D01*
G37*
G36*
X120235442Y-62605518D02*
G01*
X120301627Y-62612037D01*
X120471466Y-62663557D01*
X120627991Y-62747222D01*
X120663729Y-62776552D01*
X120765186Y-62859814D01*
X120848448Y-62961271D01*
X120877778Y-62997009D01*
X120961443Y-63153534D01*
X121012963Y-63323373D01*
X121030359Y-63500000D01*
X121012963Y-63676627D01*
X120961443Y-63846466D01*
X120877778Y-64002991D01*
X120848448Y-64038729D01*
X120765186Y-64140186D01*
X120663729Y-64223448D01*
X120627991Y-64252778D01*
X120471466Y-64336443D01*
X120301627Y-64387963D01*
X120235442Y-64394482D01*
X120169260Y-64401000D01*
X119830740Y-64401000D01*
X119764558Y-64394482D01*
X119698373Y-64387963D01*
X119528534Y-64336443D01*
X119372009Y-64252778D01*
X119336271Y-64223448D01*
X119234814Y-64140186D01*
X119151552Y-64038729D01*
X119122222Y-64002991D01*
X119038557Y-63846466D01*
X118987037Y-63676627D01*
X118969641Y-63500000D01*
X118987037Y-63323373D01*
X119038557Y-63153534D01*
X119122222Y-62997009D01*
X119151552Y-62961271D01*
X119234814Y-62859814D01*
X119336271Y-62776552D01*
X119372009Y-62747222D01*
X119528534Y-62663557D01*
X119698373Y-62612037D01*
X119764558Y-62605518D01*
X119830740Y-62599000D01*
X120169260Y-62599000D01*
X120235442Y-62605518D01*
X120235442Y-62605518D01*
G37*
G36*
X151235443Y-61605519D02*
G01*
X151301627Y-61612037D01*
X151471466Y-61663557D01*
X151627991Y-61747222D01*
X151634762Y-61752779D01*
X151765186Y-61859814D01*
X151848448Y-61961271D01*
X151877778Y-61997009D01*
X151961443Y-62153534D01*
X152012963Y-62323373D01*
X152030359Y-62500000D01*
X152012963Y-62676627D01*
X151961443Y-62846466D01*
X151877778Y-63002991D01*
X151848448Y-63038729D01*
X151765186Y-63140186D01*
X151663729Y-63223448D01*
X151627991Y-63252778D01*
X151471466Y-63336443D01*
X151301627Y-63387963D01*
X151235442Y-63394482D01*
X151169260Y-63401000D01*
X150830740Y-63401000D01*
X150764558Y-63394482D01*
X150698373Y-63387963D01*
X150528534Y-63336443D01*
X150372009Y-63252778D01*
X150336271Y-63223448D01*
X150234814Y-63140186D01*
X150151552Y-63038729D01*
X150122222Y-63002991D01*
X150038557Y-62846466D01*
X149987037Y-62676627D01*
X149969641Y-62500000D01*
X149987037Y-62323373D01*
X150038557Y-62153534D01*
X150122222Y-61997009D01*
X150151552Y-61961271D01*
X150234814Y-61859814D01*
X150365238Y-61752779D01*
X150372009Y-61747222D01*
X150528534Y-61663557D01*
X150698373Y-61612037D01*
X150764557Y-61605519D01*
X150830740Y-61599000D01*
X151169260Y-61599000D01*
X151235443Y-61605519D01*
X151235443Y-61605519D01*
G37*
G36*
X134235443Y-61605519D02*
G01*
X134301627Y-61612037D01*
X134471466Y-61663557D01*
X134627991Y-61747222D01*
X134634762Y-61752779D01*
X134765186Y-61859814D01*
X134848448Y-61961271D01*
X134877778Y-61997009D01*
X134961443Y-62153534D01*
X135012963Y-62323373D01*
X135030359Y-62500000D01*
X135012963Y-62676627D01*
X134961443Y-62846466D01*
X134877778Y-63002991D01*
X134848448Y-63038729D01*
X134765186Y-63140186D01*
X134663729Y-63223448D01*
X134627991Y-63252778D01*
X134471466Y-63336443D01*
X134301627Y-63387963D01*
X134235442Y-63394482D01*
X134169260Y-63401000D01*
X133830740Y-63401000D01*
X133764558Y-63394482D01*
X133698373Y-63387963D01*
X133528534Y-63336443D01*
X133372009Y-63252778D01*
X133336271Y-63223448D01*
X133234814Y-63140186D01*
X133151552Y-63038729D01*
X133122222Y-63002991D01*
X133038557Y-62846466D01*
X132987037Y-62676627D01*
X132969641Y-62500000D01*
X132987037Y-62323373D01*
X133038557Y-62153534D01*
X133122222Y-61997009D01*
X133151552Y-61961271D01*
X133234814Y-61859814D01*
X133365238Y-61752779D01*
X133372009Y-61747222D01*
X133528534Y-61663557D01*
X133698373Y-61612037D01*
X133764557Y-61605519D01*
X133830740Y-61599000D01*
X134169260Y-61599000D01*
X134235443Y-61605519D01*
X134235443Y-61605519D01*
G37*
G36*
X160235443Y-61605519D02*
G01*
X160301627Y-61612037D01*
X160471466Y-61663557D01*
X160627991Y-61747222D01*
X160634762Y-61752779D01*
X160765186Y-61859814D01*
X160848448Y-61961271D01*
X160877778Y-61997009D01*
X160961443Y-62153534D01*
X161012963Y-62323373D01*
X161030359Y-62500000D01*
X161012963Y-62676627D01*
X160961443Y-62846466D01*
X160877778Y-63002991D01*
X160848448Y-63038729D01*
X160765186Y-63140186D01*
X160663729Y-63223448D01*
X160627991Y-63252778D01*
X160471466Y-63336443D01*
X160301627Y-63387963D01*
X160235442Y-63394482D01*
X160169260Y-63401000D01*
X159830740Y-63401000D01*
X159764558Y-63394482D01*
X159698373Y-63387963D01*
X159528534Y-63336443D01*
X159372009Y-63252778D01*
X159336271Y-63223448D01*
X159234814Y-63140186D01*
X159151552Y-63038729D01*
X159122222Y-63002991D01*
X159038557Y-62846466D01*
X158987037Y-62676627D01*
X158969641Y-62500000D01*
X158987037Y-62323373D01*
X159038557Y-62153534D01*
X159122222Y-61997009D01*
X159151552Y-61961271D01*
X159234814Y-61859814D01*
X159365238Y-61752779D01*
X159372009Y-61747222D01*
X159528534Y-61663557D01*
X159698373Y-61612037D01*
X159764557Y-61605519D01*
X159830740Y-61599000D01*
X160169260Y-61599000D01*
X160235443Y-61605519D01*
X160235443Y-61605519D01*
G37*
G36*
X143235443Y-61605519D02*
G01*
X143301627Y-61612037D01*
X143471466Y-61663557D01*
X143627991Y-61747222D01*
X143634762Y-61752779D01*
X143765186Y-61859814D01*
X143848448Y-61961271D01*
X143877778Y-61997009D01*
X143961443Y-62153534D01*
X144012963Y-62323373D01*
X144030359Y-62500000D01*
X144012963Y-62676627D01*
X143961443Y-62846466D01*
X143877778Y-63002991D01*
X143848448Y-63038729D01*
X143765186Y-63140186D01*
X143663729Y-63223448D01*
X143627991Y-63252778D01*
X143471466Y-63336443D01*
X143301627Y-63387963D01*
X143235442Y-63394482D01*
X143169260Y-63401000D01*
X142830740Y-63401000D01*
X142764558Y-63394482D01*
X142698373Y-63387963D01*
X142528534Y-63336443D01*
X142372009Y-63252778D01*
X142336271Y-63223448D01*
X142234814Y-63140186D01*
X142151552Y-63038729D01*
X142122222Y-63002991D01*
X142038557Y-62846466D01*
X141987037Y-62676627D01*
X141969641Y-62500000D01*
X141987037Y-62323373D01*
X142038557Y-62153534D01*
X142122222Y-61997009D01*
X142151552Y-61961271D01*
X142234814Y-61859814D01*
X142365238Y-61752779D01*
X142372009Y-61747222D01*
X142528534Y-61663557D01*
X142698373Y-61612037D01*
X142764557Y-61605519D01*
X142830740Y-61599000D01*
X143169260Y-61599000D01*
X143235443Y-61605519D01*
X143235443Y-61605519D01*
G37*
G36*
X175570442Y-60105518D02*
G01*
X175636627Y-60112037D01*
X175806466Y-60163557D01*
X175962991Y-60247222D01*
X175998729Y-60276552D01*
X176100186Y-60359814D01*
X176183448Y-60461271D01*
X176212778Y-60497009D01*
X176296443Y-60653534D01*
X176347963Y-60823373D01*
X176365359Y-61000000D01*
X176347963Y-61176627D01*
X176296443Y-61346466D01*
X176212778Y-61502991D01*
X176183448Y-61538729D01*
X176100186Y-61640186D01*
X175998729Y-61723448D01*
X175962991Y-61752778D01*
X175806466Y-61836443D01*
X175636627Y-61887963D01*
X175570443Y-61894481D01*
X175504260Y-61901000D01*
X175415740Y-61901000D01*
X175349557Y-61894481D01*
X175283373Y-61887963D01*
X175113534Y-61836443D01*
X174957009Y-61752778D01*
X174921271Y-61723448D01*
X174819814Y-61640186D01*
X174736552Y-61538729D01*
X174707222Y-61502991D01*
X174623557Y-61346466D01*
X174572037Y-61176627D01*
X174554641Y-61000000D01*
X174572037Y-60823373D01*
X174623557Y-60653534D01*
X174707222Y-60497009D01*
X174736552Y-60461271D01*
X174819814Y-60359814D01*
X174921271Y-60276552D01*
X174957009Y-60247222D01*
X175113534Y-60163557D01*
X175283373Y-60112037D01*
X175349558Y-60105518D01*
X175415740Y-60099000D01*
X175504260Y-60099000D01*
X175570442Y-60105518D01*
X175570442Y-60105518D01*
G37*
G36*
X189235442Y-60105518D02*
G01*
X189301627Y-60112037D01*
X189471466Y-60163557D01*
X189627991Y-60247222D01*
X189663729Y-60276552D01*
X189765186Y-60359814D01*
X189848448Y-60461271D01*
X189877778Y-60497009D01*
X189961443Y-60653534D01*
X190012963Y-60823373D01*
X190030359Y-61000000D01*
X190012963Y-61176627D01*
X189961443Y-61346466D01*
X189877778Y-61502991D01*
X189848448Y-61538729D01*
X189765186Y-61640186D01*
X189663729Y-61723448D01*
X189627991Y-61752778D01*
X189471466Y-61836443D01*
X189301627Y-61887963D01*
X189235443Y-61894481D01*
X189169260Y-61901000D01*
X188830740Y-61901000D01*
X188764557Y-61894481D01*
X188698373Y-61887963D01*
X188528534Y-61836443D01*
X188372009Y-61752778D01*
X188336271Y-61723448D01*
X188234814Y-61640186D01*
X188151552Y-61538729D01*
X188122222Y-61502991D01*
X188038557Y-61346466D01*
X187987037Y-61176627D01*
X187969641Y-61000000D01*
X187987037Y-60823373D01*
X188038557Y-60653534D01*
X188122222Y-60497009D01*
X188151552Y-60461271D01*
X188234814Y-60359814D01*
X188336271Y-60276552D01*
X188372009Y-60247222D01*
X188528534Y-60163557D01*
X188698373Y-60112037D01*
X188764558Y-60105518D01*
X188830740Y-60099000D01*
X189169260Y-60099000D01*
X189235442Y-60105518D01*
X189235442Y-60105518D01*
G37*
G36*
X178901000Y-61901000D02*
G01*
X177099000Y-61901000D01*
X177099000Y-60099000D01*
X178901000Y-60099000D01*
X178901000Y-61901000D01*
X178901000Y-61901000D01*
G37*
G36*
X151883600Y-59102989D02*
G01*
X151916652Y-59113015D01*
X151947103Y-59129292D01*
X151973799Y-59151201D01*
X151995708Y-59177897D01*
X152011985Y-59208348D01*
X152022011Y-59241400D01*
X152026000Y-59281903D01*
X152026000Y-60718097D01*
X152022011Y-60758600D01*
X152011985Y-60791652D01*
X151995708Y-60822103D01*
X151973799Y-60848799D01*
X151947103Y-60870708D01*
X151916652Y-60886985D01*
X151883600Y-60897011D01*
X151843097Y-60901000D01*
X150156903Y-60901000D01*
X150116400Y-60897011D01*
X150083348Y-60886985D01*
X150052897Y-60870708D01*
X150026201Y-60848799D01*
X150004292Y-60822103D01*
X149988015Y-60791652D01*
X149977989Y-60758600D01*
X149974000Y-60718097D01*
X149974000Y-59281903D01*
X149977989Y-59241400D01*
X149988015Y-59208348D01*
X150004292Y-59177897D01*
X150026201Y-59151201D01*
X150052897Y-59129292D01*
X150083348Y-59113015D01*
X150116400Y-59102989D01*
X150156903Y-59099000D01*
X151843097Y-59099000D01*
X151883600Y-59102989D01*
X151883600Y-59102989D01*
G37*
G36*
X160883600Y-59102989D02*
G01*
X160916652Y-59113015D01*
X160947103Y-59129292D01*
X160973799Y-59151201D01*
X160995708Y-59177897D01*
X161011985Y-59208348D01*
X161022011Y-59241400D01*
X161026000Y-59281903D01*
X161026000Y-60718097D01*
X161022011Y-60758600D01*
X161011985Y-60791652D01*
X160995708Y-60822103D01*
X160973799Y-60848799D01*
X160947103Y-60870708D01*
X160916652Y-60886985D01*
X160883600Y-60897011D01*
X160843097Y-60901000D01*
X159156903Y-60901000D01*
X159116400Y-60897011D01*
X159083348Y-60886985D01*
X159052897Y-60870708D01*
X159026201Y-60848799D01*
X159004292Y-60822103D01*
X158988015Y-60791652D01*
X158977989Y-60758600D01*
X158974000Y-60718097D01*
X158974000Y-59281903D01*
X158977989Y-59241400D01*
X158988015Y-59208348D01*
X159004292Y-59177897D01*
X159026201Y-59151201D01*
X159052897Y-59129292D01*
X159083348Y-59113015D01*
X159116400Y-59102989D01*
X159156903Y-59099000D01*
X160843097Y-59099000D01*
X160883600Y-59102989D01*
X160883600Y-59102989D01*
G37*
G36*
X134883600Y-59102989D02*
G01*
X134916652Y-59113015D01*
X134947103Y-59129292D01*
X134973799Y-59151201D01*
X134995708Y-59177897D01*
X135011985Y-59208348D01*
X135022011Y-59241400D01*
X135026000Y-59281903D01*
X135026000Y-60718097D01*
X135022011Y-60758600D01*
X135011985Y-60791652D01*
X134995708Y-60822103D01*
X134973799Y-60848799D01*
X134947103Y-60870708D01*
X134916652Y-60886985D01*
X134883600Y-60897011D01*
X134843097Y-60901000D01*
X133156903Y-60901000D01*
X133116400Y-60897011D01*
X133083348Y-60886985D01*
X133052897Y-60870708D01*
X133026201Y-60848799D01*
X133004292Y-60822103D01*
X132988015Y-60791652D01*
X132977989Y-60758600D01*
X132974000Y-60718097D01*
X132974000Y-59281903D01*
X132977989Y-59241400D01*
X132988015Y-59208348D01*
X133004292Y-59177897D01*
X133026201Y-59151201D01*
X133052897Y-59129292D01*
X133083348Y-59113015D01*
X133116400Y-59102989D01*
X133156903Y-59099000D01*
X134843097Y-59099000D01*
X134883600Y-59102989D01*
X134883600Y-59102989D01*
G37*
G36*
X143883600Y-59102989D02*
G01*
X143916652Y-59113015D01*
X143947103Y-59129292D01*
X143973799Y-59151201D01*
X143995708Y-59177897D01*
X144011985Y-59208348D01*
X144022011Y-59241400D01*
X144026000Y-59281903D01*
X144026000Y-60718097D01*
X144022011Y-60758600D01*
X144011985Y-60791652D01*
X143995708Y-60822103D01*
X143973799Y-60848799D01*
X143947103Y-60870708D01*
X143916652Y-60886985D01*
X143883600Y-60897011D01*
X143843097Y-60901000D01*
X142156903Y-60901000D01*
X142116400Y-60897011D01*
X142083348Y-60886985D01*
X142052897Y-60870708D01*
X142026201Y-60848799D01*
X142004292Y-60822103D01*
X141988015Y-60791652D01*
X141977989Y-60758600D01*
X141974000Y-60718097D01*
X141974000Y-59281903D01*
X141977989Y-59241400D01*
X141988015Y-59208348D01*
X142004292Y-59177897D01*
X142026201Y-59151201D01*
X142052897Y-59129292D01*
X142083348Y-59113015D01*
X142116400Y-59102989D01*
X142156903Y-59099000D01*
X143843097Y-59099000D01*
X143883600Y-59102989D01*
X143883600Y-59102989D01*
G37*
M02*
