G04 #@! TF.GenerationSoftware,KiCad,Pcbnew,(5.1.2)-2*
G04 #@! TF.CreationDate,2023-01-06T14:54:35+01:00*
G04 #@! TF.ProjectId,greenhouse,67726565-6e68-46f7-9573-652e6b696361,rev?*
G04 #@! TF.SameCoordinates,Original*
G04 #@! TF.FileFunction,Legend,Top*
G04 #@! TF.FilePolarity,Positive*
%FSLAX46Y46*%
G04 Gerber Fmt 4.6, Leading zero omitted, Abs format (unit mm)*
G04 Created by KiCad (PCBNEW (5.1.2)-2) date 2023-01-06 14:54:35*
%MOMM*%
%LPD*%
G04 APERTURE LIST*
%ADD10C,0.120000*%
%ADD11C,0.150000*%
%ADD12C,1.626000*%
%ADD13O,2.052000X1.802000*%
%ADD14C,0.100000*%
%ADD15C,1.802000*%
%ADD16O,1.802000X2.052000*%
%ADD17O,1.502000X1.502000*%
%ADD18C,1.502000*%
%ADD19O,1.802000X1.802000*%
%ADD20R,1.802000X1.802000*%
%ADD21C,2.202000*%
%ADD22R,2.202000X2.202000*%
%ADD23O,1.802000X2.102000*%
%ADD24C,3.102000*%
%ADD25R,3.102000X3.102000*%
G04 APERTURE END LIST*
D10*
X159000000Y-82000000D02*
X129000000Y-82000000D01*
X159000000Y-131000000D02*
X159000000Y-82000000D01*
X129000000Y-131000000D02*
X159000000Y-131000000D01*
X129000000Y-82000000D02*
X129000000Y-131000000D01*
D11*
X152238095Y-116850000D02*
X152142857Y-116802380D01*
X152000000Y-116802380D01*
X151857142Y-116850000D01*
X151761904Y-116945238D01*
X151714285Y-117040476D01*
X151666666Y-117230952D01*
X151666666Y-117373809D01*
X151714285Y-117564285D01*
X151761904Y-117659523D01*
X151857142Y-117754761D01*
X152000000Y-117802380D01*
X152095238Y-117802380D01*
X152238095Y-117754761D01*
X152285714Y-117707142D01*
X152285714Y-117373809D01*
X152095238Y-117373809D01*
X152714285Y-117802380D02*
X152714285Y-116802380D01*
X153285714Y-117802380D01*
X153285714Y-116802380D01*
X153761904Y-117802380D02*
X153761904Y-116802380D01*
X154000000Y-116802380D01*
X154142857Y-116850000D01*
X154238095Y-116945238D01*
X154285714Y-117040476D01*
X154333333Y-117230952D01*
X154333333Y-117373809D01*
X154285714Y-117564285D01*
X154238095Y-117659523D01*
X154142857Y-117754761D01*
X154000000Y-117802380D01*
X153761904Y-117802380D01*
X151523809Y-120102380D02*
X152142857Y-120102380D01*
X151809523Y-120483333D01*
X151952380Y-120483333D01*
X152047619Y-120530952D01*
X152095238Y-120578571D01*
X152142857Y-120673809D01*
X152142857Y-120911904D01*
X152095238Y-121007142D01*
X152047619Y-121054761D01*
X151952380Y-121102380D01*
X151666666Y-121102380D01*
X151571428Y-121054761D01*
X151523809Y-121007142D01*
X152571428Y-121007142D02*
X152619047Y-121054761D01*
X152571428Y-121102380D01*
X152523809Y-121054761D01*
X152571428Y-121007142D01*
X152571428Y-121102380D01*
X152952380Y-120102380D02*
X153571428Y-120102380D01*
X153238095Y-120483333D01*
X153380952Y-120483333D01*
X153476190Y-120530952D01*
X153523809Y-120578571D01*
X153571428Y-120673809D01*
X153571428Y-120911904D01*
X153523809Y-121007142D01*
X153476190Y-121054761D01*
X153380952Y-121102380D01*
X153095238Y-121102380D01*
X153000000Y-121054761D01*
X152952380Y-121007142D01*
X153857142Y-120102380D02*
X154190476Y-121102380D01*
X154523809Y-120102380D01*
X133859404Y-116850000D02*
X133764166Y-116802380D01*
X133621309Y-116802380D01*
X133478452Y-116850000D01*
X133383214Y-116945238D01*
X133335595Y-117040476D01*
X133287976Y-117230952D01*
X133287976Y-117373809D01*
X133335595Y-117564285D01*
X133383214Y-117659523D01*
X133478452Y-117754761D01*
X133621309Y-117802380D01*
X133716547Y-117802380D01*
X133859404Y-117754761D01*
X133907023Y-117707142D01*
X133907023Y-117373809D01*
X133716547Y-117373809D01*
X134335595Y-117802380D02*
X134335595Y-116802380D01*
X134907023Y-117802380D01*
X134907023Y-116802380D01*
X135383214Y-117802380D02*
X135383214Y-116802380D01*
X135621309Y-116802380D01*
X135764166Y-116850000D01*
X135859404Y-116945238D01*
X135907023Y-117040476D01*
X135954642Y-117230952D01*
X135954642Y-117373809D01*
X135907023Y-117564285D01*
X135859404Y-117659523D01*
X135764166Y-117754761D01*
X135621309Y-117802380D01*
X135383214Y-117802380D01*
X133811785Y-120102380D02*
X133335595Y-120102380D01*
X133287976Y-120578571D01*
X133335595Y-120530952D01*
X133430833Y-120483333D01*
X133668928Y-120483333D01*
X133764166Y-120530952D01*
X133811785Y-120578571D01*
X133859404Y-120673809D01*
X133859404Y-120911904D01*
X133811785Y-121007142D01*
X133764166Y-121054761D01*
X133668928Y-121102380D01*
X133430833Y-121102380D01*
X133335595Y-121054761D01*
X133287976Y-121007142D01*
X134145119Y-120102380D02*
X134478452Y-121102380D01*
X134811785Y-120102380D01*
X168152380Y-126192738D02*
X168152380Y-126668928D01*
X168628571Y-126716547D01*
X168580952Y-126668928D01*
X168533333Y-126573690D01*
X168533333Y-126335595D01*
X168580952Y-126240357D01*
X168628571Y-126192738D01*
X168723809Y-126145119D01*
X168961904Y-126145119D01*
X169057142Y-126192738D01*
X169104761Y-126240357D01*
X169152380Y-126335595D01*
X169152380Y-126573690D01*
X169104761Y-126668928D01*
X169057142Y-126716547D01*
X168152380Y-125859404D02*
X169152380Y-125526071D01*
X168152380Y-125192738D01*
X169802380Y-128192738D02*
X169802380Y-127573690D01*
X170183333Y-127907023D01*
X170183333Y-127764166D01*
X170230952Y-127668928D01*
X170278571Y-127621309D01*
X170373809Y-127573690D01*
X170611904Y-127573690D01*
X170707142Y-127621309D01*
X170754761Y-127668928D01*
X170802380Y-127764166D01*
X170802380Y-128049880D01*
X170754761Y-128145119D01*
X170707142Y-128192738D01*
X170707142Y-127145119D02*
X170754761Y-127097500D01*
X170802380Y-127145119D01*
X170754761Y-127192738D01*
X170707142Y-127145119D01*
X170802380Y-127145119D01*
X169802380Y-126764166D02*
X169802380Y-126145119D01*
X170183333Y-126478452D01*
X170183333Y-126335595D01*
X170230952Y-126240357D01*
X170278571Y-126192738D01*
X170373809Y-126145119D01*
X170611904Y-126145119D01*
X170707142Y-126192738D01*
X170754761Y-126240357D01*
X170802380Y-126335595D01*
X170802380Y-126621309D01*
X170754761Y-126716547D01*
X170707142Y-126764166D01*
X169802380Y-125859404D02*
X170802380Y-125526071D01*
X169802380Y-125192738D01*
X173150000Y-127383214D02*
X173102380Y-127478452D01*
X173102380Y-127621309D01*
X173150000Y-127764166D01*
X173245238Y-127859404D01*
X173340476Y-127907023D01*
X173530952Y-127954642D01*
X173673809Y-127954642D01*
X173864285Y-127907023D01*
X173959523Y-127859404D01*
X174054761Y-127764166D01*
X174102380Y-127621309D01*
X174102380Y-127526071D01*
X174054761Y-127383214D01*
X174007142Y-127335595D01*
X173673809Y-127335595D01*
X173673809Y-127526071D01*
X174102380Y-126907023D02*
X173102380Y-126907023D01*
X174102380Y-126335595D01*
X173102380Y-126335595D01*
X174102380Y-125859404D02*
X173102380Y-125859404D01*
X173102380Y-125621309D01*
X173150000Y-125478452D01*
X173245238Y-125383214D01*
X173340476Y-125335595D01*
X173530952Y-125287976D01*
X173673809Y-125287976D01*
X173864285Y-125335595D01*
X173959523Y-125383214D01*
X174054761Y-125478452D01*
X174102380Y-125621309D01*
X174102380Y-125859404D01*
X175704761Y-127335595D02*
X175752380Y-127192738D01*
X175752380Y-126954642D01*
X175704761Y-126859404D01*
X175657142Y-126811785D01*
X175561904Y-126764166D01*
X175466666Y-126764166D01*
X175371428Y-126811785D01*
X175323809Y-126859404D01*
X175276190Y-126954642D01*
X175228571Y-127145119D01*
X175180952Y-127240357D01*
X175133333Y-127287976D01*
X175038095Y-127335595D01*
X174942857Y-127335595D01*
X174847619Y-127287976D01*
X174800000Y-127240357D01*
X174752380Y-127145119D01*
X174752380Y-126907023D01*
X174800000Y-126764166D01*
X175752380Y-126335595D02*
X174752380Y-126335595D01*
X174800000Y-125335595D02*
X174752380Y-125430833D01*
X174752380Y-125573690D01*
X174800000Y-125716547D01*
X174895238Y-125811785D01*
X174990476Y-125859404D01*
X175180952Y-125907023D01*
X175323809Y-125907023D01*
X175514285Y-125859404D01*
X175609523Y-125811785D01*
X175704761Y-125716547D01*
X175752380Y-125573690D01*
X175752380Y-125478452D01*
X175704761Y-125335595D01*
X175657142Y-125287976D01*
X175323809Y-125287976D01*
X175323809Y-125478452D01*
X168152380Y-108664404D02*
X167152380Y-108664404D01*
X167152380Y-108426309D01*
X167200000Y-108283452D01*
X167295238Y-108188214D01*
X167390476Y-108140595D01*
X167580952Y-108092976D01*
X167723809Y-108092976D01*
X167914285Y-108140595D01*
X168009523Y-108188214D01*
X168104761Y-108283452D01*
X168152380Y-108426309D01*
X168152380Y-108664404D01*
X168152380Y-107140595D02*
X168152380Y-107712023D01*
X168152380Y-107426309D02*
X167152380Y-107426309D01*
X167295238Y-107521547D01*
X167390476Y-107616785D01*
X167438095Y-107712023D01*
X167152380Y-106521547D02*
X167152380Y-106331071D01*
X167200000Y-106235833D01*
X167295238Y-106140595D01*
X167485714Y-106092976D01*
X167819047Y-106092976D01*
X168009523Y-106140595D01*
X168104761Y-106235833D01*
X168152380Y-106331071D01*
X168152380Y-106521547D01*
X168104761Y-106616785D01*
X168009523Y-106712023D01*
X167819047Y-106759642D01*
X167485714Y-106759642D01*
X167295238Y-106712023D01*
X167200000Y-106616785D01*
X167152380Y-106521547D01*
X167485714Y-105664404D02*
X168485714Y-105664404D01*
X167533333Y-105664404D02*
X167485714Y-105569166D01*
X167485714Y-105378690D01*
X167533333Y-105283452D01*
X167580952Y-105235833D01*
X167676190Y-105188214D01*
X167961904Y-105188214D01*
X168057142Y-105235833D01*
X168104761Y-105283452D01*
X168152380Y-105378690D01*
X168152380Y-105569166D01*
X168104761Y-105664404D01*
X168104761Y-104378690D02*
X168152380Y-104473928D01*
X168152380Y-104664404D01*
X168104761Y-104759642D01*
X168009523Y-104807261D01*
X167628571Y-104807261D01*
X167533333Y-104759642D01*
X167485714Y-104664404D01*
X167485714Y-104473928D01*
X167533333Y-104378690D01*
X167628571Y-104331071D01*
X167723809Y-104331071D01*
X167819047Y-104807261D01*
X167485714Y-103902500D02*
X168152380Y-103902500D01*
X167580952Y-103902500D02*
X167533333Y-103854880D01*
X167485714Y-103759642D01*
X167485714Y-103616785D01*
X167533333Y-103521547D01*
X167628571Y-103473928D01*
X168152380Y-103473928D01*
X168850000Y-108140595D02*
X168802380Y-108235833D01*
X168802380Y-108378690D01*
X168850000Y-108521547D01*
X168945238Y-108616785D01*
X169040476Y-108664404D01*
X169230952Y-108712023D01*
X169373809Y-108712023D01*
X169564285Y-108664404D01*
X169659523Y-108616785D01*
X169754761Y-108521547D01*
X169802380Y-108378690D01*
X169802380Y-108283452D01*
X169754761Y-108140595D01*
X169707142Y-108092976D01*
X169373809Y-108092976D01*
X169373809Y-108283452D01*
X169802380Y-107664404D02*
X168802380Y-107664404D01*
X169802380Y-107092976D01*
X168802380Y-107092976D01*
X169802380Y-106616785D02*
X168802380Y-106616785D01*
X168802380Y-106378690D01*
X168850000Y-106235833D01*
X168945238Y-106140595D01*
X169040476Y-106092976D01*
X169230952Y-106045357D01*
X169373809Y-106045357D01*
X169564285Y-106092976D01*
X169659523Y-106140595D01*
X169754761Y-106235833D01*
X169802380Y-106378690D01*
X169802380Y-106616785D01*
X172150000Y-108140595D02*
X172102380Y-108235833D01*
X172102380Y-108378690D01*
X172150000Y-108521547D01*
X172245238Y-108616785D01*
X172340476Y-108664404D01*
X172530952Y-108712023D01*
X172673809Y-108712023D01*
X172864285Y-108664404D01*
X172959523Y-108616785D01*
X173054761Y-108521547D01*
X173102380Y-108378690D01*
X173102380Y-108283452D01*
X173054761Y-108140595D01*
X173007142Y-108092976D01*
X172673809Y-108092976D01*
X172673809Y-108283452D01*
X173102380Y-107664404D02*
X172102380Y-107664404D01*
X173102380Y-107092976D01*
X172102380Y-107092976D01*
X173102380Y-106616785D02*
X172102380Y-106616785D01*
X172102380Y-106378690D01*
X172150000Y-106235833D01*
X172245238Y-106140595D01*
X172340476Y-106092976D01*
X172530952Y-106045357D01*
X172673809Y-106045357D01*
X172864285Y-106092976D01*
X172959523Y-106140595D01*
X173054761Y-106235833D01*
X173102380Y-106378690D01*
X173102380Y-106616785D01*
X174752380Y-108664404D02*
X173752380Y-108664404D01*
X173752380Y-108426309D01*
X173800000Y-108283452D01*
X173895238Y-108188214D01*
X173990476Y-108140595D01*
X174180952Y-108092976D01*
X174323809Y-108092976D01*
X174514285Y-108140595D01*
X174609523Y-108188214D01*
X174704761Y-108283452D01*
X174752380Y-108426309D01*
X174752380Y-108664404D01*
X174752380Y-107140595D02*
X174752380Y-107712023D01*
X174752380Y-107426309D02*
X173752380Y-107426309D01*
X173895238Y-107521547D01*
X173990476Y-107616785D01*
X174038095Y-107712023D01*
X174657142Y-106140595D02*
X174704761Y-106188214D01*
X174752380Y-106331071D01*
X174752380Y-106426309D01*
X174704761Y-106569166D01*
X174609523Y-106664404D01*
X174514285Y-106712023D01*
X174323809Y-106759642D01*
X174180952Y-106759642D01*
X173990476Y-106712023D01*
X173895238Y-106664404D01*
X173800000Y-106569166D01*
X173752380Y-106426309D01*
X173752380Y-106331071D01*
X173800000Y-106188214D01*
X173847619Y-106140595D01*
X174752380Y-105569166D02*
X174704761Y-105664404D01*
X174609523Y-105712023D01*
X173752380Y-105712023D01*
X174752380Y-105045357D02*
X174704761Y-105140595D01*
X174657142Y-105188214D01*
X174561904Y-105235833D01*
X174276190Y-105235833D01*
X174180952Y-105188214D01*
X174133333Y-105140595D01*
X174085714Y-105045357D01*
X174085714Y-104902500D01*
X174133333Y-104807261D01*
X174180952Y-104759642D01*
X174276190Y-104712023D01*
X174561904Y-104712023D01*
X174657142Y-104759642D01*
X174704761Y-104807261D01*
X174752380Y-104902500D01*
X174752380Y-105045357D01*
X174704761Y-104331071D02*
X174752380Y-104235833D01*
X174752380Y-104045357D01*
X174704761Y-103950119D01*
X174609523Y-103902500D01*
X174561904Y-103902500D01*
X174466666Y-103950119D01*
X174419047Y-104045357D01*
X174419047Y-104188214D01*
X174371428Y-104283452D01*
X174276190Y-104331071D01*
X174228571Y-104331071D01*
X174133333Y-104283452D01*
X174085714Y-104188214D01*
X174085714Y-104045357D01*
X174133333Y-103950119D01*
X174704761Y-103092976D02*
X174752380Y-103188214D01*
X174752380Y-103378690D01*
X174704761Y-103473928D01*
X174609523Y-103521547D01*
X174228571Y-103521547D01*
X174133333Y-103473928D01*
X174085714Y-103378690D01*
X174085714Y-103188214D01*
X174133333Y-103092976D01*
X174228571Y-103045357D01*
X174323809Y-103045357D01*
X174419047Y-103521547D01*
X175809523Y-85027380D02*
X175333333Y-85027380D01*
X175285714Y-85503571D01*
X175333333Y-85455952D01*
X175428571Y-85408333D01*
X175666666Y-85408333D01*
X175761904Y-85455952D01*
X175809523Y-85503571D01*
X175857142Y-85598809D01*
X175857142Y-85836904D01*
X175809523Y-85932142D01*
X175761904Y-85979761D01*
X175666666Y-86027380D01*
X175428571Y-86027380D01*
X175333333Y-85979761D01*
X175285714Y-85932142D01*
X176142857Y-85027380D02*
X176476190Y-86027380D01*
X176809523Y-85027380D01*
X174523809Y-86677380D02*
X175142857Y-86677380D01*
X174809523Y-87058333D01*
X174952380Y-87058333D01*
X175047619Y-87105952D01*
X175095238Y-87153571D01*
X175142857Y-87248809D01*
X175142857Y-87486904D01*
X175095238Y-87582142D01*
X175047619Y-87629761D01*
X174952380Y-87677380D01*
X174666666Y-87677380D01*
X174571428Y-87629761D01*
X174523809Y-87582142D01*
X175571428Y-87582142D02*
X175619047Y-87629761D01*
X175571428Y-87677380D01*
X175523809Y-87629761D01*
X175571428Y-87582142D01*
X175571428Y-87677380D01*
X175952380Y-86677380D02*
X176571428Y-86677380D01*
X176238095Y-87058333D01*
X176380952Y-87058333D01*
X176476190Y-87105952D01*
X176523809Y-87153571D01*
X176571428Y-87248809D01*
X176571428Y-87486904D01*
X176523809Y-87582142D01*
X176476190Y-87629761D01*
X176380952Y-87677380D01*
X176095238Y-87677380D01*
X176000000Y-87629761D01*
X175952380Y-87582142D01*
X176857142Y-86677380D02*
X177190476Y-87677380D01*
X177523809Y-86677380D01*
X175238095Y-90025000D02*
X175142857Y-89977380D01*
X175000000Y-89977380D01*
X174857142Y-90025000D01*
X174761904Y-90120238D01*
X174714285Y-90215476D01*
X174666666Y-90405952D01*
X174666666Y-90548809D01*
X174714285Y-90739285D01*
X174761904Y-90834523D01*
X174857142Y-90929761D01*
X175000000Y-90977380D01*
X175095238Y-90977380D01*
X175238095Y-90929761D01*
X175285714Y-90882142D01*
X175285714Y-90548809D01*
X175095238Y-90548809D01*
X175714285Y-90977380D02*
X175714285Y-89977380D01*
X176285714Y-90977380D01*
X176285714Y-89977380D01*
X176761904Y-90977380D02*
X176761904Y-89977380D01*
X177000000Y-89977380D01*
X177142857Y-90025000D01*
X177238095Y-90120238D01*
X177285714Y-90215476D01*
X177333333Y-90405952D01*
X177333333Y-90548809D01*
X177285714Y-90739285D01*
X177238095Y-90834523D01*
X177142857Y-90929761D01*
X177000000Y-90977380D01*
X176761904Y-90977380D01*
X175833333Y-94277380D02*
X175500000Y-93801190D01*
X175261904Y-94277380D02*
X175261904Y-93277380D01*
X175642857Y-93277380D01*
X175738095Y-93325000D01*
X175785714Y-93372619D01*
X175833333Y-93467857D01*
X175833333Y-93610714D01*
X175785714Y-93705952D01*
X175738095Y-93753571D01*
X175642857Y-93801190D01*
X175261904Y-93801190D01*
X176785714Y-94277380D02*
X176214285Y-94277380D01*
X176500000Y-94277380D02*
X176500000Y-93277380D01*
X176404761Y-93420238D01*
X176309523Y-93515476D01*
X176214285Y-93563095D01*
X175833333Y-95927380D02*
X175500000Y-95451190D01*
X175261904Y-95927380D02*
X175261904Y-94927380D01*
X175642857Y-94927380D01*
X175738095Y-94975000D01*
X175785714Y-95022619D01*
X175833333Y-95117857D01*
X175833333Y-95260714D01*
X175785714Y-95355952D01*
X175738095Y-95403571D01*
X175642857Y-95451190D01*
X175261904Y-95451190D01*
X176214285Y-95022619D02*
X176261904Y-94975000D01*
X176357142Y-94927380D01*
X176595238Y-94927380D01*
X176690476Y-94975000D01*
X176738095Y-95022619D01*
X176785714Y-95117857D01*
X176785714Y-95213095D01*
X176738095Y-95355952D01*
X176166666Y-95927380D01*
X176785714Y-95927380D01*
X175833333Y-99227380D02*
X175500000Y-98751190D01*
X175261904Y-99227380D02*
X175261904Y-98227380D01*
X175642857Y-98227380D01*
X175738095Y-98275000D01*
X175785714Y-98322619D01*
X175833333Y-98417857D01*
X175833333Y-98560714D01*
X175785714Y-98655952D01*
X175738095Y-98703571D01*
X175642857Y-98751190D01*
X175261904Y-98751190D01*
X176166666Y-98227380D02*
X176785714Y-98227380D01*
X176452380Y-98608333D01*
X176595238Y-98608333D01*
X176690476Y-98655952D01*
X176738095Y-98703571D01*
X176785714Y-98798809D01*
X176785714Y-99036904D01*
X176738095Y-99132142D01*
X176690476Y-99179761D01*
X176595238Y-99227380D01*
X176309523Y-99227380D01*
X176214285Y-99179761D01*
X176166666Y-99132142D01*
X175833333Y-100877380D02*
X175500000Y-100401190D01*
X175261904Y-100877380D02*
X175261904Y-99877380D01*
X175642857Y-99877380D01*
X175738095Y-99925000D01*
X175785714Y-99972619D01*
X175833333Y-100067857D01*
X175833333Y-100210714D01*
X175785714Y-100305952D01*
X175738095Y-100353571D01*
X175642857Y-100401190D01*
X175261904Y-100401190D01*
X176690476Y-100210714D02*
X176690476Y-100877380D01*
X176452380Y-99829761D02*
X176214285Y-100544047D01*
X176833333Y-100544047D01*
X110238095Y-63202380D02*
X110476190Y-64202380D01*
X110666666Y-63488095D01*
X110857142Y-64202380D01*
X111095238Y-63202380D01*
X112000000Y-64202380D02*
X111428571Y-64202380D01*
X111714285Y-64202380D02*
X111714285Y-63202380D01*
X111619047Y-63345238D01*
X111523809Y-63440476D01*
X111428571Y-63488095D01*
X112619047Y-63202380D02*
X112809523Y-63202380D01*
X112904761Y-63250000D01*
X113000000Y-63345238D01*
X113047619Y-63535714D01*
X113047619Y-63869047D01*
X113000000Y-64059523D01*
X112904761Y-64154761D01*
X112809523Y-64202380D01*
X112619047Y-64202380D01*
X112523809Y-64154761D01*
X112428571Y-64059523D01*
X112380952Y-63869047D01*
X112380952Y-63535714D01*
X112428571Y-63345238D01*
X112523809Y-63250000D01*
X112619047Y-63202380D01*
X113476190Y-63535714D02*
X113476190Y-64535714D01*
X113476190Y-63583333D02*
X113571428Y-63535714D01*
X113761904Y-63535714D01*
X113857142Y-63583333D01*
X113904761Y-63630952D01*
X113952380Y-63726190D01*
X113952380Y-64011904D01*
X113904761Y-64107142D01*
X113857142Y-64154761D01*
X113761904Y-64202380D01*
X113571428Y-64202380D01*
X113476190Y-64154761D01*
X114761904Y-64154761D02*
X114666666Y-64202380D01*
X114476190Y-64202380D01*
X114380952Y-64154761D01*
X114333333Y-64059523D01*
X114333333Y-63678571D01*
X114380952Y-63583333D01*
X114476190Y-63535714D01*
X114666666Y-63535714D01*
X114761904Y-63583333D01*
X114809523Y-63678571D01*
X114809523Y-63773809D01*
X114333333Y-63869047D01*
X115238095Y-63535714D02*
X115238095Y-64202380D01*
X115238095Y-63630952D02*
X115285714Y-63583333D01*
X115380952Y-63535714D01*
X115523809Y-63535714D01*
X115619047Y-63583333D01*
X115666666Y-63678571D01*
X115666666Y-64202380D01*
X112238095Y-64900000D02*
X112142857Y-64852380D01*
X112000000Y-64852380D01*
X111857142Y-64900000D01*
X111761904Y-64995238D01*
X111714285Y-65090476D01*
X111666666Y-65280952D01*
X111666666Y-65423809D01*
X111714285Y-65614285D01*
X111761904Y-65709523D01*
X111857142Y-65804761D01*
X112000000Y-65852380D01*
X112095238Y-65852380D01*
X112238095Y-65804761D01*
X112285714Y-65757142D01*
X112285714Y-65423809D01*
X112095238Y-65423809D01*
X112714285Y-65852380D02*
X112714285Y-64852380D01*
X113285714Y-65852380D01*
X113285714Y-64852380D01*
X113761904Y-65852380D02*
X113761904Y-64852380D01*
X114000000Y-64852380D01*
X114142857Y-64900000D01*
X114238095Y-64995238D01*
X114285714Y-65090476D01*
X114333333Y-65280952D01*
X114333333Y-65423809D01*
X114285714Y-65614285D01*
X114238095Y-65709523D01*
X114142857Y-65804761D01*
X114000000Y-65852380D01*
X113761904Y-65852380D01*
X110047619Y-68152380D02*
X110285714Y-69152380D01*
X110476190Y-68438095D01*
X110666666Y-69152380D01*
X110904761Y-68152380D01*
X111809523Y-69152380D02*
X111238095Y-69152380D01*
X111523809Y-69152380D02*
X111523809Y-68152380D01*
X111428571Y-68295238D01*
X111333333Y-68390476D01*
X111238095Y-68438095D01*
X112809523Y-69057142D02*
X112761904Y-69104761D01*
X112619047Y-69152380D01*
X112523809Y-69152380D01*
X112380952Y-69104761D01*
X112285714Y-69009523D01*
X112238095Y-68914285D01*
X112190476Y-68723809D01*
X112190476Y-68580952D01*
X112238095Y-68390476D01*
X112285714Y-68295238D01*
X112380952Y-68200000D01*
X112523809Y-68152380D01*
X112619047Y-68152380D01*
X112761904Y-68200000D01*
X112809523Y-68247619D01*
X113380952Y-69152380D02*
X113285714Y-69104761D01*
X113238095Y-69009523D01*
X113238095Y-68152380D01*
X113904761Y-69152380D02*
X113809523Y-69104761D01*
X113761904Y-69057142D01*
X113714285Y-68961904D01*
X113714285Y-68676190D01*
X113761904Y-68580952D01*
X113809523Y-68533333D01*
X113904761Y-68485714D01*
X114047619Y-68485714D01*
X114142857Y-68533333D01*
X114190476Y-68580952D01*
X114238095Y-68676190D01*
X114238095Y-68961904D01*
X114190476Y-69057142D01*
X114142857Y-69104761D01*
X114047619Y-69152380D01*
X113904761Y-69152380D01*
X114619047Y-69104761D02*
X114714285Y-69152380D01*
X114904761Y-69152380D01*
X115000000Y-69104761D01*
X115047619Y-69009523D01*
X115047619Y-68961904D01*
X115000000Y-68866666D01*
X114904761Y-68819047D01*
X114761904Y-68819047D01*
X114666666Y-68771428D01*
X114619047Y-68676190D01*
X114619047Y-68628571D01*
X114666666Y-68533333D01*
X114761904Y-68485714D01*
X114904761Y-68485714D01*
X115000000Y-68533333D01*
X115857142Y-69104761D02*
X115761904Y-69152380D01*
X115571428Y-69152380D01*
X115476190Y-69104761D01*
X115428571Y-69009523D01*
X115428571Y-68628571D01*
X115476190Y-68533333D01*
X115571428Y-68485714D01*
X115761904Y-68485714D01*
X115857142Y-68533333D01*
X115904761Y-68628571D01*
X115904761Y-68723809D01*
X115428571Y-68819047D01*
X112238095Y-69850000D02*
X112142857Y-69802380D01*
X112000000Y-69802380D01*
X111857142Y-69850000D01*
X111761904Y-69945238D01*
X111714285Y-70040476D01*
X111666666Y-70230952D01*
X111666666Y-70373809D01*
X111714285Y-70564285D01*
X111761904Y-70659523D01*
X111857142Y-70754761D01*
X112000000Y-70802380D01*
X112095238Y-70802380D01*
X112238095Y-70754761D01*
X112285714Y-70707142D01*
X112285714Y-70373809D01*
X112095238Y-70373809D01*
X112714285Y-70802380D02*
X112714285Y-69802380D01*
X113285714Y-70802380D01*
X113285714Y-69802380D01*
X113761904Y-70802380D02*
X113761904Y-69802380D01*
X114000000Y-69802380D01*
X114142857Y-69850000D01*
X114238095Y-69945238D01*
X114285714Y-70040476D01*
X114333333Y-70230952D01*
X114333333Y-70373809D01*
X114285714Y-70564285D01*
X114238095Y-70659523D01*
X114142857Y-70754761D01*
X114000000Y-70802380D01*
X113761904Y-70802380D01*
X110238095Y-73102380D02*
X110476190Y-74102380D01*
X110666666Y-73388095D01*
X110857142Y-74102380D01*
X111095238Y-73102380D01*
X111428571Y-73197619D02*
X111476190Y-73150000D01*
X111571428Y-73102380D01*
X111809523Y-73102380D01*
X111904761Y-73150000D01*
X111952380Y-73197619D01*
X112000000Y-73292857D01*
X112000000Y-73388095D01*
X111952380Y-73530952D01*
X111380952Y-74102380D01*
X112000000Y-74102380D01*
X112619047Y-73102380D02*
X112809523Y-73102380D01*
X112904761Y-73150000D01*
X113000000Y-73245238D01*
X113047619Y-73435714D01*
X113047619Y-73769047D01*
X113000000Y-73959523D01*
X112904761Y-74054761D01*
X112809523Y-74102380D01*
X112619047Y-74102380D01*
X112523809Y-74054761D01*
X112428571Y-73959523D01*
X112380952Y-73769047D01*
X112380952Y-73435714D01*
X112428571Y-73245238D01*
X112523809Y-73150000D01*
X112619047Y-73102380D01*
X113476190Y-73435714D02*
X113476190Y-74435714D01*
X113476190Y-73483333D02*
X113571428Y-73435714D01*
X113761904Y-73435714D01*
X113857142Y-73483333D01*
X113904761Y-73530952D01*
X113952380Y-73626190D01*
X113952380Y-73911904D01*
X113904761Y-74007142D01*
X113857142Y-74054761D01*
X113761904Y-74102380D01*
X113571428Y-74102380D01*
X113476190Y-74054761D01*
X114761904Y-74054761D02*
X114666666Y-74102380D01*
X114476190Y-74102380D01*
X114380952Y-74054761D01*
X114333333Y-73959523D01*
X114333333Y-73578571D01*
X114380952Y-73483333D01*
X114476190Y-73435714D01*
X114666666Y-73435714D01*
X114761904Y-73483333D01*
X114809523Y-73578571D01*
X114809523Y-73673809D01*
X114333333Y-73769047D01*
X115238095Y-73435714D02*
X115238095Y-74102380D01*
X115238095Y-73530952D02*
X115285714Y-73483333D01*
X115380952Y-73435714D01*
X115523809Y-73435714D01*
X115619047Y-73483333D01*
X115666666Y-73578571D01*
X115666666Y-74102380D01*
X112238095Y-74800000D02*
X112142857Y-74752380D01*
X112000000Y-74752380D01*
X111857142Y-74800000D01*
X111761904Y-74895238D01*
X111714285Y-74990476D01*
X111666666Y-75180952D01*
X111666666Y-75323809D01*
X111714285Y-75514285D01*
X111761904Y-75609523D01*
X111857142Y-75704761D01*
X112000000Y-75752380D01*
X112095238Y-75752380D01*
X112238095Y-75704761D01*
X112285714Y-75657142D01*
X112285714Y-75323809D01*
X112095238Y-75323809D01*
X112714285Y-75752380D02*
X112714285Y-74752380D01*
X113285714Y-75752380D01*
X113285714Y-74752380D01*
X113761904Y-75752380D02*
X113761904Y-74752380D01*
X114000000Y-74752380D01*
X114142857Y-74800000D01*
X114238095Y-74895238D01*
X114285714Y-74990476D01*
X114333333Y-75180952D01*
X114333333Y-75323809D01*
X114285714Y-75514285D01*
X114238095Y-75609523D01*
X114142857Y-75704761D01*
X114000000Y-75752380D01*
X113761904Y-75752380D01*
X110047619Y-78052380D02*
X110285714Y-79052380D01*
X110476190Y-78338095D01*
X110666666Y-79052380D01*
X110904761Y-78052380D01*
X111238095Y-78147619D02*
X111285714Y-78100000D01*
X111380952Y-78052380D01*
X111619047Y-78052380D01*
X111714285Y-78100000D01*
X111761904Y-78147619D01*
X111809523Y-78242857D01*
X111809523Y-78338095D01*
X111761904Y-78480952D01*
X111190476Y-79052380D01*
X111809523Y-79052380D01*
X112809523Y-78957142D02*
X112761904Y-79004761D01*
X112619047Y-79052380D01*
X112523809Y-79052380D01*
X112380952Y-79004761D01*
X112285714Y-78909523D01*
X112238095Y-78814285D01*
X112190476Y-78623809D01*
X112190476Y-78480952D01*
X112238095Y-78290476D01*
X112285714Y-78195238D01*
X112380952Y-78100000D01*
X112523809Y-78052380D01*
X112619047Y-78052380D01*
X112761904Y-78100000D01*
X112809523Y-78147619D01*
X113380952Y-79052380D02*
X113285714Y-79004761D01*
X113238095Y-78909523D01*
X113238095Y-78052380D01*
X113904761Y-79052380D02*
X113809523Y-79004761D01*
X113761904Y-78957142D01*
X113714285Y-78861904D01*
X113714285Y-78576190D01*
X113761904Y-78480952D01*
X113809523Y-78433333D01*
X113904761Y-78385714D01*
X114047619Y-78385714D01*
X114142857Y-78433333D01*
X114190476Y-78480952D01*
X114238095Y-78576190D01*
X114238095Y-78861904D01*
X114190476Y-78957142D01*
X114142857Y-79004761D01*
X114047619Y-79052380D01*
X113904761Y-79052380D01*
X114619047Y-79004761D02*
X114714285Y-79052380D01*
X114904761Y-79052380D01*
X115000000Y-79004761D01*
X115047619Y-78909523D01*
X115047619Y-78861904D01*
X115000000Y-78766666D01*
X114904761Y-78719047D01*
X114761904Y-78719047D01*
X114666666Y-78671428D01*
X114619047Y-78576190D01*
X114619047Y-78528571D01*
X114666666Y-78433333D01*
X114761904Y-78385714D01*
X114904761Y-78385714D01*
X115000000Y-78433333D01*
X115857142Y-79004761D02*
X115761904Y-79052380D01*
X115571428Y-79052380D01*
X115476190Y-79004761D01*
X115428571Y-78909523D01*
X115428571Y-78528571D01*
X115476190Y-78433333D01*
X115571428Y-78385714D01*
X115761904Y-78385714D01*
X115857142Y-78433333D01*
X115904761Y-78528571D01*
X115904761Y-78623809D01*
X115428571Y-78719047D01*
X112238095Y-79750000D02*
X112142857Y-79702380D01*
X112000000Y-79702380D01*
X111857142Y-79750000D01*
X111761904Y-79845238D01*
X111714285Y-79940476D01*
X111666666Y-80130952D01*
X111666666Y-80273809D01*
X111714285Y-80464285D01*
X111761904Y-80559523D01*
X111857142Y-80654761D01*
X112000000Y-80702380D01*
X112095238Y-80702380D01*
X112238095Y-80654761D01*
X112285714Y-80607142D01*
X112285714Y-80273809D01*
X112095238Y-80273809D01*
X112714285Y-80702380D02*
X112714285Y-79702380D01*
X113285714Y-80702380D01*
X113285714Y-79702380D01*
X113761904Y-80702380D02*
X113761904Y-79702380D01*
X114000000Y-79702380D01*
X114142857Y-79750000D01*
X114238095Y-79845238D01*
X114285714Y-79940476D01*
X114333333Y-80130952D01*
X114333333Y-80273809D01*
X114285714Y-80464285D01*
X114238095Y-80559523D01*
X114142857Y-80654761D01*
X114000000Y-80702380D01*
X113761904Y-80702380D01*
X181761904Y-130152380D02*
X182380952Y-130152380D01*
X182047619Y-130533333D01*
X182190476Y-130533333D01*
X182285714Y-130580952D01*
X182333333Y-130628571D01*
X182380952Y-130723809D01*
X182380952Y-130961904D01*
X182333333Y-131057142D01*
X182285714Y-131104761D01*
X182190476Y-131152380D01*
X181904761Y-131152380D01*
X181809523Y-131104761D01*
X181761904Y-131057142D01*
X183000000Y-130152380D02*
X183095238Y-130152380D01*
X183190476Y-130200000D01*
X183238095Y-130247619D01*
X183285714Y-130342857D01*
X183333333Y-130533333D01*
X183333333Y-130771428D01*
X183285714Y-130961904D01*
X183238095Y-131057142D01*
X183190476Y-131104761D01*
X183095238Y-131152380D01*
X183000000Y-131152380D01*
X182904761Y-131104761D01*
X182857142Y-131057142D01*
X182809523Y-130961904D01*
X182761904Y-130771428D01*
X182761904Y-130533333D01*
X182809523Y-130342857D01*
X182857142Y-130247619D01*
X182904761Y-130200000D01*
X183000000Y-130152380D01*
X183619047Y-130152380D02*
X183952380Y-131152380D01*
X184285714Y-130152380D01*
X182238095Y-133500000D02*
X182142857Y-133452380D01*
X182000000Y-133452380D01*
X181857142Y-133500000D01*
X181761904Y-133595238D01*
X181714285Y-133690476D01*
X181666666Y-133880952D01*
X181666666Y-134023809D01*
X181714285Y-134214285D01*
X181761904Y-134309523D01*
X181857142Y-134404761D01*
X182000000Y-134452380D01*
X182095238Y-134452380D01*
X182238095Y-134404761D01*
X182285714Y-134357142D01*
X182285714Y-134023809D01*
X182095238Y-134023809D01*
X182714285Y-134452380D02*
X182714285Y-133452380D01*
X183285714Y-134452380D01*
X183285714Y-133452380D01*
X183761904Y-134452380D02*
X183761904Y-133452380D01*
X184000000Y-133452380D01*
X184142857Y-133500000D01*
X184238095Y-133595238D01*
X184285714Y-133690476D01*
X184333333Y-133880952D01*
X184333333Y-134023809D01*
X184285714Y-134214285D01*
X184238095Y-134309523D01*
X184142857Y-134404761D01*
X184000000Y-134452380D01*
X183761904Y-134452380D01*
X181238095Y-137704761D02*
X181380952Y-137752380D01*
X181619047Y-137752380D01*
X181714285Y-137704761D01*
X181761904Y-137657142D01*
X181809523Y-137561904D01*
X181809523Y-137466666D01*
X181761904Y-137371428D01*
X181714285Y-137323809D01*
X181619047Y-137276190D01*
X181428571Y-137228571D01*
X181333333Y-137180952D01*
X181285714Y-137133333D01*
X181238095Y-137038095D01*
X181238095Y-136942857D01*
X181285714Y-136847619D01*
X181333333Y-136800000D01*
X181428571Y-136752380D01*
X181666666Y-136752380D01*
X181809523Y-136800000D01*
X182380952Y-137752380D02*
X182285714Y-137704761D01*
X182238095Y-137657142D01*
X182190476Y-137561904D01*
X182190476Y-137276190D01*
X182238095Y-137180952D01*
X182285714Y-137133333D01*
X182380952Y-137085714D01*
X182523809Y-137085714D01*
X182619047Y-137133333D01*
X182666666Y-137180952D01*
X182714285Y-137276190D01*
X182714285Y-137561904D01*
X182666666Y-137657142D01*
X182619047Y-137704761D01*
X182523809Y-137752380D01*
X182380952Y-137752380D01*
X183285714Y-137752380D02*
X183190476Y-137704761D01*
X183142857Y-137609523D01*
X183142857Y-136752380D01*
X184095238Y-137752380D02*
X184095238Y-137228571D01*
X184047619Y-137133333D01*
X183952380Y-137085714D01*
X183761904Y-137085714D01*
X183666666Y-137133333D01*
X184095238Y-137704761D02*
X184000000Y-137752380D01*
X183761904Y-137752380D01*
X183666666Y-137704761D01*
X183619047Y-137609523D01*
X183619047Y-137514285D01*
X183666666Y-137419047D01*
X183761904Y-137371428D01*
X184000000Y-137371428D01*
X184095238Y-137323809D01*
X184571428Y-137752380D02*
X184571428Y-137085714D01*
X184571428Y-137276190D02*
X184619047Y-137180952D01*
X184666666Y-137133333D01*
X184761904Y-137085714D01*
X184857142Y-137085714D01*
D10*
X196000000Y-101000000D02*
X196000000Y-122000000D01*
X196000000Y-93000000D02*
X196000000Y-97000000D01*
X196000000Y-76000000D02*
X196000000Y-93000000D01*
D11*
X196452380Y-116047619D02*
X196452380Y-115428571D01*
X196833333Y-115761904D01*
X196833333Y-115619047D01*
X196880952Y-115523809D01*
X196928571Y-115476190D01*
X197023809Y-115428571D01*
X197261904Y-115428571D01*
X197357142Y-115476190D01*
X197404761Y-115523809D01*
X197452380Y-115619047D01*
X197452380Y-115904761D01*
X197404761Y-116000000D01*
X197357142Y-116047619D01*
X196452380Y-114809523D02*
X196452380Y-114714285D01*
X196500000Y-114619047D01*
X196547619Y-114571428D01*
X196642857Y-114523809D01*
X196833333Y-114476190D01*
X197071428Y-114476190D01*
X197261904Y-114523809D01*
X197357142Y-114571428D01*
X197404761Y-114619047D01*
X197452380Y-114714285D01*
X197452380Y-114809523D01*
X197404761Y-114904761D01*
X197357142Y-114952380D01*
X197261904Y-115000000D01*
X197071428Y-115047619D01*
X196833333Y-115047619D01*
X196642857Y-115000000D01*
X196547619Y-114952380D01*
X196500000Y-114904761D01*
X196452380Y-114809523D01*
X196452380Y-114190476D02*
X197452380Y-113857142D01*
X196452380Y-113523809D01*
X196452380Y-112571428D02*
X197452380Y-112238095D01*
X196452380Y-111904761D01*
X197357142Y-111000000D02*
X197404761Y-111047619D01*
X197452380Y-111190476D01*
X197452380Y-111285714D01*
X197404761Y-111428571D01*
X197309523Y-111523809D01*
X197214285Y-111571428D01*
X197023809Y-111619047D01*
X196880952Y-111619047D01*
X196690476Y-111571428D01*
X196595238Y-111523809D01*
X196500000Y-111428571D01*
X196452380Y-111285714D01*
X196452380Y-111190476D01*
X196500000Y-111047619D01*
X196547619Y-111000000D01*
X197357142Y-110000000D02*
X197404761Y-110047619D01*
X197452380Y-110190476D01*
X197452380Y-110285714D01*
X197404761Y-110428571D01*
X197309523Y-110523809D01*
X197214285Y-110571428D01*
X197023809Y-110619047D01*
X196880952Y-110619047D01*
X196690476Y-110571428D01*
X196595238Y-110523809D01*
X196500000Y-110428571D01*
X196452380Y-110285714D01*
X196452380Y-110190476D01*
X196500000Y-110047619D01*
X196547619Y-110000000D01*
X196452380Y-89142857D02*
X196452380Y-88523809D01*
X196833333Y-88857142D01*
X196833333Y-88714285D01*
X196880952Y-88619047D01*
X196928571Y-88571428D01*
X197023809Y-88523809D01*
X197261904Y-88523809D01*
X197357142Y-88571428D01*
X197404761Y-88619047D01*
X197452380Y-88714285D01*
X197452380Y-89000000D01*
X197404761Y-89095238D01*
X197357142Y-89142857D01*
X196452380Y-87904761D02*
X196452380Y-87809523D01*
X196500000Y-87714285D01*
X196547619Y-87666666D01*
X196642857Y-87619047D01*
X196833333Y-87571428D01*
X197071428Y-87571428D01*
X197261904Y-87619047D01*
X197357142Y-87666666D01*
X197404761Y-87714285D01*
X197452380Y-87809523D01*
X197452380Y-87904761D01*
X197404761Y-88000000D01*
X197357142Y-88047619D01*
X197261904Y-88095238D01*
X197071428Y-88142857D01*
X196833333Y-88142857D01*
X196642857Y-88095238D01*
X196547619Y-88047619D01*
X196500000Y-88000000D01*
X196452380Y-87904761D01*
X196452380Y-87285714D02*
X197452380Y-86952380D01*
X196452380Y-86619047D01*
X196500000Y-85000000D02*
X196452380Y-85095238D01*
X196452380Y-85238095D01*
X196500000Y-85380952D01*
X196595238Y-85476190D01*
X196690476Y-85523809D01*
X196880952Y-85571428D01*
X197023809Y-85571428D01*
X197214285Y-85523809D01*
X197309523Y-85476190D01*
X197404761Y-85380952D01*
X197452380Y-85238095D01*
X197452380Y-85142857D01*
X197404761Y-85000000D01*
X197357142Y-84952380D01*
X197023809Y-84952380D01*
X197023809Y-85142857D01*
X197452380Y-84523809D02*
X196452380Y-84523809D01*
X197452380Y-83952380D01*
X196452380Y-83952380D01*
X197452380Y-83476190D02*
X196452380Y-83476190D01*
X196452380Y-83238095D01*
X196500000Y-83095238D01*
X196595238Y-83000000D01*
X196690476Y-82952380D01*
X196880952Y-82904761D01*
X197023809Y-82904761D01*
X197214285Y-82952380D01*
X197309523Y-83000000D01*
X197404761Y-83095238D01*
X197452380Y-83238095D01*
X197452380Y-83476190D01*
X183809523Y-59152380D02*
X183333333Y-59152380D01*
X183285714Y-59628571D01*
X183333333Y-59580952D01*
X183428571Y-59533333D01*
X183666666Y-59533333D01*
X183761904Y-59580952D01*
X183809523Y-59628571D01*
X183857142Y-59723809D01*
X183857142Y-59961904D01*
X183809523Y-60057142D01*
X183761904Y-60104761D01*
X183666666Y-60152380D01*
X183428571Y-60152380D01*
X183333333Y-60104761D01*
X183285714Y-60057142D01*
X184142857Y-59152380D02*
X184476190Y-60152380D01*
X184809523Y-59152380D01*
X182523809Y-62452380D02*
X183142857Y-62452380D01*
X182809523Y-62833333D01*
X182952380Y-62833333D01*
X183047619Y-62880952D01*
X183095238Y-62928571D01*
X183142857Y-63023809D01*
X183142857Y-63261904D01*
X183095238Y-63357142D01*
X183047619Y-63404761D01*
X182952380Y-63452380D01*
X182666666Y-63452380D01*
X182571428Y-63404761D01*
X182523809Y-63357142D01*
X183571428Y-63357142D02*
X183619047Y-63404761D01*
X183571428Y-63452380D01*
X183523809Y-63404761D01*
X183571428Y-63357142D01*
X183571428Y-63452380D01*
X183952380Y-62452380D02*
X184571428Y-62452380D01*
X184238095Y-62833333D01*
X184380952Y-62833333D01*
X184476190Y-62880952D01*
X184523809Y-62928571D01*
X184571428Y-63023809D01*
X184571428Y-63261904D01*
X184523809Y-63357142D01*
X184476190Y-63404761D01*
X184380952Y-63452380D01*
X184095238Y-63452380D01*
X184000000Y-63404761D01*
X183952380Y-63357142D01*
X184857142Y-62452380D02*
X185190476Y-63452380D01*
X185523809Y-62452380D01*
X183238095Y-65800000D02*
X183142857Y-65752380D01*
X183000000Y-65752380D01*
X182857142Y-65800000D01*
X182761904Y-65895238D01*
X182714285Y-65990476D01*
X182666666Y-66180952D01*
X182666666Y-66323809D01*
X182714285Y-66514285D01*
X182761904Y-66609523D01*
X182857142Y-66704761D01*
X183000000Y-66752380D01*
X183095238Y-66752380D01*
X183238095Y-66704761D01*
X183285714Y-66657142D01*
X183285714Y-66323809D01*
X183095238Y-66323809D01*
X183714285Y-66752380D02*
X183714285Y-65752380D01*
X184285714Y-66752380D01*
X184285714Y-65752380D01*
X184761904Y-66752380D02*
X184761904Y-65752380D01*
X185000000Y-65752380D01*
X185142857Y-65800000D01*
X185238095Y-65895238D01*
X185285714Y-65990476D01*
X185333333Y-66180952D01*
X185333333Y-66323809D01*
X185285714Y-66514285D01*
X185238095Y-66609523D01*
X185142857Y-66704761D01*
X185000000Y-66752380D01*
X184761904Y-66752380D01*
X163811785Y-59502380D02*
X163335595Y-59502380D01*
X163287976Y-59978571D01*
X163335595Y-59930952D01*
X163430833Y-59883333D01*
X163668928Y-59883333D01*
X163764166Y-59930952D01*
X163811785Y-59978571D01*
X163859404Y-60073809D01*
X163859404Y-60311904D01*
X163811785Y-60407142D01*
X163764166Y-60454761D01*
X163668928Y-60502380D01*
X163430833Y-60502380D01*
X163335595Y-60454761D01*
X163287976Y-60407142D01*
X164145119Y-59502380D02*
X164478452Y-60502380D01*
X164811785Y-59502380D01*
X163240357Y-61152380D02*
X163859404Y-61152380D01*
X163526071Y-61533333D01*
X163668928Y-61533333D01*
X163764166Y-61580952D01*
X163811785Y-61628571D01*
X163859404Y-61723809D01*
X163859404Y-61961904D01*
X163811785Y-62057142D01*
X163764166Y-62104761D01*
X163668928Y-62152380D01*
X163383214Y-62152380D01*
X163287976Y-62104761D01*
X163240357Y-62057142D01*
X164287976Y-62057142D02*
X164335595Y-62104761D01*
X164287976Y-62152380D01*
X164240357Y-62104761D01*
X164287976Y-62057142D01*
X164287976Y-62152380D01*
X164668928Y-61152380D02*
X165287976Y-61152380D01*
X164954642Y-61533333D01*
X165097500Y-61533333D01*
X165192738Y-61580952D01*
X165240357Y-61628571D01*
X165287976Y-61723809D01*
X165287976Y-61961904D01*
X165240357Y-62057142D01*
X165192738Y-62104761D01*
X165097500Y-62152380D01*
X164811785Y-62152380D01*
X164716547Y-62104761D01*
X164668928Y-62057142D01*
X165573690Y-61152380D02*
X165907023Y-62152380D01*
X166240357Y-61152380D01*
X163859404Y-64500000D02*
X163764166Y-64452380D01*
X163621309Y-64452380D01*
X163478452Y-64500000D01*
X163383214Y-64595238D01*
X163335595Y-64690476D01*
X163287976Y-64880952D01*
X163287976Y-65023809D01*
X163335595Y-65214285D01*
X163383214Y-65309523D01*
X163478452Y-65404761D01*
X163621309Y-65452380D01*
X163716547Y-65452380D01*
X163859404Y-65404761D01*
X163907023Y-65357142D01*
X163907023Y-65023809D01*
X163716547Y-65023809D01*
X164335595Y-65452380D02*
X164335595Y-64452380D01*
X164907023Y-65452380D01*
X164907023Y-64452380D01*
X165383214Y-65452380D02*
X165383214Y-64452380D01*
X165621309Y-64452380D01*
X165764166Y-64500000D01*
X165859404Y-64595238D01*
X165907023Y-64690476D01*
X165954642Y-64880952D01*
X165954642Y-65023809D01*
X165907023Y-65214285D01*
X165859404Y-65309523D01*
X165764166Y-65404761D01*
X165621309Y-65452380D01*
X165383214Y-65452380D01*
X163287976Y-68704761D02*
X163430833Y-68752380D01*
X163668928Y-68752380D01*
X163764166Y-68704761D01*
X163811785Y-68657142D01*
X163859404Y-68561904D01*
X163859404Y-68466666D01*
X163811785Y-68371428D01*
X163764166Y-68323809D01*
X163668928Y-68276190D01*
X163478452Y-68228571D01*
X163383214Y-68180952D01*
X163335595Y-68133333D01*
X163287976Y-68038095D01*
X163287976Y-67942857D01*
X163335595Y-67847619D01*
X163383214Y-67800000D01*
X163478452Y-67752380D01*
X163716547Y-67752380D01*
X163859404Y-67800000D01*
X164859404Y-68657142D02*
X164811785Y-68704761D01*
X164668928Y-68752380D01*
X164573690Y-68752380D01*
X164430833Y-68704761D01*
X164335595Y-68609523D01*
X164287976Y-68514285D01*
X164240357Y-68323809D01*
X164240357Y-68180952D01*
X164287976Y-67990476D01*
X164335595Y-67895238D01*
X164430833Y-67800000D01*
X164573690Y-67752380D01*
X164668928Y-67752380D01*
X164811785Y-67800000D01*
X164859404Y-67847619D01*
X165764166Y-68752380D02*
X165287976Y-68752380D01*
X165287976Y-67752380D01*
X163287976Y-70354761D02*
X163430833Y-70402380D01*
X163668928Y-70402380D01*
X163764166Y-70354761D01*
X163811785Y-70307142D01*
X163859404Y-70211904D01*
X163859404Y-70116666D01*
X163811785Y-70021428D01*
X163764166Y-69973809D01*
X163668928Y-69926190D01*
X163478452Y-69878571D01*
X163383214Y-69830952D01*
X163335595Y-69783333D01*
X163287976Y-69688095D01*
X163287976Y-69592857D01*
X163335595Y-69497619D01*
X163383214Y-69450000D01*
X163478452Y-69402380D01*
X163716547Y-69402380D01*
X163859404Y-69450000D01*
X164287976Y-70402380D02*
X164287976Y-69402380D01*
X164526071Y-69402380D01*
X164668928Y-69450000D01*
X164764166Y-69545238D01*
X164811785Y-69640476D01*
X164859404Y-69830952D01*
X164859404Y-69973809D01*
X164811785Y-70164285D01*
X164764166Y-70259523D01*
X164668928Y-70354761D01*
X164526071Y-70402380D01*
X164287976Y-70402380D01*
X165240357Y-70116666D02*
X165716547Y-70116666D01*
X165145119Y-70402380D02*
X165478452Y-69402380D01*
X165811785Y-70402380D01*
X106202380Y-91188214D02*
X106202380Y-91664404D01*
X106678571Y-91712023D01*
X106630952Y-91664404D01*
X106583333Y-91569166D01*
X106583333Y-91331071D01*
X106630952Y-91235833D01*
X106678571Y-91188214D01*
X106773809Y-91140595D01*
X107011904Y-91140595D01*
X107107142Y-91188214D01*
X107154761Y-91235833D01*
X107202380Y-91331071D01*
X107202380Y-91569166D01*
X107154761Y-91664404D01*
X107107142Y-91712023D01*
X106202380Y-90854880D02*
X107202380Y-90521547D01*
X106202380Y-90188214D01*
X107852380Y-91759642D02*
X107852380Y-91140595D01*
X108233333Y-91473928D01*
X108233333Y-91331071D01*
X108280952Y-91235833D01*
X108328571Y-91188214D01*
X108423809Y-91140595D01*
X108661904Y-91140595D01*
X108757142Y-91188214D01*
X108804761Y-91235833D01*
X108852380Y-91331071D01*
X108852380Y-91616785D01*
X108804761Y-91712023D01*
X108757142Y-91759642D01*
X108757142Y-90712023D02*
X108804761Y-90664404D01*
X108852380Y-90712023D01*
X108804761Y-90759642D01*
X108757142Y-90712023D01*
X108852380Y-90712023D01*
X107852380Y-90331071D02*
X107852380Y-89712023D01*
X108233333Y-90045357D01*
X108233333Y-89902500D01*
X108280952Y-89807261D01*
X108328571Y-89759642D01*
X108423809Y-89712023D01*
X108661904Y-89712023D01*
X108757142Y-89759642D01*
X108804761Y-89807261D01*
X108852380Y-89902500D01*
X108852380Y-90188214D01*
X108804761Y-90283452D01*
X108757142Y-90331071D01*
X107852380Y-89426309D02*
X108852380Y-89092976D01*
X107852380Y-88759642D01*
X111628571Y-91664404D02*
X111628571Y-91331071D01*
X112152380Y-91188214D02*
X112152380Y-91664404D01*
X111152380Y-91664404D01*
X111152380Y-91188214D01*
X112152380Y-90759642D02*
X111152380Y-90759642D01*
X112152380Y-90188214D01*
X111152380Y-90188214D01*
X112850000Y-91140595D02*
X112802380Y-91235833D01*
X112802380Y-91378690D01*
X112850000Y-91521547D01*
X112945238Y-91616785D01*
X113040476Y-91664404D01*
X113230952Y-91712023D01*
X113373809Y-91712023D01*
X113564285Y-91664404D01*
X113659523Y-91616785D01*
X113754761Y-91521547D01*
X113802380Y-91378690D01*
X113802380Y-91283452D01*
X113754761Y-91140595D01*
X113707142Y-91092976D01*
X113373809Y-91092976D01*
X113373809Y-91283452D01*
X113802380Y-90664404D02*
X112802380Y-90664404D01*
X113802380Y-90092976D01*
X112802380Y-90092976D01*
X113802380Y-89616785D02*
X112802380Y-89616785D01*
X112802380Y-89378690D01*
X112850000Y-89235833D01*
X112945238Y-89140595D01*
X113040476Y-89092976D01*
X113230952Y-89045357D01*
X113373809Y-89045357D01*
X113564285Y-89092976D01*
X113659523Y-89140595D01*
X113754761Y-89235833D01*
X113802380Y-89378690D01*
X113802380Y-89616785D01*
X117102380Y-91664404D02*
X116102380Y-91664404D01*
X116102380Y-91426309D01*
X116150000Y-91283452D01*
X116245238Y-91188214D01*
X116340476Y-91140595D01*
X116530952Y-91092976D01*
X116673809Y-91092976D01*
X116864285Y-91140595D01*
X116959523Y-91188214D01*
X117054761Y-91283452D01*
X117102380Y-91426309D01*
X117102380Y-91664404D01*
X117102380Y-90664404D02*
X116102380Y-90664404D01*
X117102380Y-89616785D02*
X116626190Y-89950119D01*
X117102380Y-90188214D02*
X116102380Y-90188214D01*
X116102380Y-89807261D01*
X116150000Y-89712023D01*
X116197619Y-89664404D01*
X116292857Y-89616785D01*
X116435714Y-89616785D01*
X116530952Y-89664404D01*
X116578571Y-89712023D01*
X116626190Y-89807261D01*
X116626190Y-90188214D01*
X117102380Y-88664404D02*
X117102380Y-89235833D01*
X117102380Y-88950119D02*
X116102380Y-88950119D01*
X116245238Y-89045357D01*
X116340476Y-89140595D01*
X116388095Y-89235833D01*
X118752380Y-91664404D02*
X117752380Y-91664404D01*
X117752380Y-91283452D01*
X117800000Y-91188214D01*
X117847619Y-91140595D01*
X117942857Y-91092976D01*
X118085714Y-91092976D01*
X118180952Y-91140595D01*
X118228571Y-91188214D01*
X118276190Y-91283452D01*
X118276190Y-91664404D01*
X117752380Y-90759642D02*
X118752380Y-90521547D01*
X118038095Y-90331071D01*
X118752380Y-90140595D01*
X117752380Y-89902500D01*
X118752380Y-89521547D02*
X117752380Y-89521547D01*
X118466666Y-89188214D01*
X117752380Y-88854880D01*
X118752380Y-88854880D01*
X118752380Y-87854880D02*
X118752380Y-88426309D01*
X118752380Y-88140595D02*
X117752380Y-88140595D01*
X117895238Y-88235833D01*
X117990476Y-88331071D01*
X118038095Y-88426309D01*
X122052380Y-91664404D02*
X121052380Y-91664404D01*
X121052380Y-91426309D01*
X121100000Y-91283452D01*
X121195238Y-91188214D01*
X121290476Y-91140595D01*
X121480952Y-91092976D01*
X121623809Y-91092976D01*
X121814285Y-91140595D01*
X121909523Y-91188214D01*
X122004761Y-91283452D01*
X122052380Y-91426309D01*
X122052380Y-91664404D01*
X122052380Y-90664404D02*
X121052380Y-90664404D01*
X122052380Y-89616785D02*
X121576190Y-89950119D01*
X122052380Y-90188214D02*
X121052380Y-90188214D01*
X121052380Y-89807261D01*
X121100000Y-89712023D01*
X121147619Y-89664404D01*
X121242857Y-89616785D01*
X121385714Y-89616785D01*
X121480952Y-89664404D01*
X121528571Y-89712023D01*
X121576190Y-89807261D01*
X121576190Y-90188214D01*
X121147619Y-89235833D02*
X121100000Y-89188214D01*
X121052380Y-89092976D01*
X121052380Y-88854880D01*
X121100000Y-88759642D01*
X121147619Y-88712023D01*
X121242857Y-88664404D01*
X121338095Y-88664404D01*
X121480952Y-88712023D01*
X122052380Y-89283452D01*
X122052380Y-88664404D01*
X123702380Y-91664404D02*
X122702380Y-91664404D01*
X122702380Y-91283452D01*
X122750000Y-91188214D01*
X122797619Y-91140595D01*
X122892857Y-91092976D01*
X123035714Y-91092976D01*
X123130952Y-91140595D01*
X123178571Y-91188214D01*
X123226190Y-91283452D01*
X123226190Y-91664404D01*
X122702380Y-90759642D02*
X123702380Y-90521547D01*
X122988095Y-90331071D01*
X123702380Y-90140595D01*
X122702380Y-89902500D01*
X123702380Y-89521547D02*
X122702380Y-89521547D01*
X123416666Y-89188214D01*
X122702380Y-88854880D01*
X123702380Y-88854880D01*
X122797619Y-88426309D02*
X122750000Y-88378690D01*
X122702380Y-88283452D01*
X122702380Y-88045357D01*
X122750000Y-87950119D01*
X122797619Y-87902500D01*
X122892857Y-87854880D01*
X122988095Y-87854880D01*
X123130952Y-87902500D01*
X123702380Y-88473928D01*
X123702380Y-87854880D01*
D10*
X114000000Y-117000000D02*
X114000000Y-120000000D01*
X114000000Y-109000000D02*
X114000000Y-111000000D01*
X114000000Y-99000000D02*
X114000000Y-100000000D01*
D11*
X113850000Y-131383214D02*
X113802380Y-131478452D01*
X113802380Y-131621309D01*
X113850000Y-131764166D01*
X113945238Y-131859404D01*
X114040476Y-131907023D01*
X114230952Y-131954642D01*
X114373809Y-131954642D01*
X114564285Y-131907023D01*
X114659523Y-131859404D01*
X114754761Y-131764166D01*
X114802380Y-131621309D01*
X114802380Y-131526071D01*
X114754761Y-131383214D01*
X114707142Y-131335595D01*
X114373809Y-131335595D01*
X114373809Y-131526071D01*
X114802380Y-130907023D02*
X113802380Y-130907023D01*
X114802380Y-130335595D01*
X113802380Y-130335595D01*
X114802380Y-129859404D02*
X113802380Y-129859404D01*
X113802380Y-129621309D01*
X113850000Y-129478452D01*
X113945238Y-129383214D01*
X114040476Y-129335595D01*
X114230952Y-129287976D01*
X114373809Y-129287976D01*
X114564285Y-129335595D01*
X114659523Y-129383214D01*
X114754761Y-129478452D01*
X114802380Y-129621309D01*
X114802380Y-129859404D01*
X118054761Y-131335595D02*
X118102380Y-131192738D01*
X118102380Y-130954642D01*
X118054761Y-130859404D01*
X118007142Y-130811785D01*
X117911904Y-130764166D01*
X117816666Y-130764166D01*
X117721428Y-130811785D01*
X117673809Y-130859404D01*
X117626190Y-130954642D01*
X117578571Y-131145119D01*
X117530952Y-131240357D01*
X117483333Y-131287976D01*
X117388095Y-131335595D01*
X117292857Y-131335595D01*
X117197619Y-131287976D01*
X117150000Y-131240357D01*
X117102380Y-131145119D01*
X117102380Y-130907023D01*
X117150000Y-130764166D01*
X118102380Y-130335595D02*
X117102380Y-130335595D01*
X117150000Y-129335595D02*
X117102380Y-129430833D01*
X117102380Y-129573690D01*
X117150000Y-129716547D01*
X117245238Y-129811785D01*
X117340476Y-129859404D01*
X117530952Y-129907023D01*
X117673809Y-129907023D01*
X117864285Y-129859404D01*
X117959523Y-129811785D01*
X118054761Y-129716547D01*
X118102380Y-129573690D01*
X118102380Y-129478452D01*
X118054761Y-129335595D01*
X118007142Y-129287976D01*
X117673809Y-129287976D01*
X117673809Y-129478452D01*
X110452380Y-132192738D02*
X110452380Y-131573690D01*
X110833333Y-131907023D01*
X110833333Y-131764166D01*
X110880952Y-131668928D01*
X110928571Y-131621309D01*
X111023809Y-131573690D01*
X111261904Y-131573690D01*
X111357142Y-131621309D01*
X111404761Y-131668928D01*
X111452380Y-131764166D01*
X111452380Y-132049880D01*
X111404761Y-132145119D01*
X111357142Y-132192738D01*
X111357142Y-131145119D02*
X111404761Y-131097500D01*
X111452380Y-131145119D01*
X111404761Y-131192738D01*
X111357142Y-131145119D01*
X111452380Y-131145119D01*
X110452380Y-130764166D02*
X110452380Y-130145119D01*
X110833333Y-130478452D01*
X110833333Y-130335595D01*
X110880952Y-130240357D01*
X110928571Y-130192738D01*
X111023809Y-130145119D01*
X111261904Y-130145119D01*
X111357142Y-130192738D01*
X111404761Y-130240357D01*
X111452380Y-130335595D01*
X111452380Y-130621309D01*
X111404761Y-130716547D01*
X111357142Y-130764166D01*
X110452380Y-129859404D02*
X111452380Y-129526071D01*
X110452380Y-129192738D01*
X107452380Y-130192738D02*
X107452380Y-130668928D01*
X107928571Y-130716547D01*
X107880952Y-130668928D01*
X107833333Y-130573690D01*
X107833333Y-130335595D01*
X107880952Y-130240357D01*
X107928571Y-130192738D01*
X108023809Y-130145119D01*
X108261904Y-130145119D01*
X108357142Y-130192738D01*
X108404761Y-130240357D01*
X108452380Y-130335595D01*
X108452380Y-130573690D01*
X108404761Y-130668928D01*
X108357142Y-130716547D01*
X107452380Y-129859404D02*
X108452380Y-129526071D01*
X107452380Y-129192738D01*
D10*
X108000000Y-109000000D02*
X109000000Y-110000000D01*
X108000000Y-100000000D02*
X108000000Y-109000000D01*
X106000000Y-109000000D02*
X108000000Y-111000000D01*
X106000000Y-108000000D02*
X106000000Y-109000000D01*
X106000000Y-100000000D02*
X106000000Y-108000000D01*
D11*
X116619047Y-142579761D02*
X116904761Y-142627380D01*
X117380952Y-142627380D01*
X117571428Y-142579761D01*
X117666666Y-142532142D01*
X117761904Y-142436904D01*
X117761904Y-142341666D01*
X117666666Y-142246428D01*
X117571428Y-142198809D01*
X117380952Y-142151190D01*
X117000000Y-142103571D01*
X116809523Y-142055952D01*
X116714285Y-142008333D01*
X116619047Y-141913095D01*
X116619047Y-141817857D01*
X116714285Y-141722619D01*
X116809523Y-141675000D01*
X117000000Y-141627380D01*
X117476190Y-141627380D01*
X117761904Y-141675000D01*
X118619047Y-142627380D02*
X118619047Y-141960714D01*
X118619047Y-142055952D02*
X118714285Y-142008333D01*
X118904761Y-141960714D01*
X119190476Y-141960714D01*
X119380952Y-142008333D01*
X119476190Y-142103571D01*
X119476190Y-142627380D01*
X119476190Y-142103571D02*
X119571428Y-142008333D01*
X119761904Y-141960714D01*
X120047619Y-141960714D01*
X120238095Y-142008333D01*
X120333333Y-142103571D01*
X120333333Y-142627380D01*
X122142857Y-142627380D02*
X122142857Y-142103571D01*
X122047619Y-142008333D01*
X121857142Y-141960714D01*
X121476190Y-141960714D01*
X121285714Y-142008333D01*
X122142857Y-142579761D02*
X121952380Y-142627380D01*
X121476190Y-142627380D01*
X121285714Y-142579761D01*
X121190476Y-142484523D01*
X121190476Y-142389285D01*
X121285714Y-142294047D01*
X121476190Y-142246428D01*
X121952380Y-142246428D01*
X122142857Y-142198809D01*
X123095238Y-142627380D02*
X123095238Y-141960714D01*
X123095238Y-142151190D02*
X123190476Y-142055952D01*
X123285714Y-142008333D01*
X123476190Y-141960714D01*
X123666666Y-141960714D01*
X124047619Y-141960714D02*
X124809523Y-141960714D01*
X124333333Y-141627380D02*
X124333333Y-142484523D01*
X124428571Y-142579761D01*
X124619047Y-142627380D01*
X124809523Y-142627380D01*
X126523809Y-141675000D02*
X126333333Y-141627380D01*
X126047619Y-141627380D01*
X125761904Y-141675000D01*
X125571428Y-141770238D01*
X125476190Y-141865476D01*
X125380952Y-142055952D01*
X125380952Y-142198809D01*
X125476190Y-142389285D01*
X125571428Y-142484523D01*
X125761904Y-142579761D01*
X126047619Y-142627380D01*
X126238095Y-142627380D01*
X126523809Y-142579761D01*
X126619047Y-142532142D01*
X126619047Y-142198809D01*
X126238095Y-142198809D01*
X127476190Y-142627380D02*
X127476190Y-141960714D01*
X127476190Y-142151190D02*
X127571428Y-142055952D01*
X127666666Y-142008333D01*
X127857142Y-141960714D01*
X128047619Y-141960714D01*
X129476190Y-142579761D02*
X129285714Y-142627380D01*
X128904761Y-142627380D01*
X128714285Y-142579761D01*
X128619047Y-142484523D01*
X128619047Y-142103571D01*
X128714285Y-142008333D01*
X128904761Y-141960714D01*
X129285714Y-141960714D01*
X129476190Y-142008333D01*
X129571428Y-142103571D01*
X129571428Y-142198809D01*
X128619047Y-142294047D01*
X131190476Y-142579761D02*
X131000000Y-142627380D01*
X130619047Y-142627380D01*
X130428571Y-142579761D01*
X130333333Y-142484523D01*
X130333333Y-142103571D01*
X130428571Y-142008333D01*
X130619047Y-141960714D01*
X131000000Y-141960714D01*
X131190476Y-142008333D01*
X131285714Y-142103571D01*
X131285714Y-142198809D01*
X130333333Y-142294047D01*
X132142857Y-141960714D02*
X132142857Y-142627380D01*
X132142857Y-142055952D02*
X132238095Y-142008333D01*
X132428571Y-141960714D01*
X132714285Y-141960714D01*
X132904761Y-142008333D01*
X133000000Y-142103571D01*
X133000000Y-142627380D01*
X133952380Y-142627380D02*
X133952380Y-141627380D01*
X134809523Y-142627380D02*
X134809523Y-142103571D01*
X134714285Y-142008333D01*
X134523809Y-141960714D01*
X134238095Y-141960714D01*
X134047619Y-142008333D01*
X133952380Y-142055952D01*
X136047619Y-142627380D02*
X135857142Y-142579761D01*
X135761904Y-142532142D01*
X135666666Y-142436904D01*
X135666666Y-142151190D01*
X135761904Y-142055952D01*
X135857142Y-142008333D01*
X136047619Y-141960714D01*
X136333333Y-141960714D01*
X136523809Y-142008333D01*
X136619047Y-142055952D01*
X136714285Y-142151190D01*
X136714285Y-142436904D01*
X136619047Y-142532142D01*
X136523809Y-142579761D01*
X136333333Y-142627380D01*
X136047619Y-142627380D01*
X138428571Y-141960714D02*
X138428571Y-142627380D01*
X137571428Y-141960714D02*
X137571428Y-142484523D01*
X137666666Y-142579761D01*
X137857142Y-142627380D01*
X138142857Y-142627380D01*
X138333333Y-142579761D01*
X138428571Y-142532142D01*
X139285714Y-142579761D02*
X139476190Y-142627380D01*
X139857142Y-142627380D01*
X140047619Y-142579761D01*
X140142857Y-142484523D01*
X140142857Y-142436904D01*
X140047619Y-142341666D01*
X139857142Y-142294047D01*
X139571428Y-142294047D01*
X139380952Y-142246428D01*
X139285714Y-142151190D01*
X139285714Y-142103571D01*
X139380952Y-142008333D01*
X139571428Y-141960714D01*
X139857142Y-141960714D01*
X140047619Y-142008333D01*
X141761904Y-142579761D02*
X141571428Y-142627380D01*
X141190476Y-142627380D01*
X141000000Y-142579761D01*
X140904761Y-142484523D01*
X140904761Y-142103571D01*
X141000000Y-142008333D01*
X141190476Y-141960714D01*
X141571428Y-141960714D01*
X141761904Y-142008333D01*
X141857142Y-142103571D01*
X141857142Y-142198809D01*
X140904761Y-142294047D01*
X143952380Y-141627380D02*
X144619047Y-142627380D01*
X145285714Y-141627380D01*
X148523809Y-142627380D02*
X147380952Y-142627380D01*
X147952380Y-142627380D02*
X147952380Y-141627380D01*
X147761904Y-141770238D01*
X147571428Y-141865476D01*
X147380952Y-141913095D01*
X149380952Y-142532142D02*
X149476190Y-142579761D01*
X149380952Y-142627380D01*
X149285714Y-142579761D01*
X149380952Y-142532142D01*
X149380952Y-142627380D01*
X150714285Y-141627380D02*
X150904761Y-141627380D01*
X151095238Y-141675000D01*
X151190476Y-141722619D01*
X151285714Y-141817857D01*
X151380952Y-142008333D01*
X151380952Y-142246428D01*
X151285714Y-142436904D01*
X151190476Y-142532142D01*
X151095238Y-142579761D01*
X150904761Y-142627380D01*
X150714285Y-142627380D01*
X150523809Y-142579761D01*
X150428571Y-142532142D01*
X150333333Y-142436904D01*
X150238095Y-142246428D01*
X150238095Y-142008333D01*
X150333333Y-141817857D01*
X150428571Y-141722619D01*
X150523809Y-141675000D01*
X150714285Y-141627380D01*
X110714285Y-144277380D02*
X110714285Y-143277380D01*
X111571428Y-144277380D02*
X111571428Y-143753571D01*
X111476190Y-143658333D01*
X111285714Y-143610714D01*
X111000000Y-143610714D01*
X110809523Y-143658333D01*
X110714285Y-143705952D01*
X112238095Y-143610714D02*
X113000000Y-143610714D01*
X112523809Y-143277380D02*
X112523809Y-144134523D01*
X112619047Y-144229761D01*
X112809523Y-144277380D01*
X113000000Y-144277380D01*
X113380952Y-143610714D02*
X114142857Y-143610714D01*
X113666666Y-143277380D02*
X113666666Y-144134523D01*
X113761904Y-144229761D01*
X113952380Y-144277380D01*
X114142857Y-144277380D01*
X114809523Y-143610714D02*
X114809523Y-144610714D01*
X114809523Y-143658333D02*
X115000000Y-143610714D01*
X115380952Y-143610714D01*
X115571428Y-143658333D01*
X115666666Y-143705952D01*
X115761904Y-143801190D01*
X115761904Y-144086904D01*
X115666666Y-144182142D01*
X115571428Y-144229761D01*
X115380952Y-144277380D01*
X115000000Y-144277380D01*
X114809523Y-144229761D01*
X116523809Y-144229761D02*
X116714285Y-144277380D01*
X117095238Y-144277380D01*
X117285714Y-144229761D01*
X117380952Y-144134523D01*
X117380952Y-144086904D01*
X117285714Y-143991666D01*
X117095238Y-143944047D01*
X116809523Y-143944047D01*
X116619047Y-143896428D01*
X116523809Y-143801190D01*
X116523809Y-143753571D01*
X116619047Y-143658333D01*
X116809523Y-143610714D01*
X117095238Y-143610714D01*
X117285714Y-143658333D01*
X118238095Y-144182142D02*
X118333333Y-144229761D01*
X118238095Y-144277380D01*
X118142857Y-144229761D01*
X118238095Y-144182142D01*
X118238095Y-144277380D01*
X118238095Y-143658333D02*
X118333333Y-143705952D01*
X118238095Y-143753571D01*
X118142857Y-143705952D01*
X118238095Y-143658333D01*
X118238095Y-143753571D01*
X120619047Y-143229761D02*
X118904761Y-144515476D01*
X122714285Y-143229761D02*
X121000000Y-144515476D01*
X124238095Y-143610714D02*
X124238095Y-144420238D01*
X124142857Y-144515476D01*
X124047619Y-144563095D01*
X123857142Y-144610714D01*
X123571428Y-144610714D01*
X123380952Y-144563095D01*
X124238095Y-144229761D02*
X124047619Y-144277380D01*
X123666666Y-144277380D01*
X123476190Y-144229761D01*
X123380952Y-144182142D01*
X123285714Y-144086904D01*
X123285714Y-143801190D01*
X123380952Y-143705952D01*
X123476190Y-143658333D01*
X123666666Y-143610714D01*
X124047619Y-143610714D01*
X124238095Y-143658333D01*
X125190476Y-144277380D02*
X125190476Y-143610714D01*
X125190476Y-143277380D02*
X125095238Y-143325000D01*
X125190476Y-143372619D01*
X125285714Y-143325000D01*
X125190476Y-143277380D01*
X125190476Y-143372619D01*
X125857142Y-143610714D02*
X126619047Y-143610714D01*
X126142857Y-143277380D02*
X126142857Y-144134523D01*
X126238095Y-144229761D01*
X126428571Y-144277380D01*
X126619047Y-144277380D01*
X127285714Y-144277380D02*
X127285714Y-143277380D01*
X128142857Y-144277380D02*
X128142857Y-143753571D01*
X128047619Y-143658333D01*
X127857142Y-143610714D01*
X127571428Y-143610714D01*
X127380952Y-143658333D01*
X127285714Y-143705952D01*
X129952380Y-143610714D02*
X129952380Y-144277380D01*
X129095238Y-143610714D02*
X129095238Y-144134523D01*
X129190476Y-144229761D01*
X129380952Y-144277380D01*
X129666666Y-144277380D01*
X129857142Y-144229761D01*
X129952380Y-144182142D01*
X130904761Y-144277380D02*
X130904761Y-143277380D01*
X130904761Y-143658333D02*
X131095238Y-143610714D01*
X131476190Y-143610714D01*
X131666666Y-143658333D01*
X131761904Y-143705952D01*
X131857142Y-143801190D01*
X131857142Y-144086904D01*
X131761904Y-144182142D01*
X131666666Y-144229761D01*
X131476190Y-144277380D01*
X131095238Y-144277380D01*
X130904761Y-144229761D01*
X132714285Y-144182142D02*
X132809523Y-144229761D01*
X132714285Y-144277380D01*
X132619047Y-144229761D01*
X132714285Y-144182142D01*
X132714285Y-144277380D01*
X134523809Y-144229761D02*
X134333333Y-144277380D01*
X133952380Y-144277380D01*
X133761904Y-144229761D01*
X133666666Y-144182142D01*
X133571428Y-144086904D01*
X133571428Y-143801190D01*
X133666666Y-143705952D01*
X133761904Y-143658333D01*
X133952380Y-143610714D01*
X134333333Y-143610714D01*
X134523809Y-143658333D01*
X135666666Y-144277380D02*
X135476190Y-144229761D01*
X135380952Y-144182142D01*
X135285714Y-144086904D01*
X135285714Y-143801190D01*
X135380952Y-143705952D01*
X135476190Y-143658333D01*
X135666666Y-143610714D01*
X135952380Y-143610714D01*
X136142857Y-143658333D01*
X136238095Y-143705952D01*
X136333333Y-143801190D01*
X136333333Y-144086904D01*
X136238095Y-144182142D01*
X136142857Y-144229761D01*
X135952380Y-144277380D01*
X135666666Y-144277380D01*
X137190476Y-144277380D02*
X137190476Y-143610714D01*
X137190476Y-143705952D02*
X137285714Y-143658333D01*
X137476190Y-143610714D01*
X137761904Y-143610714D01*
X137952380Y-143658333D01*
X138047619Y-143753571D01*
X138047619Y-144277380D01*
X138047619Y-143753571D02*
X138142857Y-143658333D01*
X138333333Y-143610714D01*
X138619047Y-143610714D01*
X138809523Y-143658333D01*
X138904761Y-143753571D01*
X138904761Y-144277380D01*
X141285714Y-143229761D02*
X139571428Y-144515476D01*
X141952380Y-144277380D02*
X141952380Y-143277380D01*
X142714285Y-143277380D01*
X142904761Y-143325000D01*
X143000000Y-143372619D01*
X143095238Y-143467857D01*
X143095238Y-143610714D01*
X143000000Y-143705952D01*
X142904761Y-143753571D01*
X142714285Y-143801190D01*
X141952380Y-143801190D01*
X144809523Y-144277380D02*
X144809523Y-143753571D01*
X144714285Y-143658333D01*
X144523809Y-143610714D01*
X144142857Y-143610714D01*
X143952380Y-143658333D01*
X144809523Y-144229761D02*
X144619047Y-144277380D01*
X144142857Y-144277380D01*
X143952380Y-144229761D01*
X143857142Y-144134523D01*
X143857142Y-144039285D01*
X143952380Y-143944047D01*
X144142857Y-143896428D01*
X144619047Y-143896428D01*
X144809523Y-143848809D01*
X146619047Y-144277380D02*
X146619047Y-143277380D01*
X146619047Y-144229761D02*
X146428571Y-144277380D01*
X146047619Y-144277380D01*
X145857142Y-144229761D01*
X145761904Y-144182142D01*
X145666666Y-144086904D01*
X145666666Y-143801190D01*
X145761904Y-143705952D01*
X145857142Y-143658333D01*
X146047619Y-143610714D01*
X146428571Y-143610714D01*
X146619047Y-143658333D01*
X148428571Y-144277380D02*
X148428571Y-143277380D01*
X148428571Y-144229761D02*
X148238095Y-144277380D01*
X147857142Y-144277380D01*
X147666666Y-144229761D01*
X147571428Y-144182142D01*
X147476190Y-144086904D01*
X147476190Y-143801190D01*
X147571428Y-143705952D01*
X147666666Y-143658333D01*
X147857142Y-143610714D01*
X148238095Y-143610714D01*
X148428571Y-143658333D01*
X149190476Y-143610714D02*
X149666666Y-144277380D01*
X150142857Y-143610714D02*
X149666666Y-144277380D01*
X149476190Y-144515476D01*
X149380952Y-144563095D01*
X149190476Y-144610714D01*
X152047619Y-144182142D02*
X151952380Y-144229761D01*
X151666666Y-144277380D01*
X151476190Y-144277380D01*
X151190476Y-144229761D01*
X151000000Y-144134523D01*
X150904761Y-144039285D01*
X150809523Y-143848809D01*
X150809523Y-143705952D01*
X150904761Y-143515476D01*
X151000000Y-143420238D01*
X151190476Y-143325000D01*
X151476190Y-143277380D01*
X151666666Y-143277380D01*
X151952380Y-143325000D01*
X152047619Y-143372619D01*
X153761904Y-143610714D02*
X153761904Y-144277380D01*
X152904761Y-143610714D02*
X152904761Y-144134523D01*
X153000000Y-144229761D01*
X153190476Y-144277380D01*
X153476190Y-144277380D01*
X153666666Y-144229761D01*
X153761904Y-144182142D01*
X154714285Y-144277380D02*
X154714285Y-143277380D01*
X154714285Y-143658333D02*
X154904761Y-143610714D01*
X155285714Y-143610714D01*
X155476190Y-143658333D01*
X155571428Y-143705952D01*
X155666666Y-143801190D01*
X155666666Y-144086904D01*
X155571428Y-144182142D01*
X155476190Y-144229761D01*
X155285714Y-144277380D01*
X154904761Y-144277380D01*
X154714285Y-144229761D01*
X157285714Y-144229761D02*
X157095238Y-144277380D01*
X156714285Y-144277380D01*
X156523809Y-144229761D01*
X156428571Y-144134523D01*
X156428571Y-143753571D01*
X156523809Y-143658333D01*
X156714285Y-143610714D01*
X157095238Y-143610714D01*
X157285714Y-143658333D01*
X157380952Y-143753571D01*
X157380952Y-143848809D01*
X156428571Y-143944047D01*
D10*
X162750000Y-57150000D02*
X161500000Y-57150000D01*
X162750000Y-58400000D02*
X162750000Y-57150000D01*
X157250000Y-71800000D02*
X157250000Y-65000000D01*
X160200000Y-71800000D02*
X157250000Y-71800000D01*
X160200000Y-72550000D02*
X160200000Y-71800000D01*
X157250000Y-58200000D02*
X157250000Y-65000000D01*
X160200000Y-58200000D02*
X157250000Y-58200000D01*
X160200000Y-57450000D02*
X160200000Y-58200000D01*
X162450000Y-72550000D02*
X162450000Y-70750000D01*
X161700000Y-72550000D02*
X162450000Y-72550000D01*
X161700000Y-70750000D02*
X161700000Y-72550000D01*
X162450000Y-70750000D02*
X161700000Y-70750000D01*
X162450000Y-59250000D02*
X162450000Y-57450000D01*
X161700000Y-59250000D02*
X162450000Y-59250000D01*
X161700000Y-57450000D02*
X161700000Y-59250000D01*
X162450000Y-57450000D02*
X161700000Y-57450000D01*
X162450000Y-69250000D02*
X162450000Y-60750000D01*
X161700000Y-69250000D02*
X162450000Y-69250000D01*
X161700000Y-60750000D02*
X161700000Y-69250000D01*
X162450000Y-60750000D02*
X161700000Y-60750000D01*
X162460000Y-72560000D02*
X162460000Y-57440000D01*
X156490000Y-72560000D02*
X162460000Y-72560000D01*
X156490000Y-57440000D02*
X156490000Y-72560000D01*
X162460000Y-57440000D02*
X156490000Y-57440000D01*
X165150000Y-118250000D02*
X165150000Y-119500000D01*
X166400000Y-118250000D02*
X165150000Y-118250000D01*
X177300000Y-123750000D02*
X171750000Y-123750000D01*
X177300000Y-120800000D02*
X177300000Y-123750000D01*
X178050000Y-120800000D02*
X177300000Y-120800000D01*
X166200000Y-123750000D02*
X171750000Y-123750000D01*
X166200000Y-120800000D02*
X166200000Y-123750000D01*
X165450000Y-120800000D02*
X166200000Y-120800000D01*
X178050000Y-118550000D02*
X176250000Y-118550000D01*
X178050000Y-119300000D02*
X178050000Y-118550000D01*
X176250000Y-119300000D02*
X178050000Y-119300000D01*
X176250000Y-118550000D02*
X176250000Y-119300000D01*
X167250000Y-118550000D02*
X165450000Y-118550000D01*
X167250000Y-119300000D02*
X167250000Y-118550000D01*
X165450000Y-119300000D02*
X167250000Y-119300000D01*
X165450000Y-118550000D02*
X165450000Y-119300000D01*
X174750000Y-118550000D02*
X168750000Y-118550000D01*
X174750000Y-119300000D02*
X174750000Y-118550000D01*
X168750000Y-119300000D02*
X174750000Y-119300000D01*
X168750000Y-118550000D02*
X168750000Y-119300000D01*
X178060000Y-118540000D02*
X165440000Y-118540000D01*
X178060000Y-124510000D02*
X178060000Y-118540000D01*
X165440000Y-124510000D02*
X178060000Y-124510000D01*
X165440000Y-118540000D02*
X165440000Y-124510000D01*
X126850000Y-98750000D02*
X126850000Y-97500000D01*
X125600000Y-98750000D02*
X126850000Y-98750000D01*
X104700000Y-93250000D02*
X115250000Y-93250000D01*
X104700000Y-96200000D02*
X104700000Y-93250000D01*
X103950000Y-96200000D02*
X104700000Y-96200000D01*
X125800000Y-93250000D02*
X115250000Y-93250000D01*
X125800000Y-96200000D02*
X125800000Y-93250000D01*
X126550000Y-96200000D02*
X125800000Y-96200000D01*
X103950000Y-98450000D02*
X105750000Y-98450000D01*
X103950000Y-97700000D02*
X103950000Y-98450000D01*
X105750000Y-97700000D02*
X103950000Y-97700000D01*
X105750000Y-98450000D02*
X105750000Y-97700000D01*
X124750000Y-98450000D02*
X126550000Y-98450000D01*
X124750000Y-97700000D02*
X124750000Y-98450000D01*
X126550000Y-97700000D02*
X124750000Y-97700000D01*
X126550000Y-98450000D02*
X126550000Y-97700000D01*
X107250000Y-98450000D02*
X123250000Y-98450000D01*
X107250000Y-97700000D02*
X107250000Y-98450000D01*
X123250000Y-97700000D02*
X107250000Y-97700000D01*
X123250000Y-98450000D02*
X123250000Y-97700000D01*
X103940000Y-98460000D02*
X126560000Y-98460000D01*
X103940000Y-92490000D02*
X103940000Y-98460000D01*
X126560000Y-92490000D02*
X103940000Y-92490000D01*
X126560000Y-98460000D02*
X126560000Y-92490000D01*
X117250000Y-83850000D02*
X118500000Y-83850000D01*
X117250000Y-82600000D02*
X117250000Y-83850000D01*
X122750000Y-61700000D02*
X122750000Y-72250000D01*
X119800000Y-61700000D02*
X122750000Y-61700000D01*
X119800000Y-60950000D02*
X119800000Y-61700000D01*
X122750000Y-82800000D02*
X122750000Y-72250000D01*
X119800000Y-82800000D02*
X122750000Y-82800000D01*
X119800000Y-83550000D02*
X119800000Y-82800000D01*
X117550000Y-60950000D02*
X117550000Y-62750000D01*
X118300000Y-60950000D02*
X117550000Y-60950000D01*
X118300000Y-62750000D02*
X118300000Y-60950000D01*
X117550000Y-62750000D02*
X118300000Y-62750000D01*
X117550000Y-81750000D02*
X117550000Y-83550000D01*
X118300000Y-81750000D02*
X117550000Y-81750000D01*
X118300000Y-83550000D02*
X118300000Y-81750000D01*
X117550000Y-83550000D02*
X118300000Y-83550000D01*
X117550000Y-64250000D02*
X117550000Y-80250000D01*
X118300000Y-64250000D02*
X117550000Y-64250000D01*
X118300000Y-80250000D02*
X118300000Y-64250000D01*
X117550000Y-80250000D02*
X118300000Y-80250000D01*
X117540000Y-60940000D02*
X117540000Y-83560000D01*
X123510000Y-60940000D02*
X117540000Y-60940000D01*
X123510000Y-83560000D02*
X123510000Y-60940000D01*
X117540000Y-83560000D02*
X123510000Y-83560000D01*
X152320000Y-139000000D02*
X153270000Y-139000000D01*
X158060000Y-139000000D02*
X157110000Y-139000000D01*
X153270000Y-139920000D02*
X157110000Y-139920000D01*
X153270000Y-138080000D02*
X153270000Y-139920000D01*
X157110000Y-138080000D02*
X153270000Y-138080000D01*
X157110000Y-139920000D02*
X157110000Y-138080000D01*
X179330000Y-65000000D02*
X179330000Y-66330000D01*
X179330000Y-66330000D02*
X178000000Y-66330000D01*
X176730000Y-66330000D02*
X171590000Y-66330000D01*
X171590000Y-63670000D02*
X171590000Y-66330000D01*
X176730000Y-63670000D02*
X171590000Y-63670000D01*
X176730000Y-63670000D02*
X176730000Y-66330000D01*
X186250000Y-68850000D02*
X187500000Y-68850000D01*
X186250000Y-67600000D02*
X186250000Y-68850000D01*
X191750000Y-59200000D02*
X191750000Y-63500000D01*
X188800000Y-59200000D02*
X191750000Y-59200000D01*
X188800000Y-58450000D02*
X188800000Y-59200000D01*
X191750000Y-67800000D02*
X191750000Y-63500000D01*
X188800000Y-67800000D02*
X191750000Y-67800000D01*
X188800000Y-68550000D02*
X188800000Y-67800000D01*
X186550000Y-58450000D02*
X186550000Y-60250000D01*
X187300000Y-58450000D02*
X186550000Y-58450000D01*
X187300000Y-60250000D02*
X187300000Y-58450000D01*
X186550000Y-60250000D02*
X187300000Y-60250000D01*
X186550000Y-66750000D02*
X186550000Y-68550000D01*
X187300000Y-66750000D02*
X186550000Y-66750000D01*
X187300000Y-68550000D02*
X187300000Y-66750000D01*
X186550000Y-68550000D02*
X187300000Y-68550000D01*
X186550000Y-61750000D02*
X186550000Y-65250000D01*
X187300000Y-61750000D02*
X186550000Y-61750000D01*
X187300000Y-65250000D02*
X187300000Y-61750000D01*
X186550000Y-65250000D02*
X187300000Y-65250000D01*
X186540000Y-58440000D02*
X186540000Y-68560000D01*
X192510000Y-58440000D02*
X186540000Y-58440000D01*
X192510000Y-68560000D02*
X192510000Y-58440000D01*
X186540000Y-68560000D02*
X192510000Y-68560000D01*
X179330000Y-61000000D02*
X179330000Y-62330000D01*
X179330000Y-62330000D02*
X178000000Y-62330000D01*
X176730000Y-62330000D02*
X174130000Y-62330000D01*
X174130000Y-59670000D02*
X174130000Y-62330000D01*
X176730000Y-59670000D02*
X174130000Y-59670000D01*
X176730000Y-59670000D02*
X176730000Y-62330000D01*
X140320000Y-139000000D02*
X141270000Y-139000000D01*
X146060000Y-139000000D02*
X145110000Y-139000000D01*
X141270000Y-139920000D02*
X145110000Y-139920000D01*
X141270000Y-138080000D02*
X141270000Y-139920000D01*
X145110000Y-138080000D02*
X141270000Y-138080000D01*
X145110000Y-139920000D02*
X145110000Y-138080000D01*
X140320000Y-135000000D02*
X141270000Y-135000000D01*
X146060000Y-135000000D02*
X145110000Y-135000000D01*
X141270000Y-135920000D02*
X145110000Y-135920000D01*
X141270000Y-134080000D02*
X141270000Y-135920000D01*
X145110000Y-134080000D02*
X141270000Y-134080000D01*
X145110000Y-135920000D02*
X145110000Y-134080000D01*
X152320000Y-135000000D02*
X153270000Y-135000000D01*
X158060000Y-135000000D02*
X157110000Y-135000000D01*
X153270000Y-135920000D02*
X157110000Y-135920000D01*
X153270000Y-134080000D02*
X153270000Y-135920000D01*
X157110000Y-134080000D02*
X153270000Y-134080000D01*
X157110000Y-135920000D02*
X157110000Y-134080000D01*
X193350000Y-123840000D02*
X193350000Y-123340000D01*
X192610000Y-123840000D02*
X193350000Y-123840000D01*
X184600000Y-74030000D02*
X185600000Y-74030000D01*
X184600000Y-76530000D02*
X185600000Y-76530000D01*
X185600000Y-76530000D02*
X185600000Y-74030000D01*
X184600000Y-76530000D02*
X184600000Y-74030000D01*
X189850000Y-76304000D02*
X189910000Y-76364000D01*
X187915000Y-74369000D02*
X187955000Y-74409000D01*
X190045000Y-76150000D02*
X190085000Y-76190000D01*
X188090000Y-74195000D02*
X188149000Y-74255000D01*
X184600000Y-79110000D02*
X185600000Y-79110000D01*
X184600000Y-81610000D02*
X185600000Y-81610000D01*
X185600000Y-81610000D02*
X185600000Y-79110000D01*
X184600000Y-81610000D02*
X184600000Y-79110000D01*
X189850000Y-81384000D02*
X189910000Y-81444000D01*
X187915000Y-79449000D02*
X187955000Y-79489000D01*
X190045000Y-81230000D02*
X190085000Y-81270000D01*
X188090000Y-79275000D02*
X188149000Y-79335000D01*
X184600000Y-84190000D02*
X185600000Y-84190000D01*
X184600000Y-86690000D02*
X185600000Y-86690000D01*
X185600000Y-86690000D02*
X185600000Y-84190000D01*
X184600000Y-86690000D02*
X184600000Y-84190000D01*
X189850000Y-86464000D02*
X189910000Y-86524000D01*
X187915000Y-84529000D02*
X187955000Y-84569000D01*
X190045000Y-86310000D02*
X190085000Y-86350000D01*
X188090000Y-84355000D02*
X188149000Y-84415000D01*
X184600000Y-89270000D02*
X185600000Y-89270000D01*
X184600000Y-91770000D02*
X185600000Y-91770000D01*
X185600000Y-91770000D02*
X185600000Y-89270000D01*
X184600000Y-91770000D02*
X184600000Y-89270000D01*
X189850000Y-91544000D02*
X189910000Y-91604000D01*
X187915000Y-89609000D02*
X187955000Y-89649000D01*
X190045000Y-91390000D02*
X190085000Y-91430000D01*
X188090000Y-89435000D02*
X188149000Y-89495000D01*
X184600000Y-94350000D02*
X185600000Y-94350000D01*
X184600000Y-96850000D02*
X185600000Y-96850000D01*
X185600000Y-96850000D02*
X185600000Y-94350000D01*
X184600000Y-96850000D02*
X184600000Y-94350000D01*
X189850000Y-96624000D02*
X189910000Y-96684000D01*
X187915000Y-94689000D02*
X187955000Y-94729000D01*
X190045000Y-96470000D02*
X190085000Y-96510000D01*
X188090000Y-94515000D02*
X188149000Y-94575000D01*
X184600000Y-99430000D02*
X185600000Y-99430000D01*
X184600000Y-101930000D02*
X185600000Y-101930000D01*
X185600000Y-101930000D02*
X185600000Y-99430000D01*
X184600000Y-101930000D02*
X184600000Y-99430000D01*
X189850000Y-101704000D02*
X189910000Y-101764000D01*
X187915000Y-99769000D02*
X187955000Y-99809000D01*
X190045000Y-101550000D02*
X190085000Y-101590000D01*
X188090000Y-99595000D02*
X188149000Y-99655000D01*
X184600000Y-104510000D02*
X185600000Y-104510000D01*
X184600000Y-107010000D02*
X185600000Y-107010000D01*
X185600000Y-107010000D02*
X185600000Y-104510000D01*
X184600000Y-107010000D02*
X184600000Y-104510000D01*
X189850000Y-106784000D02*
X189910000Y-106844000D01*
X187915000Y-104849000D02*
X187955000Y-104889000D01*
X190045000Y-106630000D02*
X190085000Y-106670000D01*
X188090000Y-104675000D02*
X188149000Y-104735000D01*
X184600000Y-109590000D02*
X185600000Y-109590000D01*
X184600000Y-112090000D02*
X185600000Y-112090000D01*
X185600000Y-112090000D02*
X185600000Y-109590000D01*
X184600000Y-112090000D02*
X184600000Y-109590000D01*
X189850000Y-111864000D02*
X189910000Y-111924000D01*
X187915000Y-109929000D02*
X187955000Y-109969000D01*
X190045000Y-111710000D02*
X190085000Y-111750000D01*
X188090000Y-109755000D02*
X188149000Y-109815000D01*
X184600000Y-114670000D02*
X185600000Y-114670000D01*
X184600000Y-117170000D02*
X185600000Y-117170000D01*
X185600000Y-117170000D02*
X185600000Y-114670000D01*
X184600000Y-117170000D02*
X184600000Y-114670000D01*
X189850000Y-116944000D02*
X189910000Y-117004000D01*
X187915000Y-115009000D02*
X187955000Y-115049000D01*
X190045000Y-116790000D02*
X190085000Y-116830000D01*
X188090000Y-114835000D02*
X188149000Y-114895000D01*
X184600000Y-119750000D02*
X185600000Y-119750000D01*
X184600000Y-122250000D02*
X185600000Y-122250000D01*
X185600000Y-122250000D02*
X185600000Y-119750000D01*
X184600000Y-122250000D02*
X184600000Y-119750000D01*
X184540000Y-72680000D02*
X193110000Y-72680000D01*
X184540000Y-123600000D02*
X193110000Y-123600000D01*
X193110000Y-123600000D02*
X193110000Y-72680000D01*
X184540000Y-123600000D02*
X184540000Y-72680000D01*
X186450000Y-123600000D02*
X186450000Y-72680000D01*
X191450000Y-123600000D02*
X191450000Y-72680000D01*
X192550000Y-123600000D02*
X192550000Y-72680000D01*
X190430000Y-75280000D02*
G75*
G03X190430000Y-75280000I-1430000J0D01*
G01*
X190430000Y-80360000D02*
G75*
G03X190430000Y-80360000I-1430000J0D01*
G01*
X190430000Y-85440000D02*
G75*
G03X190430000Y-85440000I-1430000J0D01*
G01*
X190430000Y-90520000D02*
G75*
G03X190430000Y-90520000I-1430000J0D01*
G01*
X190430000Y-95600000D02*
G75*
G03X190430000Y-95600000I-1430000J0D01*
G01*
X190430000Y-100680000D02*
G75*
G03X190430000Y-100680000I-1430000J0D01*
G01*
X190430000Y-105760000D02*
G75*
G03X190430000Y-105760000I-1430000J0D01*
G01*
X190430000Y-110840000D02*
G75*
G03X190430000Y-110840000I-1430000J0D01*
G01*
X190430000Y-115920000D02*
G75*
G03X190430000Y-115920000I-1430000J0D01*
G01*
X190430940Y-120975720D02*
G75*
G02X190286000Y-121628000I-1430940J-24280D01*
G01*
X189626746Y-122286611D02*
G75*
G02X188372000Y-122286000I-626746J1286611D01*
G01*
X187714176Y-121627362D02*
G75*
G02X187714000Y-120373000I1285824J627362D01*
G01*
X188372638Y-119714176D02*
G75*
G02X189627000Y-119714000I627362J-1285824D01*
G01*
X190285275Y-120373129D02*
G75*
G02X190430000Y-121000000I-1285275J-626871D01*
G01*
X136750000Y-57150000D02*
X135500000Y-57150000D01*
X136750000Y-58400000D02*
X136750000Y-57150000D01*
X131250000Y-71800000D02*
X131250000Y-65000000D01*
X134200000Y-71800000D02*
X131250000Y-71800000D01*
X134200000Y-72550000D02*
X134200000Y-71800000D01*
X131250000Y-58200000D02*
X131250000Y-65000000D01*
X134200000Y-58200000D02*
X131250000Y-58200000D01*
X134200000Y-57450000D02*
X134200000Y-58200000D01*
X136450000Y-72550000D02*
X136450000Y-70750000D01*
X135700000Y-72550000D02*
X136450000Y-72550000D01*
X135700000Y-70750000D02*
X135700000Y-72550000D01*
X136450000Y-70750000D02*
X135700000Y-70750000D01*
X136450000Y-59250000D02*
X136450000Y-57450000D01*
X135700000Y-59250000D02*
X136450000Y-59250000D01*
X135700000Y-57450000D02*
X135700000Y-59250000D01*
X136450000Y-57450000D02*
X135700000Y-57450000D01*
X136450000Y-69250000D02*
X136450000Y-60750000D01*
X135700000Y-69250000D02*
X136450000Y-69250000D01*
X135700000Y-60750000D02*
X135700000Y-69250000D01*
X136450000Y-60750000D02*
X135700000Y-60750000D01*
X136460000Y-72560000D02*
X136460000Y-57440000D01*
X130490000Y-72560000D02*
X136460000Y-72560000D01*
X130490000Y-57440000D02*
X130490000Y-72560000D01*
X136460000Y-57440000D02*
X130490000Y-57440000D01*
X153750000Y-57150000D02*
X152500000Y-57150000D01*
X153750000Y-58400000D02*
X153750000Y-57150000D01*
X148250000Y-71800000D02*
X148250000Y-65000000D01*
X151200000Y-71800000D02*
X148250000Y-71800000D01*
X151200000Y-72550000D02*
X151200000Y-71800000D01*
X148250000Y-58200000D02*
X148250000Y-65000000D01*
X151200000Y-58200000D02*
X148250000Y-58200000D01*
X151200000Y-57450000D02*
X151200000Y-58200000D01*
X153450000Y-72550000D02*
X153450000Y-70750000D01*
X152700000Y-72550000D02*
X153450000Y-72550000D01*
X152700000Y-70750000D02*
X152700000Y-72550000D01*
X153450000Y-70750000D02*
X152700000Y-70750000D01*
X153450000Y-59250000D02*
X153450000Y-57450000D01*
X152700000Y-59250000D02*
X153450000Y-59250000D01*
X152700000Y-57450000D02*
X152700000Y-59250000D01*
X153450000Y-57450000D02*
X152700000Y-57450000D01*
X153450000Y-69250000D02*
X153450000Y-60750000D01*
X152700000Y-69250000D02*
X153450000Y-69250000D01*
X152700000Y-60750000D02*
X152700000Y-69250000D01*
X153450000Y-60750000D02*
X152700000Y-60750000D01*
X153460000Y-72560000D02*
X153460000Y-57440000D01*
X147490000Y-72560000D02*
X153460000Y-72560000D01*
X147490000Y-57440000D02*
X147490000Y-72560000D01*
X153460000Y-57440000D02*
X147490000Y-57440000D01*
X106150000Y-112250000D02*
X106150000Y-113500000D01*
X107400000Y-112250000D02*
X106150000Y-112250000D01*
X118300000Y-117750000D02*
X112750000Y-117750000D01*
X118300000Y-114800000D02*
X118300000Y-117750000D01*
X119050000Y-114800000D02*
X118300000Y-114800000D01*
X107200000Y-117750000D02*
X112750000Y-117750000D01*
X107200000Y-114800000D02*
X107200000Y-117750000D01*
X106450000Y-114800000D02*
X107200000Y-114800000D01*
X119050000Y-112550000D02*
X117250000Y-112550000D01*
X119050000Y-113300000D02*
X119050000Y-112550000D01*
X117250000Y-113300000D02*
X119050000Y-113300000D01*
X117250000Y-112550000D02*
X117250000Y-113300000D01*
X108250000Y-112550000D02*
X106450000Y-112550000D01*
X108250000Y-113300000D02*
X108250000Y-112550000D01*
X106450000Y-113300000D02*
X108250000Y-113300000D01*
X106450000Y-112550000D02*
X106450000Y-113300000D01*
X115750000Y-112550000D02*
X109750000Y-112550000D01*
X115750000Y-113300000D02*
X115750000Y-112550000D01*
X109750000Y-113300000D02*
X115750000Y-113300000D01*
X109750000Y-112550000D02*
X109750000Y-113300000D01*
X119060000Y-112540000D02*
X106440000Y-112540000D01*
X119060000Y-118510000D02*
X119060000Y-112540000D01*
X106440000Y-118510000D02*
X119060000Y-118510000D01*
X106440000Y-112540000D02*
X106440000Y-118510000D01*
X111150000Y-102250000D02*
X111150000Y-103500000D01*
X112400000Y-102250000D02*
X111150000Y-102250000D01*
X118300000Y-107750000D02*
X115250000Y-107750000D01*
X118300000Y-104800000D02*
X118300000Y-107750000D01*
X119050000Y-104800000D02*
X118300000Y-104800000D01*
X112200000Y-107750000D02*
X115250000Y-107750000D01*
X112200000Y-104800000D02*
X112200000Y-107750000D01*
X111450000Y-104800000D02*
X112200000Y-104800000D01*
X119050000Y-102550000D02*
X117250000Y-102550000D01*
X119050000Y-103300000D02*
X119050000Y-102550000D01*
X117250000Y-103300000D02*
X119050000Y-103300000D01*
X117250000Y-102550000D02*
X117250000Y-103300000D01*
X113250000Y-102550000D02*
X111450000Y-102550000D01*
X113250000Y-103300000D02*
X113250000Y-102550000D01*
X111450000Y-103300000D02*
X113250000Y-103300000D01*
X111450000Y-102550000D02*
X111450000Y-103300000D01*
X115750000Y-102550000D02*
X114750000Y-102550000D01*
X115750000Y-103300000D02*
X115750000Y-102550000D01*
X114750000Y-103300000D02*
X115750000Y-103300000D01*
X114750000Y-102550000D02*
X114750000Y-103300000D01*
X119060000Y-102540000D02*
X111440000Y-102540000D01*
X119060000Y-108510000D02*
X119060000Y-102540000D01*
X111440000Y-108510000D02*
X119060000Y-108510000D01*
X111440000Y-102540000D02*
X111440000Y-108510000D01*
X185190000Y-126460000D02*
X185190000Y-141700000D01*
X192810000Y-126460000D02*
X192810000Y-141700000D01*
X186460000Y-126460000D02*
X186460000Y-141700000D01*
X185190000Y-141700000D02*
X192810000Y-141700000D01*
X185190000Y-126460000D02*
X192810000Y-126460000D01*
X173750000Y-83150000D02*
X172500000Y-83150000D01*
X173750000Y-84400000D02*
X173750000Y-83150000D01*
X168250000Y-102800000D02*
X168250000Y-93500000D01*
X171200000Y-102800000D02*
X168250000Y-102800000D01*
X171200000Y-103550000D02*
X171200000Y-102800000D01*
X168250000Y-84200000D02*
X168250000Y-93500000D01*
X171200000Y-84200000D02*
X168250000Y-84200000D01*
X171200000Y-83450000D02*
X171200000Y-84200000D01*
X173450000Y-103550000D02*
X173450000Y-101750000D01*
X172700000Y-103550000D02*
X173450000Y-103550000D01*
X172700000Y-101750000D02*
X172700000Y-103550000D01*
X173450000Y-101750000D02*
X172700000Y-101750000D01*
X173450000Y-85250000D02*
X173450000Y-83450000D01*
X172700000Y-85250000D02*
X173450000Y-85250000D01*
X172700000Y-83450000D02*
X172700000Y-85250000D01*
X173450000Y-83450000D02*
X172700000Y-83450000D01*
X173450000Y-100250000D02*
X173450000Y-86750000D01*
X172700000Y-100250000D02*
X173450000Y-100250000D01*
X172700000Y-86750000D02*
X172700000Y-100250000D01*
X173450000Y-86750000D02*
X172700000Y-86750000D01*
X173460000Y-103560000D02*
X173460000Y-83440000D01*
X167490000Y-103560000D02*
X173460000Y-103560000D01*
X167490000Y-83440000D02*
X167490000Y-103560000D01*
X173460000Y-83440000D02*
X167490000Y-83440000D01*
X177850000Y-115750000D02*
X177850000Y-114500000D01*
X176600000Y-115750000D02*
X177850000Y-115750000D01*
X165700000Y-110250000D02*
X171250000Y-110250000D01*
X165700000Y-113200000D02*
X165700000Y-110250000D01*
X164950000Y-113200000D02*
X165700000Y-113200000D01*
X176800000Y-110250000D02*
X171250000Y-110250000D01*
X176800000Y-113200000D02*
X176800000Y-110250000D01*
X177550000Y-113200000D02*
X176800000Y-113200000D01*
X164950000Y-115450000D02*
X166750000Y-115450000D01*
X164950000Y-114700000D02*
X164950000Y-115450000D01*
X166750000Y-114700000D02*
X164950000Y-114700000D01*
X166750000Y-115450000D02*
X166750000Y-114700000D01*
X175750000Y-115450000D02*
X177550000Y-115450000D01*
X175750000Y-114700000D02*
X175750000Y-115450000D01*
X177550000Y-114700000D02*
X175750000Y-114700000D01*
X177550000Y-115450000D02*
X177550000Y-114700000D01*
X168250000Y-115450000D02*
X174250000Y-115450000D01*
X168250000Y-114700000D02*
X168250000Y-115450000D01*
X174250000Y-114700000D02*
X168250000Y-114700000D01*
X174250000Y-115450000D02*
X174250000Y-114700000D01*
X164940000Y-115460000D02*
X177560000Y-115460000D01*
X164940000Y-109490000D02*
X164940000Y-115460000D01*
X177560000Y-109490000D02*
X164940000Y-109490000D01*
X177560000Y-115460000D02*
X177560000Y-109490000D01*
X106150000Y-121250000D02*
X106150000Y-122500000D01*
X107400000Y-121250000D02*
X106150000Y-121250000D01*
X118300000Y-126750000D02*
X112750000Y-126750000D01*
X118300000Y-123800000D02*
X118300000Y-126750000D01*
X119050000Y-123800000D02*
X118300000Y-123800000D01*
X107200000Y-126750000D02*
X112750000Y-126750000D01*
X107200000Y-123800000D02*
X107200000Y-126750000D01*
X106450000Y-123800000D02*
X107200000Y-123800000D01*
X119050000Y-121550000D02*
X117250000Y-121550000D01*
X119050000Y-122300000D02*
X119050000Y-121550000D01*
X117250000Y-122300000D02*
X119050000Y-122300000D01*
X117250000Y-121550000D02*
X117250000Y-122300000D01*
X108250000Y-121550000D02*
X106450000Y-121550000D01*
X108250000Y-122300000D02*
X108250000Y-121550000D01*
X106450000Y-122300000D02*
X108250000Y-122300000D01*
X106450000Y-121550000D02*
X106450000Y-122300000D01*
X115750000Y-121550000D02*
X109750000Y-121550000D01*
X115750000Y-122300000D02*
X115750000Y-121550000D01*
X109750000Y-122300000D02*
X115750000Y-122300000D01*
X109750000Y-121550000D02*
X109750000Y-122300000D01*
X119060000Y-121540000D02*
X106440000Y-121540000D01*
X119060000Y-127510000D02*
X119060000Y-121540000D01*
X106440000Y-127510000D02*
X119060000Y-127510000D01*
X106440000Y-121540000D02*
X106440000Y-127510000D01*
X145750000Y-57150000D02*
X144500000Y-57150000D01*
X145750000Y-58400000D02*
X145750000Y-57150000D01*
X140250000Y-71800000D02*
X140250000Y-65000000D01*
X143200000Y-71800000D02*
X140250000Y-71800000D01*
X143200000Y-72550000D02*
X143200000Y-71800000D01*
X140250000Y-58200000D02*
X140250000Y-65000000D01*
X143200000Y-58200000D02*
X140250000Y-58200000D01*
X143200000Y-57450000D02*
X143200000Y-58200000D01*
X145450000Y-72550000D02*
X145450000Y-70750000D01*
X144700000Y-72550000D02*
X145450000Y-72550000D01*
X144700000Y-70750000D02*
X144700000Y-72550000D01*
X145450000Y-70750000D02*
X144700000Y-70750000D01*
X145450000Y-59250000D02*
X145450000Y-57450000D01*
X144700000Y-59250000D02*
X145450000Y-59250000D01*
X144700000Y-57450000D02*
X144700000Y-59250000D01*
X145450000Y-57450000D02*
X144700000Y-57450000D01*
X145450000Y-69250000D02*
X145450000Y-60750000D01*
X144700000Y-69250000D02*
X145450000Y-69250000D01*
X144700000Y-60750000D02*
X144700000Y-69250000D01*
X145450000Y-60750000D02*
X144700000Y-60750000D01*
X145460000Y-72560000D02*
X145460000Y-57440000D01*
X139490000Y-72560000D02*
X145460000Y-72560000D01*
X139490000Y-57440000D02*
X139490000Y-72560000D01*
X145460000Y-57440000D02*
X139490000Y-57440000D01*
D11*
X138238095Y-85738571D02*
X138571428Y-85738571D01*
X138714285Y-86262380D02*
X138238095Y-86262380D01*
X138238095Y-85262380D01*
X138714285Y-85262380D01*
X139095238Y-86214761D02*
X139238095Y-86262380D01*
X139476190Y-86262380D01*
X139571428Y-86214761D01*
X139619047Y-86167142D01*
X139666666Y-86071904D01*
X139666666Y-85976666D01*
X139619047Y-85881428D01*
X139571428Y-85833809D01*
X139476190Y-85786190D01*
X139285714Y-85738571D01*
X139190476Y-85690952D01*
X139142857Y-85643333D01*
X139095238Y-85548095D01*
X139095238Y-85452857D01*
X139142857Y-85357619D01*
X139190476Y-85310000D01*
X139285714Y-85262380D01*
X139523809Y-85262380D01*
X139666666Y-85310000D01*
X140095238Y-86262380D02*
X140095238Y-85262380D01*
X140476190Y-85262380D01*
X140571428Y-85310000D01*
X140619047Y-85357619D01*
X140666666Y-85452857D01*
X140666666Y-85595714D01*
X140619047Y-85690952D01*
X140571428Y-85738571D01*
X140476190Y-85786190D01*
X140095238Y-85786190D01*
X141000000Y-85262380D02*
X141619047Y-85262380D01*
X141285714Y-85643333D01*
X141428571Y-85643333D01*
X141523809Y-85690952D01*
X141571428Y-85738571D01*
X141619047Y-85833809D01*
X141619047Y-86071904D01*
X141571428Y-86167142D01*
X141523809Y-86214761D01*
X141428571Y-86262380D01*
X141142857Y-86262380D01*
X141047619Y-86214761D01*
X141000000Y-86167142D01*
X142000000Y-85357619D02*
X142047619Y-85310000D01*
X142142857Y-85262380D01*
X142380952Y-85262380D01*
X142476190Y-85310000D01*
X142523809Y-85357619D01*
X142571428Y-85452857D01*
X142571428Y-85548095D01*
X142523809Y-85690952D01*
X141952380Y-86262380D01*
X142571428Y-86262380D01*
X142761904Y-86357619D02*
X143523809Y-86357619D01*
X143761904Y-86262380D02*
X143761904Y-85262380D01*
X144000000Y-85262380D01*
X144142857Y-85310000D01*
X144238095Y-85405238D01*
X144285714Y-85500476D01*
X144333333Y-85690952D01*
X144333333Y-85833809D01*
X144285714Y-86024285D01*
X144238095Y-86119523D01*
X144142857Y-86214761D01*
X144000000Y-86262380D01*
X143761904Y-86262380D01*
X145142857Y-86214761D02*
X145047619Y-86262380D01*
X144857142Y-86262380D01*
X144761904Y-86214761D01*
X144714285Y-86119523D01*
X144714285Y-85738571D01*
X144761904Y-85643333D01*
X144857142Y-85595714D01*
X145047619Y-85595714D01*
X145142857Y-85643333D01*
X145190476Y-85738571D01*
X145190476Y-85833809D01*
X144714285Y-85929047D01*
X145523809Y-85595714D02*
X145761904Y-86262380D01*
X146000000Y-85595714D01*
X146380952Y-86262380D02*
X146380952Y-85262380D01*
X146952380Y-86262380D02*
X146523809Y-85690952D01*
X146952380Y-85262380D02*
X146380952Y-85833809D01*
X147380952Y-86262380D02*
X147380952Y-85595714D01*
X147380952Y-85262380D02*
X147333333Y-85310000D01*
X147380952Y-85357619D01*
X147428571Y-85310000D01*
X147380952Y-85262380D01*
X147380952Y-85357619D01*
X147714285Y-85595714D02*
X148095238Y-85595714D01*
X147857142Y-85262380D02*
X147857142Y-86119523D01*
X147904761Y-86214761D01*
X148000000Y-86262380D01*
X148095238Y-86262380D01*
X148285714Y-85262380D02*
X148619047Y-86262380D01*
X148952380Y-85262380D01*
X149809523Y-86262380D02*
X149238095Y-86262380D01*
X149523809Y-86262380D02*
X149523809Y-85262380D01*
X149428571Y-85405238D01*
X149333333Y-85500476D01*
X149238095Y-85548095D01*
X159190476Y-73452380D02*
X159190476Y-74166666D01*
X159142857Y-74309523D01*
X159047619Y-74404761D01*
X158904761Y-74452380D01*
X158809523Y-74452380D01*
X160190476Y-74452380D02*
X159619047Y-74452380D01*
X159904761Y-74452380D02*
X159904761Y-73452380D01*
X159809523Y-73595238D01*
X159714285Y-73690476D01*
X159619047Y-73738095D01*
X160523809Y-73452380D02*
X161142857Y-73452380D01*
X160809523Y-73833333D01*
X160952380Y-73833333D01*
X161047619Y-73880952D01*
X161095238Y-73928571D01*
X161142857Y-74023809D01*
X161142857Y-74261904D01*
X161095238Y-74357142D01*
X161047619Y-74404761D01*
X160952380Y-74452380D01*
X160666666Y-74452380D01*
X160571428Y-74404761D01*
X160523809Y-74357142D01*
X164452380Y-125761904D02*
X163452380Y-125761904D01*
X164166666Y-125428571D01*
X163452380Y-125095238D01*
X164452380Y-125095238D01*
X164452380Y-124476190D02*
X164404761Y-124571428D01*
X164357142Y-124619047D01*
X164261904Y-124666666D01*
X163976190Y-124666666D01*
X163880952Y-124619047D01*
X163833333Y-124571428D01*
X163785714Y-124476190D01*
X163785714Y-124333333D01*
X163833333Y-124238095D01*
X163880952Y-124190476D01*
X163976190Y-124142857D01*
X164261904Y-124142857D01*
X164357142Y-124190476D01*
X164404761Y-124238095D01*
X164452380Y-124333333D01*
X164452380Y-124476190D01*
X163785714Y-123857142D02*
X163785714Y-123476190D01*
X163452380Y-123714285D02*
X164309523Y-123714285D01*
X164404761Y-123666666D01*
X164452380Y-123571428D01*
X164452380Y-123476190D01*
X163547619Y-123190476D02*
X163500000Y-123142857D01*
X163452380Y-123047619D01*
X163452380Y-122809523D01*
X163500000Y-122714285D01*
X163547619Y-122666666D01*
X163642857Y-122619047D01*
X163738095Y-122619047D01*
X163880952Y-122666666D01*
X164452380Y-123238095D01*
X164452380Y-122619047D01*
X164357142Y-121619047D02*
X164404761Y-121666666D01*
X164452380Y-121809523D01*
X164452380Y-121904761D01*
X164404761Y-122047619D01*
X164309523Y-122142857D01*
X164214285Y-122190476D01*
X164023809Y-122238095D01*
X163880952Y-122238095D01*
X163690476Y-122190476D01*
X163595238Y-122142857D01*
X163500000Y-122047619D01*
X163452380Y-121904761D01*
X163452380Y-121809523D01*
X163500000Y-121666666D01*
X163547619Y-121619047D01*
X163785714Y-120761904D02*
X164452380Y-120761904D01*
X163785714Y-121190476D02*
X164309523Y-121190476D01*
X164404761Y-121142857D01*
X164452380Y-121047619D01*
X164452380Y-120904761D01*
X164404761Y-120809523D01*
X164357142Y-120761904D01*
X164452380Y-120285714D02*
X163785714Y-120285714D01*
X163976190Y-120285714D02*
X163880952Y-120238095D01*
X163833333Y-120190476D01*
X163785714Y-120095238D01*
X163785714Y-120000000D01*
X164452380Y-119666666D02*
X163785714Y-119666666D01*
X163976190Y-119666666D02*
X163880952Y-119619047D01*
X163833333Y-119571428D01*
X163785714Y-119476190D01*
X163785714Y-119380952D01*
X164404761Y-118666666D02*
X164452380Y-118761904D01*
X164452380Y-118952380D01*
X164404761Y-119047619D01*
X164309523Y-119095238D01*
X163928571Y-119095238D01*
X163833333Y-119047619D01*
X163785714Y-118952380D01*
X163785714Y-118761904D01*
X163833333Y-118666666D01*
X163928571Y-118619047D01*
X164023809Y-118619047D01*
X164119047Y-119095238D01*
X163785714Y-118190476D02*
X164452380Y-118190476D01*
X163880952Y-118190476D02*
X163833333Y-118142857D01*
X163785714Y-118047619D01*
X163785714Y-117904761D01*
X163833333Y-117809523D01*
X163928571Y-117761904D01*
X164452380Y-117761904D01*
X163785714Y-117428571D02*
X163785714Y-117047619D01*
X163452380Y-117285714D02*
X164309523Y-117285714D01*
X164404761Y-117238095D01*
X164452380Y-117142857D01*
X164452380Y-117047619D01*
X164452380Y-116190476D02*
X164452380Y-116761904D01*
X164452380Y-116476190D02*
X163452380Y-116476190D01*
X163595238Y-116571428D01*
X163690476Y-116666666D01*
X163738095Y-116761904D01*
X121690476Y-100452380D02*
X121690476Y-99452380D01*
X122023809Y-100166666D01*
X122357142Y-99452380D01*
X122357142Y-100452380D01*
X122976190Y-100452380D02*
X122880952Y-100404761D01*
X122833333Y-100357142D01*
X122785714Y-100261904D01*
X122785714Y-99976190D01*
X122833333Y-99880952D01*
X122880952Y-99833333D01*
X122976190Y-99785714D01*
X123119047Y-99785714D01*
X123214285Y-99833333D01*
X123261904Y-99880952D01*
X123309523Y-99976190D01*
X123309523Y-100261904D01*
X123261904Y-100357142D01*
X123214285Y-100404761D01*
X123119047Y-100452380D01*
X122976190Y-100452380D01*
X123595238Y-99785714D02*
X123976190Y-99785714D01*
X123738095Y-99452380D02*
X123738095Y-100309523D01*
X123785714Y-100404761D01*
X123880952Y-100452380D01*
X123976190Y-100452380D01*
X124452380Y-100452380D02*
X124357142Y-100404761D01*
X124309523Y-100357142D01*
X124261904Y-100261904D01*
X124261904Y-99976190D01*
X124309523Y-99880952D01*
X124357142Y-99833333D01*
X124452380Y-99785714D01*
X124595238Y-99785714D01*
X124690476Y-99833333D01*
X124738095Y-99880952D01*
X124785714Y-99976190D01*
X124785714Y-100261904D01*
X124738095Y-100357142D01*
X124690476Y-100404761D01*
X124595238Y-100452380D01*
X124452380Y-100452380D01*
X125214285Y-100452380D02*
X125214285Y-99785714D01*
X125214285Y-99976190D02*
X125261904Y-99880952D01*
X125309523Y-99833333D01*
X125404761Y-99785714D01*
X125500000Y-99785714D01*
X126357142Y-100452380D02*
X125785714Y-100452380D01*
X126071428Y-100452380D02*
X126071428Y-99452380D01*
X125976190Y-99595238D01*
X125880952Y-99690476D01*
X125785714Y-99738095D01*
X124452380Y-75273809D02*
X125452380Y-75035714D01*
X124738095Y-74845238D01*
X125452380Y-74654761D01*
X124452380Y-74416666D01*
X125452380Y-74035714D02*
X124785714Y-74035714D01*
X124452380Y-74035714D02*
X124500000Y-74083333D01*
X124547619Y-74035714D01*
X124500000Y-73988095D01*
X124452380Y-74035714D01*
X124547619Y-74035714D01*
X124785714Y-73559523D02*
X125452380Y-73559523D01*
X124880952Y-73559523D02*
X124833333Y-73511904D01*
X124785714Y-73416666D01*
X124785714Y-73273809D01*
X124833333Y-73178571D01*
X124928571Y-73130952D01*
X125452380Y-73130952D01*
X125452380Y-72226190D02*
X124452380Y-72226190D01*
X125404761Y-72226190D02*
X125452380Y-72321428D01*
X125452380Y-72511904D01*
X125404761Y-72607142D01*
X125357142Y-72654761D01*
X125261904Y-72702380D01*
X124976190Y-72702380D01*
X124880952Y-72654761D01*
X124833333Y-72607142D01*
X124785714Y-72511904D01*
X124785714Y-72321428D01*
X124833333Y-72226190D01*
X125452380Y-71607142D02*
X125404761Y-71702380D01*
X125357142Y-71750000D01*
X125261904Y-71797619D01*
X124976190Y-71797619D01*
X124880952Y-71750000D01*
X124833333Y-71702380D01*
X124785714Y-71607142D01*
X124785714Y-71464285D01*
X124833333Y-71369047D01*
X124880952Y-71321428D01*
X124976190Y-71273809D01*
X125261904Y-71273809D01*
X125357142Y-71321428D01*
X125404761Y-71369047D01*
X125452380Y-71464285D01*
X125452380Y-71607142D01*
X124785714Y-70940476D02*
X125452380Y-70750000D01*
X124976190Y-70559523D01*
X125452380Y-70369047D01*
X124785714Y-70178571D01*
X125452380Y-69273809D02*
X125452380Y-69845238D01*
X125452380Y-69559523D02*
X124452380Y-69559523D01*
X124595238Y-69654761D01*
X124690476Y-69750000D01*
X124738095Y-69845238D01*
X155023333Y-141372380D02*
X154690000Y-140896190D01*
X154451904Y-141372380D02*
X154451904Y-140372380D01*
X154832857Y-140372380D01*
X154928095Y-140420000D01*
X154975714Y-140467619D01*
X155023333Y-140562857D01*
X155023333Y-140705714D01*
X154975714Y-140800952D01*
X154928095Y-140848571D01*
X154832857Y-140896190D01*
X154451904Y-140896190D01*
X155356666Y-140372380D02*
X155975714Y-140372380D01*
X155642380Y-140753333D01*
X155785238Y-140753333D01*
X155880476Y-140800952D01*
X155928095Y-140848571D01*
X155975714Y-140943809D01*
X155975714Y-141181904D01*
X155928095Y-141277142D01*
X155880476Y-141324761D01*
X155785238Y-141372380D01*
X155499523Y-141372380D01*
X155404285Y-141324761D01*
X155356666Y-141277142D01*
X176166666Y-67452380D02*
X176166666Y-68166666D01*
X176119047Y-68309523D01*
X176023809Y-68404761D01*
X175880952Y-68452380D01*
X175785714Y-68452380D01*
X176642857Y-68452380D02*
X176642857Y-67452380D01*
X177023809Y-67452380D01*
X177119047Y-67500000D01*
X177166666Y-67547619D01*
X177214285Y-67642857D01*
X177214285Y-67785714D01*
X177166666Y-67880952D01*
X177119047Y-67928571D01*
X177023809Y-67976190D01*
X176642857Y-67976190D01*
X177595238Y-67547619D02*
X177642857Y-67500000D01*
X177738095Y-67452380D01*
X177976190Y-67452380D01*
X178071428Y-67500000D01*
X178119047Y-67547619D01*
X178166666Y-67642857D01*
X178166666Y-67738095D01*
X178119047Y-67880952D01*
X177547619Y-68452380D01*
X178166666Y-68452380D01*
X186619047Y-70452380D02*
X186619047Y-69452380D01*
X186952380Y-70166666D01*
X187285714Y-69452380D01*
X187285714Y-70452380D01*
X188190476Y-70452380D02*
X188190476Y-69928571D01*
X188142857Y-69833333D01*
X188047619Y-69785714D01*
X187857142Y-69785714D01*
X187761904Y-69833333D01*
X188190476Y-70404761D02*
X188095238Y-70452380D01*
X187857142Y-70452380D01*
X187761904Y-70404761D01*
X187714285Y-70309523D01*
X187714285Y-70214285D01*
X187761904Y-70119047D01*
X187857142Y-70071428D01*
X188095238Y-70071428D01*
X188190476Y-70023809D01*
X188666666Y-70452380D02*
X188666666Y-69785714D01*
X188666666Y-69452380D02*
X188619047Y-69500000D01*
X188666666Y-69547619D01*
X188714285Y-69500000D01*
X188666666Y-69452380D01*
X188666666Y-69547619D01*
X189142857Y-69785714D02*
X189142857Y-70452380D01*
X189142857Y-69880952D02*
X189190476Y-69833333D01*
X189285714Y-69785714D01*
X189428571Y-69785714D01*
X189523809Y-69833333D01*
X189571428Y-69928571D01*
X189571428Y-70452380D01*
X190523809Y-69452380D02*
X190047619Y-69452380D01*
X190000000Y-69928571D01*
X190047619Y-69880952D01*
X190142857Y-69833333D01*
X190380952Y-69833333D01*
X190476190Y-69880952D01*
X190523809Y-69928571D01*
X190571428Y-70023809D01*
X190571428Y-70261904D01*
X190523809Y-70357142D01*
X190476190Y-70404761D01*
X190380952Y-70452380D01*
X190142857Y-70452380D01*
X190047619Y-70404761D01*
X190000000Y-70357142D01*
X190857142Y-69452380D02*
X191190476Y-70452380D01*
X191523809Y-69452380D01*
X174166666Y-57452380D02*
X174166666Y-58166666D01*
X174119047Y-58309523D01*
X174023809Y-58404761D01*
X173880952Y-58452380D01*
X173785714Y-58452380D01*
X174642857Y-58452380D02*
X174642857Y-57452380D01*
X175023809Y-57452380D01*
X175119047Y-57500000D01*
X175166666Y-57547619D01*
X175214285Y-57642857D01*
X175214285Y-57785714D01*
X175166666Y-57880952D01*
X175119047Y-57928571D01*
X175023809Y-57976190D01*
X174642857Y-57976190D01*
X176166666Y-58452380D02*
X175595238Y-58452380D01*
X175880952Y-58452380D02*
X175880952Y-57452380D01*
X175785714Y-57595238D01*
X175690476Y-57690476D01*
X175595238Y-57738095D01*
X143023333Y-141372380D02*
X142690000Y-140896190D01*
X142451904Y-141372380D02*
X142451904Y-140372380D01*
X142832857Y-140372380D01*
X142928095Y-140420000D01*
X142975714Y-140467619D01*
X143023333Y-140562857D01*
X143023333Y-140705714D01*
X142975714Y-140800952D01*
X142928095Y-140848571D01*
X142832857Y-140896190D01*
X142451904Y-140896190D01*
X143880476Y-140705714D02*
X143880476Y-141372380D01*
X143642380Y-140324761D02*
X143404285Y-141039047D01*
X144023333Y-141039047D01*
X143023333Y-137372380D02*
X142690000Y-136896190D01*
X142451904Y-137372380D02*
X142451904Y-136372380D01*
X142832857Y-136372380D01*
X142928095Y-136420000D01*
X142975714Y-136467619D01*
X143023333Y-136562857D01*
X143023333Y-136705714D01*
X142975714Y-136800952D01*
X142928095Y-136848571D01*
X142832857Y-136896190D01*
X142451904Y-136896190D01*
X143404285Y-136467619D02*
X143451904Y-136420000D01*
X143547142Y-136372380D01*
X143785238Y-136372380D01*
X143880476Y-136420000D01*
X143928095Y-136467619D01*
X143975714Y-136562857D01*
X143975714Y-136658095D01*
X143928095Y-136800952D01*
X143356666Y-137372380D01*
X143975714Y-137372380D01*
X155023333Y-137372380D02*
X154690000Y-136896190D01*
X154451904Y-137372380D02*
X154451904Y-136372380D01*
X154832857Y-136372380D01*
X154928095Y-136420000D01*
X154975714Y-136467619D01*
X155023333Y-136562857D01*
X155023333Y-136705714D01*
X154975714Y-136800952D01*
X154928095Y-136848571D01*
X154832857Y-136896190D01*
X154451904Y-136896190D01*
X155975714Y-137372380D02*
X155404285Y-137372380D01*
X155690000Y-137372380D02*
X155690000Y-136372380D01*
X155594761Y-136515238D01*
X155499523Y-136610476D01*
X155404285Y-136658095D01*
X182928571Y-123976190D02*
X182976190Y-123833333D01*
X183023809Y-123785714D01*
X183119047Y-123738095D01*
X183261904Y-123738095D01*
X183357142Y-123785714D01*
X183404761Y-123833333D01*
X183452380Y-123928571D01*
X183452380Y-124309523D01*
X182452380Y-124309523D01*
X182452380Y-123976190D01*
X182500000Y-123880952D01*
X182547619Y-123833333D01*
X182642857Y-123785714D01*
X182738095Y-123785714D01*
X182833333Y-123833333D01*
X182880952Y-123880952D01*
X182928571Y-123976190D01*
X182928571Y-124309523D01*
X183452380Y-122880952D02*
X182928571Y-122880952D01*
X182833333Y-122928571D01*
X182785714Y-123023809D01*
X182785714Y-123214285D01*
X182833333Y-123309523D01*
X183404761Y-122880952D02*
X183452380Y-122976190D01*
X183452380Y-123214285D01*
X183404761Y-123309523D01*
X183309523Y-123357142D01*
X183214285Y-123357142D01*
X183119047Y-123309523D01*
X183071428Y-123214285D01*
X183071428Y-122976190D01*
X183023809Y-122880952D01*
X182785714Y-122547619D02*
X182785714Y-122166666D01*
X182452380Y-122404761D02*
X183309523Y-122404761D01*
X183404761Y-122357142D01*
X183452380Y-122261904D01*
X183452380Y-122166666D01*
X182785714Y-121976190D02*
X182785714Y-121595238D01*
X182452380Y-121833333D02*
X183309523Y-121833333D01*
X183404761Y-121785714D01*
X183452380Y-121690476D01*
X183452380Y-121595238D01*
X183404761Y-120880952D02*
X183452380Y-120976190D01*
X183452380Y-121166666D01*
X183404761Y-121261904D01*
X183309523Y-121309523D01*
X182928571Y-121309523D01*
X182833333Y-121261904D01*
X182785714Y-121166666D01*
X182785714Y-120976190D01*
X182833333Y-120880952D01*
X182928571Y-120833333D01*
X183023809Y-120833333D01*
X183119047Y-121309523D01*
X183452380Y-120404761D02*
X182785714Y-120404761D01*
X182976190Y-120404761D02*
X182880952Y-120357142D01*
X182833333Y-120309523D01*
X182785714Y-120214285D01*
X182785714Y-120119047D01*
X182785714Y-119880952D02*
X183452380Y-119642857D01*
X182785714Y-119404761D02*
X183452380Y-119642857D01*
X183690476Y-119738095D01*
X183738095Y-119785714D01*
X183785714Y-119880952D01*
X182452380Y-119166666D02*
X183452380Y-118833333D01*
X182452380Y-118500000D01*
X183357142Y-117595238D02*
X183404761Y-117642857D01*
X183452380Y-117785714D01*
X183452380Y-117880952D01*
X183404761Y-118023809D01*
X183309523Y-118119047D01*
X183214285Y-118166666D01*
X183023809Y-118214285D01*
X182880952Y-118214285D01*
X182690476Y-118166666D01*
X182595238Y-118119047D01*
X182500000Y-118023809D01*
X182452380Y-117880952D01*
X182452380Y-117785714D01*
X182500000Y-117642857D01*
X182547619Y-117595238D01*
X183357142Y-116595238D02*
X183404761Y-116642857D01*
X183452380Y-116785714D01*
X183452380Y-116880952D01*
X183404761Y-117023809D01*
X183309523Y-117119047D01*
X183214285Y-117166666D01*
X183023809Y-117214285D01*
X182880952Y-117214285D01*
X182690476Y-117166666D01*
X182595238Y-117119047D01*
X182500000Y-117023809D01*
X182452380Y-116880952D01*
X182452380Y-116785714D01*
X182500000Y-116642857D01*
X182547619Y-116595238D01*
X183452380Y-115642857D02*
X183452380Y-116214285D01*
X183452380Y-115928571D02*
X182452380Y-115928571D01*
X182595238Y-116023809D01*
X182690476Y-116119047D01*
X182738095Y-116214285D01*
X133190476Y-73452380D02*
X133190476Y-74166666D01*
X133142857Y-74309523D01*
X133047619Y-74404761D01*
X132904761Y-74452380D01*
X132809523Y-74452380D01*
X134190476Y-74452380D02*
X133619047Y-74452380D01*
X133904761Y-74452380D02*
X133904761Y-73452380D01*
X133809523Y-73595238D01*
X133714285Y-73690476D01*
X133619047Y-73738095D01*
X134571428Y-73547619D02*
X134619047Y-73500000D01*
X134714285Y-73452380D01*
X134952380Y-73452380D01*
X135047619Y-73500000D01*
X135095238Y-73547619D01*
X135142857Y-73642857D01*
X135142857Y-73738095D01*
X135095238Y-73880952D01*
X134523809Y-74452380D01*
X135142857Y-74452380D01*
X151190476Y-73452380D02*
X151190476Y-74166666D01*
X151142857Y-74309523D01*
X151047619Y-74404761D01*
X150904761Y-74452380D01*
X150809523Y-74452380D01*
X152190476Y-74452380D02*
X151619047Y-74452380D01*
X151904761Y-74452380D02*
X151904761Y-73452380D01*
X151809523Y-73595238D01*
X151714285Y-73690476D01*
X151619047Y-73738095D01*
X153142857Y-74452380D02*
X152571428Y-74452380D01*
X152857142Y-74452380D02*
X152857142Y-73452380D01*
X152761904Y-73595238D01*
X152666666Y-73690476D01*
X152571428Y-73738095D01*
X109392857Y-111902380D02*
X108916666Y-111902380D01*
X108916666Y-110902380D01*
X109726190Y-111902380D02*
X109726190Y-111235714D01*
X109726190Y-110902380D02*
X109678571Y-110950000D01*
X109726190Y-110997619D01*
X109773809Y-110950000D01*
X109726190Y-110902380D01*
X109726190Y-110997619D01*
X110630952Y-111235714D02*
X110630952Y-112045238D01*
X110583333Y-112140476D01*
X110535714Y-112188095D01*
X110440476Y-112235714D01*
X110297619Y-112235714D01*
X110202380Y-112188095D01*
X110630952Y-111854761D02*
X110535714Y-111902380D01*
X110345238Y-111902380D01*
X110250000Y-111854761D01*
X110202380Y-111807142D01*
X110154761Y-111711904D01*
X110154761Y-111426190D01*
X110202380Y-111330952D01*
X110250000Y-111283333D01*
X110345238Y-111235714D01*
X110535714Y-111235714D01*
X110630952Y-111283333D01*
X111107142Y-111902380D02*
X111107142Y-110902380D01*
X111535714Y-111902380D02*
X111535714Y-111378571D01*
X111488095Y-111283333D01*
X111392857Y-111235714D01*
X111250000Y-111235714D01*
X111154761Y-111283333D01*
X111107142Y-111330952D01*
X111869047Y-111235714D02*
X112250000Y-111235714D01*
X112011904Y-110902380D02*
X112011904Y-111759523D01*
X112059523Y-111854761D01*
X112154761Y-111902380D01*
X112250000Y-111902380D01*
X113059523Y-111902380D02*
X112583333Y-111902380D01*
X112583333Y-110902380D01*
X113535714Y-111902380D02*
X113440476Y-111854761D01*
X113392857Y-111807142D01*
X113345238Y-111711904D01*
X113345238Y-111426190D01*
X113392857Y-111330952D01*
X113440476Y-111283333D01*
X113535714Y-111235714D01*
X113678571Y-111235714D01*
X113773809Y-111283333D01*
X113821428Y-111330952D01*
X113869047Y-111426190D01*
X113869047Y-111711904D01*
X113821428Y-111807142D01*
X113773809Y-111854761D01*
X113678571Y-111902380D01*
X113535714Y-111902380D01*
X114726190Y-111902380D02*
X114726190Y-111378571D01*
X114678571Y-111283333D01*
X114583333Y-111235714D01*
X114392857Y-111235714D01*
X114297619Y-111283333D01*
X114726190Y-111854761D02*
X114630952Y-111902380D01*
X114392857Y-111902380D01*
X114297619Y-111854761D01*
X114250000Y-111759523D01*
X114250000Y-111664285D01*
X114297619Y-111569047D01*
X114392857Y-111521428D01*
X114630952Y-111521428D01*
X114726190Y-111473809D01*
X115630952Y-111902380D02*
X115630952Y-110902380D01*
X115630952Y-111854761D02*
X115535714Y-111902380D01*
X115345238Y-111902380D01*
X115250000Y-111854761D01*
X115202380Y-111807142D01*
X115154761Y-111711904D01*
X115154761Y-111426190D01*
X115202380Y-111330952D01*
X115250000Y-111283333D01*
X115345238Y-111235714D01*
X115535714Y-111235714D01*
X115630952Y-111283333D01*
X116630952Y-111902380D02*
X116059523Y-111902380D01*
X116345238Y-111902380D02*
X116345238Y-110902380D01*
X116250000Y-111045238D01*
X116154761Y-111140476D01*
X116059523Y-111188095D01*
X111250000Y-101902380D02*
X110773809Y-101902380D01*
X110773809Y-100902380D01*
X111583333Y-101902380D02*
X111583333Y-101235714D01*
X111583333Y-100902380D02*
X111535714Y-100950000D01*
X111583333Y-100997619D01*
X111630952Y-100950000D01*
X111583333Y-100902380D01*
X111583333Y-100997619D01*
X112488095Y-101235714D02*
X112488095Y-102045238D01*
X112440476Y-102140476D01*
X112392857Y-102188095D01*
X112297619Y-102235714D01*
X112154761Y-102235714D01*
X112059523Y-102188095D01*
X112488095Y-101854761D02*
X112392857Y-101902380D01*
X112202380Y-101902380D01*
X112107142Y-101854761D01*
X112059523Y-101807142D01*
X112011904Y-101711904D01*
X112011904Y-101426190D01*
X112059523Y-101330952D01*
X112107142Y-101283333D01*
X112202380Y-101235714D01*
X112392857Y-101235714D01*
X112488095Y-101283333D01*
X112964285Y-101902380D02*
X112964285Y-100902380D01*
X113392857Y-101902380D02*
X113392857Y-101378571D01*
X113345238Y-101283333D01*
X113250000Y-101235714D01*
X113107142Y-101235714D01*
X113011904Y-101283333D01*
X112964285Y-101330952D01*
X113726190Y-101235714D02*
X114107142Y-101235714D01*
X113869047Y-100902380D02*
X113869047Y-101759523D01*
X113916666Y-101854761D01*
X114011904Y-101902380D01*
X114107142Y-101902380D01*
X114392857Y-101854761D02*
X114535714Y-101902380D01*
X114773809Y-101902380D01*
X114869047Y-101854761D01*
X114916666Y-101807142D01*
X114964285Y-101711904D01*
X114964285Y-101616666D01*
X114916666Y-101521428D01*
X114869047Y-101473809D01*
X114773809Y-101426190D01*
X114583333Y-101378571D01*
X114488095Y-101330952D01*
X114440476Y-101283333D01*
X114392857Y-101188095D01*
X114392857Y-101092857D01*
X114440476Y-100997619D01*
X114488095Y-100950000D01*
X114583333Y-100902380D01*
X114821428Y-100902380D01*
X114964285Y-100950000D01*
X115297619Y-101235714D02*
X115488095Y-101902380D01*
X115678571Y-101426190D01*
X115869047Y-101902380D01*
X116059523Y-101235714D01*
X116440476Y-101902380D02*
X116440476Y-101235714D01*
X116440476Y-100902380D02*
X116392857Y-100950000D01*
X116440476Y-100997619D01*
X116488095Y-100950000D01*
X116440476Y-100902380D01*
X116440476Y-100997619D01*
X116773809Y-101235714D02*
X117154761Y-101235714D01*
X116916666Y-100902380D02*
X116916666Y-101759523D01*
X116964285Y-101854761D01*
X117059523Y-101902380D01*
X117154761Y-101902380D01*
X117916666Y-101854761D02*
X117821428Y-101902380D01*
X117630952Y-101902380D01*
X117535714Y-101854761D01*
X117488095Y-101807142D01*
X117440476Y-101711904D01*
X117440476Y-101426190D01*
X117488095Y-101330952D01*
X117535714Y-101283333D01*
X117630952Y-101235714D01*
X117821428Y-101235714D01*
X117916666Y-101283333D01*
X118345238Y-101902380D02*
X118345238Y-100902380D01*
X118773809Y-101902380D02*
X118773809Y-101378571D01*
X118726190Y-101283333D01*
X118630952Y-101235714D01*
X118488095Y-101235714D01*
X118392857Y-101283333D01*
X118345238Y-101330952D01*
X119773809Y-101902380D02*
X119202380Y-101902380D01*
X119488095Y-101902380D02*
X119488095Y-100902380D01*
X119392857Y-101045238D01*
X119297619Y-101140476D01*
X119202380Y-101188095D01*
X185452380Y-142928571D02*
X185595238Y-142976190D01*
X185642857Y-143023809D01*
X185690476Y-143119047D01*
X185690476Y-143261904D01*
X185642857Y-143357142D01*
X185595238Y-143404761D01*
X185500000Y-143452380D01*
X185119047Y-143452380D01*
X185119047Y-142452380D01*
X185452380Y-142452380D01*
X185547619Y-142500000D01*
X185595238Y-142547619D01*
X185642857Y-142642857D01*
X185642857Y-142738095D01*
X185595238Y-142833333D01*
X185547619Y-142880952D01*
X185452380Y-142928571D01*
X185119047Y-142928571D01*
X186547619Y-143452380D02*
X186547619Y-142928571D01*
X186500000Y-142833333D01*
X186404761Y-142785714D01*
X186214285Y-142785714D01*
X186119047Y-142833333D01*
X186547619Y-143404761D02*
X186452380Y-143452380D01*
X186214285Y-143452380D01*
X186119047Y-143404761D01*
X186071428Y-143309523D01*
X186071428Y-143214285D01*
X186119047Y-143119047D01*
X186214285Y-143071428D01*
X186452380Y-143071428D01*
X186547619Y-143023809D01*
X186880952Y-142785714D02*
X187261904Y-142785714D01*
X187023809Y-142452380D02*
X187023809Y-143309523D01*
X187071428Y-143404761D01*
X187166666Y-143452380D01*
X187261904Y-143452380D01*
X187452380Y-142785714D02*
X187833333Y-142785714D01*
X187595238Y-142452380D02*
X187595238Y-143309523D01*
X187642857Y-143404761D01*
X187738095Y-143452380D01*
X187833333Y-143452380D01*
X188547619Y-143404761D02*
X188452380Y-143452380D01*
X188261904Y-143452380D01*
X188166666Y-143404761D01*
X188119047Y-143309523D01*
X188119047Y-142928571D01*
X188166666Y-142833333D01*
X188261904Y-142785714D01*
X188452380Y-142785714D01*
X188547619Y-142833333D01*
X188595238Y-142928571D01*
X188595238Y-143023809D01*
X188119047Y-143119047D01*
X189023809Y-143452380D02*
X189023809Y-142785714D01*
X189023809Y-142976190D02*
X189071428Y-142880952D01*
X189119047Y-142833333D01*
X189214285Y-142785714D01*
X189309523Y-142785714D01*
X189547619Y-142785714D02*
X189785714Y-143452380D01*
X190023809Y-142785714D02*
X189785714Y-143452380D01*
X189690476Y-143690476D01*
X189642857Y-143738095D01*
X189547619Y-143785714D01*
X190928571Y-143452380D02*
X190357142Y-143452380D01*
X190642857Y-143452380D02*
X190642857Y-142452380D01*
X190547619Y-142595238D01*
X190452380Y-142690476D01*
X190357142Y-142738095D01*
X166452380Y-102952380D02*
X165976190Y-103285714D01*
X166452380Y-103523809D02*
X165452380Y-103523809D01*
X165452380Y-103142857D01*
X165500000Y-103047619D01*
X165547619Y-103000000D01*
X165642857Y-102952380D01*
X165785714Y-102952380D01*
X165880952Y-103000000D01*
X165928571Y-103047619D01*
X165976190Y-103142857D01*
X165976190Y-103523809D01*
X166404761Y-102142857D02*
X166452380Y-102238095D01*
X166452380Y-102428571D01*
X166404761Y-102523809D01*
X166309523Y-102571428D01*
X165928571Y-102571428D01*
X165833333Y-102523809D01*
X165785714Y-102428571D01*
X165785714Y-102238095D01*
X165833333Y-102142857D01*
X165928571Y-102095238D01*
X166023809Y-102095238D01*
X166119047Y-102571428D01*
X166452380Y-101523809D02*
X166404761Y-101619047D01*
X166309523Y-101666666D01*
X165452380Y-101666666D01*
X166452380Y-100714285D02*
X165928571Y-100714285D01*
X165833333Y-100761904D01*
X165785714Y-100857142D01*
X165785714Y-101047619D01*
X165833333Y-101142857D01*
X166404761Y-100714285D02*
X166452380Y-100809523D01*
X166452380Y-101047619D01*
X166404761Y-101142857D01*
X166309523Y-101190476D01*
X166214285Y-101190476D01*
X166119047Y-101142857D01*
X166071428Y-101047619D01*
X166071428Y-100809523D01*
X166023809Y-100714285D01*
X166452380Y-100238095D02*
X165785714Y-100238095D01*
X165452380Y-100238095D02*
X165500000Y-100285714D01*
X165547619Y-100238095D01*
X165500000Y-100190476D01*
X165452380Y-100238095D01*
X165547619Y-100238095D01*
X166404761Y-99809523D02*
X166452380Y-99714285D01*
X166452380Y-99523809D01*
X166404761Y-99428571D01*
X166309523Y-99380952D01*
X166261904Y-99380952D01*
X166166666Y-99428571D01*
X166119047Y-99523809D01*
X166119047Y-99666666D01*
X166071428Y-99761904D01*
X165976190Y-99809523D01*
X165928571Y-99809523D01*
X165833333Y-99761904D01*
X165785714Y-99666666D01*
X165785714Y-99523809D01*
X165833333Y-99428571D01*
X166452380Y-98428571D02*
X166452380Y-99000000D01*
X166452380Y-98714285D02*
X165452380Y-98714285D01*
X165595238Y-98809523D01*
X165690476Y-98904761D01*
X165738095Y-99000000D01*
X178047619Y-112452380D02*
X178047619Y-111452380D01*
X178285714Y-111452380D01*
X178428571Y-111500000D01*
X178523809Y-111595238D01*
X178571428Y-111690476D01*
X178619047Y-111880952D01*
X178619047Y-112023809D01*
X178571428Y-112214285D01*
X178523809Y-112309523D01*
X178428571Y-112404761D01*
X178285714Y-112452380D01*
X178047619Y-112452380D01*
X179190476Y-112452380D02*
X179095238Y-112404761D01*
X179047619Y-112357142D01*
X179000000Y-112261904D01*
X179000000Y-111976190D01*
X179047619Y-111880952D01*
X179095238Y-111833333D01*
X179190476Y-111785714D01*
X179333333Y-111785714D01*
X179428571Y-111833333D01*
X179476190Y-111880952D01*
X179523809Y-111976190D01*
X179523809Y-112261904D01*
X179476190Y-112357142D01*
X179428571Y-112404761D01*
X179333333Y-112452380D01*
X179190476Y-112452380D01*
X180095238Y-112452380D02*
X180000000Y-112404761D01*
X179952380Y-112357142D01*
X179904761Y-112261904D01*
X179904761Y-111976190D01*
X179952380Y-111880952D01*
X180000000Y-111833333D01*
X180095238Y-111785714D01*
X180238095Y-111785714D01*
X180333333Y-111833333D01*
X180380952Y-111880952D01*
X180428571Y-111976190D01*
X180428571Y-112261904D01*
X180380952Y-112357142D01*
X180333333Y-112404761D01*
X180238095Y-112452380D01*
X180095238Y-112452380D01*
X180857142Y-112452380D02*
X180857142Y-111785714D01*
X180857142Y-111976190D02*
X180904761Y-111880952D01*
X180952380Y-111833333D01*
X181047619Y-111785714D01*
X181142857Y-111785714D01*
X182000000Y-112452380D02*
X181428571Y-112452380D01*
X181714285Y-112452380D02*
X181714285Y-111452380D01*
X181619047Y-111595238D01*
X181523809Y-111690476D01*
X181428571Y-111738095D01*
X107988095Y-120902380D02*
X107988095Y-119902380D01*
X108321428Y-120616666D01*
X108654761Y-119902380D01*
X108654761Y-120902380D01*
X109273809Y-120902380D02*
X109178571Y-120854761D01*
X109130952Y-120807142D01*
X109083333Y-120711904D01*
X109083333Y-120426190D01*
X109130952Y-120330952D01*
X109178571Y-120283333D01*
X109273809Y-120235714D01*
X109416666Y-120235714D01*
X109511904Y-120283333D01*
X109559523Y-120330952D01*
X109607142Y-120426190D01*
X109607142Y-120711904D01*
X109559523Y-120807142D01*
X109511904Y-120854761D01*
X109416666Y-120902380D01*
X109273809Y-120902380D01*
X109892857Y-120235714D02*
X110273809Y-120235714D01*
X110035714Y-119902380D02*
X110035714Y-120759523D01*
X110083333Y-120854761D01*
X110178571Y-120902380D01*
X110273809Y-120902380D01*
X111130952Y-120902380D02*
X110559523Y-120902380D01*
X110845238Y-120902380D02*
X110845238Y-119902380D01*
X110750000Y-120045238D01*
X110654761Y-120140476D01*
X110559523Y-120188095D01*
X112130952Y-120807142D02*
X112083333Y-120854761D01*
X111940476Y-120902380D01*
X111845238Y-120902380D01*
X111702380Y-120854761D01*
X111607142Y-120759523D01*
X111559523Y-120664285D01*
X111511904Y-120473809D01*
X111511904Y-120330952D01*
X111559523Y-120140476D01*
X111607142Y-120045238D01*
X111702380Y-119950000D01*
X111845238Y-119902380D01*
X111940476Y-119902380D01*
X112083333Y-119950000D01*
X112130952Y-119997619D01*
X112988095Y-120235714D02*
X112988095Y-120902380D01*
X112559523Y-120235714D02*
X112559523Y-120759523D01*
X112607142Y-120854761D01*
X112702380Y-120902380D01*
X112845238Y-120902380D01*
X112940476Y-120854761D01*
X112988095Y-120807142D01*
X113464285Y-120902380D02*
X113464285Y-120235714D01*
X113464285Y-120426190D02*
X113511904Y-120330952D01*
X113559523Y-120283333D01*
X113654761Y-120235714D01*
X113750000Y-120235714D01*
X114083333Y-120902380D02*
X114083333Y-120235714D01*
X114083333Y-120426190D02*
X114130952Y-120330952D01*
X114178571Y-120283333D01*
X114273809Y-120235714D01*
X114369047Y-120235714D01*
X115083333Y-120854761D02*
X114988095Y-120902380D01*
X114797619Y-120902380D01*
X114702380Y-120854761D01*
X114654761Y-120759523D01*
X114654761Y-120378571D01*
X114702380Y-120283333D01*
X114797619Y-120235714D01*
X114988095Y-120235714D01*
X115083333Y-120283333D01*
X115130952Y-120378571D01*
X115130952Y-120473809D01*
X114654761Y-120569047D01*
X115559523Y-120235714D02*
X115559523Y-120902380D01*
X115559523Y-120330952D02*
X115607142Y-120283333D01*
X115702380Y-120235714D01*
X115845238Y-120235714D01*
X115940476Y-120283333D01*
X115988095Y-120378571D01*
X115988095Y-120902380D01*
X116321428Y-120235714D02*
X116702380Y-120235714D01*
X116464285Y-119902380D02*
X116464285Y-120759523D01*
X116511904Y-120854761D01*
X116607142Y-120902380D01*
X116702380Y-120902380D01*
X117559523Y-120902380D02*
X116988095Y-120902380D01*
X117273809Y-120902380D02*
X117273809Y-119902380D01*
X117178571Y-120045238D01*
X117083333Y-120140476D01*
X116988095Y-120188095D01*
X142547619Y-74452380D02*
X142547619Y-73452380D01*
X142976190Y-73547619D02*
X143023809Y-73500000D01*
X143119047Y-73452380D01*
X143357142Y-73452380D01*
X143452380Y-73500000D01*
X143500000Y-73547619D01*
X143547619Y-73642857D01*
X143547619Y-73738095D01*
X143500000Y-73880952D01*
X142928571Y-74452380D01*
X143547619Y-74452380D01*
X144547619Y-74357142D02*
X144500000Y-74404761D01*
X144357142Y-74452380D01*
X144261904Y-74452380D01*
X144119047Y-74404761D01*
X144023809Y-74309523D01*
X143976190Y-74214285D01*
X143928571Y-74023809D01*
X143928571Y-73880952D01*
X143976190Y-73690476D01*
X144023809Y-73595238D01*
X144119047Y-73500000D01*
X144261904Y-73452380D01*
X144357142Y-73452380D01*
X144500000Y-73500000D01*
X144547619Y-73547619D01*
X145500000Y-74452380D02*
X144928571Y-74452380D01*
X145214285Y-74452380D02*
X145214285Y-73452380D01*
X145119047Y-73595238D01*
X145023809Y-73690476D01*
X144928571Y-73738095D01*
%LPC*%
D12*
X131300000Y-84540000D03*
X131300000Y-87080000D03*
X131300000Y-89620000D03*
X131300000Y-92160000D03*
X131300000Y-94700000D03*
X131300000Y-97240000D03*
X131300000Y-99780000D03*
X131300000Y-102320000D03*
X131300000Y-104860000D03*
X131300000Y-107400000D03*
X131300000Y-109940000D03*
X131300000Y-112480000D03*
X131300000Y-115020000D03*
X131300000Y-117560000D03*
X131300000Y-120100000D03*
X156700000Y-120100000D03*
X156700000Y-117560000D03*
X156700000Y-115020000D03*
X156700000Y-112480000D03*
X156700000Y-109940000D03*
X156700000Y-107400000D03*
X156700000Y-104860000D03*
X156700000Y-102320000D03*
X156700000Y-99780000D03*
X156700000Y-97240000D03*
X156700000Y-94700000D03*
X156700000Y-92160000D03*
X156700000Y-89620000D03*
X156700000Y-87080000D03*
X156700000Y-84540000D03*
D13*
X160000000Y-70000000D03*
X160000000Y-67500000D03*
X160000000Y-65000000D03*
X160000000Y-62500000D03*
D14*
G36*
X160786975Y-59100276D02*
G01*
X160812699Y-59104092D01*
X160837925Y-59110411D01*
X160862411Y-59119172D01*
X160885920Y-59130291D01*
X160908226Y-59143661D01*
X160929114Y-59159152D01*
X160948383Y-59176617D01*
X160965848Y-59195886D01*
X160981339Y-59216774D01*
X160994709Y-59239080D01*
X161005828Y-59262589D01*
X161014589Y-59287075D01*
X161020908Y-59312301D01*
X161024724Y-59338025D01*
X161026000Y-59364000D01*
X161026000Y-60636000D01*
X161024724Y-60661975D01*
X161020908Y-60687699D01*
X161014589Y-60712925D01*
X161005828Y-60737411D01*
X160994709Y-60760920D01*
X160981339Y-60783226D01*
X160965848Y-60804114D01*
X160948383Y-60823383D01*
X160929114Y-60840848D01*
X160908226Y-60856339D01*
X160885920Y-60869709D01*
X160862411Y-60880828D01*
X160837925Y-60889589D01*
X160812699Y-60895908D01*
X160786975Y-60899724D01*
X160761000Y-60901000D01*
X159239000Y-60901000D01*
X159213025Y-60899724D01*
X159187301Y-60895908D01*
X159162075Y-60889589D01*
X159137589Y-60880828D01*
X159114080Y-60869709D01*
X159091774Y-60856339D01*
X159070886Y-60840848D01*
X159051617Y-60823383D01*
X159034152Y-60804114D01*
X159018661Y-60783226D01*
X159005291Y-60760920D01*
X158994172Y-60737411D01*
X158985411Y-60712925D01*
X158979092Y-60687699D01*
X158975276Y-60661975D01*
X158974000Y-60636000D01*
X158974000Y-59364000D01*
X158975276Y-59338025D01*
X158979092Y-59312301D01*
X158985411Y-59287075D01*
X158994172Y-59262589D01*
X159005291Y-59239080D01*
X159018661Y-59216774D01*
X159034152Y-59195886D01*
X159051617Y-59176617D01*
X159070886Y-59159152D01*
X159091774Y-59143661D01*
X159114080Y-59130291D01*
X159137589Y-59119172D01*
X159162075Y-59110411D01*
X159187301Y-59104092D01*
X159213025Y-59100276D01*
X159239000Y-59099000D01*
X160761000Y-59099000D01*
X160786975Y-59100276D01*
X160786975Y-59100276D01*
G37*
D15*
X160000000Y-60000000D03*
D16*
X175500000Y-121000000D03*
X173000000Y-121000000D03*
X170500000Y-121000000D03*
D14*
G36*
X168661975Y-119975276D02*
G01*
X168687699Y-119979092D01*
X168712925Y-119985411D01*
X168737411Y-119994172D01*
X168760920Y-120005291D01*
X168783226Y-120018661D01*
X168804114Y-120034152D01*
X168823383Y-120051617D01*
X168840848Y-120070886D01*
X168856339Y-120091774D01*
X168869709Y-120114080D01*
X168880828Y-120137589D01*
X168889589Y-120162075D01*
X168895908Y-120187301D01*
X168899724Y-120213025D01*
X168901000Y-120239000D01*
X168901000Y-121761000D01*
X168899724Y-121786975D01*
X168895908Y-121812699D01*
X168889589Y-121837925D01*
X168880828Y-121862411D01*
X168869709Y-121885920D01*
X168856339Y-121908226D01*
X168840848Y-121929114D01*
X168823383Y-121948383D01*
X168804114Y-121965848D01*
X168783226Y-121981339D01*
X168760920Y-121994709D01*
X168737411Y-122005828D01*
X168712925Y-122014589D01*
X168687699Y-122020908D01*
X168661975Y-122024724D01*
X168636000Y-122026000D01*
X167364000Y-122026000D01*
X167338025Y-122024724D01*
X167312301Y-122020908D01*
X167287075Y-122014589D01*
X167262589Y-122005828D01*
X167239080Y-121994709D01*
X167216774Y-121981339D01*
X167195886Y-121965848D01*
X167176617Y-121948383D01*
X167159152Y-121929114D01*
X167143661Y-121908226D01*
X167130291Y-121885920D01*
X167119172Y-121862411D01*
X167110411Y-121837925D01*
X167104092Y-121812699D01*
X167100276Y-121786975D01*
X167099000Y-121761000D01*
X167099000Y-120239000D01*
X167100276Y-120213025D01*
X167104092Y-120187301D01*
X167110411Y-120162075D01*
X167119172Y-120137589D01*
X167130291Y-120114080D01*
X167143661Y-120091774D01*
X167159152Y-120070886D01*
X167176617Y-120051617D01*
X167195886Y-120034152D01*
X167216774Y-120018661D01*
X167239080Y-120005291D01*
X167262589Y-119994172D01*
X167287075Y-119985411D01*
X167312301Y-119979092D01*
X167338025Y-119975276D01*
X167364000Y-119974000D01*
X168636000Y-119974000D01*
X168661975Y-119975276D01*
X168661975Y-119975276D01*
G37*
D15*
X168000000Y-121000000D03*
D16*
X106500000Y-96000000D03*
X109000000Y-96000000D03*
X111500000Y-96000000D03*
X114000000Y-96000000D03*
X116500000Y-96000000D03*
X119000000Y-96000000D03*
X121500000Y-96000000D03*
D14*
G36*
X124661975Y-94975276D02*
G01*
X124687699Y-94979092D01*
X124712925Y-94985411D01*
X124737411Y-94994172D01*
X124760920Y-95005291D01*
X124783226Y-95018661D01*
X124804114Y-95034152D01*
X124823383Y-95051617D01*
X124840848Y-95070886D01*
X124856339Y-95091774D01*
X124869709Y-95114080D01*
X124880828Y-95137589D01*
X124889589Y-95162075D01*
X124895908Y-95187301D01*
X124899724Y-95213025D01*
X124901000Y-95239000D01*
X124901000Y-96761000D01*
X124899724Y-96786975D01*
X124895908Y-96812699D01*
X124889589Y-96837925D01*
X124880828Y-96862411D01*
X124869709Y-96885920D01*
X124856339Y-96908226D01*
X124840848Y-96929114D01*
X124823383Y-96948383D01*
X124804114Y-96965848D01*
X124783226Y-96981339D01*
X124760920Y-96994709D01*
X124737411Y-97005828D01*
X124712925Y-97014589D01*
X124687699Y-97020908D01*
X124661975Y-97024724D01*
X124636000Y-97026000D01*
X123364000Y-97026000D01*
X123338025Y-97024724D01*
X123312301Y-97020908D01*
X123287075Y-97014589D01*
X123262589Y-97005828D01*
X123239080Y-96994709D01*
X123216774Y-96981339D01*
X123195886Y-96965848D01*
X123176617Y-96948383D01*
X123159152Y-96929114D01*
X123143661Y-96908226D01*
X123130291Y-96885920D01*
X123119172Y-96862411D01*
X123110411Y-96837925D01*
X123104092Y-96812699D01*
X123100276Y-96786975D01*
X123099000Y-96761000D01*
X123099000Y-95239000D01*
X123100276Y-95213025D01*
X123104092Y-95187301D01*
X123110411Y-95162075D01*
X123119172Y-95137589D01*
X123130291Y-95114080D01*
X123143661Y-95091774D01*
X123159152Y-95070886D01*
X123176617Y-95051617D01*
X123195886Y-95034152D01*
X123216774Y-95018661D01*
X123239080Y-95005291D01*
X123262589Y-94994172D01*
X123287075Y-94985411D01*
X123312301Y-94979092D01*
X123338025Y-94975276D01*
X123364000Y-94974000D01*
X124636000Y-94974000D01*
X124661975Y-94975276D01*
X124661975Y-94975276D01*
G37*
D15*
X124000000Y-96000000D03*
D13*
X120000000Y-63500000D03*
X120000000Y-66000000D03*
X120000000Y-68500000D03*
X120000000Y-71000000D03*
X120000000Y-73500000D03*
X120000000Y-76000000D03*
X120000000Y-78500000D03*
D14*
G36*
X120786975Y-80100276D02*
G01*
X120812699Y-80104092D01*
X120837925Y-80110411D01*
X120862411Y-80119172D01*
X120885920Y-80130291D01*
X120908226Y-80143661D01*
X120929114Y-80159152D01*
X120948383Y-80176617D01*
X120965848Y-80195886D01*
X120981339Y-80216774D01*
X120994709Y-80239080D01*
X121005828Y-80262589D01*
X121014589Y-80287075D01*
X121020908Y-80312301D01*
X121024724Y-80338025D01*
X121026000Y-80364000D01*
X121026000Y-81636000D01*
X121024724Y-81661975D01*
X121020908Y-81687699D01*
X121014589Y-81712925D01*
X121005828Y-81737411D01*
X120994709Y-81760920D01*
X120981339Y-81783226D01*
X120965848Y-81804114D01*
X120948383Y-81823383D01*
X120929114Y-81840848D01*
X120908226Y-81856339D01*
X120885920Y-81869709D01*
X120862411Y-81880828D01*
X120837925Y-81889589D01*
X120812699Y-81895908D01*
X120786975Y-81899724D01*
X120761000Y-81901000D01*
X119239000Y-81901000D01*
X119213025Y-81899724D01*
X119187301Y-81895908D01*
X119162075Y-81889589D01*
X119137589Y-81880828D01*
X119114080Y-81869709D01*
X119091774Y-81856339D01*
X119070886Y-81840848D01*
X119051617Y-81823383D01*
X119034152Y-81804114D01*
X119018661Y-81783226D01*
X119005291Y-81760920D01*
X118994172Y-81737411D01*
X118985411Y-81712925D01*
X118979092Y-81687699D01*
X118975276Y-81661975D01*
X118974000Y-81636000D01*
X118974000Y-80364000D01*
X118975276Y-80338025D01*
X118979092Y-80312301D01*
X118985411Y-80287075D01*
X118994172Y-80262589D01*
X119005291Y-80239080D01*
X119018661Y-80216774D01*
X119034152Y-80195886D01*
X119051617Y-80176617D01*
X119070886Y-80159152D01*
X119091774Y-80143661D01*
X119114080Y-80130291D01*
X119137589Y-80119172D01*
X119162075Y-80110411D01*
X119187301Y-80104092D01*
X119213025Y-80100276D01*
X119239000Y-80099000D01*
X120761000Y-80099000D01*
X120786975Y-80100276D01*
X120786975Y-80100276D01*
G37*
D15*
X120000000Y-81000000D03*
D17*
X151380000Y-139000000D03*
D18*
X159000000Y-139000000D03*
D19*
X172920000Y-65000000D03*
X175460000Y-65000000D03*
D20*
X178000000Y-65000000D03*
D13*
X189000000Y-61000000D03*
X189000000Y-63500000D03*
D14*
G36*
X189786975Y-65100276D02*
G01*
X189812699Y-65104092D01*
X189837925Y-65110411D01*
X189862411Y-65119172D01*
X189885920Y-65130291D01*
X189908226Y-65143661D01*
X189929114Y-65159152D01*
X189948383Y-65176617D01*
X189965848Y-65195886D01*
X189981339Y-65216774D01*
X189994709Y-65239080D01*
X190005828Y-65262589D01*
X190014589Y-65287075D01*
X190020908Y-65312301D01*
X190024724Y-65338025D01*
X190026000Y-65364000D01*
X190026000Y-66636000D01*
X190024724Y-66661975D01*
X190020908Y-66687699D01*
X190014589Y-66712925D01*
X190005828Y-66737411D01*
X189994709Y-66760920D01*
X189981339Y-66783226D01*
X189965848Y-66804114D01*
X189948383Y-66823383D01*
X189929114Y-66840848D01*
X189908226Y-66856339D01*
X189885920Y-66869709D01*
X189862411Y-66880828D01*
X189837925Y-66889589D01*
X189812699Y-66895908D01*
X189786975Y-66899724D01*
X189761000Y-66901000D01*
X188239000Y-66901000D01*
X188213025Y-66899724D01*
X188187301Y-66895908D01*
X188162075Y-66889589D01*
X188137589Y-66880828D01*
X188114080Y-66869709D01*
X188091774Y-66856339D01*
X188070886Y-66840848D01*
X188051617Y-66823383D01*
X188034152Y-66804114D01*
X188018661Y-66783226D01*
X188005291Y-66760920D01*
X187994172Y-66737411D01*
X187985411Y-66712925D01*
X187979092Y-66687699D01*
X187975276Y-66661975D01*
X187974000Y-66636000D01*
X187974000Y-65364000D01*
X187975276Y-65338025D01*
X187979092Y-65312301D01*
X187985411Y-65287075D01*
X187994172Y-65262589D01*
X188005291Y-65239080D01*
X188018661Y-65216774D01*
X188034152Y-65195886D01*
X188051617Y-65176617D01*
X188070886Y-65159152D01*
X188091774Y-65143661D01*
X188114080Y-65130291D01*
X188137589Y-65119172D01*
X188162075Y-65110411D01*
X188187301Y-65104092D01*
X188213025Y-65100276D01*
X188239000Y-65099000D01*
X189761000Y-65099000D01*
X189786975Y-65100276D01*
X189786975Y-65100276D01*
G37*
D15*
X189000000Y-66000000D03*
D19*
X175460000Y-61000000D03*
D20*
X178000000Y-61000000D03*
D17*
X139380000Y-139000000D03*
D18*
X147000000Y-139000000D03*
D17*
X139380000Y-135000000D03*
D18*
X147000000Y-135000000D03*
D17*
X151380000Y-135000000D03*
D18*
X159000000Y-135000000D03*
D21*
X189000000Y-75280000D03*
X189000000Y-80360000D03*
X189000000Y-85440000D03*
X189000000Y-90520000D03*
X189000000Y-95600000D03*
X189000000Y-100680000D03*
X189000000Y-105760000D03*
X189000000Y-110840000D03*
X189000000Y-115920000D03*
D22*
X189000000Y-121000000D03*
D13*
X134000000Y-70000000D03*
X134000000Y-67500000D03*
X134000000Y-65000000D03*
X134000000Y-62500000D03*
D14*
G36*
X134786975Y-59100276D02*
G01*
X134812699Y-59104092D01*
X134837925Y-59110411D01*
X134862411Y-59119172D01*
X134885920Y-59130291D01*
X134908226Y-59143661D01*
X134929114Y-59159152D01*
X134948383Y-59176617D01*
X134965848Y-59195886D01*
X134981339Y-59216774D01*
X134994709Y-59239080D01*
X135005828Y-59262589D01*
X135014589Y-59287075D01*
X135020908Y-59312301D01*
X135024724Y-59338025D01*
X135026000Y-59364000D01*
X135026000Y-60636000D01*
X135024724Y-60661975D01*
X135020908Y-60687699D01*
X135014589Y-60712925D01*
X135005828Y-60737411D01*
X134994709Y-60760920D01*
X134981339Y-60783226D01*
X134965848Y-60804114D01*
X134948383Y-60823383D01*
X134929114Y-60840848D01*
X134908226Y-60856339D01*
X134885920Y-60869709D01*
X134862411Y-60880828D01*
X134837925Y-60889589D01*
X134812699Y-60895908D01*
X134786975Y-60899724D01*
X134761000Y-60901000D01*
X133239000Y-60901000D01*
X133213025Y-60899724D01*
X133187301Y-60895908D01*
X133162075Y-60889589D01*
X133137589Y-60880828D01*
X133114080Y-60869709D01*
X133091774Y-60856339D01*
X133070886Y-60840848D01*
X133051617Y-60823383D01*
X133034152Y-60804114D01*
X133018661Y-60783226D01*
X133005291Y-60760920D01*
X132994172Y-60737411D01*
X132985411Y-60712925D01*
X132979092Y-60687699D01*
X132975276Y-60661975D01*
X132974000Y-60636000D01*
X132974000Y-59364000D01*
X132975276Y-59338025D01*
X132979092Y-59312301D01*
X132985411Y-59287075D01*
X132994172Y-59262589D01*
X133005291Y-59239080D01*
X133018661Y-59216774D01*
X133034152Y-59195886D01*
X133051617Y-59176617D01*
X133070886Y-59159152D01*
X133091774Y-59143661D01*
X133114080Y-59130291D01*
X133137589Y-59119172D01*
X133162075Y-59110411D01*
X133187301Y-59104092D01*
X133213025Y-59100276D01*
X133239000Y-59099000D01*
X134761000Y-59099000D01*
X134786975Y-59100276D01*
X134786975Y-59100276D01*
G37*
D15*
X134000000Y-60000000D03*
D13*
X151000000Y-70000000D03*
X151000000Y-67500000D03*
X151000000Y-65000000D03*
X151000000Y-62500000D03*
D14*
G36*
X151786975Y-59100276D02*
G01*
X151812699Y-59104092D01*
X151837925Y-59110411D01*
X151862411Y-59119172D01*
X151885920Y-59130291D01*
X151908226Y-59143661D01*
X151929114Y-59159152D01*
X151948383Y-59176617D01*
X151965848Y-59195886D01*
X151981339Y-59216774D01*
X151994709Y-59239080D01*
X152005828Y-59262589D01*
X152014589Y-59287075D01*
X152020908Y-59312301D01*
X152024724Y-59338025D01*
X152026000Y-59364000D01*
X152026000Y-60636000D01*
X152024724Y-60661975D01*
X152020908Y-60687699D01*
X152014589Y-60712925D01*
X152005828Y-60737411D01*
X151994709Y-60760920D01*
X151981339Y-60783226D01*
X151965848Y-60804114D01*
X151948383Y-60823383D01*
X151929114Y-60840848D01*
X151908226Y-60856339D01*
X151885920Y-60869709D01*
X151862411Y-60880828D01*
X151837925Y-60889589D01*
X151812699Y-60895908D01*
X151786975Y-60899724D01*
X151761000Y-60901000D01*
X150239000Y-60901000D01*
X150213025Y-60899724D01*
X150187301Y-60895908D01*
X150162075Y-60889589D01*
X150137589Y-60880828D01*
X150114080Y-60869709D01*
X150091774Y-60856339D01*
X150070886Y-60840848D01*
X150051617Y-60823383D01*
X150034152Y-60804114D01*
X150018661Y-60783226D01*
X150005291Y-60760920D01*
X149994172Y-60737411D01*
X149985411Y-60712925D01*
X149979092Y-60687699D01*
X149975276Y-60661975D01*
X149974000Y-60636000D01*
X149974000Y-59364000D01*
X149975276Y-59338025D01*
X149979092Y-59312301D01*
X149985411Y-59287075D01*
X149994172Y-59262589D01*
X150005291Y-59239080D01*
X150018661Y-59216774D01*
X150034152Y-59195886D01*
X150051617Y-59176617D01*
X150070886Y-59159152D01*
X150091774Y-59143661D01*
X150114080Y-59130291D01*
X150137589Y-59119172D01*
X150162075Y-59110411D01*
X150187301Y-59104092D01*
X150213025Y-59100276D01*
X150239000Y-59099000D01*
X151761000Y-59099000D01*
X151786975Y-59100276D01*
X151786975Y-59100276D01*
G37*
D15*
X151000000Y-60000000D03*
D16*
X116500000Y-115000000D03*
X114000000Y-115000000D03*
X111500000Y-115000000D03*
D14*
G36*
X109661975Y-113975276D02*
G01*
X109687699Y-113979092D01*
X109712925Y-113985411D01*
X109737411Y-113994172D01*
X109760920Y-114005291D01*
X109783226Y-114018661D01*
X109804114Y-114034152D01*
X109823383Y-114051617D01*
X109840848Y-114070886D01*
X109856339Y-114091774D01*
X109869709Y-114114080D01*
X109880828Y-114137589D01*
X109889589Y-114162075D01*
X109895908Y-114187301D01*
X109899724Y-114213025D01*
X109901000Y-114239000D01*
X109901000Y-115761000D01*
X109899724Y-115786975D01*
X109895908Y-115812699D01*
X109889589Y-115837925D01*
X109880828Y-115862411D01*
X109869709Y-115885920D01*
X109856339Y-115908226D01*
X109840848Y-115929114D01*
X109823383Y-115948383D01*
X109804114Y-115965848D01*
X109783226Y-115981339D01*
X109760920Y-115994709D01*
X109737411Y-116005828D01*
X109712925Y-116014589D01*
X109687699Y-116020908D01*
X109661975Y-116024724D01*
X109636000Y-116026000D01*
X108364000Y-116026000D01*
X108338025Y-116024724D01*
X108312301Y-116020908D01*
X108287075Y-116014589D01*
X108262589Y-116005828D01*
X108239080Y-115994709D01*
X108216774Y-115981339D01*
X108195886Y-115965848D01*
X108176617Y-115948383D01*
X108159152Y-115929114D01*
X108143661Y-115908226D01*
X108130291Y-115885920D01*
X108119172Y-115862411D01*
X108110411Y-115837925D01*
X108104092Y-115812699D01*
X108100276Y-115786975D01*
X108099000Y-115761000D01*
X108099000Y-114239000D01*
X108100276Y-114213025D01*
X108104092Y-114187301D01*
X108110411Y-114162075D01*
X108119172Y-114137589D01*
X108130291Y-114114080D01*
X108143661Y-114091774D01*
X108159152Y-114070886D01*
X108176617Y-114051617D01*
X108195886Y-114034152D01*
X108216774Y-114018661D01*
X108239080Y-114005291D01*
X108262589Y-113994172D01*
X108287075Y-113985411D01*
X108312301Y-113979092D01*
X108338025Y-113975276D01*
X108364000Y-113974000D01*
X109636000Y-113974000D01*
X109661975Y-113975276D01*
X109661975Y-113975276D01*
G37*
D15*
X109000000Y-115000000D03*
D23*
X116500000Y-105000000D03*
D14*
G36*
X114661975Y-103950276D02*
G01*
X114687699Y-103954092D01*
X114712925Y-103960411D01*
X114737411Y-103969172D01*
X114760920Y-103980291D01*
X114783226Y-103993661D01*
X114804114Y-104009152D01*
X114823383Y-104026617D01*
X114840848Y-104045886D01*
X114856339Y-104066774D01*
X114869709Y-104089080D01*
X114880828Y-104112589D01*
X114889589Y-104137075D01*
X114895908Y-104162301D01*
X114899724Y-104188025D01*
X114901000Y-104214000D01*
X114901000Y-105786000D01*
X114899724Y-105811975D01*
X114895908Y-105837699D01*
X114889589Y-105862925D01*
X114880828Y-105887411D01*
X114869709Y-105910920D01*
X114856339Y-105933226D01*
X114840848Y-105954114D01*
X114823383Y-105973383D01*
X114804114Y-105990848D01*
X114783226Y-106006339D01*
X114760920Y-106019709D01*
X114737411Y-106030828D01*
X114712925Y-106039589D01*
X114687699Y-106045908D01*
X114661975Y-106049724D01*
X114636000Y-106051000D01*
X113364000Y-106051000D01*
X113338025Y-106049724D01*
X113312301Y-106045908D01*
X113287075Y-106039589D01*
X113262589Y-106030828D01*
X113239080Y-106019709D01*
X113216774Y-106006339D01*
X113195886Y-105990848D01*
X113176617Y-105973383D01*
X113159152Y-105954114D01*
X113143661Y-105933226D01*
X113130291Y-105910920D01*
X113119172Y-105887411D01*
X113110411Y-105862925D01*
X113104092Y-105837699D01*
X113100276Y-105811975D01*
X113099000Y-105786000D01*
X113099000Y-104214000D01*
X113100276Y-104188025D01*
X113104092Y-104162301D01*
X113110411Y-104137075D01*
X113119172Y-104112589D01*
X113130291Y-104089080D01*
X113143661Y-104066774D01*
X113159152Y-104045886D01*
X113176617Y-104026617D01*
X113195886Y-104009152D01*
X113216774Y-103993661D01*
X113239080Y-103980291D01*
X113262589Y-103969172D01*
X113287075Y-103960411D01*
X113312301Y-103954092D01*
X113338025Y-103950276D01*
X113364000Y-103949000D01*
X114636000Y-103949000D01*
X114661975Y-103950276D01*
X114661975Y-103950276D01*
G37*
D15*
X114000000Y-105000000D03*
D24*
X189000000Y-139160000D03*
X189000000Y-134080000D03*
D25*
X189000000Y-129000000D03*
D13*
X171000000Y-101000000D03*
X171000000Y-98500000D03*
X171000000Y-96000000D03*
X171000000Y-93500000D03*
X171000000Y-91000000D03*
X171000000Y-88500000D03*
D14*
G36*
X171786975Y-85100276D02*
G01*
X171812699Y-85104092D01*
X171837925Y-85110411D01*
X171862411Y-85119172D01*
X171885920Y-85130291D01*
X171908226Y-85143661D01*
X171929114Y-85159152D01*
X171948383Y-85176617D01*
X171965848Y-85195886D01*
X171981339Y-85216774D01*
X171994709Y-85239080D01*
X172005828Y-85262589D01*
X172014589Y-85287075D01*
X172020908Y-85312301D01*
X172024724Y-85338025D01*
X172026000Y-85364000D01*
X172026000Y-86636000D01*
X172024724Y-86661975D01*
X172020908Y-86687699D01*
X172014589Y-86712925D01*
X172005828Y-86737411D01*
X171994709Y-86760920D01*
X171981339Y-86783226D01*
X171965848Y-86804114D01*
X171948383Y-86823383D01*
X171929114Y-86840848D01*
X171908226Y-86856339D01*
X171885920Y-86869709D01*
X171862411Y-86880828D01*
X171837925Y-86889589D01*
X171812699Y-86895908D01*
X171786975Y-86899724D01*
X171761000Y-86901000D01*
X170239000Y-86901000D01*
X170213025Y-86899724D01*
X170187301Y-86895908D01*
X170162075Y-86889589D01*
X170137589Y-86880828D01*
X170114080Y-86869709D01*
X170091774Y-86856339D01*
X170070886Y-86840848D01*
X170051617Y-86823383D01*
X170034152Y-86804114D01*
X170018661Y-86783226D01*
X170005291Y-86760920D01*
X169994172Y-86737411D01*
X169985411Y-86712925D01*
X169979092Y-86687699D01*
X169975276Y-86661975D01*
X169974000Y-86636000D01*
X169974000Y-85364000D01*
X169975276Y-85338025D01*
X169979092Y-85312301D01*
X169985411Y-85287075D01*
X169994172Y-85262589D01*
X170005291Y-85239080D01*
X170018661Y-85216774D01*
X170034152Y-85195886D01*
X170051617Y-85176617D01*
X170070886Y-85159152D01*
X170091774Y-85143661D01*
X170114080Y-85130291D01*
X170137589Y-85119172D01*
X170162075Y-85110411D01*
X170187301Y-85104092D01*
X170213025Y-85100276D01*
X170239000Y-85099000D01*
X171761000Y-85099000D01*
X171786975Y-85100276D01*
X171786975Y-85100276D01*
G37*
D15*
X171000000Y-86000000D03*
D16*
X167500000Y-113000000D03*
X170000000Y-113000000D03*
X172500000Y-113000000D03*
D14*
G36*
X175661975Y-111975276D02*
G01*
X175687699Y-111979092D01*
X175712925Y-111985411D01*
X175737411Y-111994172D01*
X175760920Y-112005291D01*
X175783226Y-112018661D01*
X175804114Y-112034152D01*
X175823383Y-112051617D01*
X175840848Y-112070886D01*
X175856339Y-112091774D01*
X175869709Y-112114080D01*
X175880828Y-112137589D01*
X175889589Y-112162075D01*
X175895908Y-112187301D01*
X175899724Y-112213025D01*
X175901000Y-112239000D01*
X175901000Y-113761000D01*
X175899724Y-113786975D01*
X175895908Y-113812699D01*
X175889589Y-113837925D01*
X175880828Y-113862411D01*
X175869709Y-113885920D01*
X175856339Y-113908226D01*
X175840848Y-113929114D01*
X175823383Y-113948383D01*
X175804114Y-113965848D01*
X175783226Y-113981339D01*
X175760920Y-113994709D01*
X175737411Y-114005828D01*
X175712925Y-114014589D01*
X175687699Y-114020908D01*
X175661975Y-114024724D01*
X175636000Y-114026000D01*
X174364000Y-114026000D01*
X174338025Y-114024724D01*
X174312301Y-114020908D01*
X174287075Y-114014589D01*
X174262589Y-114005828D01*
X174239080Y-113994709D01*
X174216774Y-113981339D01*
X174195886Y-113965848D01*
X174176617Y-113948383D01*
X174159152Y-113929114D01*
X174143661Y-113908226D01*
X174130291Y-113885920D01*
X174119172Y-113862411D01*
X174110411Y-113837925D01*
X174104092Y-113812699D01*
X174100276Y-113786975D01*
X174099000Y-113761000D01*
X174099000Y-112239000D01*
X174100276Y-112213025D01*
X174104092Y-112187301D01*
X174110411Y-112162075D01*
X174119172Y-112137589D01*
X174130291Y-112114080D01*
X174143661Y-112091774D01*
X174159152Y-112070886D01*
X174176617Y-112051617D01*
X174195886Y-112034152D01*
X174216774Y-112018661D01*
X174239080Y-112005291D01*
X174262589Y-111994172D01*
X174287075Y-111985411D01*
X174312301Y-111979092D01*
X174338025Y-111975276D01*
X174364000Y-111974000D01*
X175636000Y-111974000D01*
X175661975Y-111975276D01*
X175661975Y-111975276D01*
G37*
D15*
X175000000Y-113000000D03*
D16*
X116500000Y-124000000D03*
X114000000Y-124000000D03*
X111500000Y-124000000D03*
D14*
G36*
X109661975Y-122975276D02*
G01*
X109687699Y-122979092D01*
X109712925Y-122985411D01*
X109737411Y-122994172D01*
X109760920Y-123005291D01*
X109783226Y-123018661D01*
X109804114Y-123034152D01*
X109823383Y-123051617D01*
X109840848Y-123070886D01*
X109856339Y-123091774D01*
X109869709Y-123114080D01*
X109880828Y-123137589D01*
X109889589Y-123162075D01*
X109895908Y-123187301D01*
X109899724Y-123213025D01*
X109901000Y-123239000D01*
X109901000Y-124761000D01*
X109899724Y-124786975D01*
X109895908Y-124812699D01*
X109889589Y-124837925D01*
X109880828Y-124862411D01*
X109869709Y-124885920D01*
X109856339Y-124908226D01*
X109840848Y-124929114D01*
X109823383Y-124948383D01*
X109804114Y-124965848D01*
X109783226Y-124981339D01*
X109760920Y-124994709D01*
X109737411Y-125005828D01*
X109712925Y-125014589D01*
X109687699Y-125020908D01*
X109661975Y-125024724D01*
X109636000Y-125026000D01*
X108364000Y-125026000D01*
X108338025Y-125024724D01*
X108312301Y-125020908D01*
X108287075Y-125014589D01*
X108262589Y-125005828D01*
X108239080Y-124994709D01*
X108216774Y-124981339D01*
X108195886Y-124965848D01*
X108176617Y-124948383D01*
X108159152Y-124929114D01*
X108143661Y-124908226D01*
X108130291Y-124885920D01*
X108119172Y-124862411D01*
X108110411Y-124837925D01*
X108104092Y-124812699D01*
X108100276Y-124786975D01*
X108099000Y-124761000D01*
X108099000Y-123239000D01*
X108100276Y-123213025D01*
X108104092Y-123187301D01*
X108110411Y-123162075D01*
X108119172Y-123137589D01*
X108130291Y-123114080D01*
X108143661Y-123091774D01*
X108159152Y-123070886D01*
X108176617Y-123051617D01*
X108195886Y-123034152D01*
X108216774Y-123018661D01*
X108239080Y-123005291D01*
X108262589Y-122994172D01*
X108287075Y-122985411D01*
X108312301Y-122979092D01*
X108338025Y-122975276D01*
X108364000Y-122974000D01*
X109636000Y-122974000D01*
X109661975Y-122975276D01*
X109661975Y-122975276D01*
G37*
D15*
X109000000Y-124000000D03*
D13*
X143000000Y-70000000D03*
X143000000Y-67500000D03*
X143000000Y-65000000D03*
X143000000Y-62500000D03*
D14*
G36*
X143786975Y-59100276D02*
G01*
X143812699Y-59104092D01*
X143837925Y-59110411D01*
X143862411Y-59119172D01*
X143885920Y-59130291D01*
X143908226Y-59143661D01*
X143929114Y-59159152D01*
X143948383Y-59176617D01*
X143965848Y-59195886D01*
X143981339Y-59216774D01*
X143994709Y-59239080D01*
X144005828Y-59262589D01*
X144014589Y-59287075D01*
X144020908Y-59312301D01*
X144024724Y-59338025D01*
X144026000Y-59364000D01*
X144026000Y-60636000D01*
X144024724Y-60661975D01*
X144020908Y-60687699D01*
X144014589Y-60712925D01*
X144005828Y-60737411D01*
X143994709Y-60760920D01*
X143981339Y-60783226D01*
X143965848Y-60804114D01*
X143948383Y-60823383D01*
X143929114Y-60840848D01*
X143908226Y-60856339D01*
X143885920Y-60869709D01*
X143862411Y-60880828D01*
X143837925Y-60889589D01*
X143812699Y-60895908D01*
X143786975Y-60899724D01*
X143761000Y-60901000D01*
X142239000Y-60901000D01*
X142213025Y-60899724D01*
X142187301Y-60895908D01*
X142162075Y-60889589D01*
X142137589Y-60880828D01*
X142114080Y-60869709D01*
X142091774Y-60856339D01*
X142070886Y-60840848D01*
X142051617Y-60823383D01*
X142034152Y-60804114D01*
X142018661Y-60783226D01*
X142005291Y-60760920D01*
X141994172Y-60737411D01*
X141985411Y-60712925D01*
X141979092Y-60687699D01*
X141975276Y-60661975D01*
X141974000Y-60636000D01*
X141974000Y-59364000D01*
X141975276Y-59338025D01*
X141979092Y-59312301D01*
X141985411Y-59287075D01*
X141994172Y-59262589D01*
X142005291Y-59239080D01*
X142018661Y-59216774D01*
X142034152Y-59195886D01*
X142051617Y-59176617D01*
X142070886Y-59159152D01*
X142091774Y-59143661D01*
X142114080Y-59130291D01*
X142137589Y-59119172D01*
X142162075Y-59110411D01*
X142187301Y-59104092D01*
X142213025Y-59100276D01*
X142239000Y-59099000D01*
X143761000Y-59099000D01*
X143786975Y-59100276D01*
X143786975Y-59100276D01*
G37*
D15*
X143000000Y-60000000D03*
M02*
