G04 #@! TF.GenerationSoftware,KiCad,Pcbnew,(6.0.10)*
G04 #@! TF.CreationDate,2023-01-20T16:50:10+01:00*
G04 #@! TF.ProjectId,greenhouse,67726565-6e68-46f7-9573-652e6b696361,rev?*
G04 #@! TF.SameCoordinates,Original*
G04 #@! TF.FileFunction,Legend,Top*
G04 #@! TF.FilePolarity,Positive*
%FSLAX46Y46*%
G04 Gerber Fmt 4.6, Leading zero omitted, Abs format (unit mm)*
G04 Created by KiCad (PCBNEW (6.0.10)) date 2023-01-20 16:50:10*
%MOMM*%
%LPD*%
G01*
G04 APERTURE LIST*
G04 Aperture macros list*
%AMRoundRect*
0 Rectangle with rounded corners*
0 $1 Rounding radius*
0 $2 $3 $4 $5 $6 $7 $8 $9 X,Y pos of 4 corners*
0 Add a 4 corners polygon primitive as box body*
4,1,4,$2,$3,$4,$5,$6,$7,$8,$9,$2,$3,0*
0 Add four circle primitives for the rounded corners*
1,1,$1+$1,$2,$3*
1,1,$1+$1,$4,$5*
1,1,$1+$1,$6,$7*
1,1,$1+$1,$8,$9*
0 Add four rect primitives between the rounded corners*
20,1,$1+$1,$2,$3,$4,$5,0*
20,1,$1+$1,$4,$5,$6,$7,0*
20,1,$1+$1,$6,$7,$8,$9,0*
20,1,$1+$1,$8,$9,$2,$3,0*%
G04 Aperture macros list end*
%ADD10C,0.120000*%
%ADD11C,0.150000*%
%ADD12C,1.626000*%
%ADD13O,2.052000X1.802000*%
%ADD14RoundRect,0.301000X-0.725000X0.600000X-0.725000X-0.600000X0.725000X-0.600000X0.725000X0.600000X0*%
%ADD15O,1.802000X2.052000*%
%ADD16RoundRect,0.301000X-0.600000X-0.725000X0.600000X-0.725000X0.600000X0.725000X-0.600000X0.725000X0*%
%ADD17RoundRect,0.301000X0.600000X0.725000X-0.600000X0.725000X-0.600000X-0.725000X0.600000X-0.725000X0*%
%ADD18RoundRect,0.301000X0.725000X-0.600000X0.725000X0.600000X-0.725000X0.600000X-0.725000X-0.600000X0*%
%ADD19O,1.502000X1.502000*%
%ADD20C,1.502000*%
%ADD21O,1.802000X1.802000*%
%ADD22RoundRect,0.051000X-0.850000X0.850000X-0.850000X-0.850000X0.850000X-0.850000X0.850000X0.850000X0*%
%ADD23C,2.202000*%
%ADD24RoundRect,0.051000X1.050000X-1.050000X1.050000X1.050000X-1.050000X1.050000X-1.050000X-1.050000X0*%
%ADD25O,1.802000X2.102000*%
%ADD26RoundRect,0.301000X-0.600000X-0.750000X0.600000X-0.750000X0.600000X0.750000X-0.600000X0.750000X0*%
%ADD27C,3.102000*%
%ADD28RoundRect,0.051000X-1.500000X1.500000X-1.500000X-1.500000X1.500000X-1.500000X1.500000X1.500000X0*%
G04 APERTURE END LIST*
D10*
X129000000Y-82000000D02*
X129000000Y-131000000D01*
D11*
X152238095Y-116890000D02*
X152142857Y-116842380D01*
X152000000Y-116842380D01*
X151857142Y-116890000D01*
X151761904Y-116985238D01*
X151714285Y-117080476D01*
X151666666Y-117270952D01*
X151666666Y-117413809D01*
X151714285Y-117604285D01*
X151761904Y-117699523D01*
X151857142Y-117794761D01*
X152000000Y-117842380D01*
X152095238Y-117842380D01*
X152238095Y-117794761D01*
X152285714Y-117747142D01*
X152285714Y-117413809D01*
X152095238Y-117413809D01*
X152714285Y-117842380D02*
X152714285Y-116842380D01*
X153285714Y-117842380D01*
X153285714Y-116842380D01*
X153761904Y-117842380D02*
X153761904Y-116842380D01*
X154000000Y-116842380D01*
X154142857Y-116890000D01*
X154238095Y-116985238D01*
X154285714Y-117080476D01*
X154333333Y-117270952D01*
X154333333Y-117413809D01*
X154285714Y-117604285D01*
X154238095Y-117699523D01*
X154142857Y-117794761D01*
X154000000Y-117842380D01*
X153761904Y-117842380D01*
X151523809Y-120062380D02*
X152142857Y-120062380D01*
X151809523Y-120443333D01*
X151952380Y-120443333D01*
X152047619Y-120490952D01*
X152095238Y-120538571D01*
X152142857Y-120633809D01*
X152142857Y-120871904D01*
X152095238Y-120967142D01*
X152047619Y-121014761D01*
X151952380Y-121062380D01*
X151666666Y-121062380D01*
X151571428Y-121014761D01*
X151523809Y-120967142D01*
X152571428Y-120967142D02*
X152619047Y-121014761D01*
X152571428Y-121062380D01*
X152523809Y-121014761D01*
X152571428Y-120967142D01*
X152571428Y-121062380D01*
X152952380Y-120062380D02*
X153571428Y-120062380D01*
X153238095Y-120443333D01*
X153380952Y-120443333D01*
X153476190Y-120490952D01*
X153523809Y-120538571D01*
X153571428Y-120633809D01*
X153571428Y-120871904D01*
X153523809Y-120967142D01*
X153476190Y-121014761D01*
X153380952Y-121062380D01*
X153095238Y-121062380D01*
X153000000Y-121014761D01*
X152952380Y-120967142D01*
X153857142Y-120062380D02*
X154190476Y-121062380D01*
X154523809Y-120062380D01*
D10*
X159000000Y-82000000D02*
X129000000Y-82000000D01*
X159000000Y-131000000D02*
X159000000Y-82000000D01*
X129000000Y-131000000D02*
X159000000Y-131000000D01*
D11*
X133859404Y-116890000D02*
X133764166Y-116842380D01*
X133621309Y-116842380D01*
X133478452Y-116890000D01*
X133383214Y-116985238D01*
X133335595Y-117080476D01*
X133287976Y-117270952D01*
X133287976Y-117413809D01*
X133335595Y-117604285D01*
X133383214Y-117699523D01*
X133478452Y-117794761D01*
X133621309Y-117842380D01*
X133716547Y-117842380D01*
X133859404Y-117794761D01*
X133907023Y-117747142D01*
X133907023Y-117413809D01*
X133716547Y-117413809D01*
X134335595Y-117842380D02*
X134335595Y-116842380D01*
X134907023Y-117842380D01*
X134907023Y-116842380D01*
X135383214Y-117842380D02*
X135383214Y-116842380D01*
X135621309Y-116842380D01*
X135764166Y-116890000D01*
X135859404Y-116985238D01*
X135907023Y-117080476D01*
X135954642Y-117270952D01*
X135954642Y-117413809D01*
X135907023Y-117604285D01*
X135859404Y-117699523D01*
X135764166Y-117794761D01*
X135621309Y-117842380D01*
X135383214Y-117842380D01*
X133811785Y-120062380D02*
X133335595Y-120062380D01*
X133287976Y-120538571D01*
X133335595Y-120490952D01*
X133430833Y-120443333D01*
X133668928Y-120443333D01*
X133764166Y-120490952D01*
X133811785Y-120538571D01*
X133859404Y-120633809D01*
X133859404Y-120871904D01*
X133811785Y-120967142D01*
X133764166Y-121014761D01*
X133668928Y-121062380D01*
X133430833Y-121062380D01*
X133335595Y-121014761D01*
X133287976Y-120967142D01*
X134145119Y-120062380D02*
X134478452Y-121062380D01*
X134811785Y-120062380D01*
X168232380Y-126192738D02*
X168232380Y-126668928D01*
X168708571Y-126716547D01*
X168660952Y-126668928D01*
X168613333Y-126573690D01*
X168613333Y-126335595D01*
X168660952Y-126240357D01*
X168708571Y-126192738D01*
X168803809Y-126145119D01*
X169041904Y-126145119D01*
X169137142Y-126192738D01*
X169184761Y-126240357D01*
X169232380Y-126335595D01*
X169232380Y-126573690D01*
X169184761Y-126668928D01*
X169137142Y-126716547D01*
X168232380Y-125859404D02*
X169232380Y-125526071D01*
X168232380Y-125192738D01*
X169842380Y-128192738D02*
X169842380Y-127573690D01*
X170223333Y-127907023D01*
X170223333Y-127764166D01*
X170270952Y-127668928D01*
X170318571Y-127621309D01*
X170413809Y-127573690D01*
X170651904Y-127573690D01*
X170747142Y-127621309D01*
X170794761Y-127668928D01*
X170842380Y-127764166D01*
X170842380Y-128049880D01*
X170794761Y-128145119D01*
X170747142Y-128192738D01*
X170747142Y-127145119D02*
X170794761Y-127097500D01*
X170842380Y-127145119D01*
X170794761Y-127192738D01*
X170747142Y-127145119D01*
X170842380Y-127145119D01*
X169842380Y-126764166D02*
X169842380Y-126145119D01*
X170223333Y-126478452D01*
X170223333Y-126335595D01*
X170270952Y-126240357D01*
X170318571Y-126192738D01*
X170413809Y-126145119D01*
X170651904Y-126145119D01*
X170747142Y-126192738D01*
X170794761Y-126240357D01*
X170842380Y-126335595D01*
X170842380Y-126621309D01*
X170794761Y-126716547D01*
X170747142Y-126764166D01*
X169842380Y-125859404D02*
X170842380Y-125526071D01*
X169842380Y-125192738D01*
X173110000Y-127383214D02*
X173062380Y-127478452D01*
X173062380Y-127621309D01*
X173110000Y-127764166D01*
X173205238Y-127859404D01*
X173300476Y-127907023D01*
X173490952Y-127954642D01*
X173633809Y-127954642D01*
X173824285Y-127907023D01*
X173919523Y-127859404D01*
X174014761Y-127764166D01*
X174062380Y-127621309D01*
X174062380Y-127526071D01*
X174014761Y-127383214D01*
X173967142Y-127335595D01*
X173633809Y-127335595D01*
X173633809Y-127526071D01*
X174062380Y-126907023D02*
X173062380Y-126907023D01*
X174062380Y-126335595D01*
X173062380Y-126335595D01*
X174062380Y-125859404D02*
X173062380Y-125859404D01*
X173062380Y-125621309D01*
X173110000Y-125478452D01*
X173205238Y-125383214D01*
X173300476Y-125335595D01*
X173490952Y-125287976D01*
X173633809Y-125287976D01*
X173824285Y-125335595D01*
X173919523Y-125383214D01*
X174014761Y-125478452D01*
X174062380Y-125621309D01*
X174062380Y-125859404D01*
X175624761Y-127335595D02*
X175672380Y-127192738D01*
X175672380Y-126954642D01*
X175624761Y-126859404D01*
X175577142Y-126811785D01*
X175481904Y-126764166D01*
X175386666Y-126764166D01*
X175291428Y-126811785D01*
X175243809Y-126859404D01*
X175196190Y-126954642D01*
X175148571Y-127145119D01*
X175100952Y-127240357D01*
X175053333Y-127287976D01*
X174958095Y-127335595D01*
X174862857Y-127335595D01*
X174767619Y-127287976D01*
X174720000Y-127240357D01*
X174672380Y-127145119D01*
X174672380Y-126907023D01*
X174720000Y-126764166D01*
X175672380Y-126335595D02*
X174672380Y-126335595D01*
X174720000Y-125335595D02*
X174672380Y-125430833D01*
X174672380Y-125573690D01*
X174720000Y-125716547D01*
X174815238Y-125811785D01*
X174910476Y-125859404D01*
X175100952Y-125907023D01*
X175243809Y-125907023D01*
X175434285Y-125859404D01*
X175529523Y-125811785D01*
X175624761Y-125716547D01*
X175672380Y-125573690D01*
X175672380Y-125478452D01*
X175624761Y-125335595D01*
X175577142Y-125287976D01*
X175243809Y-125287976D01*
X175243809Y-125478452D01*
X168232380Y-108664404D02*
X167232380Y-108664404D01*
X167232380Y-108426309D01*
X167280000Y-108283452D01*
X167375238Y-108188214D01*
X167470476Y-108140595D01*
X167660952Y-108092976D01*
X167803809Y-108092976D01*
X167994285Y-108140595D01*
X168089523Y-108188214D01*
X168184761Y-108283452D01*
X168232380Y-108426309D01*
X168232380Y-108664404D01*
X168232380Y-107140595D02*
X168232380Y-107712023D01*
X168232380Y-107426309D02*
X167232380Y-107426309D01*
X167375238Y-107521547D01*
X167470476Y-107616785D01*
X167518095Y-107712023D01*
X167232380Y-106521547D02*
X167232380Y-106331071D01*
X167280000Y-106235833D01*
X167375238Y-106140595D01*
X167565714Y-106092976D01*
X167899047Y-106092976D01*
X168089523Y-106140595D01*
X168184761Y-106235833D01*
X168232380Y-106331071D01*
X168232380Y-106521547D01*
X168184761Y-106616785D01*
X168089523Y-106712023D01*
X167899047Y-106759642D01*
X167565714Y-106759642D01*
X167375238Y-106712023D01*
X167280000Y-106616785D01*
X167232380Y-106521547D01*
X167565714Y-105664404D02*
X168565714Y-105664404D01*
X167613333Y-105664404D02*
X167565714Y-105569166D01*
X167565714Y-105378690D01*
X167613333Y-105283452D01*
X167660952Y-105235833D01*
X167756190Y-105188214D01*
X168041904Y-105188214D01*
X168137142Y-105235833D01*
X168184761Y-105283452D01*
X168232380Y-105378690D01*
X168232380Y-105569166D01*
X168184761Y-105664404D01*
X168184761Y-104378690D02*
X168232380Y-104473928D01*
X168232380Y-104664404D01*
X168184761Y-104759642D01*
X168089523Y-104807261D01*
X167708571Y-104807261D01*
X167613333Y-104759642D01*
X167565714Y-104664404D01*
X167565714Y-104473928D01*
X167613333Y-104378690D01*
X167708571Y-104331071D01*
X167803809Y-104331071D01*
X167899047Y-104807261D01*
X167565714Y-103902500D02*
X168232380Y-103902500D01*
X167660952Y-103902500D02*
X167613333Y-103854880D01*
X167565714Y-103759642D01*
X167565714Y-103616785D01*
X167613333Y-103521547D01*
X167708571Y-103473928D01*
X168232380Y-103473928D01*
X168890000Y-108140595D02*
X168842380Y-108235833D01*
X168842380Y-108378690D01*
X168890000Y-108521547D01*
X168985238Y-108616785D01*
X169080476Y-108664404D01*
X169270952Y-108712023D01*
X169413809Y-108712023D01*
X169604285Y-108664404D01*
X169699523Y-108616785D01*
X169794761Y-108521547D01*
X169842380Y-108378690D01*
X169842380Y-108283452D01*
X169794761Y-108140595D01*
X169747142Y-108092976D01*
X169413809Y-108092976D01*
X169413809Y-108283452D01*
X169842380Y-107664404D02*
X168842380Y-107664404D01*
X169842380Y-107092976D01*
X168842380Y-107092976D01*
X169842380Y-106616785D02*
X168842380Y-106616785D01*
X168842380Y-106378690D01*
X168890000Y-106235833D01*
X168985238Y-106140595D01*
X169080476Y-106092976D01*
X169270952Y-106045357D01*
X169413809Y-106045357D01*
X169604285Y-106092976D01*
X169699523Y-106140595D01*
X169794761Y-106235833D01*
X169842380Y-106378690D01*
X169842380Y-106616785D01*
X172110000Y-108140595D02*
X172062380Y-108235833D01*
X172062380Y-108378690D01*
X172110000Y-108521547D01*
X172205238Y-108616785D01*
X172300476Y-108664404D01*
X172490952Y-108712023D01*
X172633809Y-108712023D01*
X172824285Y-108664404D01*
X172919523Y-108616785D01*
X173014761Y-108521547D01*
X173062380Y-108378690D01*
X173062380Y-108283452D01*
X173014761Y-108140595D01*
X172967142Y-108092976D01*
X172633809Y-108092976D01*
X172633809Y-108283452D01*
X173062380Y-107664404D02*
X172062380Y-107664404D01*
X173062380Y-107092976D01*
X172062380Y-107092976D01*
X173062380Y-106616785D02*
X172062380Y-106616785D01*
X172062380Y-106378690D01*
X172110000Y-106235833D01*
X172205238Y-106140595D01*
X172300476Y-106092976D01*
X172490952Y-106045357D01*
X172633809Y-106045357D01*
X172824285Y-106092976D01*
X172919523Y-106140595D01*
X173014761Y-106235833D01*
X173062380Y-106378690D01*
X173062380Y-106616785D01*
X174672380Y-108664404D02*
X173672380Y-108664404D01*
X173672380Y-108426309D01*
X173720000Y-108283452D01*
X173815238Y-108188214D01*
X173910476Y-108140595D01*
X174100952Y-108092976D01*
X174243809Y-108092976D01*
X174434285Y-108140595D01*
X174529523Y-108188214D01*
X174624761Y-108283452D01*
X174672380Y-108426309D01*
X174672380Y-108664404D01*
X174672380Y-107140595D02*
X174672380Y-107712023D01*
X174672380Y-107426309D02*
X173672380Y-107426309D01*
X173815238Y-107521547D01*
X173910476Y-107616785D01*
X173958095Y-107712023D01*
X174577142Y-106140595D02*
X174624761Y-106188214D01*
X174672380Y-106331071D01*
X174672380Y-106426309D01*
X174624761Y-106569166D01*
X174529523Y-106664404D01*
X174434285Y-106712023D01*
X174243809Y-106759642D01*
X174100952Y-106759642D01*
X173910476Y-106712023D01*
X173815238Y-106664404D01*
X173720000Y-106569166D01*
X173672380Y-106426309D01*
X173672380Y-106331071D01*
X173720000Y-106188214D01*
X173767619Y-106140595D01*
X174672380Y-105569166D02*
X174624761Y-105664404D01*
X174529523Y-105712023D01*
X173672380Y-105712023D01*
X174672380Y-105045357D02*
X174624761Y-105140595D01*
X174577142Y-105188214D01*
X174481904Y-105235833D01*
X174196190Y-105235833D01*
X174100952Y-105188214D01*
X174053333Y-105140595D01*
X174005714Y-105045357D01*
X174005714Y-104902500D01*
X174053333Y-104807261D01*
X174100952Y-104759642D01*
X174196190Y-104712023D01*
X174481904Y-104712023D01*
X174577142Y-104759642D01*
X174624761Y-104807261D01*
X174672380Y-104902500D01*
X174672380Y-105045357D01*
X174624761Y-104331071D02*
X174672380Y-104235833D01*
X174672380Y-104045357D01*
X174624761Y-103950119D01*
X174529523Y-103902500D01*
X174481904Y-103902500D01*
X174386666Y-103950119D01*
X174339047Y-104045357D01*
X174339047Y-104188214D01*
X174291428Y-104283452D01*
X174196190Y-104331071D01*
X174148571Y-104331071D01*
X174053333Y-104283452D01*
X174005714Y-104188214D01*
X174005714Y-104045357D01*
X174053333Y-103950119D01*
X174624761Y-103092976D02*
X174672380Y-103188214D01*
X174672380Y-103378690D01*
X174624761Y-103473928D01*
X174529523Y-103521547D01*
X174148571Y-103521547D01*
X174053333Y-103473928D01*
X174005714Y-103378690D01*
X174005714Y-103188214D01*
X174053333Y-103092976D01*
X174148571Y-103045357D01*
X174243809Y-103045357D01*
X174339047Y-103521547D01*
X175809523Y-85207380D02*
X175333333Y-85207380D01*
X175285714Y-85683571D01*
X175333333Y-85635952D01*
X175428571Y-85588333D01*
X175666666Y-85588333D01*
X175761904Y-85635952D01*
X175809523Y-85683571D01*
X175857142Y-85778809D01*
X175857142Y-86016904D01*
X175809523Y-86112142D01*
X175761904Y-86159761D01*
X175666666Y-86207380D01*
X175428571Y-86207380D01*
X175333333Y-86159761D01*
X175285714Y-86112142D01*
X176142857Y-85207380D02*
X176476190Y-86207380D01*
X176809523Y-85207380D01*
X174523809Y-86817380D02*
X175142857Y-86817380D01*
X174809523Y-87198333D01*
X174952380Y-87198333D01*
X175047619Y-87245952D01*
X175095238Y-87293571D01*
X175142857Y-87388809D01*
X175142857Y-87626904D01*
X175095238Y-87722142D01*
X175047619Y-87769761D01*
X174952380Y-87817380D01*
X174666666Y-87817380D01*
X174571428Y-87769761D01*
X174523809Y-87722142D01*
X175571428Y-87722142D02*
X175619047Y-87769761D01*
X175571428Y-87817380D01*
X175523809Y-87769761D01*
X175571428Y-87722142D01*
X175571428Y-87817380D01*
X175952380Y-86817380D02*
X176571428Y-86817380D01*
X176238095Y-87198333D01*
X176380952Y-87198333D01*
X176476190Y-87245952D01*
X176523809Y-87293571D01*
X176571428Y-87388809D01*
X176571428Y-87626904D01*
X176523809Y-87722142D01*
X176476190Y-87769761D01*
X176380952Y-87817380D01*
X176095238Y-87817380D01*
X176000000Y-87769761D01*
X175952380Y-87722142D01*
X176857142Y-86817380D02*
X177190476Y-87817380D01*
X177523809Y-86817380D01*
X175238095Y-90085000D02*
X175142857Y-90037380D01*
X175000000Y-90037380D01*
X174857142Y-90085000D01*
X174761904Y-90180238D01*
X174714285Y-90275476D01*
X174666666Y-90465952D01*
X174666666Y-90608809D01*
X174714285Y-90799285D01*
X174761904Y-90894523D01*
X174857142Y-90989761D01*
X175000000Y-91037380D01*
X175095238Y-91037380D01*
X175238095Y-90989761D01*
X175285714Y-90942142D01*
X175285714Y-90608809D01*
X175095238Y-90608809D01*
X175714285Y-91037380D02*
X175714285Y-90037380D01*
X176285714Y-91037380D01*
X176285714Y-90037380D01*
X176761904Y-91037380D02*
X176761904Y-90037380D01*
X177000000Y-90037380D01*
X177142857Y-90085000D01*
X177238095Y-90180238D01*
X177285714Y-90275476D01*
X177333333Y-90465952D01*
X177333333Y-90608809D01*
X177285714Y-90799285D01*
X177238095Y-90894523D01*
X177142857Y-90989761D01*
X177000000Y-91037380D01*
X176761904Y-91037380D01*
X175833333Y-94257380D02*
X175500000Y-93781190D01*
X175261904Y-94257380D02*
X175261904Y-93257380D01*
X175642857Y-93257380D01*
X175738095Y-93305000D01*
X175785714Y-93352619D01*
X175833333Y-93447857D01*
X175833333Y-93590714D01*
X175785714Y-93685952D01*
X175738095Y-93733571D01*
X175642857Y-93781190D01*
X175261904Y-93781190D01*
X176785714Y-94257380D02*
X176214285Y-94257380D01*
X176500000Y-94257380D02*
X176500000Y-93257380D01*
X176404761Y-93400238D01*
X176309523Y-93495476D01*
X176214285Y-93543095D01*
X175833333Y-95867380D02*
X175500000Y-95391190D01*
X175261904Y-95867380D02*
X175261904Y-94867380D01*
X175642857Y-94867380D01*
X175738095Y-94915000D01*
X175785714Y-94962619D01*
X175833333Y-95057857D01*
X175833333Y-95200714D01*
X175785714Y-95295952D01*
X175738095Y-95343571D01*
X175642857Y-95391190D01*
X175261904Y-95391190D01*
X176214285Y-94962619D02*
X176261904Y-94915000D01*
X176357142Y-94867380D01*
X176595238Y-94867380D01*
X176690476Y-94915000D01*
X176738095Y-94962619D01*
X176785714Y-95057857D01*
X176785714Y-95153095D01*
X176738095Y-95295952D01*
X176166666Y-95867380D01*
X176785714Y-95867380D01*
X175833333Y-99087380D02*
X175500000Y-98611190D01*
X175261904Y-99087380D02*
X175261904Y-98087380D01*
X175642857Y-98087380D01*
X175738095Y-98135000D01*
X175785714Y-98182619D01*
X175833333Y-98277857D01*
X175833333Y-98420714D01*
X175785714Y-98515952D01*
X175738095Y-98563571D01*
X175642857Y-98611190D01*
X175261904Y-98611190D01*
X176166666Y-98087380D02*
X176785714Y-98087380D01*
X176452380Y-98468333D01*
X176595238Y-98468333D01*
X176690476Y-98515952D01*
X176738095Y-98563571D01*
X176785714Y-98658809D01*
X176785714Y-98896904D01*
X176738095Y-98992142D01*
X176690476Y-99039761D01*
X176595238Y-99087380D01*
X176309523Y-99087380D01*
X176214285Y-99039761D01*
X176166666Y-98992142D01*
X175833333Y-100697380D02*
X175500000Y-100221190D01*
X175261904Y-100697380D02*
X175261904Y-99697380D01*
X175642857Y-99697380D01*
X175738095Y-99745000D01*
X175785714Y-99792619D01*
X175833333Y-99887857D01*
X175833333Y-100030714D01*
X175785714Y-100125952D01*
X175738095Y-100173571D01*
X175642857Y-100221190D01*
X175261904Y-100221190D01*
X176690476Y-100030714D02*
X176690476Y-100697380D01*
X176452380Y-99649761D02*
X176214285Y-100364047D01*
X176833333Y-100364047D01*
X110238095Y-63402380D02*
X110476190Y-64402380D01*
X110666666Y-63688095D01*
X110857142Y-64402380D01*
X111095238Y-63402380D01*
X112000000Y-64402380D02*
X111428571Y-64402380D01*
X111714285Y-64402380D02*
X111714285Y-63402380D01*
X111619047Y-63545238D01*
X111523809Y-63640476D01*
X111428571Y-63688095D01*
X112619047Y-63402380D02*
X112809523Y-63402380D01*
X112904761Y-63450000D01*
X113000000Y-63545238D01*
X113047619Y-63735714D01*
X113047619Y-64069047D01*
X113000000Y-64259523D01*
X112904761Y-64354761D01*
X112809523Y-64402380D01*
X112619047Y-64402380D01*
X112523809Y-64354761D01*
X112428571Y-64259523D01*
X112380952Y-64069047D01*
X112380952Y-63735714D01*
X112428571Y-63545238D01*
X112523809Y-63450000D01*
X112619047Y-63402380D01*
X113476190Y-63735714D02*
X113476190Y-64735714D01*
X113476190Y-63783333D02*
X113571428Y-63735714D01*
X113761904Y-63735714D01*
X113857142Y-63783333D01*
X113904761Y-63830952D01*
X113952380Y-63926190D01*
X113952380Y-64211904D01*
X113904761Y-64307142D01*
X113857142Y-64354761D01*
X113761904Y-64402380D01*
X113571428Y-64402380D01*
X113476190Y-64354761D01*
X114761904Y-64354761D02*
X114666666Y-64402380D01*
X114476190Y-64402380D01*
X114380952Y-64354761D01*
X114333333Y-64259523D01*
X114333333Y-63878571D01*
X114380952Y-63783333D01*
X114476190Y-63735714D01*
X114666666Y-63735714D01*
X114761904Y-63783333D01*
X114809523Y-63878571D01*
X114809523Y-63973809D01*
X114333333Y-64069047D01*
X115238095Y-63735714D02*
X115238095Y-64402380D01*
X115238095Y-63830952D02*
X115285714Y-63783333D01*
X115380952Y-63735714D01*
X115523809Y-63735714D01*
X115619047Y-63783333D01*
X115666666Y-63878571D01*
X115666666Y-64402380D01*
X112238095Y-65060000D02*
X112142857Y-65012380D01*
X112000000Y-65012380D01*
X111857142Y-65060000D01*
X111761904Y-65155238D01*
X111714285Y-65250476D01*
X111666666Y-65440952D01*
X111666666Y-65583809D01*
X111714285Y-65774285D01*
X111761904Y-65869523D01*
X111857142Y-65964761D01*
X112000000Y-66012380D01*
X112095238Y-66012380D01*
X112238095Y-65964761D01*
X112285714Y-65917142D01*
X112285714Y-65583809D01*
X112095238Y-65583809D01*
X112714285Y-66012380D02*
X112714285Y-65012380D01*
X113285714Y-66012380D01*
X113285714Y-65012380D01*
X113761904Y-66012380D02*
X113761904Y-65012380D01*
X114000000Y-65012380D01*
X114142857Y-65060000D01*
X114238095Y-65155238D01*
X114285714Y-65250476D01*
X114333333Y-65440952D01*
X114333333Y-65583809D01*
X114285714Y-65774285D01*
X114238095Y-65869523D01*
X114142857Y-65964761D01*
X114000000Y-66012380D01*
X113761904Y-66012380D01*
X110047619Y-68232380D02*
X110285714Y-69232380D01*
X110476190Y-68518095D01*
X110666666Y-69232380D01*
X110904761Y-68232380D01*
X111809523Y-69232380D02*
X111238095Y-69232380D01*
X111523809Y-69232380D02*
X111523809Y-68232380D01*
X111428571Y-68375238D01*
X111333333Y-68470476D01*
X111238095Y-68518095D01*
X112809523Y-69137142D02*
X112761904Y-69184761D01*
X112619047Y-69232380D01*
X112523809Y-69232380D01*
X112380952Y-69184761D01*
X112285714Y-69089523D01*
X112238095Y-68994285D01*
X112190476Y-68803809D01*
X112190476Y-68660952D01*
X112238095Y-68470476D01*
X112285714Y-68375238D01*
X112380952Y-68280000D01*
X112523809Y-68232380D01*
X112619047Y-68232380D01*
X112761904Y-68280000D01*
X112809523Y-68327619D01*
X113380952Y-69232380D02*
X113285714Y-69184761D01*
X113238095Y-69089523D01*
X113238095Y-68232380D01*
X113904761Y-69232380D02*
X113809523Y-69184761D01*
X113761904Y-69137142D01*
X113714285Y-69041904D01*
X113714285Y-68756190D01*
X113761904Y-68660952D01*
X113809523Y-68613333D01*
X113904761Y-68565714D01*
X114047619Y-68565714D01*
X114142857Y-68613333D01*
X114190476Y-68660952D01*
X114238095Y-68756190D01*
X114238095Y-69041904D01*
X114190476Y-69137142D01*
X114142857Y-69184761D01*
X114047619Y-69232380D01*
X113904761Y-69232380D01*
X114619047Y-69184761D02*
X114714285Y-69232380D01*
X114904761Y-69232380D01*
X115000000Y-69184761D01*
X115047619Y-69089523D01*
X115047619Y-69041904D01*
X115000000Y-68946666D01*
X114904761Y-68899047D01*
X114761904Y-68899047D01*
X114666666Y-68851428D01*
X114619047Y-68756190D01*
X114619047Y-68708571D01*
X114666666Y-68613333D01*
X114761904Y-68565714D01*
X114904761Y-68565714D01*
X115000000Y-68613333D01*
X115857142Y-69184761D02*
X115761904Y-69232380D01*
X115571428Y-69232380D01*
X115476190Y-69184761D01*
X115428571Y-69089523D01*
X115428571Y-68708571D01*
X115476190Y-68613333D01*
X115571428Y-68565714D01*
X115761904Y-68565714D01*
X115857142Y-68613333D01*
X115904761Y-68708571D01*
X115904761Y-68803809D01*
X115428571Y-68899047D01*
X112238095Y-69890000D02*
X112142857Y-69842380D01*
X112000000Y-69842380D01*
X111857142Y-69890000D01*
X111761904Y-69985238D01*
X111714285Y-70080476D01*
X111666666Y-70270952D01*
X111666666Y-70413809D01*
X111714285Y-70604285D01*
X111761904Y-70699523D01*
X111857142Y-70794761D01*
X112000000Y-70842380D01*
X112095238Y-70842380D01*
X112238095Y-70794761D01*
X112285714Y-70747142D01*
X112285714Y-70413809D01*
X112095238Y-70413809D01*
X112714285Y-70842380D02*
X112714285Y-69842380D01*
X113285714Y-70842380D01*
X113285714Y-69842380D01*
X113761904Y-70842380D02*
X113761904Y-69842380D01*
X114000000Y-69842380D01*
X114142857Y-69890000D01*
X114238095Y-69985238D01*
X114285714Y-70080476D01*
X114333333Y-70270952D01*
X114333333Y-70413809D01*
X114285714Y-70604285D01*
X114238095Y-70699523D01*
X114142857Y-70794761D01*
X114000000Y-70842380D01*
X113761904Y-70842380D01*
X110238095Y-73062380D02*
X110476190Y-74062380D01*
X110666666Y-73348095D01*
X110857142Y-74062380D01*
X111095238Y-73062380D01*
X111428571Y-73157619D02*
X111476190Y-73110000D01*
X111571428Y-73062380D01*
X111809523Y-73062380D01*
X111904761Y-73110000D01*
X111952380Y-73157619D01*
X112000000Y-73252857D01*
X112000000Y-73348095D01*
X111952380Y-73490952D01*
X111380952Y-74062380D01*
X112000000Y-74062380D01*
X112619047Y-73062380D02*
X112809523Y-73062380D01*
X112904761Y-73110000D01*
X113000000Y-73205238D01*
X113047619Y-73395714D01*
X113047619Y-73729047D01*
X113000000Y-73919523D01*
X112904761Y-74014761D01*
X112809523Y-74062380D01*
X112619047Y-74062380D01*
X112523809Y-74014761D01*
X112428571Y-73919523D01*
X112380952Y-73729047D01*
X112380952Y-73395714D01*
X112428571Y-73205238D01*
X112523809Y-73110000D01*
X112619047Y-73062380D01*
X113476190Y-73395714D02*
X113476190Y-74395714D01*
X113476190Y-73443333D02*
X113571428Y-73395714D01*
X113761904Y-73395714D01*
X113857142Y-73443333D01*
X113904761Y-73490952D01*
X113952380Y-73586190D01*
X113952380Y-73871904D01*
X113904761Y-73967142D01*
X113857142Y-74014761D01*
X113761904Y-74062380D01*
X113571428Y-74062380D01*
X113476190Y-74014761D01*
X114761904Y-74014761D02*
X114666666Y-74062380D01*
X114476190Y-74062380D01*
X114380952Y-74014761D01*
X114333333Y-73919523D01*
X114333333Y-73538571D01*
X114380952Y-73443333D01*
X114476190Y-73395714D01*
X114666666Y-73395714D01*
X114761904Y-73443333D01*
X114809523Y-73538571D01*
X114809523Y-73633809D01*
X114333333Y-73729047D01*
X115238095Y-73395714D02*
X115238095Y-74062380D01*
X115238095Y-73490952D02*
X115285714Y-73443333D01*
X115380952Y-73395714D01*
X115523809Y-73395714D01*
X115619047Y-73443333D01*
X115666666Y-73538571D01*
X115666666Y-74062380D01*
X112238095Y-74720000D02*
X112142857Y-74672380D01*
X112000000Y-74672380D01*
X111857142Y-74720000D01*
X111761904Y-74815238D01*
X111714285Y-74910476D01*
X111666666Y-75100952D01*
X111666666Y-75243809D01*
X111714285Y-75434285D01*
X111761904Y-75529523D01*
X111857142Y-75624761D01*
X112000000Y-75672380D01*
X112095238Y-75672380D01*
X112238095Y-75624761D01*
X112285714Y-75577142D01*
X112285714Y-75243809D01*
X112095238Y-75243809D01*
X112714285Y-75672380D02*
X112714285Y-74672380D01*
X113285714Y-75672380D01*
X113285714Y-74672380D01*
X113761904Y-75672380D02*
X113761904Y-74672380D01*
X114000000Y-74672380D01*
X114142857Y-74720000D01*
X114238095Y-74815238D01*
X114285714Y-74910476D01*
X114333333Y-75100952D01*
X114333333Y-75243809D01*
X114285714Y-75434285D01*
X114238095Y-75529523D01*
X114142857Y-75624761D01*
X114000000Y-75672380D01*
X113761904Y-75672380D01*
X110047619Y-77892380D02*
X110285714Y-78892380D01*
X110476190Y-78178095D01*
X110666666Y-78892380D01*
X110904761Y-77892380D01*
X111238095Y-77987619D02*
X111285714Y-77940000D01*
X111380952Y-77892380D01*
X111619047Y-77892380D01*
X111714285Y-77940000D01*
X111761904Y-77987619D01*
X111809523Y-78082857D01*
X111809523Y-78178095D01*
X111761904Y-78320952D01*
X111190476Y-78892380D01*
X111809523Y-78892380D01*
X112809523Y-78797142D02*
X112761904Y-78844761D01*
X112619047Y-78892380D01*
X112523809Y-78892380D01*
X112380952Y-78844761D01*
X112285714Y-78749523D01*
X112238095Y-78654285D01*
X112190476Y-78463809D01*
X112190476Y-78320952D01*
X112238095Y-78130476D01*
X112285714Y-78035238D01*
X112380952Y-77940000D01*
X112523809Y-77892380D01*
X112619047Y-77892380D01*
X112761904Y-77940000D01*
X112809523Y-77987619D01*
X113380952Y-78892380D02*
X113285714Y-78844761D01*
X113238095Y-78749523D01*
X113238095Y-77892380D01*
X113904761Y-78892380D02*
X113809523Y-78844761D01*
X113761904Y-78797142D01*
X113714285Y-78701904D01*
X113714285Y-78416190D01*
X113761904Y-78320952D01*
X113809523Y-78273333D01*
X113904761Y-78225714D01*
X114047619Y-78225714D01*
X114142857Y-78273333D01*
X114190476Y-78320952D01*
X114238095Y-78416190D01*
X114238095Y-78701904D01*
X114190476Y-78797142D01*
X114142857Y-78844761D01*
X114047619Y-78892380D01*
X113904761Y-78892380D01*
X114619047Y-78844761D02*
X114714285Y-78892380D01*
X114904761Y-78892380D01*
X115000000Y-78844761D01*
X115047619Y-78749523D01*
X115047619Y-78701904D01*
X115000000Y-78606666D01*
X114904761Y-78559047D01*
X114761904Y-78559047D01*
X114666666Y-78511428D01*
X114619047Y-78416190D01*
X114619047Y-78368571D01*
X114666666Y-78273333D01*
X114761904Y-78225714D01*
X114904761Y-78225714D01*
X115000000Y-78273333D01*
X115857142Y-78844761D02*
X115761904Y-78892380D01*
X115571428Y-78892380D01*
X115476190Y-78844761D01*
X115428571Y-78749523D01*
X115428571Y-78368571D01*
X115476190Y-78273333D01*
X115571428Y-78225714D01*
X115761904Y-78225714D01*
X115857142Y-78273333D01*
X115904761Y-78368571D01*
X115904761Y-78463809D01*
X115428571Y-78559047D01*
X112238095Y-79550000D02*
X112142857Y-79502380D01*
X112000000Y-79502380D01*
X111857142Y-79550000D01*
X111761904Y-79645238D01*
X111714285Y-79740476D01*
X111666666Y-79930952D01*
X111666666Y-80073809D01*
X111714285Y-80264285D01*
X111761904Y-80359523D01*
X111857142Y-80454761D01*
X112000000Y-80502380D01*
X112095238Y-80502380D01*
X112238095Y-80454761D01*
X112285714Y-80407142D01*
X112285714Y-80073809D01*
X112095238Y-80073809D01*
X112714285Y-80502380D02*
X112714285Y-79502380D01*
X113285714Y-80502380D01*
X113285714Y-79502380D01*
X113761904Y-80502380D02*
X113761904Y-79502380D01*
X114000000Y-79502380D01*
X114142857Y-79550000D01*
X114238095Y-79645238D01*
X114285714Y-79740476D01*
X114333333Y-79930952D01*
X114333333Y-80073809D01*
X114285714Y-80264285D01*
X114238095Y-80359523D01*
X114142857Y-80454761D01*
X114000000Y-80502380D01*
X113761904Y-80502380D01*
X181761904Y-130232380D02*
X182380952Y-130232380D01*
X182047619Y-130613333D01*
X182190476Y-130613333D01*
X182285714Y-130660952D01*
X182333333Y-130708571D01*
X182380952Y-130803809D01*
X182380952Y-131041904D01*
X182333333Y-131137142D01*
X182285714Y-131184761D01*
X182190476Y-131232380D01*
X181904761Y-131232380D01*
X181809523Y-131184761D01*
X181761904Y-131137142D01*
X183000000Y-130232380D02*
X183095238Y-130232380D01*
X183190476Y-130280000D01*
X183238095Y-130327619D01*
X183285714Y-130422857D01*
X183333333Y-130613333D01*
X183333333Y-130851428D01*
X183285714Y-131041904D01*
X183238095Y-131137142D01*
X183190476Y-131184761D01*
X183095238Y-131232380D01*
X183000000Y-131232380D01*
X182904761Y-131184761D01*
X182857142Y-131137142D01*
X182809523Y-131041904D01*
X182761904Y-130851428D01*
X182761904Y-130613333D01*
X182809523Y-130422857D01*
X182857142Y-130327619D01*
X182904761Y-130280000D01*
X183000000Y-130232380D01*
X183619047Y-130232380D02*
X183952380Y-131232380D01*
X184285714Y-130232380D01*
X182238095Y-133500000D02*
X182142857Y-133452380D01*
X182000000Y-133452380D01*
X181857142Y-133500000D01*
X181761904Y-133595238D01*
X181714285Y-133690476D01*
X181666666Y-133880952D01*
X181666666Y-134023809D01*
X181714285Y-134214285D01*
X181761904Y-134309523D01*
X181857142Y-134404761D01*
X182000000Y-134452380D01*
X182095238Y-134452380D01*
X182238095Y-134404761D01*
X182285714Y-134357142D01*
X182285714Y-134023809D01*
X182095238Y-134023809D01*
X182714285Y-134452380D02*
X182714285Y-133452380D01*
X183285714Y-134452380D01*
X183285714Y-133452380D01*
X183761904Y-134452380D02*
X183761904Y-133452380D01*
X184000000Y-133452380D01*
X184142857Y-133500000D01*
X184238095Y-133595238D01*
X184285714Y-133690476D01*
X184333333Y-133880952D01*
X184333333Y-134023809D01*
X184285714Y-134214285D01*
X184238095Y-134309523D01*
X184142857Y-134404761D01*
X184000000Y-134452380D01*
X183761904Y-134452380D01*
X181238095Y-137624761D02*
X181380952Y-137672380D01*
X181619047Y-137672380D01*
X181714285Y-137624761D01*
X181761904Y-137577142D01*
X181809523Y-137481904D01*
X181809523Y-137386666D01*
X181761904Y-137291428D01*
X181714285Y-137243809D01*
X181619047Y-137196190D01*
X181428571Y-137148571D01*
X181333333Y-137100952D01*
X181285714Y-137053333D01*
X181238095Y-136958095D01*
X181238095Y-136862857D01*
X181285714Y-136767619D01*
X181333333Y-136720000D01*
X181428571Y-136672380D01*
X181666666Y-136672380D01*
X181809523Y-136720000D01*
X182380952Y-137672380D02*
X182285714Y-137624761D01*
X182238095Y-137577142D01*
X182190476Y-137481904D01*
X182190476Y-137196190D01*
X182238095Y-137100952D01*
X182285714Y-137053333D01*
X182380952Y-137005714D01*
X182523809Y-137005714D01*
X182619047Y-137053333D01*
X182666666Y-137100952D01*
X182714285Y-137196190D01*
X182714285Y-137481904D01*
X182666666Y-137577142D01*
X182619047Y-137624761D01*
X182523809Y-137672380D01*
X182380952Y-137672380D01*
X183285714Y-137672380D02*
X183190476Y-137624761D01*
X183142857Y-137529523D01*
X183142857Y-136672380D01*
X184095238Y-137672380D02*
X184095238Y-137148571D01*
X184047619Y-137053333D01*
X183952380Y-137005714D01*
X183761904Y-137005714D01*
X183666666Y-137053333D01*
X184095238Y-137624761D02*
X184000000Y-137672380D01*
X183761904Y-137672380D01*
X183666666Y-137624761D01*
X183619047Y-137529523D01*
X183619047Y-137434285D01*
X183666666Y-137339047D01*
X183761904Y-137291428D01*
X184000000Y-137291428D01*
X184095238Y-137243809D01*
X184571428Y-137672380D02*
X184571428Y-137005714D01*
X184571428Y-137196190D02*
X184619047Y-137100952D01*
X184666666Y-137053333D01*
X184761904Y-137005714D01*
X184857142Y-137005714D01*
D10*
X196000000Y-101000000D02*
X196000000Y-122000000D01*
X196000000Y-93000000D02*
X196000000Y-97000000D01*
X196000000Y-76000000D02*
X196000000Y-93000000D01*
D11*
X196452380Y-116047619D02*
X196452380Y-115428571D01*
X196833333Y-115761904D01*
X196833333Y-115619047D01*
X196880952Y-115523809D01*
X196928571Y-115476190D01*
X197023809Y-115428571D01*
X197261904Y-115428571D01*
X197357142Y-115476190D01*
X197404761Y-115523809D01*
X197452380Y-115619047D01*
X197452380Y-115904761D01*
X197404761Y-116000000D01*
X197357142Y-116047619D01*
X196452380Y-114809523D02*
X196452380Y-114714285D01*
X196500000Y-114619047D01*
X196547619Y-114571428D01*
X196642857Y-114523809D01*
X196833333Y-114476190D01*
X197071428Y-114476190D01*
X197261904Y-114523809D01*
X197357142Y-114571428D01*
X197404761Y-114619047D01*
X197452380Y-114714285D01*
X197452380Y-114809523D01*
X197404761Y-114904761D01*
X197357142Y-114952380D01*
X197261904Y-115000000D01*
X197071428Y-115047619D01*
X196833333Y-115047619D01*
X196642857Y-115000000D01*
X196547619Y-114952380D01*
X196500000Y-114904761D01*
X196452380Y-114809523D01*
X196452380Y-114190476D02*
X197452380Y-113857142D01*
X196452380Y-113523809D01*
X196452380Y-112571428D02*
X197452380Y-112238095D01*
X196452380Y-111904761D01*
X197357142Y-111000000D02*
X197404761Y-111047619D01*
X197452380Y-111190476D01*
X197452380Y-111285714D01*
X197404761Y-111428571D01*
X197309523Y-111523809D01*
X197214285Y-111571428D01*
X197023809Y-111619047D01*
X196880952Y-111619047D01*
X196690476Y-111571428D01*
X196595238Y-111523809D01*
X196500000Y-111428571D01*
X196452380Y-111285714D01*
X196452380Y-111190476D01*
X196500000Y-111047619D01*
X196547619Y-111000000D01*
X197357142Y-110000000D02*
X197404761Y-110047619D01*
X197452380Y-110190476D01*
X197452380Y-110285714D01*
X197404761Y-110428571D01*
X197309523Y-110523809D01*
X197214285Y-110571428D01*
X197023809Y-110619047D01*
X196880952Y-110619047D01*
X196690476Y-110571428D01*
X196595238Y-110523809D01*
X196500000Y-110428571D01*
X196452380Y-110285714D01*
X196452380Y-110190476D01*
X196500000Y-110047619D01*
X196547619Y-110000000D01*
X196452380Y-89142857D02*
X196452380Y-88523809D01*
X196833333Y-88857142D01*
X196833333Y-88714285D01*
X196880952Y-88619047D01*
X196928571Y-88571428D01*
X197023809Y-88523809D01*
X197261904Y-88523809D01*
X197357142Y-88571428D01*
X197404761Y-88619047D01*
X197452380Y-88714285D01*
X197452380Y-89000000D01*
X197404761Y-89095238D01*
X197357142Y-89142857D01*
X196452380Y-87904761D02*
X196452380Y-87809523D01*
X196500000Y-87714285D01*
X196547619Y-87666666D01*
X196642857Y-87619047D01*
X196833333Y-87571428D01*
X197071428Y-87571428D01*
X197261904Y-87619047D01*
X197357142Y-87666666D01*
X197404761Y-87714285D01*
X197452380Y-87809523D01*
X197452380Y-87904761D01*
X197404761Y-88000000D01*
X197357142Y-88047619D01*
X197261904Y-88095238D01*
X197071428Y-88142857D01*
X196833333Y-88142857D01*
X196642857Y-88095238D01*
X196547619Y-88047619D01*
X196500000Y-88000000D01*
X196452380Y-87904761D01*
X196452380Y-87285714D02*
X197452380Y-86952380D01*
X196452380Y-86619047D01*
X196500000Y-85000000D02*
X196452380Y-85095238D01*
X196452380Y-85238095D01*
X196500000Y-85380952D01*
X196595238Y-85476190D01*
X196690476Y-85523809D01*
X196880952Y-85571428D01*
X197023809Y-85571428D01*
X197214285Y-85523809D01*
X197309523Y-85476190D01*
X197404761Y-85380952D01*
X197452380Y-85238095D01*
X197452380Y-85142857D01*
X197404761Y-85000000D01*
X197357142Y-84952380D01*
X197023809Y-84952380D01*
X197023809Y-85142857D01*
X197452380Y-84523809D02*
X196452380Y-84523809D01*
X197452380Y-83952380D01*
X196452380Y-83952380D01*
X197452380Y-83476190D02*
X196452380Y-83476190D01*
X196452380Y-83238095D01*
X196500000Y-83095238D01*
X196595238Y-83000000D01*
X196690476Y-82952380D01*
X196880952Y-82904761D01*
X197023809Y-82904761D01*
X197214285Y-82952380D01*
X197309523Y-83000000D01*
X197404761Y-83095238D01*
X197452380Y-83238095D01*
X197452380Y-83476190D01*
X183809523Y-59232380D02*
X183333333Y-59232380D01*
X183285714Y-59708571D01*
X183333333Y-59660952D01*
X183428571Y-59613333D01*
X183666666Y-59613333D01*
X183761904Y-59660952D01*
X183809523Y-59708571D01*
X183857142Y-59803809D01*
X183857142Y-60041904D01*
X183809523Y-60137142D01*
X183761904Y-60184761D01*
X183666666Y-60232380D01*
X183428571Y-60232380D01*
X183333333Y-60184761D01*
X183285714Y-60137142D01*
X184142857Y-59232380D02*
X184476190Y-60232380D01*
X184809523Y-59232380D01*
X182523809Y-62452380D02*
X183142857Y-62452380D01*
X182809523Y-62833333D01*
X182952380Y-62833333D01*
X183047619Y-62880952D01*
X183095238Y-62928571D01*
X183142857Y-63023809D01*
X183142857Y-63261904D01*
X183095238Y-63357142D01*
X183047619Y-63404761D01*
X182952380Y-63452380D01*
X182666666Y-63452380D01*
X182571428Y-63404761D01*
X182523809Y-63357142D01*
X183571428Y-63357142D02*
X183619047Y-63404761D01*
X183571428Y-63452380D01*
X183523809Y-63404761D01*
X183571428Y-63357142D01*
X183571428Y-63452380D01*
X183952380Y-62452380D02*
X184571428Y-62452380D01*
X184238095Y-62833333D01*
X184380952Y-62833333D01*
X184476190Y-62880952D01*
X184523809Y-62928571D01*
X184571428Y-63023809D01*
X184571428Y-63261904D01*
X184523809Y-63357142D01*
X184476190Y-63404761D01*
X184380952Y-63452380D01*
X184095238Y-63452380D01*
X184000000Y-63404761D01*
X183952380Y-63357142D01*
X184857142Y-62452380D02*
X185190476Y-63452380D01*
X185523809Y-62452380D01*
X183238095Y-65720000D02*
X183142857Y-65672380D01*
X183000000Y-65672380D01*
X182857142Y-65720000D01*
X182761904Y-65815238D01*
X182714285Y-65910476D01*
X182666666Y-66100952D01*
X182666666Y-66243809D01*
X182714285Y-66434285D01*
X182761904Y-66529523D01*
X182857142Y-66624761D01*
X183000000Y-66672380D01*
X183095238Y-66672380D01*
X183238095Y-66624761D01*
X183285714Y-66577142D01*
X183285714Y-66243809D01*
X183095238Y-66243809D01*
X183714285Y-66672380D02*
X183714285Y-65672380D01*
X184285714Y-66672380D01*
X184285714Y-65672380D01*
X184761904Y-66672380D02*
X184761904Y-65672380D01*
X185000000Y-65672380D01*
X185142857Y-65720000D01*
X185238095Y-65815238D01*
X185285714Y-65910476D01*
X185333333Y-66100952D01*
X185333333Y-66243809D01*
X185285714Y-66434285D01*
X185238095Y-66529523D01*
X185142857Y-66624761D01*
X185000000Y-66672380D01*
X184761904Y-66672380D01*
X163811785Y-59622380D02*
X163335595Y-59622380D01*
X163287976Y-60098571D01*
X163335595Y-60050952D01*
X163430833Y-60003333D01*
X163668928Y-60003333D01*
X163764166Y-60050952D01*
X163811785Y-60098571D01*
X163859404Y-60193809D01*
X163859404Y-60431904D01*
X163811785Y-60527142D01*
X163764166Y-60574761D01*
X163668928Y-60622380D01*
X163430833Y-60622380D01*
X163335595Y-60574761D01*
X163287976Y-60527142D01*
X164145119Y-59622380D02*
X164478452Y-60622380D01*
X164811785Y-59622380D01*
X163240357Y-61232380D02*
X163859404Y-61232380D01*
X163526071Y-61613333D01*
X163668928Y-61613333D01*
X163764166Y-61660952D01*
X163811785Y-61708571D01*
X163859404Y-61803809D01*
X163859404Y-62041904D01*
X163811785Y-62137142D01*
X163764166Y-62184761D01*
X163668928Y-62232380D01*
X163383214Y-62232380D01*
X163287976Y-62184761D01*
X163240357Y-62137142D01*
X164287976Y-62137142D02*
X164335595Y-62184761D01*
X164287976Y-62232380D01*
X164240357Y-62184761D01*
X164287976Y-62137142D01*
X164287976Y-62232380D01*
X164668928Y-61232380D02*
X165287976Y-61232380D01*
X164954642Y-61613333D01*
X165097500Y-61613333D01*
X165192738Y-61660952D01*
X165240357Y-61708571D01*
X165287976Y-61803809D01*
X165287976Y-62041904D01*
X165240357Y-62137142D01*
X165192738Y-62184761D01*
X165097500Y-62232380D01*
X164811785Y-62232380D01*
X164716547Y-62184761D01*
X164668928Y-62137142D01*
X165573690Y-61232380D02*
X165907023Y-62232380D01*
X166240357Y-61232380D01*
X163859404Y-64500000D02*
X163764166Y-64452380D01*
X163621309Y-64452380D01*
X163478452Y-64500000D01*
X163383214Y-64595238D01*
X163335595Y-64690476D01*
X163287976Y-64880952D01*
X163287976Y-65023809D01*
X163335595Y-65214285D01*
X163383214Y-65309523D01*
X163478452Y-65404761D01*
X163621309Y-65452380D01*
X163716547Y-65452380D01*
X163859404Y-65404761D01*
X163907023Y-65357142D01*
X163907023Y-65023809D01*
X163716547Y-65023809D01*
X164335595Y-65452380D02*
X164335595Y-64452380D01*
X164907023Y-65452380D01*
X164907023Y-64452380D01*
X165383214Y-65452380D02*
X165383214Y-64452380D01*
X165621309Y-64452380D01*
X165764166Y-64500000D01*
X165859404Y-64595238D01*
X165907023Y-64690476D01*
X165954642Y-64880952D01*
X165954642Y-65023809D01*
X165907023Y-65214285D01*
X165859404Y-65309523D01*
X165764166Y-65404761D01*
X165621309Y-65452380D01*
X165383214Y-65452380D01*
X163287976Y-68624761D02*
X163430833Y-68672380D01*
X163668928Y-68672380D01*
X163764166Y-68624761D01*
X163811785Y-68577142D01*
X163859404Y-68481904D01*
X163859404Y-68386666D01*
X163811785Y-68291428D01*
X163764166Y-68243809D01*
X163668928Y-68196190D01*
X163478452Y-68148571D01*
X163383214Y-68100952D01*
X163335595Y-68053333D01*
X163287976Y-67958095D01*
X163287976Y-67862857D01*
X163335595Y-67767619D01*
X163383214Y-67720000D01*
X163478452Y-67672380D01*
X163716547Y-67672380D01*
X163859404Y-67720000D01*
X164859404Y-68577142D02*
X164811785Y-68624761D01*
X164668928Y-68672380D01*
X164573690Y-68672380D01*
X164430833Y-68624761D01*
X164335595Y-68529523D01*
X164287976Y-68434285D01*
X164240357Y-68243809D01*
X164240357Y-68100952D01*
X164287976Y-67910476D01*
X164335595Y-67815238D01*
X164430833Y-67720000D01*
X164573690Y-67672380D01*
X164668928Y-67672380D01*
X164811785Y-67720000D01*
X164859404Y-67767619D01*
X165764166Y-68672380D02*
X165287976Y-68672380D01*
X165287976Y-67672380D01*
X163287976Y-70234761D02*
X163430833Y-70282380D01*
X163668928Y-70282380D01*
X163764166Y-70234761D01*
X163811785Y-70187142D01*
X163859404Y-70091904D01*
X163859404Y-69996666D01*
X163811785Y-69901428D01*
X163764166Y-69853809D01*
X163668928Y-69806190D01*
X163478452Y-69758571D01*
X163383214Y-69710952D01*
X163335595Y-69663333D01*
X163287976Y-69568095D01*
X163287976Y-69472857D01*
X163335595Y-69377619D01*
X163383214Y-69330000D01*
X163478452Y-69282380D01*
X163716547Y-69282380D01*
X163859404Y-69330000D01*
X164287976Y-70282380D02*
X164287976Y-69282380D01*
X164526071Y-69282380D01*
X164668928Y-69330000D01*
X164764166Y-69425238D01*
X164811785Y-69520476D01*
X164859404Y-69710952D01*
X164859404Y-69853809D01*
X164811785Y-70044285D01*
X164764166Y-70139523D01*
X164668928Y-70234761D01*
X164526071Y-70282380D01*
X164287976Y-70282380D01*
X165240357Y-69996666D02*
X165716547Y-69996666D01*
X165145119Y-70282380D02*
X165478452Y-69282380D01*
X165811785Y-70282380D01*
X106402380Y-91188214D02*
X106402380Y-91664404D01*
X106878571Y-91712023D01*
X106830952Y-91664404D01*
X106783333Y-91569166D01*
X106783333Y-91331071D01*
X106830952Y-91235833D01*
X106878571Y-91188214D01*
X106973809Y-91140595D01*
X107211904Y-91140595D01*
X107307142Y-91188214D01*
X107354761Y-91235833D01*
X107402380Y-91331071D01*
X107402380Y-91569166D01*
X107354761Y-91664404D01*
X107307142Y-91712023D01*
X106402380Y-90854880D02*
X107402380Y-90521547D01*
X106402380Y-90188214D01*
X108012380Y-91759642D02*
X108012380Y-91140595D01*
X108393333Y-91473928D01*
X108393333Y-91331071D01*
X108440952Y-91235833D01*
X108488571Y-91188214D01*
X108583809Y-91140595D01*
X108821904Y-91140595D01*
X108917142Y-91188214D01*
X108964761Y-91235833D01*
X109012380Y-91331071D01*
X109012380Y-91616785D01*
X108964761Y-91712023D01*
X108917142Y-91759642D01*
X108917142Y-90712023D02*
X108964761Y-90664404D01*
X109012380Y-90712023D01*
X108964761Y-90759642D01*
X108917142Y-90712023D01*
X109012380Y-90712023D01*
X108012380Y-90331071D02*
X108012380Y-89712023D01*
X108393333Y-90045357D01*
X108393333Y-89902500D01*
X108440952Y-89807261D01*
X108488571Y-89759642D01*
X108583809Y-89712023D01*
X108821904Y-89712023D01*
X108917142Y-89759642D01*
X108964761Y-89807261D01*
X109012380Y-89902500D01*
X109012380Y-90188214D01*
X108964761Y-90283452D01*
X108917142Y-90331071D01*
X108012380Y-89426309D02*
X109012380Y-89092976D01*
X108012380Y-88759642D01*
X111708571Y-91664404D02*
X111708571Y-91331071D01*
X112232380Y-91188214D02*
X112232380Y-91664404D01*
X111232380Y-91664404D01*
X111232380Y-91188214D01*
X112232380Y-90759642D02*
X111232380Y-90759642D01*
X112232380Y-90188214D01*
X111232380Y-90188214D01*
X112890000Y-91140595D02*
X112842380Y-91235833D01*
X112842380Y-91378690D01*
X112890000Y-91521547D01*
X112985238Y-91616785D01*
X113080476Y-91664404D01*
X113270952Y-91712023D01*
X113413809Y-91712023D01*
X113604285Y-91664404D01*
X113699523Y-91616785D01*
X113794761Y-91521547D01*
X113842380Y-91378690D01*
X113842380Y-91283452D01*
X113794761Y-91140595D01*
X113747142Y-91092976D01*
X113413809Y-91092976D01*
X113413809Y-91283452D01*
X113842380Y-90664404D02*
X112842380Y-90664404D01*
X113842380Y-90092976D01*
X112842380Y-90092976D01*
X113842380Y-89616785D02*
X112842380Y-89616785D01*
X112842380Y-89378690D01*
X112890000Y-89235833D01*
X112985238Y-89140595D01*
X113080476Y-89092976D01*
X113270952Y-89045357D01*
X113413809Y-89045357D01*
X113604285Y-89092976D01*
X113699523Y-89140595D01*
X113794761Y-89235833D01*
X113842380Y-89378690D01*
X113842380Y-89616785D01*
X117062380Y-91664404D02*
X116062380Y-91664404D01*
X116062380Y-91426309D01*
X116110000Y-91283452D01*
X116205238Y-91188214D01*
X116300476Y-91140595D01*
X116490952Y-91092976D01*
X116633809Y-91092976D01*
X116824285Y-91140595D01*
X116919523Y-91188214D01*
X117014761Y-91283452D01*
X117062380Y-91426309D01*
X117062380Y-91664404D01*
X117062380Y-90664404D02*
X116062380Y-90664404D01*
X117062380Y-89616785D02*
X116586190Y-89950119D01*
X117062380Y-90188214D02*
X116062380Y-90188214D01*
X116062380Y-89807261D01*
X116110000Y-89712023D01*
X116157619Y-89664404D01*
X116252857Y-89616785D01*
X116395714Y-89616785D01*
X116490952Y-89664404D01*
X116538571Y-89712023D01*
X116586190Y-89807261D01*
X116586190Y-90188214D01*
X117062380Y-88664404D02*
X117062380Y-89235833D01*
X117062380Y-88950119D02*
X116062380Y-88950119D01*
X116205238Y-89045357D01*
X116300476Y-89140595D01*
X116348095Y-89235833D01*
X118672380Y-91664404D02*
X117672380Y-91664404D01*
X117672380Y-91283452D01*
X117720000Y-91188214D01*
X117767619Y-91140595D01*
X117862857Y-91092976D01*
X118005714Y-91092976D01*
X118100952Y-91140595D01*
X118148571Y-91188214D01*
X118196190Y-91283452D01*
X118196190Y-91664404D01*
X117672380Y-90759642D02*
X118672380Y-90521547D01*
X117958095Y-90331071D01*
X118672380Y-90140595D01*
X117672380Y-89902500D01*
X118672380Y-89521547D02*
X117672380Y-89521547D01*
X118386666Y-89188214D01*
X117672380Y-88854880D01*
X118672380Y-88854880D01*
X118672380Y-87854880D02*
X118672380Y-88426309D01*
X118672380Y-88140595D02*
X117672380Y-88140595D01*
X117815238Y-88235833D01*
X117910476Y-88331071D01*
X117958095Y-88426309D01*
X121892380Y-91664404D02*
X120892380Y-91664404D01*
X120892380Y-91426309D01*
X120940000Y-91283452D01*
X121035238Y-91188214D01*
X121130476Y-91140595D01*
X121320952Y-91092976D01*
X121463809Y-91092976D01*
X121654285Y-91140595D01*
X121749523Y-91188214D01*
X121844761Y-91283452D01*
X121892380Y-91426309D01*
X121892380Y-91664404D01*
X121892380Y-90664404D02*
X120892380Y-90664404D01*
X121892380Y-89616785D02*
X121416190Y-89950119D01*
X121892380Y-90188214D02*
X120892380Y-90188214D01*
X120892380Y-89807261D01*
X120940000Y-89712023D01*
X120987619Y-89664404D01*
X121082857Y-89616785D01*
X121225714Y-89616785D01*
X121320952Y-89664404D01*
X121368571Y-89712023D01*
X121416190Y-89807261D01*
X121416190Y-90188214D01*
X120987619Y-89235833D02*
X120940000Y-89188214D01*
X120892380Y-89092976D01*
X120892380Y-88854880D01*
X120940000Y-88759642D01*
X120987619Y-88712023D01*
X121082857Y-88664404D01*
X121178095Y-88664404D01*
X121320952Y-88712023D01*
X121892380Y-89283452D01*
X121892380Y-88664404D01*
X123502380Y-91664404D02*
X122502380Y-91664404D01*
X122502380Y-91283452D01*
X122550000Y-91188214D01*
X122597619Y-91140595D01*
X122692857Y-91092976D01*
X122835714Y-91092976D01*
X122930952Y-91140595D01*
X122978571Y-91188214D01*
X123026190Y-91283452D01*
X123026190Y-91664404D01*
X122502380Y-90759642D02*
X123502380Y-90521547D01*
X122788095Y-90331071D01*
X123502380Y-90140595D01*
X122502380Y-89902500D01*
X123502380Y-89521547D02*
X122502380Y-89521547D01*
X123216666Y-89188214D01*
X122502380Y-88854880D01*
X123502380Y-88854880D01*
X122597619Y-88426309D02*
X122550000Y-88378690D01*
X122502380Y-88283452D01*
X122502380Y-88045357D01*
X122550000Y-87950119D01*
X122597619Y-87902500D01*
X122692857Y-87854880D01*
X122788095Y-87854880D01*
X122930952Y-87902500D01*
X123502380Y-88473928D01*
X123502380Y-87854880D01*
D10*
X114000000Y-109000000D02*
X114000000Y-111000000D01*
X114000000Y-99000000D02*
X114000000Y-100000000D01*
D11*
X113890000Y-131383214D02*
X113842380Y-131478452D01*
X113842380Y-131621309D01*
X113890000Y-131764166D01*
X113985238Y-131859404D01*
X114080476Y-131907023D01*
X114270952Y-131954642D01*
X114413809Y-131954642D01*
X114604285Y-131907023D01*
X114699523Y-131859404D01*
X114794761Y-131764166D01*
X114842380Y-131621309D01*
X114842380Y-131526071D01*
X114794761Y-131383214D01*
X114747142Y-131335595D01*
X114413809Y-131335595D01*
X114413809Y-131526071D01*
X114842380Y-130907023D02*
X113842380Y-130907023D01*
X114842380Y-130335595D01*
X113842380Y-130335595D01*
X114842380Y-129859404D02*
X113842380Y-129859404D01*
X113842380Y-129621309D01*
X113890000Y-129478452D01*
X113985238Y-129383214D01*
X114080476Y-129335595D01*
X114270952Y-129287976D01*
X114413809Y-129287976D01*
X114604285Y-129335595D01*
X114699523Y-129383214D01*
X114794761Y-129478452D01*
X114842380Y-129621309D01*
X114842380Y-129859404D01*
X118014761Y-131335595D02*
X118062380Y-131192738D01*
X118062380Y-130954642D01*
X118014761Y-130859404D01*
X117967142Y-130811785D01*
X117871904Y-130764166D01*
X117776666Y-130764166D01*
X117681428Y-130811785D01*
X117633809Y-130859404D01*
X117586190Y-130954642D01*
X117538571Y-131145119D01*
X117490952Y-131240357D01*
X117443333Y-131287976D01*
X117348095Y-131335595D01*
X117252857Y-131335595D01*
X117157619Y-131287976D01*
X117110000Y-131240357D01*
X117062380Y-131145119D01*
X117062380Y-130907023D01*
X117110000Y-130764166D01*
X118062380Y-130335595D02*
X117062380Y-130335595D01*
X117110000Y-129335595D02*
X117062380Y-129430833D01*
X117062380Y-129573690D01*
X117110000Y-129716547D01*
X117205238Y-129811785D01*
X117300476Y-129859404D01*
X117490952Y-129907023D01*
X117633809Y-129907023D01*
X117824285Y-129859404D01*
X117919523Y-129811785D01*
X118014761Y-129716547D01*
X118062380Y-129573690D01*
X118062380Y-129478452D01*
X118014761Y-129335595D01*
X117967142Y-129287976D01*
X117633809Y-129287976D01*
X117633809Y-129478452D01*
X110452380Y-132192738D02*
X110452380Y-131573690D01*
X110833333Y-131907023D01*
X110833333Y-131764166D01*
X110880952Y-131668928D01*
X110928571Y-131621309D01*
X111023809Y-131573690D01*
X111261904Y-131573690D01*
X111357142Y-131621309D01*
X111404761Y-131668928D01*
X111452380Y-131764166D01*
X111452380Y-132049880D01*
X111404761Y-132145119D01*
X111357142Y-132192738D01*
X111357142Y-131145119D02*
X111404761Y-131097500D01*
X111452380Y-131145119D01*
X111404761Y-131192738D01*
X111357142Y-131145119D01*
X111452380Y-131145119D01*
X110452380Y-130764166D02*
X110452380Y-130145119D01*
X110833333Y-130478452D01*
X110833333Y-130335595D01*
X110880952Y-130240357D01*
X110928571Y-130192738D01*
X111023809Y-130145119D01*
X111261904Y-130145119D01*
X111357142Y-130192738D01*
X111404761Y-130240357D01*
X111452380Y-130335595D01*
X111452380Y-130621309D01*
X111404761Y-130716547D01*
X111357142Y-130764166D01*
X110452380Y-129859404D02*
X111452380Y-129526071D01*
X110452380Y-129192738D01*
X107452380Y-130192738D02*
X107452380Y-130668928D01*
X107928571Y-130716547D01*
X107880952Y-130668928D01*
X107833333Y-130573690D01*
X107833333Y-130335595D01*
X107880952Y-130240357D01*
X107928571Y-130192738D01*
X108023809Y-130145119D01*
X108261904Y-130145119D01*
X108357142Y-130192738D01*
X108404761Y-130240357D01*
X108452380Y-130335595D01*
X108452380Y-130573690D01*
X108404761Y-130668928D01*
X108357142Y-130716547D01*
X107452380Y-129859404D02*
X108452380Y-129526071D01*
X107452380Y-129192738D01*
D10*
X108000000Y-109000000D02*
X109000000Y-110000000D01*
X108000000Y-100000000D02*
X108000000Y-109000000D01*
X106000000Y-109000000D02*
X108000000Y-111000000D01*
X106000000Y-108000000D02*
X106000000Y-109000000D01*
X106000000Y-100000000D02*
X106000000Y-108000000D01*
D11*
X116619047Y-142599761D02*
X116904761Y-142647380D01*
X117380952Y-142647380D01*
X117571428Y-142599761D01*
X117666666Y-142552142D01*
X117761904Y-142456904D01*
X117761904Y-142361666D01*
X117666666Y-142266428D01*
X117571428Y-142218809D01*
X117380952Y-142171190D01*
X117000000Y-142123571D01*
X116809523Y-142075952D01*
X116714285Y-142028333D01*
X116619047Y-141933095D01*
X116619047Y-141837857D01*
X116714285Y-141742619D01*
X116809523Y-141695000D01*
X117000000Y-141647380D01*
X117476190Y-141647380D01*
X117761904Y-141695000D01*
X118619047Y-142647380D02*
X118619047Y-141980714D01*
X118619047Y-142075952D02*
X118714285Y-142028333D01*
X118904761Y-141980714D01*
X119190476Y-141980714D01*
X119380952Y-142028333D01*
X119476190Y-142123571D01*
X119476190Y-142647380D01*
X119476190Y-142123571D02*
X119571428Y-142028333D01*
X119761904Y-141980714D01*
X120047619Y-141980714D01*
X120238095Y-142028333D01*
X120333333Y-142123571D01*
X120333333Y-142647380D01*
X122142857Y-142647380D02*
X122142857Y-142123571D01*
X122047619Y-142028333D01*
X121857142Y-141980714D01*
X121476190Y-141980714D01*
X121285714Y-142028333D01*
X122142857Y-142599761D02*
X121952380Y-142647380D01*
X121476190Y-142647380D01*
X121285714Y-142599761D01*
X121190476Y-142504523D01*
X121190476Y-142409285D01*
X121285714Y-142314047D01*
X121476190Y-142266428D01*
X121952380Y-142266428D01*
X122142857Y-142218809D01*
X123095238Y-142647380D02*
X123095238Y-141980714D01*
X123095238Y-142171190D02*
X123190476Y-142075952D01*
X123285714Y-142028333D01*
X123476190Y-141980714D01*
X123666666Y-141980714D01*
X124047619Y-141980714D02*
X124809523Y-141980714D01*
X124333333Y-141647380D02*
X124333333Y-142504523D01*
X124428571Y-142599761D01*
X124619047Y-142647380D01*
X124809523Y-142647380D01*
X126523809Y-141695000D02*
X126333333Y-141647380D01*
X126047619Y-141647380D01*
X125761904Y-141695000D01*
X125571428Y-141790238D01*
X125476190Y-141885476D01*
X125380952Y-142075952D01*
X125380952Y-142218809D01*
X125476190Y-142409285D01*
X125571428Y-142504523D01*
X125761904Y-142599761D01*
X126047619Y-142647380D01*
X126238095Y-142647380D01*
X126523809Y-142599761D01*
X126619047Y-142552142D01*
X126619047Y-142218809D01*
X126238095Y-142218809D01*
X127476190Y-142647380D02*
X127476190Y-141980714D01*
X127476190Y-142171190D02*
X127571428Y-142075952D01*
X127666666Y-142028333D01*
X127857142Y-141980714D01*
X128047619Y-141980714D01*
X129476190Y-142599761D02*
X129285714Y-142647380D01*
X128904761Y-142647380D01*
X128714285Y-142599761D01*
X128619047Y-142504523D01*
X128619047Y-142123571D01*
X128714285Y-142028333D01*
X128904761Y-141980714D01*
X129285714Y-141980714D01*
X129476190Y-142028333D01*
X129571428Y-142123571D01*
X129571428Y-142218809D01*
X128619047Y-142314047D01*
X131190476Y-142599761D02*
X131000000Y-142647380D01*
X130619047Y-142647380D01*
X130428571Y-142599761D01*
X130333333Y-142504523D01*
X130333333Y-142123571D01*
X130428571Y-142028333D01*
X130619047Y-141980714D01*
X131000000Y-141980714D01*
X131190476Y-142028333D01*
X131285714Y-142123571D01*
X131285714Y-142218809D01*
X130333333Y-142314047D01*
X132142857Y-141980714D02*
X132142857Y-142647380D01*
X132142857Y-142075952D02*
X132238095Y-142028333D01*
X132428571Y-141980714D01*
X132714285Y-141980714D01*
X132904761Y-142028333D01*
X133000000Y-142123571D01*
X133000000Y-142647380D01*
X133952380Y-142647380D02*
X133952380Y-141647380D01*
X134809523Y-142647380D02*
X134809523Y-142123571D01*
X134714285Y-142028333D01*
X134523809Y-141980714D01*
X134238095Y-141980714D01*
X134047619Y-142028333D01*
X133952380Y-142075952D01*
X136047619Y-142647380D02*
X135857142Y-142599761D01*
X135761904Y-142552142D01*
X135666666Y-142456904D01*
X135666666Y-142171190D01*
X135761904Y-142075952D01*
X135857142Y-142028333D01*
X136047619Y-141980714D01*
X136333333Y-141980714D01*
X136523809Y-142028333D01*
X136619047Y-142075952D01*
X136714285Y-142171190D01*
X136714285Y-142456904D01*
X136619047Y-142552142D01*
X136523809Y-142599761D01*
X136333333Y-142647380D01*
X136047619Y-142647380D01*
X138428571Y-141980714D02*
X138428571Y-142647380D01*
X137571428Y-141980714D02*
X137571428Y-142504523D01*
X137666666Y-142599761D01*
X137857142Y-142647380D01*
X138142857Y-142647380D01*
X138333333Y-142599761D01*
X138428571Y-142552142D01*
X139285714Y-142599761D02*
X139476190Y-142647380D01*
X139857142Y-142647380D01*
X140047619Y-142599761D01*
X140142857Y-142504523D01*
X140142857Y-142456904D01*
X140047619Y-142361666D01*
X139857142Y-142314047D01*
X139571428Y-142314047D01*
X139380952Y-142266428D01*
X139285714Y-142171190D01*
X139285714Y-142123571D01*
X139380952Y-142028333D01*
X139571428Y-141980714D01*
X139857142Y-141980714D01*
X140047619Y-142028333D01*
X141761904Y-142599761D02*
X141571428Y-142647380D01*
X141190476Y-142647380D01*
X141000000Y-142599761D01*
X140904761Y-142504523D01*
X140904761Y-142123571D01*
X141000000Y-142028333D01*
X141190476Y-141980714D01*
X141571428Y-141980714D01*
X141761904Y-142028333D01*
X141857142Y-142123571D01*
X141857142Y-142218809D01*
X140904761Y-142314047D01*
X143952380Y-141647380D02*
X144619047Y-142647380D01*
X145285714Y-141647380D01*
X148523809Y-142647380D02*
X147380952Y-142647380D01*
X147952380Y-142647380D02*
X147952380Y-141647380D01*
X147761904Y-141790238D01*
X147571428Y-141885476D01*
X147380952Y-141933095D01*
X149380952Y-142552142D02*
X149476190Y-142599761D01*
X149380952Y-142647380D01*
X149285714Y-142599761D01*
X149380952Y-142552142D01*
X149380952Y-142647380D01*
X150714285Y-141647380D02*
X150904761Y-141647380D01*
X151095238Y-141695000D01*
X151190476Y-141742619D01*
X151285714Y-141837857D01*
X151380952Y-142028333D01*
X151380952Y-142266428D01*
X151285714Y-142456904D01*
X151190476Y-142552142D01*
X151095238Y-142599761D01*
X150904761Y-142647380D01*
X150714285Y-142647380D01*
X150523809Y-142599761D01*
X150428571Y-142552142D01*
X150333333Y-142456904D01*
X150238095Y-142266428D01*
X150238095Y-142028333D01*
X150333333Y-141837857D01*
X150428571Y-141742619D01*
X150523809Y-141695000D01*
X150714285Y-141647380D01*
X110714285Y-144257380D02*
X110714285Y-143257380D01*
X111571428Y-144257380D02*
X111571428Y-143733571D01*
X111476190Y-143638333D01*
X111285714Y-143590714D01*
X111000000Y-143590714D01*
X110809523Y-143638333D01*
X110714285Y-143685952D01*
X112238095Y-143590714D02*
X113000000Y-143590714D01*
X112523809Y-143257380D02*
X112523809Y-144114523D01*
X112619047Y-144209761D01*
X112809523Y-144257380D01*
X113000000Y-144257380D01*
X113380952Y-143590714D02*
X114142857Y-143590714D01*
X113666666Y-143257380D02*
X113666666Y-144114523D01*
X113761904Y-144209761D01*
X113952380Y-144257380D01*
X114142857Y-144257380D01*
X114809523Y-143590714D02*
X114809523Y-144590714D01*
X114809523Y-143638333D02*
X115000000Y-143590714D01*
X115380952Y-143590714D01*
X115571428Y-143638333D01*
X115666666Y-143685952D01*
X115761904Y-143781190D01*
X115761904Y-144066904D01*
X115666666Y-144162142D01*
X115571428Y-144209761D01*
X115380952Y-144257380D01*
X115000000Y-144257380D01*
X114809523Y-144209761D01*
X116523809Y-144209761D02*
X116714285Y-144257380D01*
X117095238Y-144257380D01*
X117285714Y-144209761D01*
X117380952Y-144114523D01*
X117380952Y-144066904D01*
X117285714Y-143971666D01*
X117095238Y-143924047D01*
X116809523Y-143924047D01*
X116619047Y-143876428D01*
X116523809Y-143781190D01*
X116523809Y-143733571D01*
X116619047Y-143638333D01*
X116809523Y-143590714D01*
X117095238Y-143590714D01*
X117285714Y-143638333D01*
X118238095Y-144162142D02*
X118333333Y-144209761D01*
X118238095Y-144257380D01*
X118142857Y-144209761D01*
X118238095Y-144162142D01*
X118238095Y-144257380D01*
X118238095Y-143638333D02*
X118333333Y-143685952D01*
X118238095Y-143733571D01*
X118142857Y-143685952D01*
X118238095Y-143638333D01*
X118238095Y-143733571D01*
X120619047Y-143209761D02*
X118904761Y-144495476D01*
X122714285Y-143209761D02*
X121000000Y-144495476D01*
X124238095Y-143590714D02*
X124238095Y-144400238D01*
X124142857Y-144495476D01*
X124047619Y-144543095D01*
X123857142Y-144590714D01*
X123571428Y-144590714D01*
X123380952Y-144543095D01*
X124238095Y-144209761D02*
X124047619Y-144257380D01*
X123666666Y-144257380D01*
X123476190Y-144209761D01*
X123380952Y-144162142D01*
X123285714Y-144066904D01*
X123285714Y-143781190D01*
X123380952Y-143685952D01*
X123476190Y-143638333D01*
X123666666Y-143590714D01*
X124047619Y-143590714D01*
X124238095Y-143638333D01*
X125190476Y-144257380D02*
X125190476Y-143590714D01*
X125190476Y-143257380D02*
X125095238Y-143305000D01*
X125190476Y-143352619D01*
X125285714Y-143305000D01*
X125190476Y-143257380D01*
X125190476Y-143352619D01*
X125857142Y-143590714D02*
X126619047Y-143590714D01*
X126142857Y-143257380D02*
X126142857Y-144114523D01*
X126238095Y-144209761D01*
X126428571Y-144257380D01*
X126619047Y-144257380D01*
X127285714Y-144257380D02*
X127285714Y-143257380D01*
X128142857Y-144257380D02*
X128142857Y-143733571D01*
X128047619Y-143638333D01*
X127857142Y-143590714D01*
X127571428Y-143590714D01*
X127380952Y-143638333D01*
X127285714Y-143685952D01*
X129952380Y-143590714D02*
X129952380Y-144257380D01*
X129095238Y-143590714D02*
X129095238Y-144114523D01*
X129190476Y-144209761D01*
X129380952Y-144257380D01*
X129666666Y-144257380D01*
X129857142Y-144209761D01*
X129952380Y-144162142D01*
X130904761Y-144257380D02*
X130904761Y-143257380D01*
X130904761Y-143638333D02*
X131095238Y-143590714D01*
X131476190Y-143590714D01*
X131666666Y-143638333D01*
X131761904Y-143685952D01*
X131857142Y-143781190D01*
X131857142Y-144066904D01*
X131761904Y-144162142D01*
X131666666Y-144209761D01*
X131476190Y-144257380D01*
X131095238Y-144257380D01*
X130904761Y-144209761D01*
X132714285Y-144162142D02*
X132809523Y-144209761D01*
X132714285Y-144257380D01*
X132619047Y-144209761D01*
X132714285Y-144162142D01*
X132714285Y-144257380D01*
X134523809Y-144209761D02*
X134333333Y-144257380D01*
X133952380Y-144257380D01*
X133761904Y-144209761D01*
X133666666Y-144162142D01*
X133571428Y-144066904D01*
X133571428Y-143781190D01*
X133666666Y-143685952D01*
X133761904Y-143638333D01*
X133952380Y-143590714D01*
X134333333Y-143590714D01*
X134523809Y-143638333D01*
X135666666Y-144257380D02*
X135476190Y-144209761D01*
X135380952Y-144162142D01*
X135285714Y-144066904D01*
X135285714Y-143781190D01*
X135380952Y-143685952D01*
X135476190Y-143638333D01*
X135666666Y-143590714D01*
X135952380Y-143590714D01*
X136142857Y-143638333D01*
X136238095Y-143685952D01*
X136333333Y-143781190D01*
X136333333Y-144066904D01*
X136238095Y-144162142D01*
X136142857Y-144209761D01*
X135952380Y-144257380D01*
X135666666Y-144257380D01*
X137190476Y-144257380D02*
X137190476Y-143590714D01*
X137190476Y-143685952D02*
X137285714Y-143638333D01*
X137476190Y-143590714D01*
X137761904Y-143590714D01*
X137952380Y-143638333D01*
X138047619Y-143733571D01*
X138047619Y-144257380D01*
X138047619Y-143733571D02*
X138142857Y-143638333D01*
X138333333Y-143590714D01*
X138619047Y-143590714D01*
X138809523Y-143638333D01*
X138904761Y-143733571D01*
X138904761Y-144257380D01*
X141285714Y-143209761D02*
X139571428Y-144495476D01*
X141952380Y-144257380D02*
X141952380Y-143257380D01*
X142714285Y-143257380D01*
X142904761Y-143305000D01*
X143000000Y-143352619D01*
X143095238Y-143447857D01*
X143095238Y-143590714D01*
X143000000Y-143685952D01*
X142904761Y-143733571D01*
X142714285Y-143781190D01*
X141952380Y-143781190D01*
X144809523Y-144257380D02*
X144809523Y-143733571D01*
X144714285Y-143638333D01*
X144523809Y-143590714D01*
X144142857Y-143590714D01*
X143952380Y-143638333D01*
X144809523Y-144209761D02*
X144619047Y-144257380D01*
X144142857Y-144257380D01*
X143952380Y-144209761D01*
X143857142Y-144114523D01*
X143857142Y-144019285D01*
X143952380Y-143924047D01*
X144142857Y-143876428D01*
X144619047Y-143876428D01*
X144809523Y-143828809D01*
X146619047Y-144257380D02*
X146619047Y-143257380D01*
X146619047Y-144209761D02*
X146428571Y-144257380D01*
X146047619Y-144257380D01*
X145857142Y-144209761D01*
X145761904Y-144162142D01*
X145666666Y-144066904D01*
X145666666Y-143781190D01*
X145761904Y-143685952D01*
X145857142Y-143638333D01*
X146047619Y-143590714D01*
X146428571Y-143590714D01*
X146619047Y-143638333D01*
X148428571Y-144257380D02*
X148428571Y-143257380D01*
X148428571Y-144209761D02*
X148238095Y-144257380D01*
X147857142Y-144257380D01*
X147666666Y-144209761D01*
X147571428Y-144162142D01*
X147476190Y-144066904D01*
X147476190Y-143781190D01*
X147571428Y-143685952D01*
X147666666Y-143638333D01*
X147857142Y-143590714D01*
X148238095Y-143590714D01*
X148428571Y-143638333D01*
X149190476Y-143590714D02*
X149666666Y-144257380D01*
X150142857Y-143590714D02*
X149666666Y-144257380D01*
X149476190Y-144495476D01*
X149380952Y-144543095D01*
X149190476Y-144590714D01*
X152047619Y-144162142D02*
X151952380Y-144209761D01*
X151666666Y-144257380D01*
X151476190Y-144257380D01*
X151190476Y-144209761D01*
X151000000Y-144114523D01*
X150904761Y-144019285D01*
X150809523Y-143828809D01*
X150809523Y-143685952D01*
X150904761Y-143495476D01*
X151000000Y-143400238D01*
X151190476Y-143305000D01*
X151476190Y-143257380D01*
X151666666Y-143257380D01*
X151952380Y-143305000D01*
X152047619Y-143352619D01*
X153761904Y-143590714D02*
X153761904Y-144257380D01*
X152904761Y-143590714D02*
X152904761Y-144114523D01*
X153000000Y-144209761D01*
X153190476Y-144257380D01*
X153476190Y-144257380D01*
X153666666Y-144209761D01*
X153761904Y-144162142D01*
X154714285Y-144257380D02*
X154714285Y-143257380D01*
X154714285Y-143638333D02*
X154904761Y-143590714D01*
X155285714Y-143590714D01*
X155476190Y-143638333D01*
X155571428Y-143685952D01*
X155666666Y-143781190D01*
X155666666Y-144066904D01*
X155571428Y-144162142D01*
X155476190Y-144209761D01*
X155285714Y-144257380D01*
X154904761Y-144257380D01*
X154714285Y-144209761D01*
X157285714Y-144209761D02*
X157095238Y-144257380D01*
X156714285Y-144257380D01*
X156523809Y-144209761D01*
X156428571Y-144114523D01*
X156428571Y-143733571D01*
X156523809Y-143638333D01*
X156714285Y-143590714D01*
X157095238Y-143590714D01*
X157285714Y-143638333D01*
X157380952Y-143733571D01*
X157380952Y-143828809D01*
X156428571Y-143924047D01*
X138238095Y-85738571D02*
X138571428Y-85738571D01*
X138714285Y-86262380D02*
X138238095Y-86262380D01*
X138238095Y-85262380D01*
X138714285Y-85262380D01*
X139095238Y-86214761D02*
X139238095Y-86262380D01*
X139476190Y-86262380D01*
X139571428Y-86214761D01*
X139619047Y-86167142D01*
X139666666Y-86071904D01*
X139666666Y-85976666D01*
X139619047Y-85881428D01*
X139571428Y-85833809D01*
X139476190Y-85786190D01*
X139285714Y-85738571D01*
X139190476Y-85690952D01*
X139142857Y-85643333D01*
X139095238Y-85548095D01*
X139095238Y-85452857D01*
X139142857Y-85357619D01*
X139190476Y-85310000D01*
X139285714Y-85262380D01*
X139523809Y-85262380D01*
X139666666Y-85310000D01*
X140095238Y-86262380D02*
X140095238Y-85262380D01*
X140476190Y-85262380D01*
X140571428Y-85310000D01*
X140619047Y-85357619D01*
X140666666Y-85452857D01*
X140666666Y-85595714D01*
X140619047Y-85690952D01*
X140571428Y-85738571D01*
X140476190Y-85786190D01*
X140095238Y-85786190D01*
X141000000Y-85262380D02*
X141619047Y-85262380D01*
X141285714Y-85643333D01*
X141428571Y-85643333D01*
X141523809Y-85690952D01*
X141571428Y-85738571D01*
X141619047Y-85833809D01*
X141619047Y-86071904D01*
X141571428Y-86167142D01*
X141523809Y-86214761D01*
X141428571Y-86262380D01*
X141142857Y-86262380D01*
X141047619Y-86214761D01*
X141000000Y-86167142D01*
X142000000Y-85357619D02*
X142047619Y-85310000D01*
X142142857Y-85262380D01*
X142380952Y-85262380D01*
X142476190Y-85310000D01*
X142523809Y-85357619D01*
X142571428Y-85452857D01*
X142571428Y-85548095D01*
X142523809Y-85690952D01*
X141952380Y-86262380D01*
X142571428Y-86262380D01*
X142761904Y-86357619D02*
X143523809Y-86357619D01*
X143761904Y-86262380D02*
X143761904Y-85262380D01*
X144000000Y-85262380D01*
X144142857Y-85310000D01*
X144238095Y-85405238D01*
X144285714Y-85500476D01*
X144333333Y-85690952D01*
X144333333Y-85833809D01*
X144285714Y-86024285D01*
X144238095Y-86119523D01*
X144142857Y-86214761D01*
X144000000Y-86262380D01*
X143761904Y-86262380D01*
X145142857Y-86214761D02*
X145047619Y-86262380D01*
X144857142Y-86262380D01*
X144761904Y-86214761D01*
X144714285Y-86119523D01*
X144714285Y-85738571D01*
X144761904Y-85643333D01*
X144857142Y-85595714D01*
X145047619Y-85595714D01*
X145142857Y-85643333D01*
X145190476Y-85738571D01*
X145190476Y-85833809D01*
X144714285Y-85929047D01*
X145523809Y-85595714D02*
X145761904Y-86262380D01*
X146000000Y-85595714D01*
X146380952Y-86262380D02*
X146380952Y-85262380D01*
X146952380Y-86262380D02*
X146523809Y-85690952D01*
X146952380Y-85262380D02*
X146380952Y-85833809D01*
X147380952Y-86262380D02*
X147380952Y-85595714D01*
X147380952Y-85262380D02*
X147333333Y-85310000D01*
X147380952Y-85357619D01*
X147428571Y-85310000D01*
X147380952Y-85262380D01*
X147380952Y-85357619D01*
X147714285Y-85595714D02*
X148095238Y-85595714D01*
X147857142Y-85262380D02*
X147857142Y-86119523D01*
X147904761Y-86214761D01*
X148000000Y-86262380D01*
X148095238Y-86262380D01*
X148285714Y-85262380D02*
X148619047Y-86262380D01*
X148952380Y-85262380D01*
X149809523Y-86262380D02*
X149238095Y-86262380D01*
X149523809Y-86262380D02*
X149523809Y-85262380D01*
X149428571Y-85405238D01*
X149333333Y-85500476D01*
X149238095Y-85548095D01*
X159190476Y-73452380D02*
X159190476Y-74166666D01*
X159142857Y-74309523D01*
X159047619Y-74404761D01*
X158904761Y-74452380D01*
X158809523Y-74452380D01*
X160190476Y-74452380D02*
X159619047Y-74452380D01*
X159904761Y-74452380D02*
X159904761Y-73452380D01*
X159809523Y-73595238D01*
X159714285Y-73690476D01*
X159619047Y-73738095D01*
X160523809Y-73452380D02*
X161142857Y-73452380D01*
X160809523Y-73833333D01*
X160952380Y-73833333D01*
X161047619Y-73880952D01*
X161095238Y-73928571D01*
X161142857Y-74023809D01*
X161142857Y-74261904D01*
X161095238Y-74357142D01*
X161047619Y-74404761D01*
X160952380Y-74452380D01*
X160666666Y-74452380D01*
X160571428Y-74404761D01*
X160523809Y-74357142D01*
X164452380Y-125761904D02*
X163452380Y-125761904D01*
X164166666Y-125428571D01*
X163452380Y-125095238D01*
X164452380Y-125095238D01*
X164452380Y-124476190D02*
X164404761Y-124571428D01*
X164357142Y-124619047D01*
X164261904Y-124666666D01*
X163976190Y-124666666D01*
X163880952Y-124619047D01*
X163833333Y-124571428D01*
X163785714Y-124476190D01*
X163785714Y-124333333D01*
X163833333Y-124238095D01*
X163880952Y-124190476D01*
X163976190Y-124142857D01*
X164261904Y-124142857D01*
X164357142Y-124190476D01*
X164404761Y-124238095D01*
X164452380Y-124333333D01*
X164452380Y-124476190D01*
X163785714Y-123857142D02*
X163785714Y-123476190D01*
X163452380Y-123714285D02*
X164309523Y-123714285D01*
X164404761Y-123666666D01*
X164452380Y-123571428D01*
X164452380Y-123476190D01*
X163547619Y-123190476D02*
X163500000Y-123142857D01*
X163452380Y-123047619D01*
X163452380Y-122809523D01*
X163500000Y-122714285D01*
X163547619Y-122666666D01*
X163642857Y-122619047D01*
X163738095Y-122619047D01*
X163880952Y-122666666D01*
X164452380Y-123238095D01*
X164452380Y-122619047D01*
X164357142Y-121619047D02*
X164404761Y-121666666D01*
X164452380Y-121809523D01*
X164452380Y-121904761D01*
X164404761Y-122047619D01*
X164309523Y-122142857D01*
X164214285Y-122190476D01*
X164023809Y-122238095D01*
X163880952Y-122238095D01*
X163690476Y-122190476D01*
X163595238Y-122142857D01*
X163500000Y-122047619D01*
X163452380Y-121904761D01*
X163452380Y-121809523D01*
X163500000Y-121666666D01*
X163547619Y-121619047D01*
X163785714Y-120761904D02*
X164452380Y-120761904D01*
X163785714Y-121190476D02*
X164309523Y-121190476D01*
X164404761Y-121142857D01*
X164452380Y-121047619D01*
X164452380Y-120904761D01*
X164404761Y-120809523D01*
X164357142Y-120761904D01*
X164452380Y-120285714D02*
X163785714Y-120285714D01*
X163976190Y-120285714D02*
X163880952Y-120238095D01*
X163833333Y-120190476D01*
X163785714Y-120095238D01*
X163785714Y-120000000D01*
X164452380Y-119666666D02*
X163785714Y-119666666D01*
X163976190Y-119666666D02*
X163880952Y-119619047D01*
X163833333Y-119571428D01*
X163785714Y-119476190D01*
X163785714Y-119380952D01*
X164404761Y-118666666D02*
X164452380Y-118761904D01*
X164452380Y-118952380D01*
X164404761Y-119047619D01*
X164309523Y-119095238D01*
X163928571Y-119095238D01*
X163833333Y-119047619D01*
X163785714Y-118952380D01*
X163785714Y-118761904D01*
X163833333Y-118666666D01*
X163928571Y-118619047D01*
X164023809Y-118619047D01*
X164119047Y-119095238D01*
X163785714Y-118190476D02*
X164452380Y-118190476D01*
X163880952Y-118190476D02*
X163833333Y-118142857D01*
X163785714Y-118047619D01*
X163785714Y-117904761D01*
X163833333Y-117809523D01*
X163928571Y-117761904D01*
X164452380Y-117761904D01*
X163785714Y-117428571D02*
X163785714Y-117047619D01*
X163452380Y-117285714D02*
X164309523Y-117285714D01*
X164404761Y-117238095D01*
X164452380Y-117142857D01*
X164452380Y-117047619D01*
X164452380Y-116190476D02*
X164452380Y-116761904D01*
X164452380Y-116476190D02*
X163452380Y-116476190D01*
X163595238Y-116571428D01*
X163690476Y-116666666D01*
X163738095Y-116761904D01*
X121690476Y-100452380D02*
X121690476Y-99452380D01*
X122023809Y-100166666D01*
X122357142Y-99452380D01*
X122357142Y-100452380D01*
X122976190Y-100452380D02*
X122880952Y-100404761D01*
X122833333Y-100357142D01*
X122785714Y-100261904D01*
X122785714Y-99976190D01*
X122833333Y-99880952D01*
X122880952Y-99833333D01*
X122976190Y-99785714D01*
X123119047Y-99785714D01*
X123214285Y-99833333D01*
X123261904Y-99880952D01*
X123309523Y-99976190D01*
X123309523Y-100261904D01*
X123261904Y-100357142D01*
X123214285Y-100404761D01*
X123119047Y-100452380D01*
X122976190Y-100452380D01*
X123595238Y-99785714D02*
X123976190Y-99785714D01*
X123738095Y-99452380D02*
X123738095Y-100309523D01*
X123785714Y-100404761D01*
X123880952Y-100452380D01*
X123976190Y-100452380D01*
X124452380Y-100452380D02*
X124357142Y-100404761D01*
X124309523Y-100357142D01*
X124261904Y-100261904D01*
X124261904Y-99976190D01*
X124309523Y-99880952D01*
X124357142Y-99833333D01*
X124452380Y-99785714D01*
X124595238Y-99785714D01*
X124690476Y-99833333D01*
X124738095Y-99880952D01*
X124785714Y-99976190D01*
X124785714Y-100261904D01*
X124738095Y-100357142D01*
X124690476Y-100404761D01*
X124595238Y-100452380D01*
X124452380Y-100452380D01*
X125214285Y-100452380D02*
X125214285Y-99785714D01*
X125214285Y-99976190D02*
X125261904Y-99880952D01*
X125309523Y-99833333D01*
X125404761Y-99785714D01*
X125500000Y-99785714D01*
X126357142Y-100452380D02*
X125785714Y-100452380D01*
X126071428Y-100452380D02*
X126071428Y-99452380D01*
X125976190Y-99595238D01*
X125880952Y-99690476D01*
X125785714Y-99738095D01*
X124452380Y-75273809D02*
X125452380Y-75035714D01*
X124738095Y-74845238D01*
X125452380Y-74654761D01*
X124452380Y-74416666D01*
X125452380Y-74035714D02*
X124785714Y-74035714D01*
X124452380Y-74035714D02*
X124500000Y-74083333D01*
X124547619Y-74035714D01*
X124500000Y-73988095D01*
X124452380Y-74035714D01*
X124547619Y-74035714D01*
X124785714Y-73559523D02*
X125452380Y-73559523D01*
X124880952Y-73559523D02*
X124833333Y-73511904D01*
X124785714Y-73416666D01*
X124785714Y-73273809D01*
X124833333Y-73178571D01*
X124928571Y-73130952D01*
X125452380Y-73130952D01*
X125452380Y-72226190D02*
X124452380Y-72226190D01*
X125404761Y-72226190D02*
X125452380Y-72321428D01*
X125452380Y-72511904D01*
X125404761Y-72607142D01*
X125357142Y-72654761D01*
X125261904Y-72702380D01*
X124976190Y-72702380D01*
X124880952Y-72654761D01*
X124833333Y-72607142D01*
X124785714Y-72511904D01*
X124785714Y-72321428D01*
X124833333Y-72226190D01*
X125452380Y-71607142D02*
X125404761Y-71702380D01*
X125357142Y-71750000D01*
X125261904Y-71797619D01*
X124976190Y-71797619D01*
X124880952Y-71750000D01*
X124833333Y-71702380D01*
X124785714Y-71607142D01*
X124785714Y-71464285D01*
X124833333Y-71369047D01*
X124880952Y-71321428D01*
X124976190Y-71273809D01*
X125261904Y-71273809D01*
X125357142Y-71321428D01*
X125404761Y-71369047D01*
X125452380Y-71464285D01*
X125452380Y-71607142D01*
X124785714Y-70940476D02*
X125452380Y-70750000D01*
X124976190Y-70559523D01*
X125452380Y-70369047D01*
X124785714Y-70178571D01*
X125452380Y-69273809D02*
X125452380Y-69845238D01*
X125452380Y-69559523D02*
X124452380Y-69559523D01*
X124595238Y-69654761D01*
X124690476Y-69750000D01*
X124738095Y-69845238D01*
X155023333Y-141372380D02*
X154690000Y-140896190D01*
X154451904Y-141372380D02*
X154451904Y-140372380D01*
X154832857Y-140372380D01*
X154928095Y-140420000D01*
X154975714Y-140467619D01*
X155023333Y-140562857D01*
X155023333Y-140705714D01*
X154975714Y-140800952D01*
X154928095Y-140848571D01*
X154832857Y-140896190D01*
X154451904Y-140896190D01*
X155356666Y-140372380D02*
X155975714Y-140372380D01*
X155642380Y-140753333D01*
X155785238Y-140753333D01*
X155880476Y-140800952D01*
X155928095Y-140848571D01*
X155975714Y-140943809D01*
X155975714Y-141181904D01*
X155928095Y-141277142D01*
X155880476Y-141324761D01*
X155785238Y-141372380D01*
X155499523Y-141372380D01*
X155404285Y-141324761D01*
X155356666Y-141277142D01*
X176166666Y-67452380D02*
X176166666Y-68166666D01*
X176119047Y-68309523D01*
X176023809Y-68404761D01*
X175880952Y-68452380D01*
X175785714Y-68452380D01*
X176642857Y-68452380D02*
X176642857Y-67452380D01*
X177023809Y-67452380D01*
X177119047Y-67500000D01*
X177166666Y-67547619D01*
X177214285Y-67642857D01*
X177214285Y-67785714D01*
X177166666Y-67880952D01*
X177119047Y-67928571D01*
X177023809Y-67976190D01*
X176642857Y-67976190D01*
X177595238Y-67547619D02*
X177642857Y-67500000D01*
X177738095Y-67452380D01*
X177976190Y-67452380D01*
X178071428Y-67500000D01*
X178119047Y-67547619D01*
X178166666Y-67642857D01*
X178166666Y-67738095D01*
X178119047Y-67880952D01*
X177547619Y-68452380D01*
X178166666Y-68452380D01*
X186142857Y-70452380D02*
X186142857Y-69452380D01*
X186476190Y-70166666D01*
X186809523Y-69452380D01*
X186809523Y-70452380D01*
X187714285Y-70452380D02*
X187714285Y-69928571D01*
X187666666Y-69833333D01*
X187571428Y-69785714D01*
X187380952Y-69785714D01*
X187285714Y-69833333D01*
X187714285Y-70404761D02*
X187619047Y-70452380D01*
X187380952Y-70452380D01*
X187285714Y-70404761D01*
X187238095Y-70309523D01*
X187238095Y-70214285D01*
X187285714Y-70119047D01*
X187380952Y-70071428D01*
X187619047Y-70071428D01*
X187714285Y-70023809D01*
X188190476Y-70452380D02*
X188190476Y-69785714D01*
X188190476Y-69452380D02*
X188142857Y-69500000D01*
X188190476Y-69547619D01*
X188238095Y-69500000D01*
X188190476Y-69452380D01*
X188190476Y-69547619D01*
X188666666Y-69785714D02*
X188666666Y-70452380D01*
X188666666Y-69880952D02*
X188714285Y-69833333D01*
X188809523Y-69785714D01*
X188952380Y-69785714D01*
X189047619Y-69833333D01*
X189095238Y-69928571D01*
X189095238Y-70452380D01*
X190047619Y-69452380D02*
X189571428Y-69452380D01*
X189523809Y-69928571D01*
X189571428Y-69880952D01*
X189666666Y-69833333D01*
X189904761Y-69833333D01*
X190000000Y-69880952D01*
X190047619Y-69928571D01*
X190095238Y-70023809D01*
X190095238Y-70261904D01*
X190047619Y-70357142D01*
X190000000Y-70404761D01*
X189904761Y-70452380D01*
X189666666Y-70452380D01*
X189571428Y-70404761D01*
X189523809Y-70357142D01*
X190380952Y-69452380D02*
X190714285Y-70452380D01*
X191047619Y-69452380D01*
X191904761Y-70452380D02*
X191333333Y-70452380D01*
X191619047Y-70452380D02*
X191619047Y-69452380D01*
X191523809Y-69595238D01*
X191428571Y-69690476D01*
X191333333Y-69738095D01*
X174166666Y-57452380D02*
X174166666Y-58166666D01*
X174119047Y-58309523D01*
X174023809Y-58404761D01*
X173880952Y-58452380D01*
X173785714Y-58452380D01*
X174642857Y-58452380D02*
X174642857Y-57452380D01*
X175023809Y-57452380D01*
X175119047Y-57500000D01*
X175166666Y-57547619D01*
X175214285Y-57642857D01*
X175214285Y-57785714D01*
X175166666Y-57880952D01*
X175119047Y-57928571D01*
X175023809Y-57976190D01*
X174642857Y-57976190D01*
X176166666Y-58452380D02*
X175595238Y-58452380D01*
X175880952Y-58452380D02*
X175880952Y-57452380D01*
X175785714Y-57595238D01*
X175690476Y-57690476D01*
X175595238Y-57738095D01*
X143023333Y-141372380D02*
X142690000Y-140896190D01*
X142451904Y-141372380D02*
X142451904Y-140372380D01*
X142832857Y-140372380D01*
X142928095Y-140420000D01*
X142975714Y-140467619D01*
X143023333Y-140562857D01*
X143023333Y-140705714D01*
X142975714Y-140800952D01*
X142928095Y-140848571D01*
X142832857Y-140896190D01*
X142451904Y-140896190D01*
X143880476Y-140705714D02*
X143880476Y-141372380D01*
X143642380Y-140324761D02*
X143404285Y-141039047D01*
X144023333Y-141039047D01*
X143023333Y-137372380D02*
X142690000Y-136896190D01*
X142451904Y-137372380D02*
X142451904Y-136372380D01*
X142832857Y-136372380D01*
X142928095Y-136420000D01*
X142975714Y-136467619D01*
X143023333Y-136562857D01*
X143023333Y-136705714D01*
X142975714Y-136800952D01*
X142928095Y-136848571D01*
X142832857Y-136896190D01*
X142451904Y-136896190D01*
X143404285Y-136467619D02*
X143451904Y-136420000D01*
X143547142Y-136372380D01*
X143785238Y-136372380D01*
X143880476Y-136420000D01*
X143928095Y-136467619D01*
X143975714Y-136562857D01*
X143975714Y-136658095D01*
X143928095Y-136800952D01*
X143356666Y-137372380D01*
X143975714Y-137372380D01*
X155023333Y-137372380D02*
X154690000Y-136896190D01*
X154451904Y-137372380D02*
X154451904Y-136372380D01*
X154832857Y-136372380D01*
X154928095Y-136420000D01*
X154975714Y-136467619D01*
X155023333Y-136562857D01*
X155023333Y-136705714D01*
X154975714Y-136800952D01*
X154928095Y-136848571D01*
X154832857Y-136896190D01*
X154451904Y-136896190D01*
X155975714Y-137372380D02*
X155404285Y-137372380D01*
X155690000Y-137372380D02*
X155690000Y-136372380D01*
X155594761Y-136515238D01*
X155499523Y-136610476D01*
X155404285Y-136658095D01*
X182928571Y-123976190D02*
X182976190Y-123833333D01*
X183023809Y-123785714D01*
X183119047Y-123738095D01*
X183261904Y-123738095D01*
X183357142Y-123785714D01*
X183404761Y-123833333D01*
X183452380Y-123928571D01*
X183452380Y-124309523D01*
X182452380Y-124309523D01*
X182452380Y-123976190D01*
X182500000Y-123880952D01*
X182547619Y-123833333D01*
X182642857Y-123785714D01*
X182738095Y-123785714D01*
X182833333Y-123833333D01*
X182880952Y-123880952D01*
X182928571Y-123976190D01*
X182928571Y-124309523D01*
X183452380Y-122880952D02*
X182928571Y-122880952D01*
X182833333Y-122928571D01*
X182785714Y-123023809D01*
X182785714Y-123214285D01*
X182833333Y-123309523D01*
X183404761Y-122880952D02*
X183452380Y-122976190D01*
X183452380Y-123214285D01*
X183404761Y-123309523D01*
X183309523Y-123357142D01*
X183214285Y-123357142D01*
X183119047Y-123309523D01*
X183071428Y-123214285D01*
X183071428Y-122976190D01*
X183023809Y-122880952D01*
X182785714Y-122547619D02*
X182785714Y-122166666D01*
X182452380Y-122404761D02*
X183309523Y-122404761D01*
X183404761Y-122357142D01*
X183452380Y-122261904D01*
X183452380Y-122166666D01*
X182785714Y-121976190D02*
X182785714Y-121595238D01*
X182452380Y-121833333D02*
X183309523Y-121833333D01*
X183404761Y-121785714D01*
X183452380Y-121690476D01*
X183452380Y-121595238D01*
X183404761Y-120880952D02*
X183452380Y-120976190D01*
X183452380Y-121166666D01*
X183404761Y-121261904D01*
X183309523Y-121309523D01*
X182928571Y-121309523D01*
X182833333Y-121261904D01*
X182785714Y-121166666D01*
X182785714Y-120976190D01*
X182833333Y-120880952D01*
X182928571Y-120833333D01*
X183023809Y-120833333D01*
X183119047Y-121309523D01*
X183452380Y-120404761D02*
X182785714Y-120404761D01*
X182976190Y-120404761D02*
X182880952Y-120357142D01*
X182833333Y-120309523D01*
X182785714Y-120214285D01*
X182785714Y-120119047D01*
X182785714Y-119880952D02*
X183452380Y-119642857D01*
X182785714Y-119404761D02*
X183452380Y-119642857D01*
X183690476Y-119738095D01*
X183738095Y-119785714D01*
X183785714Y-119880952D01*
X182452380Y-119166666D02*
X183452380Y-118833333D01*
X182452380Y-118500000D01*
X183357142Y-117595238D02*
X183404761Y-117642857D01*
X183452380Y-117785714D01*
X183452380Y-117880952D01*
X183404761Y-118023809D01*
X183309523Y-118119047D01*
X183214285Y-118166666D01*
X183023809Y-118214285D01*
X182880952Y-118214285D01*
X182690476Y-118166666D01*
X182595238Y-118119047D01*
X182500000Y-118023809D01*
X182452380Y-117880952D01*
X182452380Y-117785714D01*
X182500000Y-117642857D01*
X182547619Y-117595238D01*
X183357142Y-116595238D02*
X183404761Y-116642857D01*
X183452380Y-116785714D01*
X183452380Y-116880952D01*
X183404761Y-117023809D01*
X183309523Y-117119047D01*
X183214285Y-117166666D01*
X183023809Y-117214285D01*
X182880952Y-117214285D01*
X182690476Y-117166666D01*
X182595238Y-117119047D01*
X182500000Y-117023809D01*
X182452380Y-116880952D01*
X182452380Y-116785714D01*
X182500000Y-116642857D01*
X182547619Y-116595238D01*
X183452380Y-115642857D02*
X183452380Y-116214285D01*
X183452380Y-115928571D02*
X182452380Y-115928571D01*
X182595238Y-116023809D01*
X182690476Y-116119047D01*
X182738095Y-116214285D01*
X133190476Y-73452380D02*
X133190476Y-74166666D01*
X133142857Y-74309523D01*
X133047619Y-74404761D01*
X132904761Y-74452380D01*
X132809523Y-74452380D01*
X134190476Y-74452380D02*
X133619047Y-74452380D01*
X133904761Y-74452380D02*
X133904761Y-73452380D01*
X133809523Y-73595238D01*
X133714285Y-73690476D01*
X133619047Y-73738095D01*
X134571428Y-73547619D02*
X134619047Y-73500000D01*
X134714285Y-73452380D01*
X134952380Y-73452380D01*
X135047619Y-73500000D01*
X135095238Y-73547619D01*
X135142857Y-73642857D01*
X135142857Y-73738095D01*
X135095238Y-73880952D01*
X134523809Y-74452380D01*
X135142857Y-74452380D01*
X151190476Y-73452380D02*
X151190476Y-74166666D01*
X151142857Y-74309523D01*
X151047619Y-74404761D01*
X150904761Y-74452380D01*
X150809523Y-74452380D01*
X152190476Y-74452380D02*
X151619047Y-74452380D01*
X151904761Y-74452380D02*
X151904761Y-73452380D01*
X151809523Y-73595238D01*
X151714285Y-73690476D01*
X151619047Y-73738095D01*
X153142857Y-74452380D02*
X152571428Y-74452380D01*
X152857142Y-74452380D02*
X152857142Y-73452380D01*
X152761904Y-73595238D01*
X152666666Y-73690476D01*
X152571428Y-73738095D01*
X109392857Y-111902380D02*
X108916666Y-111902380D01*
X108916666Y-110902380D01*
X109726190Y-111902380D02*
X109726190Y-111235714D01*
X109726190Y-110902380D02*
X109678571Y-110950000D01*
X109726190Y-110997619D01*
X109773809Y-110950000D01*
X109726190Y-110902380D01*
X109726190Y-110997619D01*
X110630952Y-111235714D02*
X110630952Y-112045238D01*
X110583333Y-112140476D01*
X110535714Y-112188095D01*
X110440476Y-112235714D01*
X110297619Y-112235714D01*
X110202380Y-112188095D01*
X110630952Y-111854761D02*
X110535714Y-111902380D01*
X110345238Y-111902380D01*
X110250000Y-111854761D01*
X110202380Y-111807142D01*
X110154761Y-111711904D01*
X110154761Y-111426190D01*
X110202380Y-111330952D01*
X110250000Y-111283333D01*
X110345238Y-111235714D01*
X110535714Y-111235714D01*
X110630952Y-111283333D01*
X111107142Y-111902380D02*
X111107142Y-110902380D01*
X111535714Y-111902380D02*
X111535714Y-111378571D01*
X111488095Y-111283333D01*
X111392857Y-111235714D01*
X111250000Y-111235714D01*
X111154761Y-111283333D01*
X111107142Y-111330952D01*
X111869047Y-111235714D02*
X112250000Y-111235714D01*
X112011904Y-110902380D02*
X112011904Y-111759523D01*
X112059523Y-111854761D01*
X112154761Y-111902380D01*
X112250000Y-111902380D01*
X113059523Y-111902380D02*
X112583333Y-111902380D01*
X112583333Y-110902380D01*
X113535714Y-111902380D02*
X113440476Y-111854761D01*
X113392857Y-111807142D01*
X113345238Y-111711904D01*
X113345238Y-111426190D01*
X113392857Y-111330952D01*
X113440476Y-111283333D01*
X113535714Y-111235714D01*
X113678571Y-111235714D01*
X113773809Y-111283333D01*
X113821428Y-111330952D01*
X113869047Y-111426190D01*
X113869047Y-111711904D01*
X113821428Y-111807142D01*
X113773809Y-111854761D01*
X113678571Y-111902380D01*
X113535714Y-111902380D01*
X114726190Y-111902380D02*
X114726190Y-111378571D01*
X114678571Y-111283333D01*
X114583333Y-111235714D01*
X114392857Y-111235714D01*
X114297619Y-111283333D01*
X114726190Y-111854761D02*
X114630952Y-111902380D01*
X114392857Y-111902380D01*
X114297619Y-111854761D01*
X114250000Y-111759523D01*
X114250000Y-111664285D01*
X114297619Y-111569047D01*
X114392857Y-111521428D01*
X114630952Y-111521428D01*
X114726190Y-111473809D01*
X115630952Y-111902380D02*
X115630952Y-110902380D01*
X115630952Y-111854761D02*
X115535714Y-111902380D01*
X115345238Y-111902380D01*
X115250000Y-111854761D01*
X115202380Y-111807142D01*
X115154761Y-111711904D01*
X115154761Y-111426190D01*
X115202380Y-111330952D01*
X115250000Y-111283333D01*
X115345238Y-111235714D01*
X115535714Y-111235714D01*
X115630952Y-111283333D01*
X116630952Y-111902380D02*
X116059523Y-111902380D01*
X116345238Y-111902380D02*
X116345238Y-110902380D01*
X116250000Y-111045238D01*
X116154761Y-111140476D01*
X116059523Y-111188095D01*
X111250000Y-101902380D02*
X110773809Y-101902380D01*
X110773809Y-100902380D01*
X111583333Y-101902380D02*
X111583333Y-101235714D01*
X111583333Y-100902380D02*
X111535714Y-100950000D01*
X111583333Y-100997619D01*
X111630952Y-100950000D01*
X111583333Y-100902380D01*
X111583333Y-100997619D01*
X112488095Y-101235714D02*
X112488095Y-102045238D01*
X112440476Y-102140476D01*
X112392857Y-102188095D01*
X112297619Y-102235714D01*
X112154761Y-102235714D01*
X112059523Y-102188095D01*
X112488095Y-101854761D02*
X112392857Y-101902380D01*
X112202380Y-101902380D01*
X112107142Y-101854761D01*
X112059523Y-101807142D01*
X112011904Y-101711904D01*
X112011904Y-101426190D01*
X112059523Y-101330952D01*
X112107142Y-101283333D01*
X112202380Y-101235714D01*
X112392857Y-101235714D01*
X112488095Y-101283333D01*
X112964285Y-101902380D02*
X112964285Y-100902380D01*
X113392857Y-101902380D02*
X113392857Y-101378571D01*
X113345238Y-101283333D01*
X113250000Y-101235714D01*
X113107142Y-101235714D01*
X113011904Y-101283333D01*
X112964285Y-101330952D01*
X113726190Y-101235714D02*
X114107142Y-101235714D01*
X113869047Y-100902380D02*
X113869047Y-101759523D01*
X113916666Y-101854761D01*
X114011904Y-101902380D01*
X114107142Y-101902380D01*
X114392857Y-101854761D02*
X114535714Y-101902380D01*
X114773809Y-101902380D01*
X114869047Y-101854761D01*
X114916666Y-101807142D01*
X114964285Y-101711904D01*
X114964285Y-101616666D01*
X114916666Y-101521428D01*
X114869047Y-101473809D01*
X114773809Y-101426190D01*
X114583333Y-101378571D01*
X114488095Y-101330952D01*
X114440476Y-101283333D01*
X114392857Y-101188095D01*
X114392857Y-101092857D01*
X114440476Y-100997619D01*
X114488095Y-100950000D01*
X114583333Y-100902380D01*
X114821428Y-100902380D01*
X114964285Y-100950000D01*
X115297619Y-101235714D02*
X115488095Y-101902380D01*
X115678571Y-101426190D01*
X115869047Y-101902380D01*
X116059523Y-101235714D01*
X116440476Y-101902380D02*
X116440476Y-101235714D01*
X116440476Y-100902380D02*
X116392857Y-100950000D01*
X116440476Y-100997619D01*
X116488095Y-100950000D01*
X116440476Y-100902380D01*
X116440476Y-100997619D01*
X116773809Y-101235714D02*
X117154761Y-101235714D01*
X116916666Y-100902380D02*
X116916666Y-101759523D01*
X116964285Y-101854761D01*
X117059523Y-101902380D01*
X117154761Y-101902380D01*
X117916666Y-101854761D02*
X117821428Y-101902380D01*
X117630952Y-101902380D01*
X117535714Y-101854761D01*
X117488095Y-101807142D01*
X117440476Y-101711904D01*
X117440476Y-101426190D01*
X117488095Y-101330952D01*
X117535714Y-101283333D01*
X117630952Y-101235714D01*
X117821428Y-101235714D01*
X117916666Y-101283333D01*
X118345238Y-101902380D02*
X118345238Y-100902380D01*
X118773809Y-101902380D02*
X118773809Y-101378571D01*
X118726190Y-101283333D01*
X118630952Y-101235714D01*
X118488095Y-101235714D01*
X118392857Y-101283333D01*
X118345238Y-101330952D01*
X119773809Y-101902380D02*
X119202380Y-101902380D01*
X119488095Y-101902380D02*
X119488095Y-100902380D01*
X119392857Y-101045238D01*
X119297619Y-101140476D01*
X119202380Y-101188095D01*
X185452380Y-142928571D02*
X185595238Y-142976190D01*
X185642857Y-143023809D01*
X185690476Y-143119047D01*
X185690476Y-143261904D01*
X185642857Y-143357142D01*
X185595238Y-143404761D01*
X185500000Y-143452380D01*
X185119047Y-143452380D01*
X185119047Y-142452380D01*
X185452380Y-142452380D01*
X185547619Y-142500000D01*
X185595238Y-142547619D01*
X185642857Y-142642857D01*
X185642857Y-142738095D01*
X185595238Y-142833333D01*
X185547619Y-142880952D01*
X185452380Y-142928571D01*
X185119047Y-142928571D01*
X186547619Y-143452380D02*
X186547619Y-142928571D01*
X186500000Y-142833333D01*
X186404761Y-142785714D01*
X186214285Y-142785714D01*
X186119047Y-142833333D01*
X186547619Y-143404761D02*
X186452380Y-143452380D01*
X186214285Y-143452380D01*
X186119047Y-143404761D01*
X186071428Y-143309523D01*
X186071428Y-143214285D01*
X186119047Y-143119047D01*
X186214285Y-143071428D01*
X186452380Y-143071428D01*
X186547619Y-143023809D01*
X186880952Y-142785714D02*
X187261904Y-142785714D01*
X187023809Y-142452380D02*
X187023809Y-143309523D01*
X187071428Y-143404761D01*
X187166666Y-143452380D01*
X187261904Y-143452380D01*
X187452380Y-142785714D02*
X187833333Y-142785714D01*
X187595238Y-142452380D02*
X187595238Y-143309523D01*
X187642857Y-143404761D01*
X187738095Y-143452380D01*
X187833333Y-143452380D01*
X188547619Y-143404761D02*
X188452380Y-143452380D01*
X188261904Y-143452380D01*
X188166666Y-143404761D01*
X188119047Y-143309523D01*
X188119047Y-142928571D01*
X188166666Y-142833333D01*
X188261904Y-142785714D01*
X188452380Y-142785714D01*
X188547619Y-142833333D01*
X188595238Y-142928571D01*
X188595238Y-143023809D01*
X188119047Y-143119047D01*
X189023809Y-143452380D02*
X189023809Y-142785714D01*
X189023809Y-142976190D02*
X189071428Y-142880952D01*
X189119047Y-142833333D01*
X189214285Y-142785714D01*
X189309523Y-142785714D01*
X189547619Y-142785714D02*
X189785714Y-143452380D01*
X190023809Y-142785714D02*
X189785714Y-143452380D01*
X189690476Y-143690476D01*
X189642857Y-143738095D01*
X189547619Y-143785714D01*
X190928571Y-143452380D02*
X190357142Y-143452380D01*
X190642857Y-143452380D02*
X190642857Y-142452380D01*
X190547619Y-142595238D01*
X190452380Y-142690476D01*
X190357142Y-142738095D01*
X166452380Y-102952380D02*
X165976190Y-103285714D01*
X166452380Y-103523809D02*
X165452380Y-103523809D01*
X165452380Y-103142857D01*
X165500000Y-103047619D01*
X165547619Y-103000000D01*
X165642857Y-102952380D01*
X165785714Y-102952380D01*
X165880952Y-103000000D01*
X165928571Y-103047619D01*
X165976190Y-103142857D01*
X165976190Y-103523809D01*
X166404761Y-102142857D02*
X166452380Y-102238095D01*
X166452380Y-102428571D01*
X166404761Y-102523809D01*
X166309523Y-102571428D01*
X165928571Y-102571428D01*
X165833333Y-102523809D01*
X165785714Y-102428571D01*
X165785714Y-102238095D01*
X165833333Y-102142857D01*
X165928571Y-102095238D01*
X166023809Y-102095238D01*
X166119047Y-102571428D01*
X166452380Y-101523809D02*
X166404761Y-101619047D01*
X166309523Y-101666666D01*
X165452380Y-101666666D01*
X166452380Y-100714285D02*
X165928571Y-100714285D01*
X165833333Y-100761904D01*
X165785714Y-100857142D01*
X165785714Y-101047619D01*
X165833333Y-101142857D01*
X166404761Y-100714285D02*
X166452380Y-100809523D01*
X166452380Y-101047619D01*
X166404761Y-101142857D01*
X166309523Y-101190476D01*
X166214285Y-101190476D01*
X166119047Y-101142857D01*
X166071428Y-101047619D01*
X166071428Y-100809523D01*
X166023809Y-100714285D01*
X166452380Y-100238095D02*
X165785714Y-100238095D01*
X165452380Y-100238095D02*
X165500000Y-100285714D01*
X165547619Y-100238095D01*
X165500000Y-100190476D01*
X165452380Y-100238095D01*
X165547619Y-100238095D01*
X166404761Y-99809523D02*
X166452380Y-99714285D01*
X166452380Y-99523809D01*
X166404761Y-99428571D01*
X166309523Y-99380952D01*
X166261904Y-99380952D01*
X166166666Y-99428571D01*
X166119047Y-99523809D01*
X166119047Y-99666666D01*
X166071428Y-99761904D01*
X165976190Y-99809523D01*
X165928571Y-99809523D01*
X165833333Y-99761904D01*
X165785714Y-99666666D01*
X165785714Y-99523809D01*
X165833333Y-99428571D01*
X166452380Y-98428571D02*
X166452380Y-99000000D01*
X166452380Y-98714285D02*
X165452380Y-98714285D01*
X165595238Y-98809523D01*
X165690476Y-98904761D01*
X165738095Y-99000000D01*
X178047619Y-112452380D02*
X178047619Y-111452380D01*
X178285714Y-111452380D01*
X178428571Y-111500000D01*
X178523809Y-111595238D01*
X178571428Y-111690476D01*
X178619047Y-111880952D01*
X178619047Y-112023809D01*
X178571428Y-112214285D01*
X178523809Y-112309523D01*
X178428571Y-112404761D01*
X178285714Y-112452380D01*
X178047619Y-112452380D01*
X179190476Y-112452380D02*
X179095238Y-112404761D01*
X179047619Y-112357142D01*
X179000000Y-112261904D01*
X179000000Y-111976190D01*
X179047619Y-111880952D01*
X179095238Y-111833333D01*
X179190476Y-111785714D01*
X179333333Y-111785714D01*
X179428571Y-111833333D01*
X179476190Y-111880952D01*
X179523809Y-111976190D01*
X179523809Y-112261904D01*
X179476190Y-112357142D01*
X179428571Y-112404761D01*
X179333333Y-112452380D01*
X179190476Y-112452380D01*
X180095238Y-112452380D02*
X180000000Y-112404761D01*
X179952380Y-112357142D01*
X179904761Y-112261904D01*
X179904761Y-111976190D01*
X179952380Y-111880952D01*
X180000000Y-111833333D01*
X180095238Y-111785714D01*
X180238095Y-111785714D01*
X180333333Y-111833333D01*
X180380952Y-111880952D01*
X180428571Y-111976190D01*
X180428571Y-112261904D01*
X180380952Y-112357142D01*
X180333333Y-112404761D01*
X180238095Y-112452380D01*
X180095238Y-112452380D01*
X180857142Y-112452380D02*
X180857142Y-111785714D01*
X180857142Y-111976190D02*
X180904761Y-111880952D01*
X180952380Y-111833333D01*
X181047619Y-111785714D01*
X181142857Y-111785714D01*
X182000000Y-112452380D02*
X181428571Y-112452380D01*
X181714285Y-112452380D02*
X181714285Y-111452380D01*
X181619047Y-111595238D01*
X181523809Y-111690476D01*
X181428571Y-111738095D01*
X107988095Y-120902380D02*
X107988095Y-119902380D01*
X108321428Y-120616666D01*
X108654761Y-119902380D01*
X108654761Y-120902380D01*
X109273809Y-120902380D02*
X109178571Y-120854761D01*
X109130952Y-120807142D01*
X109083333Y-120711904D01*
X109083333Y-120426190D01*
X109130952Y-120330952D01*
X109178571Y-120283333D01*
X109273809Y-120235714D01*
X109416666Y-120235714D01*
X109511904Y-120283333D01*
X109559523Y-120330952D01*
X109607142Y-120426190D01*
X109607142Y-120711904D01*
X109559523Y-120807142D01*
X109511904Y-120854761D01*
X109416666Y-120902380D01*
X109273809Y-120902380D01*
X109892857Y-120235714D02*
X110273809Y-120235714D01*
X110035714Y-119902380D02*
X110035714Y-120759523D01*
X110083333Y-120854761D01*
X110178571Y-120902380D01*
X110273809Y-120902380D01*
X111130952Y-120902380D02*
X110559523Y-120902380D01*
X110845238Y-120902380D02*
X110845238Y-119902380D01*
X110750000Y-120045238D01*
X110654761Y-120140476D01*
X110559523Y-120188095D01*
X112130952Y-120807142D02*
X112083333Y-120854761D01*
X111940476Y-120902380D01*
X111845238Y-120902380D01*
X111702380Y-120854761D01*
X111607142Y-120759523D01*
X111559523Y-120664285D01*
X111511904Y-120473809D01*
X111511904Y-120330952D01*
X111559523Y-120140476D01*
X111607142Y-120045238D01*
X111702380Y-119950000D01*
X111845238Y-119902380D01*
X111940476Y-119902380D01*
X112083333Y-119950000D01*
X112130952Y-119997619D01*
X112988095Y-120235714D02*
X112988095Y-120902380D01*
X112559523Y-120235714D02*
X112559523Y-120759523D01*
X112607142Y-120854761D01*
X112702380Y-120902380D01*
X112845238Y-120902380D01*
X112940476Y-120854761D01*
X112988095Y-120807142D01*
X113464285Y-120902380D02*
X113464285Y-120235714D01*
X113464285Y-120426190D02*
X113511904Y-120330952D01*
X113559523Y-120283333D01*
X113654761Y-120235714D01*
X113750000Y-120235714D01*
X114083333Y-120902380D02*
X114083333Y-120235714D01*
X114083333Y-120426190D02*
X114130952Y-120330952D01*
X114178571Y-120283333D01*
X114273809Y-120235714D01*
X114369047Y-120235714D01*
X115083333Y-120854761D02*
X114988095Y-120902380D01*
X114797619Y-120902380D01*
X114702380Y-120854761D01*
X114654761Y-120759523D01*
X114654761Y-120378571D01*
X114702380Y-120283333D01*
X114797619Y-120235714D01*
X114988095Y-120235714D01*
X115083333Y-120283333D01*
X115130952Y-120378571D01*
X115130952Y-120473809D01*
X114654761Y-120569047D01*
X115559523Y-120235714D02*
X115559523Y-120902380D01*
X115559523Y-120330952D02*
X115607142Y-120283333D01*
X115702380Y-120235714D01*
X115845238Y-120235714D01*
X115940476Y-120283333D01*
X115988095Y-120378571D01*
X115988095Y-120902380D01*
X116321428Y-120235714D02*
X116702380Y-120235714D01*
X116464285Y-119902380D02*
X116464285Y-120759523D01*
X116511904Y-120854761D01*
X116607142Y-120902380D01*
X116702380Y-120902380D01*
X117559523Y-120902380D02*
X116988095Y-120902380D01*
X117273809Y-120902380D02*
X117273809Y-119902380D01*
X117178571Y-120045238D01*
X117083333Y-120140476D01*
X116988095Y-120188095D01*
X142547619Y-74452380D02*
X142547619Y-73452380D01*
X142976190Y-73547619D02*
X143023809Y-73500000D01*
X143119047Y-73452380D01*
X143357142Y-73452380D01*
X143452380Y-73500000D01*
X143500000Y-73547619D01*
X143547619Y-73642857D01*
X143547619Y-73738095D01*
X143500000Y-73880952D01*
X142928571Y-74452380D01*
X143547619Y-74452380D01*
X144547619Y-74357142D02*
X144500000Y-74404761D01*
X144357142Y-74452380D01*
X144261904Y-74452380D01*
X144119047Y-74404761D01*
X144023809Y-74309523D01*
X143976190Y-74214285D01*
X143928571Y-74023809D01*
X143928571Y-73880952D01*
X143976190Y-73690476D01*
X144023809Y-73595238D01*
X144119047Y-73500000D01*
X144261904Y-73452380D01*
X144357142Y-73452380D01*
X144500000Y-73500000D01*
X144547619Y-73547619D01*
X145500000Y-74452380D02*
X144928571Y-74452380D01*
X145214285Y-74452380D02*
X145214285Y-73452380D01*
X145119047Y-73595238D01*
X145023809Y-73690476D01*
X144928571Y-73738095D01*
D10*
X162750000Y-57150000D02*
X161500000Y-57150000D01*
X162750000Y-58400000D02*
X162750000Y-57150000D01*
X157250000Y-71800000D02*
X157250000Y-65000000D01*
X160200000Y-71800000D02*
X157250000Y-71800000D01*
X160200000Y-72550000D02*
X160200000Y-71800000D01*
X157250000Y-58200000D02*
X157250000Y-65000000D01*
X160200000Y-58200000D02*
X157250000Y-58200000D01*
X160200000Y-57450000D02*
X160200000Y-58200000D01*
X162450000Y-72550000D02*
X162450000Y-70750000D01*
X161700000Y-72550000D02*
X162450000Y-72550000D01*
X161700000Y-70750000D02*
X161700000Y-72550000D01*
X162450000Y-70750000D02*
X161700000Y-70750000D01*
X162450000Y-59250000D02*
X162450000Y-57450000D01*
X161700000Y-59250000D02*
X162450000Y-59250000D01*
X161700000Y-57450000D02*
X161700000Y-59250000D01*
X162450000Y-57450000D02*
X161700000Y-57450000D01*
X162450000Y-69250000D02*
X162450000Y-60750000D01*
X161700000Y-69250000D02*
X162450000Y-69250000D01*
X161700000Y-60750000D02*
X161700000Y-69250000D01*
X162450000Y-60750000D02*
X161700000Y-60750000D01*
X162460000Y-72560000D02*
X162460000Y-57440000D01*
X156490000Y-72560000D02*
X162460000Y-72560000D01*
X156490000Y-57440000D02*
X156490000Y-72560000D01*
X162460000Y-57440000D02*
X156490000Y-57440000D01*
X165150000Y-118250000D02*
X165150000Y-119500000D01*
X166400000Y-118250000D02*
X165150000Y-118250000D01*
X177300000Y-123750000D02*
X171750000Y-123750000D01*
X177300000Y-120800000D02*
X177300000Y-123750000D01*
X178050000Y-120800000D02*
X177300000Y-120800000D01*
X166200000Y-123750000D02*
X171750000Y-123750000D01*
X166200000Y-120800000D02*
X166200000Y-123750000D01*
X165450000Y-120800000D02*
X166200000Y-120800000D01*
X178050000Y-118550000D02*
X176250000Y-118550000D01*
X178050000Y-119300000D02*
X178050000Y-118550000D01*
X176250000Y-119300000D02*
X178050000Y-119300000D01*
X176250000Y-118550000D02*
X176250000Y-119300000D01*
X167250000Y-118550000D02*
X165450000Y-118550000D01*
X167250000Y-119300000D02*
X167250000Y-118550000D01*
X165450000Y-119300000D02*
X167250000Y-119300000D01*
X165450000Y-118550000D02*
X165450000Y-119300000D01*
X174750000Y-118550000D02*
X168750000Y-118550000D01*
X174750000Y-119300000D02*
X174750000Y-118550000D01*
X168750000Y-119300000D02*
X174750000Y-119300000D01*
X168750000Y-118550000D02*
X168750000Y-119300000D01*
X178060000Y-118540000D02*
X165440000Y-118540000D01*
X178060000Y-124510000D02*
X178060000Y-118540000D01*
X165440000Y-124510000D02*
X178060000Y-124510000D01*
X165440000Y-118540000D02*
X165440000Y-124510000D01*
X126850000Y-98750000D02*
X126850000Y-97500000D01*
X125600000Y-98750000D02*
X126850000Y-98750000D01*
X104700000Y-93250000D02*
X115250000Y-93250000D01*
X104700000Y-96200000D02*
X104700000Y-93250000D01*
X103950000Y-96200000D02*
X104700000Y-96200000D01*
X125800000Y-93250000D02*
X115250000Y-93250000D01*
X125800000Y-96200000D02*
X125800000Y-93250000D01*
X126550000Y-96200000D02*
X125800000Y-96200000D01*
X103950000Y-98450000D02*
X105750000Y-98450000D01*
X103950000Y-97700000D02*
X103950000Y-98450000D01*
X105750000Y-97700000D02*
X103950000Y-97700000D01*
X105750000Y-98450000D02*
X105750000Y-97700000D01*
X124750000Y-98450000D02*
X126550000Y-98450000D01*
X124750000Y-97700000D02*
X124750000Y-98450000D01*
X126550000Y-97700000D02*
X124750000Y-97700000D01*
X126550000Y-98450000D02*
X126550000Y-97700000D01*
X107250000Y-98450000D02*
X123250000Y-98450000D01*
X107250000Y-97700000D02*
X107250000Y-98450000D01*
X123250000Y-97700000D02*
X107250000Y-97700000D01*
X123250000Y-98450000D02*
X123250000Y-97700000D01*
X103940000Y-98460000D02*
X126560000Y-98460000D01*
X103940000Y-92490000D02*
X103940000Y-98460000D01*
X126560000Y-92490000D02*
X103940000Y-92490000D01*
X126560000Y-98460000D02*
X126560000Y-92490000D01*
X117250000Y-83850000D02*
X118500000Y-83850000D01*
X117250000Y-82600000D02*
X117250000Y-83850000D01*
X122750000Y-61700000D02*
X122750000Y-72250000D01*
X119800000Y-61700000D02*
X122750000Y-61700000D01*
X119800000Y-60950000D02*
X119800000Y-61700000D01*
X122750000Y-82800000D02*
X122750000Y-72250000D01*
X119800000Y-82800000D02*
X122750000Y-82800000D01*
X119800000Y-83550000D02*
X119800000Y-82800000D01*
X117550000Y-60950000D02*
X117550000Y-62750000D01*
X118300000Y-60950000D02*
X117550000Y-60950000D01*
X118300000Y-62750000D02*
X118300000Y-60950000D01*
X117550000Y-62750000D02*
X118300000Y-62750000D01*
X117550000Y-81750000D02*
X117550000Y-83550000D01*
X118300000Y-81750000D02*
X117550000Y-81750000D01*
X118300000Y-83550000D02*
X118300000Y-81750000D01*
X117550000Y-83550000D02*
X118300000Y-83550000D01*
X117550000Y-64250000D02*
X117550000Y-80250000D01*
X118300000Y-64250000D02*
X117550000Y-64250000D01*
X118300000Y-80250000D02*
X118300000Y-64250000D01*
X117550000Y-80250000D02*
X118300000Y-80250000D01*
X117540000Y-60940000D02*
X117540000Y-83560000D01*
X123510000Y-60940000D02*
X117540000Y-60940000D01*
X123510000Y-83560000D02*
X123510000Y-60940000D01*
X117540000Y-83560000D02*
X123510000Y-83560000D01*
X152320000Y-139000000D02*
X153270000Y-139000000D01*
X158060000Y-139000000D02*
X157110000Y-139000000D01*
X153270000Y-139920000D02*
X157110000Y-139920000D01*
X153270000Y-138080000D02*
X153270000Y-139920000D01*
X157110000Y-138080000D02*
X153270000Y-138080000D01*
X157110000Y-139920000D02*
X157110000Y-138080000D01*
X179330000Y-65000000D02*
X179330000Y-66330000D01*
X179330000Y-66330000D02*
X178000000Y-66330000D01*
X176730000Y-66330000D02*
X171590000Y-66330000D01*
X171590000Y-63670000D02*
X171590000Y-66330000D01*
X176730000Y-63670000D02*
X171590000Y-63670000D01*
X176730000Y-63670000D02*
X176730000Y-66330000D01*
X186250000Y-68850000D02*
X187500000Y-68850000D01*
X186250000Y-67600000D02*
X186250000Y-68850000D01*
X191750000Y-59200000D02*
X191750000Y-63500000D01*
X188800000Y-59200000D02*
X191750000Y-59200000D01*
X188800000Y-58450000D02*
X188800000Y-59200000D01*
X191750000Y-67800000D02*
X191750000Y-63500000D01*
X188800000Y-67800000D02*
X191750000Y-67800000D01*
X188800000Y-68550000D02*
X188800000Y-67800000D01*
X186550000Y-58450000D02*
X186550000Y-60250000D01*
X187300000Y-58450000D02*
X186550000Y-58450000D01*
X187300000Y-60250000D02*
X187300000Y-58450000D01*
X186550000Y-60250000D02*
X187300000Y-60250000D01*
X186550000Y-66750000D02*
X186550000Y-68550000D01*
X187300000Y-66750000D02*
X186550000Y-66750000D01*
X187300000Y-68550000D02*
X187300000Y-66750000D01*
X186550000Y-68550000D02*
X187300000Y-68550000D01*
X186550000Y-61750000D02*
X186550000Y-65250000D01*
X187300000Y-61750000D02*
X186550000Y-61750000D01*
X187300000Y-65250000D02*
X187300000Y-61750000D01*
X186550000Y-65250000D02*
X187300000Y-65250000D01*
X186540000Y-58440000D02*
X186540000Y-68560000D01*
X192510000Y-58440000D02*
X186540000Y-58440000D01*
X192510000Y-68560000D02*
X192510000Y-58440000D01*
X186540000Y-68560000D02*
X192510000Y-68560000D01*
X179330000Y-61000000D02*
X179330000Y-62330000D01*
X179330000Y-62330000D02*
X178000000Y-62330000D01*
X176730000Y-62330000D02*
X174130000Y-62330000D01*
X174130000Y-59670000D02*
X174130000Y-62330000D01*
X176730000Y-59670000D02*
X174130000Y-59670000D01*
X176730000Y-59670000D02*
X176730000Y-62330000D01*
X140320000Y-139000000D02*
X141270000Y-139000000D01*
X146060000Y-139000000D02*
X145110000Y-139000000D01*
X141270000Y-139920000D02*
X145110000Y-139920000D01*
X141270000Y-138080000D02*
X141270000Y-139920000D01*
X145110000Y-138080000D02*
X141270000Y-138080000D01*
X145110000Y-139920000D02*
X145110000Y-138080000D01*
X140320000Y-135000000D02*
X141270000Y-135000000D01*
X146060000Y-135000000D02*
X145110000Y-135000000D01*
X141270000Y-135920000D02*
X145110000Y-135920000D01*
X141270000Y-134080000D02*
X141270000Y-135920000D01*
X145110000Y-134080000D02*
X141270000Y-134080000D01*
X145110000Y-135920000D02*
X145110000Y-134080000D01*
X152320000Y-135000000D02*
X153270000Y-135000000D01*
X158060000Y-135000000D02*
X157110000Y-135000000D01*
X153270000Y-135920000D02*
X157110000Y-135920000D01*
X153270000Y-134080000D02*
X153270000Y-135920000D01*
X157110000Y-134080000D02*
X153270000Y-134080000D01*
X157110000Y-135920000D02*
X157110000Y-134080000D01*
X193350000Y-123840000D02*
X193350000Y-123340000D01*
X192610000Y-123840000D02*
X193350000Y-123840000D01*
X184600000Y-74030000D02*
X185600000Y-74030000D01*
X184600000Y-76530000D02*
X185600000Y-76530000D01*
X185600000Y-76530000D02*
X185600000Y-74030000D01*
X184600000Y-76530000D02*
X184600000Y-74030000D01*
X189850000Y-76304000D02*
X189910000Y-76364000D01*
X187915000Y-74369000D02*
X187955000Y-74409000D01*
X190045000Y-76150000D02*
X190085000Y-76190000D01*
X188090000Y-74195000D02*
X188149000Y-74255000D01*
X184600000Y-79110000D02*
X185600000Y-79110000D01*
X184600000Y-81610000D02*
X185600000Y-81610000D01*
X185600000Y-81610000D02*
X185600000Y-79110000D01*
X184600000Y-81610000D02*
X184600000Y-79110000D01*
X189850000Y-81384000D02*
X189910000Y-81444000D01*
X187915000Y-79449000D02*
X187955000Y-79489000D01*
X190045000Y-81230000D02*
X190085000Y-81270000D01*
X188090000Y-79275000D02*
X188149000Y-79335000D01*
X184600000Y-84190000D02*
X185600000Y-84190000D01*
X184600000Y-86690000D02*
X185600000Y-86690000D01*
X185600000Y-86690000D02*
X185600000Y-84190000D01*
X184600000Y-86690000D02*
X184600000Y-84190000D01*
X189850000Y-86464000D02*
X189910000Y-86524000D01*
X187915000Y-84529000D02*
X187955000Y-84569000D01*
X190045000Y-86310000D02*
X190085000Y-86350000D01*
X188090000Y-84355000D02*
X188149000Y-84415000D01*
X184600000Y-89270000D02*
X185600000Y-89270000D01*
X184600000Y-91770000D02*
X185600000Y-91770000D01*
X185600000Y-91770000D02*
X185600000Y-89270000D01*
X184600000Y-91770000D02*
X184600000Y-89270000D01*
X189850000Y-91544000D02*
X189910000Y-91604000D01*
X187915000Y-89609000D02*
X187955000Y-89649000D01*
X190045000Y-91390000D02*
X190085000Y-91430000D01*
X188090000Y-89435000D02*
X188149000Y-89495000D01*
X184600000Y-94350000D02*
X185600000Y-94350000D01*
X184600000Y-96850000D02*
X185600000Y-96850000D01*
X185600000Y-96850000D02*
X185600000Y-94350000D01*
X184600000Y-96850000D02*
X184600000Y-94350000D01*
X189850000Y-96624000D02*
X189910000Y-96684000D01*
X187915000Y-94689000D02*
X187955000Y-94729000D01*
X190045000Y-96470000D02*
X190085000Y-96510000D01*
X188090000Y-94515000D02*
X188149000Y-94575000D01*
X184600000Y-99430000D02*
X185600000Y-99430000D01*
X184600000Y-101930000D02*
X185600000Y-101930000D01*
X185600000Y-101930000D02*
X185600000Y-99430000D01*
X184600000Y-101930000D02*
X184600000Y-99430000D01*
X189850000Y-101704000D02*
X189910000Y-101764000D01*
X187915000Y-99769000D02*
X187955000Y-99809000D01*
X190045000Y-101550000D02*
X190085000Y-101590000D01*
X188090000Y-99595000D02*
X188149000Y-99655000D01*
X184600000Y-104510000D02*
X185600000Y-104510000D01*
X184600000Y-107010000D02*
X185600000Y-107010000D01*
X185600000Y-107010000D02*
X185600000Y-104510000D01*
X184600000Y-107010000D02*
X184600000Y-104510000D01*
X189850000Y-106784000D02*
X189910000Y-106844000D01*
X187915000Y-104849000D02*
X187955000Y-104889000D01*
X190045000Y-106630000D02*
X190085000Y-106670000D01*
X188090000Y-104675000D02*
X188149000Y-104735000D01*
X184600000Y-109590000D02*
X185600000Y-109590000D01*
X184600000Y-112090000D02*
X185600000Y-112090000D01*
X185600000Y-112090000D02*
X185600000Y-109590000D01*
X184600000Y-112090000D02*
X184600000Y-109590000D01*
X189850000Y-111864000D02*
X189910000Y-111924000D01*
X187915000Y-109929000D02*
X187955000Y-109969000D01*
X190045000Y-111710000D02*
X190085000Y-111750000D01*
X188090000Y-109755000D02*
X188149000Y-109815000D01*
X184600000Y-114670000D02*
X185600000Y-114670000D01*
X184600000Y-117170000D02*
X185600000Y-117170000D01*
X185600000Y-117170000D02*
X185600000Y-114670000D01*
X184600000Y-117170000D02*
X184600000Y-114670000D01*
X189850000Y-116944000D02*
X189910000Y-117004000D01*
X187915000Y-115009000D02*
X187955000Y-115049000D01*
X190045000Y-116790000D02*
X190085000Y-116830000D01*
X188090000Y-114835000D02*
X188149000Y-114895000D01*
X184600000Y-119750000D02*
X185600000Y-119750000D01*
X184600000Y-122250000D02*
X185600000Y-122250000D01*
X185600000Y-122250000D02*
X185600000Y-119750000D01*
X184600000Y-122250000D02*
X184600000Y-119750000D01*
X184540000Y-72680000D02*
X193110000Y-72680000D01*
X184540000Y-123600000D02*
X193110000Y-123600000D01*
X193110000Y-123600000D02*
X193110000Y-72680000D01*
X184540000Y-123600000D02*
X184540000Y-72680000D01*
X186450000Y-123600000D02*
X186450000Y-72680000D01*
X191450000Y-123600000D02*
X191450000Y-72680000D01*
X192550000Y-123600000D02*
X192550000Y-72680000D01*
X190430000Y-75280000D02*
G75*
G03*
X190430000Y-75280000I-1430000J0D01*
G01*
X190430000Y-80360000D02*
G75*
G03*
X190430000Y-80360000I-1430000J0D01*
G01*
X190430000Y-85440000D02*
G75*
G03*
X190430000Y-85440000I-1430000J0D01*
G01*
X190430000Y-90520000D02*
G75*
G03*
X190430000Y-90520000I-1430000J0D01*
G01*
X190430000Y-95600000D02*
G75*
G03*
X190430000Y-95600000I-1430000J0D01*
G01*
X190430000Y-100680000D02*
G75*
G03*
X190430000Y-100680000I-1430000J0D01*
G01*
X190430000Y-105760000D02*
G75*
G03*
X190430000Y-105760000I-1430000J0D01*
G01*
X190430000Y-110840000D02*
G75*
G03*
X190430000Y-110840000I-1430000J0D01*
G01*
X190430000Y-115920000D02*
G75*
G03*
X190430000Y-115920000I-1430000J0D01*
G01*
X190286000Y-121628000D02*
G75*
G03*
X190430940Y-120975720I-1286000J628000D01*
G01*
X188372000Y-122286000D02*
G75*
G03*
X189626746Y-122286611I628000J1286000D01*
G01*
X187714001Y-120373000D02*
G75*
G03*
X187714177Y-121627362I1285999J-627000D01*
G01*
X189627000Y-119714001D02*
G75*
G03*
X188372638Y-119714177I-627000J-1285999D01*
G01*
X190430000Y-121000000D02*
G75*
G03*
X190285275Y-120373129I-1430000J0D01*
G01*
X136750000Y-57150000D02*
X135500000Y-57150000D01*
X136750000Y-58400000D02*
X136750000Y-57150000D01*
X131250000Y-71800000D02*
X131250000Y-65000000D01*
X134200000Y-71800000D02*
X131250000Y-71800000D01*
X134200000Y-72550000D02*
X134200000Y-71800000D01*
X131250000Y-58200000D02*
X131250000Y-65000000D01*
X134200000Y-58200000D02*
X131250000Y-58200000D01*
X134200000Y-57450000D02*
X134200000Y-58200000D01*
X136450000Y-72550000D02*
X136450000Y-70750000D01*
X135700000Y-72550000D02*
X136450000Y-72550000D01*
X135700000Y-70750000D02*
X135700000Y-72550000D01*
X136450000Y-70750000D02*
X135700000Y-70750000D01*
X136450000Y-59250000D02*
X136450000Y-57450000D01*
X135700000Y-59250000D02*
X136450000Y-59250000D01*
X135700000Y-57450000D02*
X135700000Y-59250000D01*
X136450000Y-57450000D02*
X135700000Y-57450000D01*
X136450000Y-69250000D02*
X136450000Y-60750000D01*
X135700000Y-69250000D02*
X136450000Y-69250000D01*
X135700000Y-60750000D02*
X135700000Y-69250000D01*
X136450000Y-60750000D02*
X135700000Y-60750000D01*
X136460000Y-72560000D02*
X136460000Y-57440000D01*
X130490000Y-72560000D02*
X136460000Y-72560000D01*
X130490000Y-57440000D02*
X130490000Y-72560000D01*
X136460000Y-57440000D02*
X130490000Y-57440000D01*
X153750000Y-57150000D02*
X152500000Y-57150000D01*
X153750000Y-58400000D02*
X153750000Y-57150000D01*
X148250000Y-71800000D02*
X148250000Y-65000000D01*
X151200000Y-71800000D02*
X148250000Y-71800000D01*
X151200000Y-72550000D02*
X151200000Y-71800000D01*
X148250000Y-58200000D02*
X148250000Y-65000000D01*
X151200000Y-58200000D02*
X148250000Y-58200000D01*
X151200000Y-57450000D02*
X151200000Y-58200000D01*
X153450000Y-72550000D02*
X153450000Y-70750000D01*
X152700000Y-72550000D02*
X153450000Y-72550000D01*
X152700000Y-70750000D02*
X152700000Y-72550000D01*
X153450000Y-70750000D02*
X152700000Y-70750000D01*
X153450000Y-59250000D02*
X153450000Y-57450000D01*
X152700000Y-59250000D02*
X153450000Y-59250000D01*
X152700000Y-57450000D02*
X152700000Y-59250000D01*
X153450000Y-57450000D02*
X152700000Y-57450000D01*
X153450000Y-69250000D02*
X153450000Y-60750000D01*
X152700000Y-69250000D02*
X153450000Y-69250000D01*
X152700000Y-60750000D02*
X152700000Y-69250000D01*
X153450000Y-60750000D02*
X152700000Y-60750000D01*
X153460000Y-72560000D02*
X153460000Y-57440000D01*
X147490000Y-72560000D02*
X153460000Y-72560000D01*
X147490000Y-57440000D02*
X147490000Y-72560000D01*
X153460000Y-57440000D02*
X147490000Y-57440000D01*
X106150000Y-112250000D02*
X106150000Y-113500000D01*
X107400000Y-112250000D02*
X106150000Y-112250000D01*
X118300000Y-117750000D02*
X112750000Y-117750000D01*
X118300000Y-114800000D02*
X118300000Y-117750000D01*
X119050000Y-114800000D02*
X118300000Y-114800000D01*
X107200000Y-117750000D02*
X112750000Y-117750000D01*
X107200000Y-114800000D02*
X107200000Y-117750000D01*
X106450000Y-114800000D02*
X107200000Y-114800000D01*
X119050000Y-112550000D02*
X117250000Y-112550000D01*
X119050000Y-113300000D02*
X119050000Y-112550000D01*
X117250000Y-113300000D02*
X119050000Y-113300000D01*
X117250000Y-112550000D02*
X117250000Y-113300000D01*
X108250000Y-112550000D02*
X106450000Y-112550000D01*
X108250000Y-113300000D02*
X108250000Y-112550000D01*
X106450000Y-113300000D02*
X108250000Y-113300000D01*
X106450000Y-112550000D02*
X106450000Y-113300000D01*
X115750000Y-112550000D02*
X109750000Y-112550000D01*
X115750000Y-113300000D02*
X115750000Y-112550000D01*
X109750000Y-113300000D02*
X115750000Y-113300000D01*
X109750000Y-112550000D02*
X109750000Y-113300000D01*
X119060000Y-112540000D02*
X106440000Y-112540000D01*
X119060000Y-118510000D02*
X119060000Y-112540000D01*
X106440000Y-118510000D02*
X119060000Y-118510000D01*
X106440000Y-112540000D02*
X106440000Y-118510000D01*
X111150000Y-102250000D02*
X111150000Y-103500000D01*
X112400000Y-102250000D02*
X111150000Y-102250000D01*
X118300000Y-107750000D02*
X115250000Y-107750000D01*
X118300000Y-104800000D02*
X118300000Y-107750000D01*
X119050000Y-104800000D02*
X118300000Y-104800000D01*
X112200000Y-107750000D02*
X115250000Y-107750000D01*
X112200000Y-104800000D02*
X112200000Y-107750000D01*
X111450000Y-104800000D02*
X112200000Y-104800000D01*
X119050000Y-102550000D02*
X117250000Y-102550000D01*
X119050000Y-103300000D02*
X119050000Y-102550000D01*
X117250000Y-103300000D02*
X119050000Y-103300000D01*
X117250000Y-102550000D02*
X117250000Y-103300000D01*
X113250000Y-102550000D02*
X111450000Y-102550000D01*
X113250000Y-103300000D02*
X113250000Y-102550000D01*
X111450000Y-103300000D02*
X113250000Y-103300000D01*
X111450000Y-102550000D02*
X111450000Y-103300000D01*
X115750000Y-102550000D02*
X114750000Y-102550000D01*
X115750000Y-103300000D02*
X115750000Y-102550000D01*
X114750000Y-103300000D02*
X115750000Y-103300000D01*
X114750000Y-102550000D02*
X114750000Y-103300000D01*
X119060000Y-102540000D02*
X111440000Y-102540000D01*
X119060000Y-108510000D02*
X119060000Y-102540000D01*
X111440000Y-108510000D02*
X119060000Y-108510000D01*
X111440000Y-102540000D02*
X111440000Y-108510000D01*
X185190000Y-126460000D02*
X185190000Y-141700000D01*
X192810000Y-126460000D02*
X192810000Y-141700000D01*
X186460000Y-126460000D02*
X186460000Y-141700000D01*
X185190000Y-141700000D02*
X192810000Y-141700000D01*
X185190000Y-126460000D02*
X192810000Y-126460000D01*
X173750000Y-83150000D02*
X172500000Y-83150000D01*
X173750000Y-84400000D02*
X173750000Y-83150000D01*
X168250000Y-102800000D02*
X168250000Y-93500000D01*
X171200000Y-102800000D02*
X168250000Y-102800000D01*
X171200000Y-103550000D02*
X171200000Y-102800000D01*
X168250000Y-84200000D02*
X168250000Y-93500000D01*
X171200000Y-84200000D02*
X168250000Y-84200000D01*
X171200000Y-83450000D02*
X171200000Y-84200000D01*
X173450000Y-103550000D02*
X173450000Y-101750000D01*
X172700000Y-103550000D02*
X173450000Y-103550000D01*
X172700000Y-101750000D02*
X172700000Y-103550000D01*
X173450000Y-101750000D02*
X172700000Y-101750000D01*
X173450000Y-85250000D02*
X173450000Y-83450000D01*
X172700000Y-85250000D02*
X173450000Y-85250000D01*
X172700000Y-83450000D02*
X172700000Y-85250000D01*
X173450000Y-83450000D02*
X172700000Y-83450000D01*
X173450000Y-100250000D02*
X173450000Y-86750000D01*
X172700000Y-100250000D02*
X173450000Y-100250000D01*
X172700000Y-86750000D02*
X172700000Y-100250000D01*
X173450000Y-86750000D02*
X172700000Y-86750000D01*
X173460000Y-103560000D02*
X173460000Y-83440000D01*
X167490000Y-103560000D02*
X173460000Y-103560000D01*
X167490000Y-83440000D02*
X167490000Y-103560000D01*
X173460000Y-83440000D02*
X167490000Y-83440000D01*
X177850000Y-115750000D02*
X177850000Y-114500000D01*
X176600000Y-115750000D02*
X177850000Y-115750000D01*
X165700000Y-110250000D02*
X171250000Y-110250000D01*
X165700000Y-113200000D02*
X165700000Y-110250000D01*
X164950000Y-113200000D02*
X165700000Y-113200000D01*
X176800000Y-110250000D02*
X171250000Y-110250000D01*
X176800000Y-113200000D02*
X176800000Y-110250000D01*
X177550000Y-113200000D02*
X176800000Y-113200000D01*
X164950000Y-115450000D02*
X166750000Y-115450000D01*
X164950000Y-114700000D02*
X164950000Y-115450000D01*
X166750000Y-114700000D02*
X164950000Y-114700000D01*
X166750000Y-115450000D02*
X166750000Y-114700000D01*
X175750000Y-115450000D02*
X177550000Y-115450000D01*
X175750000Y-114700000D02*
X175750000Y-115450000D01*
X177550000Y-114700000D02*
X175750000Y-114700000D01*
X177550000Y-115450000D02*
X177550000Y-114700000D01*
X168250000Y-115450000D02*
X174250000Y-115450000D01*
X168250000Y-114700000D02*
X168250000Y-115450000D01*
X174250000Y-114700000D02*
X168250000Y-114700000D01*
X174250000Y-115450000D02*
X174250000Y-114700000D01*
X164940000Y-115460000D02*
X177560000Y-115460000D01*
X164940000Y-109490000D02*
X164940000Y-115460000D01*
X177560000Y-109490000D02*
X164940000Y-109490000D01*
X177560000Y-115460000D02*
X177560000Y-109490000D01*
X106150000Y-121250000D02*
X106150000Y-122500000D01*
X107400000Y-121250000D02*
X106150000Y-121250000D01*
X118300000Y-126750000D02*
X112750000Y-126750000D01*
X118300000Y-123800000D02*
X118300000Y-126750000D01*
X119050000Y-123800000D02*
X118300000Y-123800000D01*
X107200000Y-126750000D02*
X112750000Y-126750000D01*
X107200000Y-123800000D02*
X107200000Y-126750000D01*
X106450000Y-123800000D02*
X107200000Y-123800000D01*
X119050000Y-121550000D02*
X117250000Y-121550000D01*
X119050000Y-122300000D02*
X119050000Y-121550000D01*
X117250000Y-122300000D02*
X119050000Y-122300000D01*
X117250000Y-121550000D02*
X117250000Y-122300000D01*
X108250000Y-121550000D02*
X106450000Y-121550000D01*
X108250000Y-122300000D02*
X108250000Y-121550000D01*
X106450000Y-122300000D02*
X108250000Y-122300000D01*
X106450000Y-121550000D02*
X106450000Y-122300000D01*
X115750000Y-121550000D02*
X109750000Y-121550000D01*
X115750000Y-122300000D02*
X115750000Y-121550000D01*
X109750000Y-122300000D02*
X115750000Y-122300000D01*
X109750000Y-121550000D02*
X109750000Y-122300000D01*
X119060000Y-121540000D02*
X106440000Y-121540000D01*
X119060000Y-127510000D02*
X119060000Y-121540000D01*
X106440000Y-127510000D02*
X119060000Y-127510000D01*
X106440000Y-121540000D02*
X106440000Y-127510000D01*
X145750000Y-57150000D02*
X144500000Y-57150000D01*
X145750000Y-58400000D02*
X145750000Y-57150000D01*
X140250000Y-71800000D02*
X140250000Y-65000000D01*
X143200000Y-71800000D02*
X140250000Y-71800000D01*
X143200000Y-72550000D02*
X143200000Y-71800000D01*
X140250000Y-58200000D02*
X140250000Y-65000000D01*
X143200000Y-58200000D02*
X140250000Y-58200000D01*
X143200000Y-57450000D02*
X143200000Y-58200000D01*
X145450000Y-72550000D02*
X145450000Y-70750000D01*
X144700000Y-72550000D02*
X145450000Y-72550000D01*
X144700000Y-70750000D02*
X144700000Y-72550000D01*
X145450000Y-70750000D02*
X144700000Y-70750000D01*
X145450000Y-59250000D02*
X145450000Y-57450000D01*
X144700000Y-59250000D02*
X145450000Y-59250000D01*
X144700000Y-57450000D02*
X144700000Y-59250000D01*
X145450000Y-57450000D02*
X144700000Y-57450000D01*
X145450000Y-69250000D02*
X145450000Y-60750000D01*
X144700000Y-69250000D02*
X145450000Y-69250000D01*
X144700000Y-60750000D02*
X144700000Y-69250000D01*
X145450000Y-60750000D02*
X144700000Y-60750000D01*
X145460000Y-72560000D02*
X145460000Y-57440000D01*
X139490000Y-72560000D02*
X145460000Y-72560000D01*
X139490000Y-57440000D02*
X139490000Y-72560000D01*
X145460000Y-57440000D02*
X139490000Y-57440000D01*
%LPC*%
D12*
X131300000Y-84540000D03*
X131300000Y-87080000D03*
X131300000Y-89620000D03*
X131300000Y-92160000D03*
X131300000Y-94700000D03*
X131300000Y-97240000D03*
X131300000Y-99780000D03*
X131300000Y-102320000D03*
X131300000Y-104860000D03*
X131300000Y-107400000D03*
X131300000Y-109940000D03*
X131300000Y-112480000D03*
X131300000Y-115020000D03*
X131300000Y-117560000D03*
X131300000Y-120100000D03*
X156700000Y-120100000D03*
X156700000Y-117560000D03*
X156700000Y-115020000D03*
X156700000Y-112480000D03*
X156700000Y-109940000D03*
X156700000Y-107400000D03*
X156700000Y-104860000D03*
X156700000Y-102320000D03*
X156700000Y-99780000D03*
X156700000Y-97240000D03*
X156700000Y-94700000D03*
X156700000Y-92160000D03*
X156700000Y-89620000D03*
X156700000Y-87080000D03*
X156700000Y-84540000D03*
D13*
X160000000Y-70000000D03*
X160000000Y-67500000D03*
X160000000Y-65000000D03*
X160000000Y-62500000D03*
D14*
X160000000Y-60000000D03*
D15*
X175500000Y-121000000D03*
X173000000Y-121000000D03*
X170500000Y-121000000D03*
D16*
X168000000Y-121000000D03*
D15*
X106500000Y-96000000D03*
X109000000Y-96000000D03*
X111500000Y-96000000D03*
X114000000Y-96000000D03*
X116500000Y-96000000D03*
X119000000Y-96000000D03*
X121500000Y-96000000D03*
D17*
X124000000Y-96000000D03*
D13*
X120000000Y-63500000D03*
X120000000Y-66000000D03*
X120000000Y-68500000D03*
X120000000Y-71000000D03*
X120000000Y-73500000D03*
X120000000Y-76000000D03*
X120000000Y-78500000D03*
D18*
X120000000Y-81000000D03*
D19*
X151380000Y-139000000D03*
D20*
X159000000Y-139000000D03*
D21*
X172920000Y-65000000D03*
X175460000Y-65000000D03*
D22*
X178000000Y-65000000D03*
D13*
X189000000Y-61000000D03*
X189000000Y-63500000D03*
D18*
X189000000Y-66000000D03*
D21*
X175460000Y-61000000D03*
D22*
X178000000Y-61000000D03*
D19*
X139380000Y-139000000D03*
D20*
X147000000Y-139000000D03*
D19*
X139380000Y-135000000D03*
D20*
X147000000Y-135000000D03*
D19*
X151380000Y-135000000D03*
D20*
X159000000Y-135000000D03*
D23*
X189000000Y-75280000D03*
X189000000Y-80360000D03*
X189000000Y-85440000D03*
X189000000Y-90520000D03*
X189000000Y-95600000D03*
X189000000Y-100680000D03*
X189000000Y-105760000D03*
X189000000Y-110840000D03*
X189000000Y-115920000D03*
D24*
X189000000Y-121000000D03*
D13*
X134000000Y-70000000D03*
X134000000Y-67500000D03*
X134000000Y-65000000D03*
X134000000Y-62500000D03*
D14*
X134000000Y-60000000D03*
D13*
X151000000Y-70000000D03*
X151000000Y-67500000D03*
X151000000Y-65000000D03*
X151000000Y-62500000D03*
D14*
X151000000Y-60000000D03*
D15*
X116500000Y-115000000D03*
X114000000Y-115000000D03*
X111500000Y-115000000D03*
D16*
X109000000Y-115000000D03*
D25*
X116500000Y-105000000D03*
D26*
X114000000Y-105000000D03*
D27*
X189000000Y-139160000D03*
X189000000Y-134080000D03*
D28*
X189000000Y-129000000D03*
D13*
X171000000Y-101000000D03*
X171000000Y-98500000D03*
X171000000Y-96000000D03*
X171000000Y-93500000D03*
X171000000Y-91000000D03*
X171000000Y-88500000D03*
D14*
X171000000Y-86000000D03*
D15*
X167500000Y-113000000D03*
X170000000Y-113000000D03*
X172500000Y-113000000D03*
D17*
X175000000Y-113000000D03*
D15*
X116500000Y-124000000D03*
X114000000Y-124000000D03*
X111500000Y-124000000D03*
D16*
X109000000Y-124000000D03*
D13*
X143000000Y-70000000D03*
X143000000Y-67500000D03*
X143000000Y-65000000D03*
X143000000Y-62500000D03*
D14*
X143000000Y-60000000D03*
M02*
