G04 #@! TF.GenerationSoftware,KiCad,Pcbnew,(5.1.2)-2*
G04 #@! TF.CreationDate,2023-01-01T21:34:04+01:00*
G04 #@! TF.ProjectId,greenhouse,67726565-6e68-46f7-9573-652e6b696361,rev?*
G04 #@! TF.SameCoordinates,Original*
G04 #@! TF.FileFunction,Copper,L1,Top*
G04 #@! TF.FilePolarity,Positive*
%FSLAX46Y46*%
G04 Gerber Fmt 4.6, Leading zero omitted, Abs format (unit mm)*
G04 Created by KiCad (PCBNEW (5.1.2)-2) date 2023-01-01 21:34:04*
%MOMM*%
%LPD*%
G04 APERTURE LIST*
%ADD10O,1.700000X1.950000*%
%ADD11C,0.100000*%
%ADD12C,1.700000*%
%ADD13O,1.950000X1.700000*%
%ADD14O,1.400000X1.400000*%
%ADD15C,1.400000*%
%ADD16O,1.700000X1.700000*%
%ADD17R,1.700000X1.700000*%
%ADD18C,1.524000*%
%ADD19C,2.100000*%
%ADD20R,2.100000X2.100000*%
%ADD21O,1.700000X2.000000*%
%ADD22C,3.000000*%
%ADD23R,3.000000X3.000000*%
%ADD24C,1.000000*%
%ADD25C,0.250000*%
%ADD26C,0.800000*%
G04 APERTURE END LIST*
D10*
X175500000Y-121000000D03*
X173000000Y-121000000D03*
X170500000Y-121000000D03*
D11*
G36*
X168624504Y-120026204D02*
G01*
X168648773Y-120029804D01*
X168672571Y-120035765D01*
X168695671Y-120044030D01*
X168717849Y-120054520D01*
X168738893Y-120067133D01*
X168758598Y-120081747D01*
X168776777Y-120098223D01*
X168793253Y-120116402D01*
X168807867Y-120136107D01*
X168820480Y-120157151D01*
X168830970Y-120179329D01*
X168839235Y-120202429D01*
X168845196Y-120226227D01*
X168848796Y-120250496D01*
X168850000Y-120275000D01*
X168850000Y-121725000D01*
X168848796Y-121749504D01*
X168845196Y-121773773D01*
X168839235Y-121797571D01*
X168830970Y-121820671D01*
X168820480Y-121842849D01*
X168807867Y-121863893D01*
X168793253Y-121883598D01*
X168776777Y-121901777D01*
X168758598Y-121918253D01*
X168738893Y-121932867D01*
X168717849Y-121945480D01*
X168695671Y-121955970D01*
X168672571Y-121964235D01*
X168648773Y-121970196D01*
X168624504Y-121973796D01*
X168600000Y-121975000D01*
X167400000Y-121975000D01*
X167375496Y-121973796D01*
X167351227Y-121970196D01*
X167327429Y-121964235D01*
X167304329Y-121955970D01*
X167282151Y-121945480D01*
X167261107Y-121932867D01*
X167241402Y-121918253D01*
X167223223Y-121901777D01*
X167206747Y-121883598D01*
X167192133Y-121863893D01*
X167179520Y-121842849D01*
X167169030Y-121820671D01*
X167160765Y-121797571D01*
X167154804Y-121773773D01*
X167151204Y-121749504D01*
X167150000Y-121725000D01*
X167150000Y-120275000D01*
X167151204Y-120250496D01*
X167154804Y-120226227D01*
X167160765Y-120202429D01*
X167169030Y-120179329D01*
X167179520Y-120157151D01*
X167192133Y-120136107D01*
X167206747Y-120116402D01*
X167223223Y-120098223D01*
X167241402Y-120081747D01*
X167261107Y-120067133D01*
X167282151Y-120054520D01*
X167304329Y-120044030D01*
X167327429Y-120035765D01*
X167351227Y-120029804D01*
X167375496Y-120026204D01*
X167400000Y-120025000D01*
X168600000Y-120025000D01*
X168624504Y-120026204D01*
X168624504Y-120026204D01*
G37*
D12*
X168000000Y-121000000D03*
D13*
X120000000Y-63500000D03*
X120000000Y-66000000D03*
X120000000Y-68500000D03*
X120000000Y-71000000D03*
X120000000Y-73500000D03*
X120000000Y-76000000D03*
X120000000Y-78500000D03*
D11*
G36*
X120749504Y-80151204D02*
G01*
X120773773Y-80154804D01*
X120797571Y-80160765D01*
X120820671Y-80169030D01*
X120842849Y-80179520D01*
X120863893Y-80192133D01*
X120883598Y-80206747D01*
X120901777Y-80223223D01*
X120918253Y-80241402D01*
X120932867Y-80261107D01*
X120945480Y-80282151D01*
X120955970Y-80304329D01*
X120964235Y-80327429D01*
X120970196Y-80351227D01*
X120973796Y-80375496D01*
X120975000Y-80400000D01*
X120975000Y-81600000D01*
X120973796Y-81624504D01*
X120970196Y-81648773D01*
X120964235Y-81672571D01*
X120955970Y-81695671D01*
X120945480Y-81717849D01*
X120932867Y-81738893D01*
X120918253Y-81758598D01*
X120901777Y-81776777D01*
X120883598Y-81793253D01*
X120863893Y-81807867D01*
X120842849Y-81820480D01*
X120820671Y-81830970D01*
X120797571Y-81839235D01*
X120773773Y-81845196D01*
X120749504Y-81848796D01*
X120725000Y-81850000D01*
X119275000Y-81850000D01*
X119250496Y-81848796D01*
X119226227Y-81845196D01*
X119202429Y-81839235D01*
X119179329Y-81830970D01*
X119157151Y-81820480D01*
X119136107Y-81807867D01*
X119116402Y-81793253D01*
X119098223Y-81776777D01*
X119081747Y-81758598D01*
X119067133Y-81738893D01*
X119054520Y-81717849D01*
X119044030Y-81695671D01*
X119035765Y-81672571D01*
X119029804Y-81648773D01*
X119026204Y-81624504D01*
X119025000Y-81600000D01*
X119025000Y-80400000D01*
X119026204Y-80375496D01*
X119029804Y-80351227D01*
X119035765Y-80327429D01*
X119044030Y-80304329D01*
X119054520Y-80282151D01*
X119067133Y-80261107D01*
X119081747Y-80241402D01*
X119098223Y-80223223D01*
X119116402Y-80206747D01*
X119136107Y-80192133D01*
X119157151Y-80179520D01*
X119179329Y-80169030D01*
X119202429Y-80160765D01*
X119226227Y-80154804D01*
X119250496Y-80151204D01*
X119275000Y-80150000D01*
X120725000Y-80150000D01*
X120749504Y-80151204D01*
X120749504Y-80151204D01*
G37*
D12*
X120000000Y-81000000D03*
D14*
X151380000Y-133000000D03*
D15*
X159000000Y-133000000D03*
D16*
X172920000Y-65000000D03*
X175460000Y-65000000D03*
D17*
X178000000Y-65000000D03*
D13*
X189000000Y-61000000D03*
X189000000Y-63500000D03*
D11*
G36*
X189749504Y-65151204D02*
G01*
X189773773Y-65154804D01*
X189797571Y-65160765D01*
X189820671Y-65169030D01*
X189842849Y-65179520D01*
X189863893Y-65192133D01*
X189883598Y-65206747D01*
X189901777Y-65223223D01*
X189918253Y-65241402D01*
X189932867Y-65261107D01*
X189945480Y-65282151D01*
X189955970Y-65304329D01*
X189964235Y-65327429D01*
X189970196Y-65351227D01*
X189973796Y-65375496D01*
X189975000Y-65400000D01*
X189975000Y-66600000D01*
X189973796Y-66624504D01*
X189970196Y-66648773D01*
X189964235Y-66672571D01*
X189955970Y-66695671D01*
X189945480Y-66717849D01*
X189932867Y-66738893D01*
X189918253Y-66758598D01*
X189901777Y-66776777D01*
X189883598Y-66793253D01*
X189863893Y-66807867D01*
X189842849Y-66820480D01*
X189820671Y-66830970D01*
X189797571Y-66839235D01*
X189773773Y-66845196D01*
X189749504Y-66848796D01*
X189725000Y-66850000D01*
X188275000Y-66850000D01*
X188250496Y-66848796D01*
X188226227Y-66845196D01*
X188202429Y-66839235D01*
X188179329Y-66830970D01*
X188157151Y-66820480D01*
X188136107Y-66807867D01*
X188116402Y-66793253D01*
X188098223Y-66776777D01*
X188081747Y-66758598D01*
X188067133Y-66738893D01*
X188054520Y-66717849D01*
X188044030Y-66695671D01*
X188035765Y-66672571D01*
X188029804Y-66648773D01*
X188026204Y-66624504D01*
X188025000Y-66600000D01*
X188025000Y-65400000D01*
X188026204Y-65375496D01*
X188029804Y-65351227D01*
X188035765Y-65327429D01*
X188044030Y-65304329D01*
X188054520Y-65282151D01*
X188067133Y-65261107D01*
X188081747Y-65241402D01*
X188098223Y-65223223D01*
X188116402Y-65206747D01*
X188136107Y-65192133D01*
X188157151Y-65179520D01*
X188179329Y-65169030D01*
X188202429Y-65160765D01*
X188226227Y-65154804D01*
X188250496Y-65151204D01*
X188275000Y-65150000D01*
X189725000Y-65150000D01*
X189749504Y-65151204D01*
X189749504Y-65151204D01*
G37*
D12*
X189000000Y-66000000D03*
D18*
X131300000Y-121720000D03*
X156700000Y-121720000D03*
X156700000Y-119180000D03*
X131300000Y-119180000D03*
X156700000Y-78540000D03*
X156700000Y-81080000D03*
X156700000Y-83620000D03*
X156700000Y-86160000D03*
X156700000Y-88700000D03*
X156700000Y-91240000D03*
X156700000Y-93780000D03*
X156700000Y-96320000D03*
X156700000Y-98860000D03*
X156700000Y-101400000D03*
X156700000Y-103940000D03*
X156700000Y-106480000D03*
X156700000Y-109020000D03*
X156700000Y-111560000D03*
X156700000Y-114100000D03*
X156700000Y-116640000D03*
X131300000Y-116640000D03*
X131300000Y-114100000D03*
X131300000Y-111560000D03*
X131300000Y-109020000D03*
X131300000Y-106480000D03*
X131300000Y-103940000D03*
X131300000Y-101400000D03*
X131300000Y-98860000D03*
X131300000Y-96320000D03*
X131300000Y-93780000D03*
X131300000Y-91240000D03*
X131300000Y-88700000D03*
X131300000Y-86160000D03*
X131300000Y-83620000D03*
X131300000Y-81080000D03*
X131300000Y-78540000D03*
D16*
X175460000Y-61000000D03*
D17*
X178000000Y-61000000D03*
D14*
X139380000Y-133000000D03*
D15*
X147000000Y-133000000D03*
D14*
X139380000Y-129000000D03*
D15*
X147000000Y-129000000D03*
D14*
X151380000Y-129000000D03*
D15*
X159000000Y-129000000D03*
D19*
X189000000Y-75280000D03*
X189000000Y-80360000D03*
X189000000Y-85440000D03*
X189000000Y-90520000D03*
X189000000Y-95600000D03*
X189000000Y-100680000D03*
X189000000Y-105760000D03*
X189000000Y-110840000D03*
X189000000Y-115920000D03*
D20*
X189000000Y-121000000D03*
D13*
X160000000Y-73000000D03*
X160000000Y-70500000D03*
X160000000Y-68000000D03*
X160000000Y-65500000D03*
D11*
G36*
X160749504Y-62151204D02*
G01*
X160773773Y-62154804D01*
X160797571Y-62160765D01*
X160820671Y-62169030D01*
X160842849Y-62179520D01*
X160863893Y-62192133D01*
X160883598Y-62206747D01*
X160901777Y-62223223D01*
X160918253Y-62241402D01*
X160932867Y-62261107D01*
X160945480Y-62282151D01*
X160955970Y-62304329D01*
X160964235Y-62327429D01*
X160970196Y-62351227D01*
X160973796Y-62375496D01*
X160975000Y-62400000D01*
X160975000Y-63600000D01*
X160973796Y-63624504D01*
X160970196Y-63648773D01*
X160964235Y-63672571D01*
X160955970Y-63695671D01*
X160945480Y-63717849D01*
X160932867Y-63738893D01*
X160918253Y-63758598D01*
X160901777Y-63776777D01*
X160883598Y-63793253D01*
X160863893Y-63807867D01*
X160842849Y-63820480D01*
X160820671Y-63830970D01*
X160797571Y-63839235D01*
X160773773Y-63845196D01*
X160749504Y-63848796D01*
X160725000Y-63850000D01*
X159275000Y-63850000D01*
X159250496Y-63848796D01*
X159226227Y-63845196D01*
X159202429Y-63839235D01*
X159179329Y-63830970D01*
X159157151Y-63820480D01*
X159136107Y-63807867D01*
X159116402Y-63793253D01*
X159098223Y-63776777D01*
X159081747Y-63758598D01*
X159067133Y-63738893D01*
X159054520Y-63717849D01*
X159044030Y-63695671D01*
X159035765Y-63672571D01*
X159029804Y-63648773D01*
X159026204Y-63624504D01*
X159025000Y-63600000D01*
X159025000Y-62400000D01*
X159026204Y-62375496D01*
X159029804Y-62351227D01*
X159035765Y-62327429D01*
X159044030Y-62304329D01*
X159054520Y-62282151D01*
X159067133Y-62261107D01*
X159081747Y-62241402D01*
X159098223Y-62223223D01*
X159116402Y-62206747D01*
X159136107Y-62192133D01*
X159157151Y-62179520D01*
X159179329Y-62169030D01*
X159202429Y-62160765D01*
X159226227Y-62154804D01*
X159250496Y-62151204D01*
X159275000Y-62150000D01*
X160725000Y-62150000D01*
X160749504Y-62151204D01*
X160749504Y-62151204D01*
G37*
D12*
X160000000Y-63000000D03*
D13*
X134000000Y-73000000D03*
X134000000Y-70500000D03*
X134000000Y-68000000D03*
X134000000Y-65500000D03*
D11*
G36*
X134749504Y-62151204D02*
G01*
X134773773Y-62154804D01*
X134797571Y-62160765D01*
X134820671Y-62169030D01*
X134842849Y-62179520D01*
X134863893Y-62192133D01*
X134883598Y-62206747D01*
X134901777Y-62223223D01*
X134918253Y-62241402D01*
X134932867Y-62261107D01*
X134945480Y-62282151D01*
X134955970Y-62304329D01*
X134964235Y-62327429D01*
X134970196Y-62351227D01*
X134973796Y-62375496D01*
X134975000Y-62400000D01*
X134975000Y-63600000D01*
X134973796Y-63624504D01*
X134970196Y-63648773D01*
X134964235Y-63672571D01*
X134955970Y-63695671D01*
X134945480Y-63717849D01*
X134932867Y-63738893D01*
X134918253Y-63758598D01*
X134901777Y-63776777D01*
X134883598Y-63793253D01*
X134863893Y-63807867D01*
X134842849Y-63820480D01*
X134820671Y-63830970D01*
X134797571Y-63839235D01*
X134773773Y-63845196D01*
X134749504Y-63848796D01*
X134725000Y-63850000D01*
X133275000Y-63850000D01*
X133250496Y-63848796D01*
X133226227Y-63845196D01*
X133202429Y-63839235D01*
X133179329Y-63830970D01*
X133157151Y-63820480D01*
X133136107Y-63807867D01*
X133116402Y-63793253D01*
X133098223Y-63776777D01*
X133081747Y-63758598D01*
X133067133Y-63738893D01*
X133054520Y-63717849D01*
X133044030Y-63695671D01*
X133035765Y-63672571D01*
X133029804Y-63648773D01*
X133026204Y-63624504D01*
X133025000Y-63600000D01*
X133025000Y-62400000D01*
X133026204Y-62375496D01*
X133029804Y-62351227D01*
X133035765Y-62327429D01*
X133044030Y-62304329D01*
X133054520Y-62282151D01*
X133067133Y-62261107D01*
X133081747Y-62241402D01*
X133098223Y-62223223D01*
X133116402Y-62206747D01*
X133136107Y-62192133D01*
X133157151Y-62179520D01*
X133179329Y-62169030D01*
X133202429Y-62160765D01*
X133226227Y-62154804D01*
X133250496Y-62151204D01*
X133275000Y-62150000D01*
X134725000Y-62150000D01*
X134749504Y-62151204D01*
X134749504Y-62151204D01*
G37*
D12*
X134000000Y-63000000D03*
D13*
X151000000Y-73000000D03*
X151000000Y-70500000D03*
X151000000Y-68000000D03*
X151000000Y-65500000D03*
D11*
G36*
X151749504Y-62151204D02*
G01*
X151773773Y-62154804D01*
X151797571Y-62160765D01*
X151820671Y-62169030D01*
X151842849Y-62179520D01*
X151863893Y-62192133D01*
X151883598Y-62206747D01*
X151901777Y-62223223D01*
X151918253Y-62241402D01*
X151932867Y-62261107D01*
X151945480Y-62282151D01*
X151955970Y-62304329D01*
X151964235Y-62327429D01*
X151970196Y-62351227D01*
X151973796Y-62375496D01*
X151975000Y-62400000D01*
X151975000Y-63600000D01*
X151973796Y-63624504D01*
X151970196Y-63648773D01*
X151964235Y-63672571D01*
X151955970Y-63695671D01*
X151945480Y-63717849D01*
X151932867Y-63738893D01*
X151918253Y-63758598D01*
X151901777Y-63776777D01*
X151883598Y-63793253D01*
X151863893Y-63807867D01*
X151842849Y-63820480D01*
X151820671Y-63830970D01*
X151797571Y-63839235D01*
X151773773Y-63845196D01*
X151749504Y-63848796D01*
X151725000Y-63850000D01*
X150275000Y-63850000D01*
X150250496Y-63848796D01*
X150226227Y-63845196D01*
X150202429Y-63839235D01*
X150179329Y-63830970D01*
X150157151Y-63820480D01*
X150136107Y-63807867D01*
X150116402Y-63793253D01*
X150098223Y-63776777D01*
X150081747Y-63758598D01*
X150067133Y-63738893D01*
X150054520Y-63717849D01*
X150044030Y-63695671D01*
X150035765Y-63672571D01*
X150029804Y-63648773D01*
X150026204Y-63624504D01*
X150025000Y-63600000D01*
X150025000Y-62400000D01*
X150026204Y-62375496D01*
X150029804Y-62351227D01*
X150035765Y-62327429D01*
X150044030Y-62304329D01*
X150054520Y-62282151D01*
X150067133Y-62261107D01*
X150081747Y-62241402D01*
X150098223Y-62223223D01*
X150116402Y-62206747D01*
X150136107Y-62192133D01*
X150157151Y-62179520D01*
X150179329Y-62169030D01*
X150202429Y-62160765D01*
X150226227Y-62154804D01*
X150250496Y-62151204D01*
X150275000Y-62150000D01*
X151725000Y-62150000D01*
X151749504Y-62151204D01*
X151749504Y-62151204D01*
G37*
D12*
X151000000Y-63000000D03*
D10*
X116500000Y-115000000D03*
X114000000Y-115000000D03*
X111500000Y-115000000D03*
D11*
G36*
X109624504Y-114026204D02*
G01*
X109648773Y-114029804D01*
X109672571Y-114035765D01*
X109695671Y-114044030D01*
X109717849Y-114054520D01*
X109738893Y-114067133D01*
X109758598Y-114081747D01*
X109776777Y-114098223D01*
X109793253Y-114116402D01*
X109807867Y-114136107D01*
X109820480Y-114157151D01*
X109830970Y-114179329D01*
X109839235Y-114202429D01*
X109845196Y-114226227D01*
X109848796Y-114250496D01*
X109850000Y-114275000D01*
X109850000Y-115725000D01*
X109848796Y-115749504D01*
X109845196Y-115773773D01*
X109839235Y-115797571D01*
X109830970Y-115820671D01*
X109820480Y-115842849D01*
X109807867Y-115863893D01*
X109793253Y-115883598D01*
X109776777Y-115901777D01*
X109758598Y-115918253D01*
X109738893Y-115932867D01*
X109717849Y-115945480D01*
X109695671Y-115955970D01*
X109672571Y-115964235D01*
X109648773Y-115970196D01*
X109624504Y-115973796D01*
X109600000Y-115975000D01*
X108400000Y-115975000D01*
X108375496Y-115973796D01*
X108351227Y-115970196D01*
X108327429Y-115964235D01*
X108304329Y-115955970D01*
X108282151Y-115945480D01*
X108261107Y-115932867D01*
X108241402Y-115918253D01*
X108223223Y-115901777D01*
X108206747Y-115883598D01*
X108192133Y-115863893D01*
X108179520Y-115842849D01*
X108169030Y-115820671D01*
X108160765Y-115797571D01*
X108154804Y-115773773D01*
X108151204Y-115749504D01*
X108150000Y-115725000D01*
X108150000Y-114275000D01*
X108151204Y-114250496D01*
X108154804Y-114226227D01*
X108160765Y-114202429D01*
X108169030Y-114179329D01*
X108179520Y-114157151D01*
X108192133Y-114136107D01*
X108206747Y-114116402D01*
X108223223Y-114098223D01*
X108241402Y-114081747D01*
X108261107Y-114067133D01*
X108282151Y-114054520D01*
X108304329Y-114044030D01*
X108327429Y-114035765D01*
X108351227Y-114029804D01*
X108375496Y-114026204D01*
X108400000Y-114025000D01*
X109600000Y-114025000D01*
X109624504Y-114026204D01*
X109624504Y-114026204D01*
G37*
D12*
X109000000Y-115000000D03*
D21*
X116500000Y-105000000D03*
D11*
G36*
X114624504Y-104001204D02*
G01*
X114648773Y-104004804D01*
X114672571Y-104010765D01*
X114695671Y-104019030D01*
X114717849Y-104029520D01*
X114738893Y-104042133D01*
X114758598Y-104056747D01*
X114776777Y-104073223D01*
X114793253Y-104091402D01*
X114807867Y-104111107D01*
X114820480Y-104132151D01*
X114830970Y-104154329D01*
X114839235Y-104177429D01*
X114845196Y-104201227D01*
X114848796Y-104225496D01*
X114850000Y-104250000D01*
X114850000Y-105750000D01*
X114848796Y-105774504D01*
X114845196Y-105798773D01*
X114839235Y-105822571D01*
X114830970Y-105845671D01*
X114820480Y-105867849D01*
X114807867Y-105888893D01*
X114793253Y-105908598D01*
X114776777Y-105926777D01*
X114758598Y-105943253D01*
X114738893Y-105957867D01*
X114717849Y-105970480D01*
X114695671Y-105980970D01*
X114672571Y-105989235D01*
X114648773Y-105995196D01*
X114624504Y-105998796D01*
X114600000Y-106000000D01*
X113400000Y-106000000D01*
X113375496Y-105998796D01*
X113351227Y-105995196D01*
X113327429Y-105989235D01*
X113304329Y-105980970D01*
X113282151Y-105970480D01*
X113261107Y-105957867D01*
X113241402Y-105943253D01*
X113223223Y-105926777D01*
X113206747Y-105908598D01*
X113192133Y-105888893D01*
X113179520Y-105867849D01*
X113169030Y-105845671D01*
X113160765Y-105822571D01*
X113154804Y-105798773D01*
X113151204Y-105774504D01*
X113150000Y-105750000D01*
X113150000Y-104250000D01*
X113151204Y-104225496D01*
X113154804Y-104201227D01*
X113160765Y-104177429D01*
X113169030Y-104154329D01*
X113179520Y-104132151D01*
X113192133Y-104111107D01*
X113206747Y-104091402D01*
X113223223Y-104073223D01*
X113241402Y-104056747D01*
X113261107Y-104042133D01*
X113282151Y-104029520D01*
X113304329Y-104019030D01*
X113327429Y-104010765D01*
X113351227Y-104004804D01*
X113375496Y-104001204D01*
X113400000Y-104000000D01*
X114600000Y-104000000D01*
X114624504Y-104001204D01*
X114624504Y-104001204D01*
G37*
D12*
X114000000Y-105000000D03*
D22*
X189000000Y-139160000D03*
X189000000Y-134080000D03*
D23*
X189000000Y-129000000D03*
D13*
X171000000Y-101000000D03*
X171000000Y-98500000D03*
X171000000Y-96000000D03*
X171000000Y-93500000D03*
X171000000Y-91000000D03*
X171000000Y-88500000D03*
D11*
G36*
X171749504Y-85151204D02*
G01*
X171773773Y-85154804D01*
X171797571Y-85160765D01*
X171820671Y-85169030D01*
X171842849Y-85179520D01*
X171863893Y-85192133D01*
X171883598Y-85206747D01*
X171901777Y-85223223D01*
X171918253Y-85241402D01*
X171932867Y-85261107D01*
X171945480Y-85282151D01*
X171955970Y-85304329D01*
X171964235Y-85327429D01*
X171970196Y-85351227D01*
X171973796Y-85375496D01*
X171975000Y-85400000D01*
X171975000Y-86600000D01*
X171973796Y-86624504D01*
X171970196Y-86648773D01*
X171964235Y-86672571D01*
X171955970Y-86695671D01*
X171945480Y-86717849D01*
X171932867Y-86738893D01*
X171918253Y-86758598D01*
X171901777Y-86776777D01*
X171883598Y-86793253D01*
X171863893Y-86807867D01*
X171842849Y-86820480D01*
X171820671Y-86830970D01*
X171797571Y-86839235D01*
X171773773Y-86845196D01*
X171749504Y-86848796D01*
X171725000Y-86850000D01*
X170275000Y-86850000D01*
X170250496Y-86848796D01*
X170226227Y-86845196D01*
X170202429Y-86839235D01*
X170179329Y-86830970D01*
X170157151Y-86820480D01*
X170136107Y-86807867D01*
X170116402Y-86793253D01*
X170098223Y-86776777D01*
X170081747Y-86758598D01*
X170067133Y-86738893D01*
X170054520Y-86717849D01*
X170044030Y-86695671D01*
X170035765Y-86672571D01*
X170029804Y-86648773D01*
X170026204Y-86624504D01*
X170025000Y-86600000D01*
X170025000Y-85400000D01*
X170026204Y-85375496D01*
X170029804Y-85351227D01*
X170035765Y-85327429D01*
X170044030Y-85304329D01*
X170054520Y-85282151D01*
X170067133Y-85261107D01*
X170081747Y-85241402D01*
X170098223Y-85223223D01*
X170116402Y-85206747D01*
X170136107Y-85192133D01*
X170157151Y-85179520D01*
X170179329Y-85169030D01*
X170202429Y-85160765D01*
X170226227Y-85154804D01*
X170250496Y-85151204D01*
X170275000Y-85150000D01*
X171725000Y-85150000D01*
X171749504Y-85151204D01*
X171749504Y-85151204D01*
G37*
D12*
X171000000Y-86000000D03*
D10*
X167500000Y-113000000D03*
X170000000Y-113000000D03*
X172500000Y-113000000D03*
D11*
G36*
X175624504Y-112026204D02*
G01*
X175648773Y-112029804D01*
X175672571Y-112035765D01*
X175695671Y-112044030D01*
X175717849Y-112054520D01*
X175738893Y-112067133D01*
X175758598Y-112081747D01*
X175776777Y-112098223D01*
X175793253Y-112116402D01*
X175807867Y-112136107D01*
X175820480Y-112157151D01*
X175830970Y-112179329D01*
X175839235Y-112202429D01*
X175845196Y-112226227D01*
X175848796Y-112250496D01*
X175850000Y-112275000D01*
X175850000Y-113725000D01*
X175848796Y-113749504D01*
X175845196Y-113773773D01*
X175839235Y-113797571D01*
X175830970Y-113820671D01*
X175820480Y-113842849D01*
X175807867Y-113863893D01*
X175793253Y-113883598D01*
X175776777Y-113901777D01*
X175758598Y-113918253D01*
X175738893Y-113932867D01*
X175717849Y-113945480D01*
X175695671Y-113955970D01*
X175672571Y-113964235D01*
X175648773Y-113970196D01*
X175624504Y-113973796D01*
X175600000Y-113975000D01*
X174400000Y-113975000D01*
X174375496Y-113973796D01*
X174351227Y-113970196D01*
X174327429Y-113964235D01*
X174304329Y-113955970D01*
X174282151Y-113945480D01*
X174261107Y-113932867D01*
X174241402Y-113918253D01*
X174223223Y-113901777D01*
X174206747Y-113883598D01*
X174192133Y-113863893D01*
X174179520Y-113842849D01*
X174169030Y-113820671D01*
X174160765Y-113797571D01*
X174154804Y-113773773D01*
X174151204Y-113749504D01*
X174150000Y-113725000D01*
X174150000Y-112275000D01*
X174151204Y-112250496D01*
X174154804Y-112226227D01*
X174160765Y-112202429D01*
X174169030Y-112179329D01*
X174179520Y-112157151D01*
X174192133Y-112136107D01*
X174206747Y-112116402D01*
X174223223Y-112098223D01*
X174241402Y-112081747D01*
X174261107Y-112067133D01*
X174282151Y-112054520D01*
X174304329Y-112044030D01*
X174327429Y-112035765D01*
X174351227Y-112029804D01*
X174375496Y-112026204D01*
X174400000Y-112025000D01*
X175600000Y-112025000D01*
X175624504Y-112026204D01*
X175624504Y-112026204D01*
G37*
D12*
X175000000Y-113000000D03*
D10*
X116500000Y-124000000D03*
X114000000Y-124000000D03*
X111500000Y-124000000D03*
D11*
G36*
X109624504Y-123026204D02*
G01*
X109648773Y-123029804D01*
X109672571Y-123035765D01*
X109695671Y-123044030D01*
X109717849Y-123054520D01*
X109738893Y-123067133D01*
X109758598Y-123081747D01*
X109776777Y-123098223D01*
X109793253Y-123116402D01*
X109807867Y-123136107D01*
X109820480Y-123157151D01*
X109830970Y-123179329D01*
X109839235Y-123202429D01*
X109845196Y-123226227D01*
X109848796Y-123250496D01*
X109850000Y-123275000D01*
X109850000Y-124725000D01*
X109848796Y-124749504D01*
X109845196Y-124773773D01*
X109839235Y-124797571D01*
X109830970Y-124820671D01*
X109820480Y-124842849D01*
X109807867Y-124863893D01*
X109793253Y-124883598D01*
X109776777Y-124901777D01*
X109758598Y-124918253D01*
X109738893Y-124932867D01*
X109717849Y-124945480D01*
X109695671Y-124955970D01*
X109672571Y-124964235D01*
X109648773Y-124970196D01*
X109624504Y-124973796D01*
X109600000Y-124975000D01*
X108400000Y-124975000D01*
X108375496Y-124973796D01*
X108351227Y-124970196D01*
X108327429Y-124964235D01*
X108304329Y-124955970D01*
X108282151Y-124945480D01*
X108261107Y-124932867D01*
X108241402Y-124918253D01*
X108223223Y-124901777D01*
X108206747Y-124883598D01*
X108192133Y-124863893D01*
X108179520Y-124842849D01*
X108169030Y-124820671D01*
X108160765Y-124797571D01*
X108154804Y-124773773D01*
X108151204Y-124749504D01*
X108150000Y-124725000D01*
X108150000Y-123275000D01*
X108151204Y-123250496D01*
X108154804Y-123226227D01*
X108160765Y-123202429D01*
X108169030Y-123179329D01*
X108179520Y-123157151D01*
X108192133Y-123136107D01*
X108206747Y-123116402D01*
X108223223Y-123098223D01*
X108241402Y-123081747D01*
X108261107Y-123067133D01*
X108282151Y-123054520D01*
X108304329Y-123044030D01*
X108327429Y-123035765D01*
X108351227Y-123029804D01*
X108375496Y-123026204D01*
X108400000Y-123025000D01*
X109600000Y-123025000D01*
X109624504Y-123026204D01*
X109624504Y-123026204D01*
G37*
D12*
X109000000Y-124000000D03*
D10*
X109000000Y-96000000D03*
X111500000Y-96000000D03*
X114000000Y-96000000D03*
X116500000Y-96000000D03*
X119000000Y-96000000D03*
X121500000Y-96000000D03*
D11*
G36*
X124624504Y-95026204D02*
G01*
X124648773Y-95029804D01*
X124672571Y-95035765D01*
X124695671Y-95044030D01*
X124717849Y-95054520D01*
X124738893Y-95067133D01*
X124758598Y-95081747D01*
X124776777Y-95098223D01*
X124793253Y-95116402D01*
X124807867Y-95136107D01*
X124820480Y-95157151D01*
X124830970Y-95179329D01*
X124839235Y-95202429D01*
X124845196Y-95226227D01*
X124848796Y-95250496D01*
X124850000Y-95275000D01*
X124850000Y-96725000D01*
X124848796Y-96749504D01*
X124845196Y-96773773D01*
X124839235Y-96797571D01*
X124830970Y-96820671D01*
X124820480Y-96842849D01*
X124807867Y-96863893D01*
X124793253Y-96883598D01*
X124776777Y-96901777D01*
X124758598Y-96918253D01*
X124738893Y-96932867D01*
X124717849Y-96945480D01*
X124695671Y-96955970D01*
X124672571Y-96964235D01*
X124648773Y-96970196D01*
X124624504Y-96973796D01*
X124600000Y-96975000D01*
X123400000Y-96975000D01*
X123375496Y-96973796D01*
X123351227Y-96970196D01*
X123327429Y-96964235D01*
X123304329Y-96955970D01*
X123282151Y-96945480D01*
X123261107Y-96932867D01*
X123241402Y-96918253D01*
X123223223Y-96901777D01*
X123206747Y-96883598D01*
X123192133Y-96863893D01*
X123179520Y-96842849D01*
X123169030Y-96820671D01*
X123160765Y-96797571D01*
X123154804Y-96773773D01*
X123151204Y-96749504D01*
X123150000Y-96725000D01*
X123150000Y-95275000D01*
X123151204Y-95250496D01*
X123154804Y-95226227D01*
X123160765Y-95202429D01*
X123169030Y-95179329D01*
X123179520Y-95157151D01*
X123192133Y-95136107D01*
X123206747Y-95116402D01*
X123223223Y-95098223D01*
X123241402Y-95081747D01*
X123261107Y-95067133D01*
X123282151Y-95054520D01*
X123304329Y-95044030D01*
X123327429Y-95035765D01*
X123351227Y-95029804D01*
X123375496Y-95026204D01*
X123400000Y-95025000D01*
X124600000Y-95025000D01*
X124624504Y-95026204D01*
X124624504Y-95026204D01*
G37*
D12*
X124000000Y-96000000D03*
D13*
X143000000Y-73000000D03*
X143000000Y-70500000D03*
X143000000Y-68000000D03*
X143000000Y-65500000D03*
D11*
G36*
X143749504Y-62151204D02*
G01*
X143773773Y-62154804D01*
X143797571Y-62160765D01*
X143820671Y-62169030D01*
X143842849Y-62179520D01*
X143863893Y-62192133D01*
X143883598Y-62206747D01*
X143901777Y-62223223D01*
X143918253Y-62241402D01*
X143932867Y-62261107D01*
X143945480Y-62282151D01*
X143955970Y-62304329D01*
X143964235Y-62327429D01*
X143970196Y-62351227D01*
X143973796Y-62375496D01*
X143975000Y-62400000D01*
X143975000Y-63600000D01*
X143973796Y-63624504D01*
X143970196Y-63648773D01*
X143964235Y-63672571D01*
X143955970Y-63695671D01*
X143945480Y-63717849D01*
X143932867Y-63738893D01*
X143918253Y-63758598D01*
X143901777Y-63776777D01*
X143883598Y-63793253D01*
X143863893Y-63807867D01*
X143842849Y-63820480D01*
X143820671Y-63830970D01*
X143797571Y-63839235D01*
X143773773Y-63845196D01*
X143749504Y-63848796D01*
X143725000Y-63850000D01*
X142275000Y-63850000D01*
X142250496Y-63848796D01*
X142226227Y-63845196D01*
X142202429Y-63839235D01*
X142179329Y-63830970D01*
X142157151Y-63820480D01*
X142136107Y-63807867D01*
X142116402Y-63793253D01*
X142098223Y-63776777D01*
X142081747Y-63758598D01*
X142067133Y-63738893D01*
X142054520Y-63717849D01*
X142044030Y-63695671D01*
X142035765Y-63672571D01*
X142029804Y-63648773D01*
X142026204Y-63624504D01*
X142025000Y-63600000D01*
X142025000Y-62400000D01*
X142026204Y-62375496D01*
X142029804Y-62351227D01*
X142035765Y-62327429D01*
X142044030Y-62304329D01*
X142054520Y-62282151D01*
X142067133Y-62261107D01*
X142081747Y-62241402D01*
X142098223Y-62223223D01*
X142116402Y-62206747D01*
X142136107Y-62192133D01*
X142157151Y-62179520D01*
X142179329Y-62169030D01*
X142202429Y-62160765D01*
X142226227Y-62154804D01*
X142250496Y-62151204D01*
X142275000Y-62150000D01*
X143725000Y-62150000D01*
X143749504Y-62151204D01*
X143749504Y-62151204D01*
G37*
D12*
X143000000Y-63000000D03*
D24*
X176000000Y-89000000D03*
X171000000Y-127000000D03*
X111000000Y-88000000D03*
X128000000Y-135000000D03*
X172000000Y-59000000D03*
X168000000Y-127000000D03*
X169000000Y-59000000D03*
X166000000Y-59000000D03*
X124000000Y-129000000D03*
X135000000Y-129000000D03*
X151000000Y-136000000D03*
X154000000Y-109000000D03*
X162000000Y-122000000D03*
X168000000Y-66000000D03*
X152000000Y-104000000D03*
X181000000Y-117000000D03*
X171000000Y-77000000D03*
X176000000Y-86000000D03*
X176000000Y-82000000D03*
D25*
X120000000Y-63500000D02*
X125500000Y-63500000D01*
X125500000Y-63500000D02*
X128000000Y-66000000D01*
X128000000Y-77780000D02*
X131300000Y-81080000D01*
X128000000Y-66000000D02*
X128000000Y-77780000D01*
X134000000Y-68000000D02*
X143000000Y-68000000D01*
X143000000Y-68000000D02*
X151000000Y-68000000D01*
X151000000Y-68000000D02*
X160000000Y-68000000D01*
X116000000Y-81000000D02*
X120000000Y-81000000D01*
X120000000Y-76000000D02*
X116000000Y-76000000D01*
X116000000Y-66000000D02*
X116000000Y-76000000D01*
X116000000Y-76000000D02*
X116000000Y-81000000D01*
X120000000Y-71000000D02*
X116000000Y-71000000D01*
X114000000Y-83000000D02*
X116000000Y-81000000D01*
X114000000Y-96000000D02*
X114000000Y-83000000D01*
X114000000Y-96000000D02*
X114000000Y-105000000D01*
X114000000Y-115000000D02*
X114000000Y-105000000D01*
X114000000Y-124000000D02*
X114000000Y-115000000D01*
X170000000Y-113000000D02*
X172500000Y-113000000D01*
X173000000Y-113500000D02*
X172500000Y-113000000D01*
X173000000Y-121000000D02*
X173000000Y-113500000D01*
X139380000Y-129000000D02*
X139380000Y-128010051D01*
X131300000Y-119180000D02*
X135820000Y-119180000D01*
X139380000Y-122740000D02*
X139380000Y-129000000D01*
X135820000Y-119180000D02*
X139380000Y-122740000D01*
X139380000Y-129989949D02*
X139380000Y-133000000D01*
X139380000Y-129000000D02*
X139380000Y-129989949D01*
X168000000Y-91000000D02*
X171000000Y-91000000D01*
X165000000Y-88000000D02*
X168000000Y-91000000D01*
X165000000Y-69000000D02*
X165000000Y-88000000D01*
X160000000Y-68000000D02*
X164000000Y-68000000D01*
X164000000Y-68000000D02*
X165000000Y-69000000D01*
X176000000Y-91000000D02*
X171000000Y-91000000D01*
X178000000Y-89000000D02*
X176000000Y-91000000D01*
X178000000Y-71000000D02*
X178000000Y-89000000D01*
X189000000Y-66000000D02*
X183000000Y-66000000D01*
X183000000Y-66000000D02*
X178000000Y-71000000D01*
X173000000Y-119775000D02*
X179775000Y-113000000D01*
X173000000Y-121000000D02*
X173000000Y-119775000D01*
X179775000Y-94775000D02*
X176000000Y-91000000D01*
X179775000Y-113000000D02*
X179775000Y-94775000D01*
X134000000Y-68000000D02*
X132775000Y-68000000D01*
X132775000Y-68000000D02*
X130636410Y-68000000D01*
X130636410Y-68000000D02*
X130636410Y-64636410D01*
X130636410Y-64636410D02*
X126000000Y-60000000D01*
X126000000Y-60000000D02*
X116000000Y-60000000D01*
X116000000Y-60000000D02*
X116000000Y-66000000D01*
X116000000Y-66000000D02*
X120000000Y-66000000D01*
X139380000Y-129000000D02*
X135000000Y-129000000D01*
X114000000Y-124000000D02*
X114000000Y-128000000D01*
X123000000Y-128000000D02*
X124000000Y-129000000D01*
X114000000Y-128000000D02*
X123000000Y-128000000D01*
X120000000Y-68500000D02*
X125500000Y-68500000D01*
X125500000Y-68500000D02*
X126000000Y-69000000D01*
X131300000Y-83620000D02*
X126000000Y-78320000D01*
X126000000Y-78320000D02*
X126000000Y-69000000D01*
X120000000Y-73500000D02*
X123500000Y-73500000D01*
X123500000Y-73500000D02*
X124000000Y-74000000D01*
X124000000Y-78860000D02*
X124000000Y-74000000D01*
X131300000Y-86160000D02*
X124000000Y-78860000D01*
X121500000Y-78500000D02*
X120000000Y-78500000D01*
X123000000Y-80000000D02*
X121500000Y-78500000D01*
X123000000Y-82876002D02*
X123000000Y-80000000D01*
X128061999Y-87938001D02*
X123000000Y-82876002D01*
X131300000Y-88700000D02*
X130538001Y-87938001D01*
X130538001Y-87938001D02*
X128061999Y-87938001D01*
X134000000Y-73000000D02*
X160000000Y-73000000D01*
X151700000Y-88700000D02*
X156700000Y-88700000D01*
X151000000Y-73000000D02*
X151000000Y-88000000D01*
X151000000Y-88000000D02*
X151700000Y-88700000D01*
X160000000Y-70500000D02*
X151000000Y-70500000D01*
X134000000Y-70500000D02*
X151000000Y-70500000D01*
X153080000Y-81080000D02*
X156700000Y-81080000D01*
X153000000Y-81000000D02*
X153080000Y-81080000D01*
X153000000Y-76000000D02*
X153000000Y-81000000D01*
X162500000Y-70500000D02*
X163000000Y-71000000D01*
X160000000Y-70500000D02*
X162500000Y-70500000D01*
X163000000Y-71000000D02*
X163000000Y-77000000D01*
X163000000Y-77000000D02*
X160000000Y-77000000D01*
X160000000Y-77000000D02*
X159000000Y-76000000D01*
X159000000Y-76000000D02*
X153000000Y-76000000D01*
X134000000Y-65500000D02*
X143000000Y-65500000D01*
X143000000Y-65500000D02*
X151000000Y-65500000D01*
X151000000Y-65500000D02*
X160000000Y-65500000D01*
X175460000Y-65000000D02*
X175460000Y-63460000D01*
X175460000Y-63460000D02*
X175000000Y-63000000D01*
X160125000Y-65500000D02*
X160000000Y-65500000D01*
X162625000Y-63000000D02*
X160125000Y-65500000D01*
X175000000Y-63000000D02*
X162625000Y-63000000D01*
X111500000Y-96000000D02*
X111500000Y-115000000D01*
X111500000Y-124000000D02*
X111500000Y-115000000D01*
X168500000Y-88500000D02*
X171000000Y-88500000D01*
X167000000Y-87000000D02*
X168500000Y-88500000D01*
X167000000Y-81000000D02*
X167000000Y-87000000D01*
X175460000Y-65000000D02*
X175460000Y-72540000D01*
X175460000Y-72540000D02*
X172000000Y-76000000D01*
X111500000Y-88500000D02*
X111000000Y-88000000D01*
X111500000Y-96000000D02*
X111500000Y-88500000D01*
X172000000Y-76000000D02*
X171000000Y-77000000D01*
X171000000Y-77000000D02*
X168000000Y-80000000D01*
X168000000Y-80000000D02*
X167000000Y-81000000D01*
X170500001Y-126500001D02*
X171000000Y-127000000D01*
X170500000Y-121000000D02*
X170500001Y-126500001D01*
X175500001Y-88500001D02*
X176000000Y-89000000D01*
X171000000Y-88500000D02*
X175500001Y-88500001D01*
X162000000Y-61000000D02*
X160000000Y-63000000D01*
X175460000Y-61000000D02*
X162000000Y-61000000D01*
X160000000Y-63000000D02*
X151000000Y-63000000D01*
X143000000Y-63000000D02*
X151000000Y-63000000D01*
X134000000Y-63000000D02*
X143000000Y-63000000D01*
X109000000Y-124000000D02*
X109000000Y-115000000D01*
X109000000Y-96000000D02*
X109000000Y-115000000D01*
X109000000Y-124000000D02*
X109000000Y-131000000D01*
X109000000Y-131000000D02*
X128000000Y-131000000D01*
X131300000Y-127700000D02*
X131300000Y-121720000D01*
X128000000Y-131000000D02*
X131300000Y-127700000D01*
X164000000Y-59000000D02*
X166000000Y-59000000D01*
X160000000Y-63000000D02*
X164000000Y-59000000D01*
X169000000Y-59000000D02*
X166000000Y-59000000D01*
X168000000Y-124000000D02*
X168000000Y-121000000D01*
X172000000Y-59000000D02*
X169000000Y-59000000D01*
X128000000Y-135000000D02*
X128000000Y-131000000D01*
X168000000Y-121000000D02*
X168000000Y-127000000D01*
X171000000Y-86000000D02*
X176000000Y-86000000D01*
X176000000Y-86000000D02*
X176000000Y-82000000D01*
X131300000Y-93780000D02*
X129780000Y-93780000D01*
X129780000Y-93780000D02*
X127000000Y-91000000D01*
X127000000Y-91000000D02*
X117000000Y-91000000D01*
X116500000Y-91500000D02*
X116500000Y-96000000D01*
X117000000Y-91000000D02*
X116500000Y-91500000D01*
X130538001Y-95558001D02*
X131300000Y-96320000D01*
X129558001Y-95558001D02*
X130538001Y-95558001D01*
X127000000Y-93000000D02*
X129558001Y-95558001D01*
X119000000Y-96000000D02*
X119000000Y-93000000D01*
X119000000Y-93000000D02*
X127000000Y-93000000D01*
X131300000Y-98860000D02*
X126440000Y-94000000D01*
X126440000Y-94000000D02*
X122000000Y-94000000D01*
X121500000Y-94500000D02*
X121500000Y-96000000D01*
X122000000Y-94000000D02*
X121500000Y-94500000D01*
X125900000Y-96000000D02*
X131300000Y-101400000D01*
X124000000Y-96000000D02*
X125900000Y-96000000D01*
X116500000Y-124000000D02*
X122000000Y-124000000D01*
X122000000Y-124000000D02*
X129000000Y-117000000D01*
X129000000Y-111320000D02*
X131300000Y-109020000D01*
X129000000Y-117000000D02*
X129000000Y-111320000D01*
X159860000Y-98860000D02*
X156700000Y-98860000D01*
X166000000Y-105000000D02*
X159860000Y-98860000D01*
X173000000Y-105000000D02*
X166000000Y-105000000D01*
X175000000Y-113000000D02*
X175000000Y-107000000D01*
X175000000Y-107000000D02*
X173000000Y-105000000D01*
X171000000Y-101000000D02*
X166000000Y-101000000D01*
X161320000Y-96320000D02*
X156700000Y-96320000D01*
X166000000Y-101000000D02*
X161320000Y-96320000D01*
X156700000Y-93780000D02*
X161780000Y-93780000D01*
X166500000Y-98500000D02*
X171000000Y-98500000D01*
X161780000Y-93780000D02*
X166500000Y-98500000D01*
X157461999Y-92001999D02*
X163998001Y-92001999D01*
X156700000Y-91240000D02*
X157461999Y-92001999D01*
X167996002Y-96000000D02*
X171000000Y-96000000D01*
X163998001Y-92001999D02*
X167996002Y-96000000D01*
X171000000Y-93500000D02*
X168500000Y-93500000D01*
X168500000Y-93500000D02*
X162000000Y-87000000D01*
X162000000Y-83840000D02*
X156700000Y-78540000D01*
X162000000Y-87000000D02*
X162000000Y-83840000D01*
X177000000Y-121000000D02*
X181000000Y-117000000D01*
X175500000Y-121000000D02*
X177000000Y-121000000D01*
X152060000Y-103940000D02*
X152000000Y-104000000D01*
X156700000Y-103940000D02*
X152060000Y-103940000D01*
D26*
X189000000Y-134080000D02*
X194920000Y-134080000D01*
D25*
X194920000Y-134080000D02*
X195000000Y-134000000D01*
D26*
X195000000Y-101600000D02*
X189000000Y-95600000D01*
X195000000Y-134000000D02*
X195000000Y-101600000D01*
X189000000Y-95600000D02*
X189000000Y-75280000D01*
D25*
X189000000Y-129000000D02*
X159000000Y-129000000D01*
D26*
X189000000Y-100680000D02*
X189000000Y-129000000D01*
D25*
X116500000Y-105000000D02*
X123000000Y-105000000D01*
X124060000Y-103940000D02*
X123000000Y-105000000D01*
X131300000Y-103940000D02*
X124060000Y-103940000D01*
X122780000Y-115000000D02*
X131300000Y-106480000D01*
X116500000Y-115000000D02*
X122780000Y-115000000D01*
X151380000Y-129000000D02*
X147000000Y-129000000D01*
X151380000Y-128010051D02*
X152000000Y-127390051D01*
X151380000Y-129000000D02*
X151380000Y-128010051D01*
X152000000Y-127390051D02*
X152000000Y-107000000D01*
X152520000Y-106480000D02*
X156700000Y-106480000D01*
X152000000Y-107000000D02*
X152520000Y-106480000D01*
X147000000Y-133000000D02*
X151380000Y-133000000D01*
X154020000Y-109020000D02*
X154000000Y-109000000D01*
X156700000Y-109020000D02*
X154020000Y-109020000D01*
X151380000Y-135620000D02*
X151000000Y-136000000D01*
X151380000Y-133000000D02*
X151380000Y-135620000D01*
X167500000Y-113000000D02*
X167500000Y-110500000D01*
X158400000Y-101400000D02*
X156700000Y-101400000D01*
X167500000Y-110500000D02*
X158400000Y-101400000D01*
X189000000Y-61000000D02*
X178000000Y-61000000D01*
X169000000Y-65000000D02*
X168000000Y-66000000D01*
X172920000Y-65000000D02*
X169000000Y-65000000D01*
X161720000Y-121720000D02*
X162000000Y-122000000D01*
X156700000Y-121720000D02*
X161720000Y-121720000D01*
X178000000Y-63900000D02*
X178000000Y-65000000D01*
X178400000Y-63500000D02*
X178000000Y-63900000D01*
X189000000Y-63500000D02*
X178400000Y-63500000D01*
X172160000Y-139160000D02*
X189000000Y-139160000D01*
X159000000Y-133000000D02*
X166000000Y-133000000D01*
X166000000Y-133000000D02*
X172160000Y-139160000D01*
M02*
