M48
; DRILL file {KiCad (5.1.2)-2} date 01.01.2023 21:32:12
; FORMAT={-:-/ absolute / metric / decimal}
; #@! TF.CreationDate,2023-01-01T21:32:12+01:00
; #@! TF.GenerationSoftware,Kicad,Pcbnew,(5.1.2)-2
FMAT,2
METRIC
T1C0.600
T2C0.700
T3C0.762
T4C0.950
T5C1.000
T6C1.100
T7C1.520
%
G90
G05
T1
X111.0Y-88.0
X124.0Y-129.0
X128.0Y-135.0
X135.0Y-129.0
X151.0Y-136.0
X152.0Y-104.0
X154.0Y-109.0
X162.0Y-122.0
X166.0Y-59.0
X168.0Y-66.0
X168.0Y-127.0
X169.0Y-59.0
X171.0Y-77.0
X171.0Y-127.0
X172.0Y-59.0
X176.0Y-82.0
X176.0Y-86.0
X176.0Y-89.0
X181.0Y-117.0
T2
X139.38Y-133.0
X147.0Y-133.0
X151.38Y-129.0
X159.0Y-129.0
X139.38Y-129.0
X147.0Y-129.0
X151.38Y-133.0
X159.0Y-133.0
T3
X131.3Y-78.54
X131.3Y-81.08
X131.3Y-83.62
X131.3Y-86.16
X131.3Y-88.7
X131.3Y-91.24
X131.3Y-93.78
X131.3Y-96.32
X131.3Y-98.86
X131.3Y-101.4
X131.3Y-103.94
X131.3Y-106.48
X131.3Y-109.02
X131.3Y-111.56
X131.3Y-114.1
X131.3Y-116.64
X131.3Y-119.18
X131.3Y-121.72
X156.7Y-78.54
X156.7Y-81.08
X156.7Y-83.62
X156.7Y-86.16
X156.7Y-88.7
X156.7Y-91.24
X156.7Y-93.78
X156.7Y-96.32
X156.7Y-98.86
X156.7Y-101.4
X156.7Y-103.94
X156.7Y-106.48
X156.7Y-109.02
X156.7Y-111.56
X156.7Y-114.1
X156.7Y-116.64
X156.7Y-119.18
X156.7Y-121.72
T4
X189.0Y-61.0
X189.0Y-63.5
X189.0Y-66.0
X167.5Y-113.0
X170.0Y-113.0
X172.5Y-113.0
X175.0Y-113.0
X109.0Y-96.0
X111.5Y-96.0
X114.0Y-96.0
X116.5Y-96.0
X119.0Y-96.0
X121.5Y-96.0
X124.0Y-96.0
X168.0Y-121.0
X170.5Y-121.0
X173.0Y-121.0
X175.5Y-121.0
X171.0Y-86.0
X171.0Y-88.5
X171.0Y-91.0
X171.0Y-93.5
X171.0Y-96.0
X171.0Y-98.5
X171.0Y-101.0
X143.0Y-63.0
X143.0Y-65.5
X143.0Y-68.0
X143.0Y-70.5
X143.0Y-73.0
X109.0Y-115.0
X111.5Y-115.0
X114.0Y-115.0
X116.5Y-115.0
X151.0Y-63.0
X151.0Y-65.5
X151.0Y-68.0
X151.0Y-70.5
X151.0Y-73.0
X120.0Y-63.5
X120.0Y-66.0
X120.0Y-68.5
X120.0Y-71.0
X120.0Y-73.5
X120.0Y-76.0
X120.0Y-78.5
X120.0Y-81.0
X109.0Y-124.0
X111.5Y-124.0
X114.0Y-124.0
X116.5Y-124.0
X134.0Y-63.0
X134.0Y-65.5
X134.0Y-68.0
X134.0Y-70.5
X134.0Y-73.0
X160.0Y-63.0
X160.0Y-65.5
X160.0Y-68.0
X160.0Y-70.5
X160.0Y-73.0
T5
X175.46Y-61.0
X178.0Y-61.0
X172.92Y-65.0
X175.46Y-65.0
X178.0Y-65.0
X114.0Y-105.0
X116.5Y-105.0
T6
X189.0Y-75.28
X189.0Y-80.36
X189.0Y-85.44
X189.0Y-90.52
X189.0Y-95.6
X189.0Y-100.68
X189.0Y-105.76
X189.0Y-110.84
X189.0Y-115.92
X189.0Y-121.0
T7
X189.0Y-129.0
X189.0Y-134.08
X189.0Y-139.16
T0
M30
